<?xml version="1.0" encoding="UTF-8" standalone="no"?>
<!DOCTYPE svg PUBLIC "-//W3C//DTD SVG 1.1//EN" "http://www.w3.org/Graphics/SVG/1.1/DTD/svg11.dtd">
<svg width="100%" height="100%" viewBox="0 0 1235 386" version="1.1" xmlns="http://www.w3.org/2000/svg" xmlns:xlink="http://www.w3.org/1999/xlink" xml:space="preserve" xmlns:serif="http://www.serif.com/" style="fill-rule:evenodd;clip-rule:evenodd;stroke-linejoin:round;stroke-miterlimit:2;">
    <g transform="matrix(4.166667,0,0,4.166667,332.741705,73.25)">
        <path d="M0,57.273C-0.648,62.085 -3.886,66.248 -8.42,68.099C-10.64,69.024 -13.046,69.302 -15.452,69.024C-17.765,68.746 -20.078,68.006 -22.484,66.618C-25.815,64.768 -29.145,61.899 -33.032,57.643C-26.925,50.148 -23.224,43.302 -21.836,37.195C-21.188,34.327 -21.096,31.736 -21.373,29.33C-21.744,27.017 -22.577,24.889 -23.872,23.039C-26.74,18.875 -31.551,16.469 -36.918,16.469C-42.284,16.469 -47.096,18.968 -49.964,23.039C-51.259,24.889 -52.092,27.017 -52.462,29.33C-52.832,31.736 -52.74,34.419 -52,37.195C-50.612,43.302 -46.818,50.241 -40.804,57.736C-44.597,61.992 -48.021,64.861 -51.352,66.711C-53.758,68.099 -56.071,68.839 -58.384,69.117C-60.882,69.394 -63.288,69.024 -65.416,68.191C-69.95,66.341 -73.188,62.177 -73.836,57.366C-74.114,55.052 -73.928,52.739 -73.003,50.148C-72.725,49.224 -72.263,48.298 -71.8,47.188C-71.152,45.708 -70.412,44.134 -69.672,42.562L-69.58,42.376C-63.195,28.591 -56.348,14.526 -49.224,0.832L-48.946,0.277C-48.206,-1.111 -47.466,-2.591 -46.725,-3.979C-45.986,-5.46 -45.153,-6.847 -44.135,-8.05C-42.192,-10.27 -39.601,-11.474 -36.733,-11.474C-33.864,-11.474 -31.273,-10.27 -29.33,-8.05C-28.313,-6.847 -27.48,-5.46 -26.74,-3.979C-26,-2.591 -25.259,-1.111 -24.519,0.277L-24.242,0.832C-17.21,14.619 -10.363,28.682 -3.979,42.469L-3.979,42.562C-3.239,44.042 -2.591,45.708 -1.85,47.188C-1.388,48.298 -0.925,49.224 -0.648,50.148C0.093,52.554 0.37,54.867 0,57.273M-36.918,52.924C-41.915,46.633 -45.153,40.711 -46.263,35.715C-46.726,33.586 -46.819,31.736 -46.541,30.071C-46.356,28.591 -45.801,27.295 -45.06,26.185C-43.302,23.686 -40.342,22.114 -36.918,22.114C-33.495,22.114 -30.441,23.594 -28.776,26.185C-28.035,27.295 -27.48,28.591 -27.295,30.071C-27.018,31.736 -27.11,33.679 -27.573,35.715C-28.683,40.619 -31.921,46.54 -36.918,52.924M4.812,48.113C4.349,47.003 3.886,45.8 3.423,44.782C2.683,43.117 1.943,41.543 1.295,40.063L1.202,39.971C-5.182,26.092 -12.029,12.028 -19.245,-1.851L-19.523,-2.406C-20.263,-3.794 -21.004,-5.274 -21.744,-6.755C-22.669,-8.42 -23.594,-10.178 -25.075,-11.844C-28.035,-15.545 -32.292,-17.58 -36.825,-17.58C-41.452,-17.58 -45.615,-15.545 -48.669,-12.029C-50.057,-10.363 -51.075,-8.605 -52,-6.94C-52.74,-5.46 -53.481,-3.979 -54.22,-2.591L-54.498,-2.036C-61.623,11.843 -68.562,25.907 -74.947,39.786L-75.039,39.971C-75.686,41.452 -76.427,43.024 -77.167,44.69C-77.629,45.707 -78.092,46.818 -78.555,48.02C-79.758,51.444 -80.128,54.682 -79.665,58.013C-78.647,64.953 -74.021,70.782 -67.637,73.373C-65.231,74.39 -62.733,74.853 -60.143,74.853C-59.402,74.853 -58.477,74.761 -57.737,74.668C-54.683,74.298 -51.538,73.28 -48.484,71.522C-44.691,69.394 -41.082,66.341 -37.011,61.899C-32.939,66.341 -29.239,69.394 -25.537,71.522C-22.484,73.28 -19.338,74.298 -16.285,74.668C-15.544,74.761 -14.619,74.853 -13.879,74.853C-11.288,74.853 -8.697,74.39 -6.384,73.373C0.093,70.782 4.627,64.861 5.644,58.013C6.384,54.775 6.014,51.537 4.812,48.113M97.06,15.544C99.743,15.544 101.132,16.006 101.132,16.006L101.132,24.242C101.132,24.242 93.729,21.744 89.103,27.017L89.103,51.351L80.22,51.351L80.22,16.469L87.715,16.469C88.455,16.469 89.01,17.117 89.01,17.765L89.01,19.245C90.676,17.302 94.284,15.544 97.06,15.544M121.117,43.764C117.694,43.764 115.01,42.006 113.622,39.971L113.622,27.572C115.01,25.722 117.971,23.779 121.117,23.779C127.039,23.779 131.573,27.48 131.573,33.771C131.573,40.063 127.039,43.764 121.117,43.764M122.598,15.544C116.49,15.544 113.622,19.245 113.622,19.245L113.622,-0.278L104.74,-0.278L104.74,51.259L112.235,51.259C112.974,51.259 113.53,50.611 113.53,49.964L113.53,48.39C113.53,48.39 116.398,52.185 122.505,52.185C132.59,52.185 140.455,44.412 140.455,33.864C140.547,23.316 132.683,15.544 122.598,15.544M175.985,30.626L175.985,51.351L167.102,51.351L167.102,31.643C167.102,25.907 165.252,23.594 160.255,23.594C157.573,23.594 154.797,24.981 153.039,27.017L153.039,51.259L144.156,51.259L144.156,16.469L151.188,16.469C151.928,16.469 152.483,17.117 152.483,17.765L152.483,19.245C155.074,16.562 158.497,15.544 161.921,15.544C165.807,15.544 169.045,16.654 171.636,18.875C174.782,21.466 175.985,24.796 175.985,30.626M196.989,43.764C193.565,43.764 190.881,42.006 189.494,39.971L189.494,27.572C190.881,25.722 193.843,23.779 196.989,23.779C202.91,23.779 207.444,27.48 207.444,33.771C207.444,40.063 202.91,43.764 196.989,43.764M198.469,15.544C192.362,15.544 189.494,19.245 189.494,19.245L189.494,-0.278L180.611,-0.278L180.611,51.259L188.106,51.259C188.846,51.259 189.401,50.611 189.401,49.964L189.401,48.39C189.401,48.39 192.27,52.185 198.376,52.185C208.462,52.185 216.327,44.412 216.327,33.864C216.327,23.316 208.462,15.544 198.469,15.544M65.786,16.469L74.669,16.469L74.669,51.259L65.786,51.259L65.786,16.469ZM51.444,40.063C50.057,42.099 47.281,43.857 43.95,43.857C38.028,43.857 33.495,40.156 33.495,33.864C33.495,27.572 38.028,23.872 43.95,23.872C47.188,23.872 50.149,25.722 51.444,27.665L51.444,40.063ZM51.444,17.765L51.444,19.245C51.444,19.245 48.577,15.544 42.47,15.544C32.384,15.544 24.52,23.224 24.52,33.864C24.52,44.412 32.292,52.185 42.47,52.185C48.669,52.185 51.444,48.39 51.444,48.39L51.444,49.964C51.444,50.704 52,51.259 52.74,51.259L60.234,51.259L60.234,16.469L52.74,16.469C52,16.469 51.444,17.117 51.444,17.765M76.242,5.644C76.242,8.975 73.558,11.658 70.228,11.658C66.896,11.658 64.213,8.975 64.213,5.644C64.213,2.313 66.804,-0.37 70.228,-0.37C73.651,-0.278 76.242,2.406 76.242,5.644" style="fill:rgb(30,28,26);"/>
    </g>
</svg>
