<?xml version="1.0" encoding="UTF-8" standalone="no"?>
<!DOCTYPE svg PUBLIC "-//W3C//DTD SVG 1.1//EN" "http://www.w3.org/Graphics/SVG/1.1/DTD/svg11.dtd">
<svg width="100%" height="100%" viewBox="0 0 879 337" version="1.1" xmlns="http://www.w3.org/2000/svg" xmlns:xlink="http://www.w3.org/1999/xlink" xml:space="preserve" xmlns:serif="http://www.serif.com/" style="fill-rule:evenodd;clip-rule:evenodd;stroke-linejoin:round;stroke-miterlimit:2;">
    <g transform="matrix(4.166667,0,0,4.166667,746.124167,257.438333)">
        <path d="M0,-42.436L-9.307,-42.436L-9.307,-0.003L0,-0.003C14.2,-0.003 22.116,-8.398 22.116,-21.219C22.116,-34.137 14.335,-42.436 0,-42.436M0.624,8.85L-14.183,8.85C-16.891,8.85 -19.058,6.809 -19.058,3.974L-19.058,-46.501C-19.058,-49.21 -16.891,-51.286 -14.183,-51.286L0.624,-51.286C20.695,-51.286 31.78,-37.832 31.78,-21.219C31.78,-4.603 20.575,8.85 0.624,8.85M-47.236,-18.51L-65.018,-18.51L-65.018,-0.087L-47.236,-0.087C-40.114,-0.087 -36.846,-4.694 -36.846,-9.298C-36.846,-13.904 -40.07,-18.51 -47.236,-18.51M-49.447,-42.436L-65.015,-42.436L-65.018,-27.267L-49.447,-27.267C-43.271,-27.267 -40.363,-30.699 -40.363,-34.854C-40.363,-39.095 -43.092,-42.436 -49.447,-42.436M-47.588,8.85L-69.894,8.85C-72.603,8.85 -74.679,6.683 -74.679,3.974L-74.679,-46.501C-74.679,-49.21 -72.603,-51.286 -69.894,-51.286L-49.034,-51.286C-37.566,-51.286 -30.705,-44.615 -30.705,-35.947C-30.705,-27.182 -36.061,-24.06 -37.927,-23.386C-35.033,-22.654 -27.182,-19.333 -27.182,-8.372C-27.182,1.019 -34.758,8.85 -47.588,8.85" style="fill:rgb(30,28,26);fill-rule:nonzero;"/>
    </g>
    <g transform="matrix(4.166667,0,0,4.166667,222.991667,69.6375)">
        <path d="M0,12.665C0.067,12.665 0.132,12.653 0.205,12.636C0.375,12.592 23.65,6.837 23.65,6.837C20.441,-0.138 15.304,-6.045 8.923,-10.198C8.923,-10.198 -0.129,12.129 -0.176,12.24C-0.214,12.334 -0.223,12.393 -0.223,12.44C-0.223,12.568 -0.123,12.665 0,12.665M-8.46,7.133C-8.425,7.323 -8.314,7.385 -8.214,7.385C-8.112,7.385 -8.033,7.321 -7.924,7.203C-7.383,6.635 8.671,-10.359 8.671,-10.359C2.428,-14.356 -4.99,-16.684 -12.947,-16.713C-12.947,-16.713 -8.671,6.02 -8.46,7.133M4.094,21.588C4.229,21.635 26.933,29.378 26.933,29.378C27.194,27.527 27.328,25.632 27.328,23.708C27.328,17.799 26.057,12.182 23.779,7.121C23.779,7.121 4.126,20.982 4.006,21.067C3.886,21.155 3.833,21.231 3.833,21.319C3.833,21.477 3.959,21.544 4.094,21.588M-25.97,12.44C-25.97,12.393 -25.978,12.334 -26.016,12.24C-26.06,12.129 -35.115,-10.198 -35.115,-10.198C-41.496,-6.045 -46.633,-0.138 -49.842,6.837C-49.842,6.837 -26.564,12.592 -26.394,12.636C-26.324,12.653 -26.26,12.665 -26.189,12.665C-26.069,12.665 -25.97,12.568 -25.97,12.44M-13.243,-16.713C-21.202,-16.684 -28.62,-14.356 -34.863,-10.359C-34.863,-10.359 -18.807,6.635 -18.268,7.203C-18.156,7.321 -18.077,7.385 -17.978,7.385C-17.875,7.385 -17.767,7.323 -17.729,7.133C-17.518,6.02 -13.243,-16.713 -13.243,-16.713M-30.286,21.588C-30.421,21.635 -53.125,29.378 -53.125,29.378C-53.383,27.527 -53.518,25.632 -53.518,23.708C-53.518,17.799 -52.25,12.182 -49.968,7.121C-49.968,7.121 -30.318,20.982 -30.198,21.067C-30.078,21.155 -30.026,21.231 -30.026,21.319C-30.026,21.477 -30.149,21.544 -30.286,21.588" style="fill:rgb(30,28,26);fill-rule:nonzero;"/>
    </g>
    <g transform="matrix(4.166667,0,0,4.166667,168.428333,190.295417)">
        <path d="M0,35.174C20.259,35.174 37.036,20.271 39.968,0.835L24.901,2.937C24.669,2.967 24.576,3.09 24.517,3.254C21.53,11.957 14.004,18.581 4.671,20.277C8.226,18.546 10.674,14.897 10.674,10.674C10.674,4.779 5.895,0 0,0C-5.895,0 -10.674,4.779 -10.674,10.674C-10.674,14.897 -8.223,18.546 -4.671,20.277C-14.004,18.581 -21.533,11.957 -24.52,3.254C-24.576,3.09 -24.669,2.967 -24.901,2.937L-39.968,0.835C-37.033,20.271 -20.259,35.174 0,35.174" style="fill:rgb(30,28,26);fill-rule:nonzero;"/>
    </g>
</svg>
