<?xml version="1.0" encoding="UTF-8" standalone="no"?>
<!-- Generator: Adobe Illustrator 19.0.0, SVG Export Plug-In . SVG Version: 6.00 Build 0)  -->

<svg
   xmlns:dc="http://purl.org/dc/elements/1.1/"
   xmlns:cc="http://creativecommons.org/ns#"
   xmlns:rdf="http://www.w3.org/1999/02/22-rdf-syntax-ns#"
   xmlns:svg="http://www.w3.org/2000/svg"
   xmlns="http://www.w3.org/2000/svg"
   xmlns:sodipodi="http://sodipodi.sourceforge.net/DTD/sodipodi-0.dtd"
   xmlns:inkscape="http://www.inkscape.org/namespaces/inkscape"
   version="1.1"
   id="Layer_1"
   x="0px"
   y="0px"
   viewBox="0 0 954.4765 1239.2756"
   xml:space="preserve"
   sodipodi:docname="catupiry-logo.svg"
   width="954.4765"
   height="1239.2756"
   inkscape:version="0.92.2 (5c3e80d, 2017-08-06)"><metadata
     id="metadata85"><rdf:RDF><cc:Work
         rdf:about=""><dc:format>image/svg+xml</dc:format><dc:type
           rdf:resource="http://purl.org/dc/dcmitype/StillImage" /><dc:title></dc:title></cc:Work></rdf:RDF></metadata><defs
     id="defs83" /><sodipodi:namedview
     pagecolor="#FFFFFF"
     bordercolor="#666666"
     borderopacity="1"
     objecttolerance="10"
     gridtolerance="10"
     guidetolerance="10"
     inkscape:pageopacity="0"
     inkscape:pageshadow="2"
     inkscape:window-width="1600"
     inkscape:window-height="837"
     id="namedview81"
     showgrid="false"
     fit-margin-top="0"
     fit-margin-left="0"
     fit-margin-right="0"
     fit-margin-bottom="0"
     inkscape:zoom="0.42140707"
     inkscape:cx="496.21996"
     inkscape:cy="612.79678"
     inkscape:window-x="-8"
     inkscape:window-y="-8"
     inkscape:window-maximized="1"
     inkscape:current-layer="XMLID_80_" /><style
     type="text/css"
     id="style2">
	.st0{fill:#010101;}
	.st1{fill:#BEBEBE;}
	.st2{fill:#D4D4D4;}
	.st3{fill:#C8C8C8;}
	.st4{fill:#CACACA;}
	.st5{fill:#D4D4D4;}
	.st6{fill:#D5D5D5;}
	.st7{fill:#BFBFBF;}
	.st8{fill:#C9C9C9;}
	.st9{fill:#D5D5D5;}
	.st10{fill:#C1C1C1;}
	.st11{fill:#BDBDBD;}
	.st12{fill:#C0C0C0;}
	.st13{fill:#D7D7D7;}
	.st14{fill:#CACACA;}
	.st15{fill:#CDCDCD;}
	.st16{fill:#C7C7C7;}
	.st17{fill:#5C5C5C;}
	.st18{fill:#5B5B5B;}
	.st19{fill:#CECECE;}
	.st20{fill:#757575;}
	.st21{fill:#C8C8C8;}
	.st22{fill:#CACACA;}
	.st23{fill:#D4D4D4;}
	.st24{fill:#BCBCBC;}
	.st25{fill:#FFFFFF;}
	.st26{fill:#D8D8D8;}
	.st27{fill:#D6D6D6;}
	.st28{fill:#BFBFBF;}
	.st29{fill:#C8C8C8;}
	.st30{fill:#CCCCCC;}
	.st31{fill:#EEEEEE;}
	.st32{fill:#C2C2C2;}
	.st33{fill:#C0C0C0;}
	.st34{fill:#CBCBCB;}
	.st35{fill:#D3D3D3;}
	.st36{fill:#C4C4C4;}
	.st37{fill:#5D5D5D;}
	.st38{fill:#858585;}
	.st39{fill:#5E5E5E;}
	.st40{fill:#FAFAFA;}
	.st41{fill:#FAFAFA;}
	.st42{fill:#FBFBFB;}
	.st43{fill:#F7F7F7;}
	.st44{fill:#F5F5F5;}
	.st45{fill:#F3F3F3;}
	.st46{fill:#FCFCFC;}
	.st47{fill:#5B5B5B;}
	.st48{fill:#5F5F5F;}
	.st49{fill:#727272;}
</style><g
     id="XMLID_1_"
     transform="translate(76.093774,-35.047987)"><g
       id="XMLID_80_"><path
         id="XMLID_153_"
         class="st1"
         d="m 800.9,252.3 c 8.2,10.9 14.6,22.9 21.1,34.9 26.1,48.7 43.1,100.4 51.2,155.2 5.3,36.1 6.6,72.3 3.6,108.6 -5.9,72.8 -27.3,140.8 -64.5,203.7 -0.3,0.6 -0.8,1 -1.2,1.5 -3,-1.2 -2.8,-3.6 -2.6,-6.2 1,-11.4 0,-22.9 0.4,-34.4 0,-1 -0.5,-1.9 -0.9,-2.8 -1,-2.8 0.3,-5.2 1.5,-7.6 7.7,-16 14.1,-32.5 20,-49.2 2.8,-7.8 2.7,-7.9 -5.4,-7.9 -2.8,0 -5.6,0 -8.5,0 -2,0 -4,-0.3 -5.5,-1.9 -0.7,-1.1 -1.2,-2.4 -1.2,-3.7 -0.3,-4.6 0.6,-9.2 -0.1,-13.8 -0.2,-1.6 0.7,-3.2 2,-4.4 5.7,-1.5 11.6,-0.5 17.4,-0.7 3.5,-0.1 7,-0.4 10.1,-2.3 3.5,-5.7 4,-12.3 5.3,-18.6 4.4,-22.4 7.5,-44.9 8.5,-67.7 0.4,-9 0.8,-17.9 0.7,-26.9 -0.4,-32 -4,-63.7 -11.1,-94.9 -2.9,-12.6 -0.6,-11.9 -15.2,-11.9 -9.7,0 -19.3,0.1 -29,0 -2.3,0 -4.7,0.3 -6.7,-1.3 -2.2,-2.4 -3.2,-5.3 -2.8,-8.6 0.6,-4.3 -0.9,-8.8 1,-13.1 1.7,-2.3 4.3,-2.3 6.8,-2.3 9.7,-0.1 19.3,0 29,0 6.7,0 6.9,-0.4 4.8,-6.9 -1.7,-5.2 -3.7,-10.3 -5.5,-15.5 -0.9,-2.4 -2,-2.8 -4,-1.1 -10.4,9.1 -22.8,11.9 -36.2,10.6 -8.7,-0.8 -16.5,-3.9 -22.9,-9.8 -2,-1.8 -3.9,-4.1 -2.2,-7 1.6,-2.6 4.4,-1.9 6.8,-1.3 11.6,3.1 22.2,1.2 31,-7.1 8,-7.6 9.4,-17.2 6.8,-27.6 -1.3,-4.8 -3.1,-9.5 -5.4,-13.9 -1.1,-2.1 -2.1,-4.2 -1.4,-6.7 1.8,-2.2 2.5,-4.5 1.9,-7.4 -1.1,-5.3 1.2,-10.5 0.5,-15.8 -0.5,-3.4 -1.2,-6.8 -0.4,-10.3 0.3,-1.7 0.3,-3.3 2.3,-3.9 z"
         style="fill:#C0C0C0;fill-opacity:1"
         inkscape:connector-curvature="0" /><path
         id="XMLID_152_"
         class="st2"
         d="m -23.2,730.1 c -12.9,-23.6 -22.7,-48.6 -30.8,-74.2 -16.2,-51 -23.4,-103.3 -21.9,-156.8 2.1,-73.9 20.4,-143.6 54.8,-209 0.4,-0.7 0.9,-1.4 1.3,-2.1 4.4,-0.8 4.9,2.7 4.6,5.2 -1.5,12.2 1.5,24.4 -0.5,36.6 -0.5,3.3 0.9,6.6 0.8,9.9 -0.1,3.1 -0.2,6 -2.8,8.1 -1.4,0.7 -2.3,1.7 -2.9,3.2 -2.8,6.9 -5.4,14 -7.6,21.1 -0.9,2.8 0.2,3.7 2.8,3.8 2.7,0.1 5.4,0.1 6.9,3 1,6.7 1.7,13.4 -0.5,20.1 -2.4,2.9 -5.8,2.1 -8.9,2.1 -8.5,0.2 -8.7,0.1 -10.6,8.5 -4.2,19 -7.5,38.1 -9.6,57.5 -1.5,14.1 -1.9,28.2 -2.4,42.2 -0.4,11.9 0.6,23.9 1.4,35.8 1,14.6 2.9,29.1 5.2,43.5 1.4,8.9 3.3,17.6 5.3,26.4 0.5,2.1 0.7,4.3 2.2,6 2.9,2.3 6.4,2.3 9.9,2.5 4.6,0.2 9.2,-0.9 13.7,0.8 0.3,0.6 0.3,-0.3 0.3,0.4 0.1,7.1 0.8,14.2 0.4,21.3 -3.1,3.3 -7.2,1.9 -10.8,2.1 -5.9,0.3 -6.5,0.8 -4.5,6.4 2.7,7.5 5.3,15 8,22.5 0.8,2.2 1.5,4.4 0.4,6.8 -0.3,0.6 -1,1.2 -0.8,1.8 2.2,8.2 -0.2,16.4 0.6,24.7 0.6,5.6 -0.8,11.2 -0.9,16.8 -0.1,1.5 -0.8,3.2 -3.1,3 z"
         style="fill:#C0C0C0;fill-opacity:1"
         inkscape:connector-curvature="0" /><path
         id="XMLID_151_"
         class="st3"
         d="m 808.9,712 c 1.5,1.3 2.1,2.9 2.1,4.8 -0.4,11.7 1.1,23.4 -0.7,35.1 -0.3,1.6 0.2,2.9 0.8,4.3 -22,37.8 -49.3,71.5 -80.9,101.8 -0.3,0.3 -0.8,0.5 -1.3,0.7 -2.4,-1.5 -2,-4 -2.1,-6.3 -0.2,-7.6 0.2,-15.3 -0.2,-22.9 -0.6,-3.2 0.9,-5.5 3,-7.5 18.7,-19.1 34.8,-40.3 49.6,-62.5 1,-1.5 2.3,-2.8 2.7,-3.3 -5.2,4.8 -12.7,7.9 -20.4,10.3 -7.1,2.2 -14.3,3 -21.7,2.5 -2.9,-0.2 -5.7,-0.5 -7.1,-3.6 -1.1,-7.6 -1.7,-15.2 1.4,-22.5 1.9,-1.9 4.3,-1.2 6.6,-1.1 13.4,0.5 24.6,-4.1 32.3,-15.4 8.2,-12 2.1,-29.9 -11.3,-34.3 -11.2,-3.7 -22.1,4.5 -21.5,16.2 0,0.8 0.1,1.7 0.3,2.5 0.4,2.7 0.9,5.7 -2.2,6.9 -3,1.2 -5,-1 -6.9,-3 -8.9,-9.5 -7.8,-25.9 2.3,-36.8 13.5,-14.5 36.7,-16.1 52.1,-3.5 12.1,9.9 17.8,22.9 18.4,38.4 0.1,2.7 -0.4,5.3 -1,7.3 1.1,-2.8 0.5,-7.5 5.7,-8.1 z"
         style="fill:#C0C0C0;fill-opacity:1"
         inkscape:connector-curvature="0" /><path
         id="XMLID_150_"
         class="st4"
         d="m -23.2,730.1 c 1.5,-1.5 1,-3.4 1.2,-5.2 0.9,-9 -0.5,-18.1 0.9,-27.2 0.4,-2.6 -0.1,-5.3 -0.6,-7.9 -0.5,-2.6 -1,-5.4 2.1,-7 2.9,0.3 3.7,2.6 4.5,4.8 4.6,11.1 10.2,21.7 14.5,32.3 -3,-4.5 -1,-9.8 -0.3,-14.9 2.7,-22.3 21.7,-39.5 43,-39 15.6,0.3 30.1,11.1 34.1,25.4 2.4,8.6 0.6,16.5 -4.9,23.5 -0.7,0.9 -1.6,1.7 -2.6,2.4 -1.6,1 -3.4,1.5 -5.2,0.5 -1.9,-1 -2.1,-2.9 -1.9,-4.8 0.4,-3.1 1.7,-6 0.7,-9.3 -2.1,-7 -6.7,-10.9 -13.7,-12.1 -7.2,-1.2 -12.9,1.6 -17.1,7 -10.1,12.7 -6.4,29.3 8.2,37.8 4.6,2.7 9.5,4.7 14.9,5.6 1.7,0.3 3.3,0.7 4.4,2.1 2.2,7.5 0.5,14.9 -0.6,22.3 -1.1,2.1 -3.1,2.7 -5.1,2.4 -13.4,-1.3 -25.5,-5.6 -32.6,-12.6 8.6,11.9 18.9,27.3 30.5,41.7 0.8,1 1.4,2.3 1.4,3.7 2.8,8.2 -0.7,16.7 1.1,25 0.6,2.9 0.4,7 -4.5,7.3 -22.7,-24.1 -41.9,-50.7 -58.8,-79 -5,-8 -9.9,-16.1 -13.6,-24.8 z"
         style="fill:#C0C0C0;fill-opacity:1"
         inkscape:connector-curvature="0" /><path
         id="XMLID_149_"
         class="st5"
         d="m 558.1,61.7 c 21.8,7 42.6,16.4 63,26.9 37.6,19.4 71.7,43.7 102.9,72.2 0.7,0.7 1.3,1.4 2,2.2 3.3,5.4 2,11.6 2.6,17.4 0.1,0.8 -0.2,1.6 -0.2,2.5 0.1,8.2 -1,9 -8.8,6.8 -5.5,-1.4 -8.8,-5.9 -12.6,-9.4 -42.4,-39.4 -90.9,-69 -144.7,-90.1 -2.5,-1 -5.1,-1.7 -6.5,-4.3 -1.5,-6.4 -0.9,-12.9 -0.7,-19.4 0.2,-1.9 0.7,-4 3,-4.8 z"
         style="fill:#C0C0C0;fill-opacity:1"
         inkscape:connector-curvature="0" /><path
         id="XMLID_148_"
         class="st6"
         d="m 727.8,827.6 c 2.5,10.3 0.6,20.7 1.1,31 -17.1,16 -34.9,31.2 -54.2,44.7 -30.3,21.1 -62.6,38.6 -96.9,52.3 -3.9,1.6 -7.9,2.8 -11.9,4.2 -2,-0.9 -3.2,-2.7 -3.2,-4.7 -0.1,-6.6 -1.1,-13.4 1.8,-19.8 1.3,-2.6 3.9,-3.5 6.4,-4.5 30.9,-12.7 60.2,-28.5 87.6,-47.6 18.1,-12.6 35.3,-26.2 51.1,-41.6 4.3,-4.2 9.1,-7.8 13.3,-12.2 1.3,-1 2.8,-2.2 4.9,-1.8 z"
         style="fill:#C0C0C0;fill-opacity:1"
         inkscape:connector-curvature="0" /><path
         id="XMLID_147_"
         class="st7"
         d="m 49.1,834 c 4.5,-4.2 2,-9.3 1.6,-13.9 -0.2,-2.3 -0.6,-4.6 0.4,-6.7 2,-4.1 -0.7,-8.1 -0.1,-12.2 3.6,-0.9 4.9,2.2 6.6,4.2 8.5,10.3 17.9,19.7 27.3,29.1 33,32.7 70.3,59.3 111.6,80.6 3.2,1.6 7,2.6 8,6.9 0.6,6.7 2.8,13.4 0.7,20.2 -0.5,1.6 -0.5,3.3 -2.2,4.2 C 176.5,934.8 151.6,920.1 127.9,903.6 99.8,884 74.2,861.6 51,836.5 50.2,835.6 49.7,834.8 49.1,834 Z"
         inkscape:connector-curvature="0"
         style="fill:#BFBFBF" /><path
         id="XMLID_146_"
         class="st8"
         d="m -19.7,347 c 4.2,-2.5 2.9,-6.5 2.4,-9.8 -1.3,-7.7 0.6,-15.4 0.2,-23.1 -0.1,-2.3 -0.1,-4.6 -0.5,-6.9 -0.6,-3.9 -0.6,-7.9 0.3,-11.9 0.6,-2.8 1,-5.7 -2.4,-7.3 20.7,-39.1 46.4,-74.6 77.4,-106.2 2.6,-0.4 3.1,1.6 3.3,3.4 1,7.9 0.4,15.8 0.1,23.7 -0.1,2.5 -3,4.1 -2.3,6.9 -0.1,2.7 -1.8,4.5 -3.4,6.5 -20.1,24.3 -38.3,49.9 -52.5,78.1 -4.1,8.2 -6.3,16.8 -3.9,26.1 3,11.3 11.3,16.8 21.9,19.5 5.1,1.3 10.2,0.8 15.3,-0.4 1.5,-0.4 2.9,-0.8 4.4,-0.7 3.4,0.2 4.7,2.6 3.1,5.5 -1.3,2.4 -3.5,4 -5.6,5.6 -14.3,10.9 -42,10.3 -55.9,-3.9 -1.4,-1.6 -3.3,-2.7 -1.9,-5.1 z"
         style="fill:#C0C0C0;fill-opacity:1"
         inkscape:connector-curvature="0" /><path
         id="XMLID_145_"
         class="st9"
         d="m 255,58.2 c 22.3,-7.6 45.3,-13 68.5,-16.8 28.3,-4.6 56.8,-7 85.5,-6.2 1.1,0.5 2.3,0.3 3.4,0.3 7.3,0.1 7.6,0.4 7.7,7.5 0.1,3 0.1,6 0,8.9 -0.2,6.5 -1.2,7.5 -7.6,7.6 -4.1,0.1 -8.3,0.1 -12.4,0 -5.5,-0.1 -10.9,0.1 -16.2,1.5 -40,1.6 -79.1,8.7 -117.4,20.4 -2.7,0.8 -5.3,2.1 -8.2,1.1 -1.9,-0.5 -3.8,-1.4 -4.2,-3.2 C 252.5,72.2 251,65 255,58.2 Z"
         style="fill:#C0C0C0;fill-opacity:1"
         inkscape:connector-curvature="0" /><path
         id="XMLID_144_"
         class="st10"
         d="m 566,935.3 c -1.3,8.2 -2.2,16.4 0,24.6 -17.5,7.2 -35.7,12.2 -54,16.5 -32.2,7.7 -64.9,12.1 -98.1,12.7 -1.3,0 -2.6,-0.1 -4,-0.2 -2.8,-2.1 -2.2,-5.4 -2.5,-8.2 -0.5,-5 -1.6,-10.1 0.8,-15 5.1,-3.4 11,-2.4 16.4,-2.6 42,-1.8 82.7,-10.4 122.6,-23.4 4.3,-1.4 8.4,-3.2 12.7,-4.6 2.1,-0.7 4.2,-1.7 6.1,0.2 z"
         inkscape:connector-curvature="0"
         style="fill:#C1C1C1" /><path
         id="XMLID_143_"
         class="st11"
         d="m 57.2,216.3 c 0.3,-4.8 1.7,-9.3 2,-14.2 0.3,-6 -0.5,-11.8 -0.3,-17.8 0,-0.9 -0.8,-1.7 -1.2,-2.6 13,-14.5 27.6,-27.3 42.7,-39.6 24.5,-19.9 50.6,-37.6 78.7,-52 2.4,1.3 1.8,3.5 1.9,5.6 0.3,6.2 -0.9,12.5 1.5,18.5 0.4,3 -1.9,4 -3.9,5.2 -23.1,13.1 -44.8,28.2 -65.3,45.2 -17.1,14.1 -32.9,29.6 -47.8,46 -2.3,2.6 -4.1,6 -8.3,5.7 z"
         style="fill:#C0C0C0;fill-opacity:1"
         inkscape:connector-curvature="0" /><path
         id="XMLID_142_"
         class="st12"
         d="m 383,58.8 c 7.5,-1.8 15.2,-0.7 22.8,-0.9 12.2,-0.2 12.2,0 12.2,-12.4 0,-1 -0.1,-2 0,-3 0.7,-4.9 -1,-7.3 -6.2,-6.6 -0.9,0.1 -1.9,-0.5 -2.8,-0.8 18.7,-0.1 37.2,1.6 55.6,4 30.6,4.1 60.6,11.1 89.9,21 1.2,0.4 2.4,1.1 3.6,1.6 -2,8 -0.3,16.1 -1.1,24.1 -2.5,2.5 -5.1,0.7 -7.4,-0.1 -18.1,-6.3 -36.6,-11.4 -55.3,-15.3 -19.9,-4.2 -39.9,-7 -60.2,-8.5 -14.7,-1.1 -29.3,-0.4 -43.9,-0.8 -2.6,-0.1 -5.5,0.7 -7.2,-2.3 z"
         style="fill:#C0C0C0;fill-opacity:1"
         inkscape:connector-curvature="0" /><path
         id="XMLID_141_"
         class="st13"
         d="m 409,966.2 c 0.3,7.6 0.6,15.2 1,22.8 -20.1,0.9 -40.2,-0.1 -60.2,-2.2 -21.1,-2.2 -41.9,-6.2 -62.5,-10.8 -0.8,-0.2 -1.5,-0.7 -2.2,-1.1 -3.1,-2.6 -2.3,-6.4 -2.8,-9.7 -0.6,-3.7 0.6,-7.5 1.1,-11.3 0.2,-1.7 1.6,-2.8 3.3,-3.3 6.4,-0.4 12.5,1.7 18.6,3 18.8,3.8 37.6,6.8 56.7,8.4 13.4,1.1 26.9,2 40.3,1.9 2.4,0 5.2,-0.5 6.7,2.3 z"
         style="fill:#C0C0C0;fill-opacity:1"
         inkscape:connector-curvature="0" /><path
         id="XMLID_140_"
         class="st14"
         d="m 718.8,188.1 c 2.5,-0.7 4.8,2.5 7,1 2.6,-1.8 0.2,-4.6 0.2,-6.9 0.1,-6.4 0,-12.8 0,-19.2 22.4,20.2 42.1,42.8 59.9,67.1 5.3,7.2 10,14.8 15,22.3 -0.3,4 -1,8 -0.2,12.2 1.4,7 -1.5,14.1 0.1,21.2 0.5,2.3 -1.5,3.9 -3.9,4.3 -2.8,0.2 -3.6,-2.1 -4.6,-3.9 -13.4,-22.9 -28.6,-44.5 -45.8,-64.8 -7.8,-9.1 -15.8,-18 -24.1,-26.7 -1.8,-1.8 -4.3,-3.4 -3.6,-6.6 z"
         inkscape:connector-curvature="0"
         style="fill:#CACACA" /><path
         id="XMLID_139_"
         class="st15"
         d="m 287.2,951.9 c -2.4,0.6 -2,2.6 -2.2,4.4 -0.9,6.2 0.1,12.4 0,18.6 -20.9,-4.5 -41.1,-11.6 -60.9,-19.5 -7.2,-2.8 -14.5,-5.4 -21.2,-9.2 0,-7 2,-14 -0.5,-21 -0.4,-1.2 0.4,-2.9 0.6,-4.3 2.8,-2 5.2,0 7.4,1 18.4,8.2 37.1,15.6 56.3,21.6 5.2,1.6 10.5,3.2 15.8,4.7 2,0.6 4.4,0.9 4.7,3.7 z"
         style="fill:#C0C0C0;fill-opacity:1"
         inkscape:connector-curvature="0" /><path
         id="XMLID_138_"
         class="st16"
         d="m 181.9,115 c -2.3,-0.4 -3.1,-2 -2.9,-4 0.6,-6.1 -1.6,-12.2 0.3,-18.3 0.2,-0.7 -0.2,-1.6 -0.3,-2.5 24.3,-13.1 49.6,-23.9 76,-32.1 0,5.5 -0.1,10.9 0,16.4 0,2.9 0.6,5.7 4.1,6.5 -0.1,2.8 -2.4,3.3 -4.4,4 -22.7,7.8 -44.5,17.7 -65.8,28.8 -2.1,1.2 -4.4,2.8 -7,1.2 z"
         style="fill:#C0C0C0;fill-opacity:1"
         inkscape:connector-curvature="0" /><path
         id="XMLID_137_"
         class="st17"
         d="m -38.8,623 c -6.3,-23.9 -10.1,-48.2 -12.1,-72.7 -2.1,-25.1 -2.1,-50.2 0,-75.4 2,-24.6 6,-48.8 11.9,-72.8 0.6,-2.5 1.8,-3.1 4.1,-3.1 5,0.1 10,-0.1 15,-0.1 1.7,-2 4.1,-2 6.4,-2 22.2,0 44.4,-0.2 66.6,0.1 41.8,-0.3 83.6,-0.1 125.4,-0.1 3.5,0 7,0 10.5,0.3 25.7,-0.4 51.4,-0.5 77.1,0 9.8,-0.5 19.7,-0.3 29.5,-0.3 41.1,0 82.3,-0.2 123.4,0.1 41,-0.1 82,-0.4 123,0.1 19.7,-0.4 39.4,-0.5 59.1,0 31,-0.4 62,-0.5 93,0.1 17.6,-0.7 35.2,-0.2 52.8,-0.3 12.3,-0.1 24.6,-0.1 36.8,0 2.6,0 5.4,-0.3 7.4,2 15.2,0.1 30.3,0.2 45.5,0.1 3.3,0 4.6,1.1 5.3,4.1 10.4,43.5 14.9,87.5 12.5,132.3 -1.5,28.7 -5.5,56.9 -12.3,84.8 -0.3,1.3 -0.8,2.5 -1.1,3.8 -8.4,1.2 -16.9,0.4 -25.4,0.5 -272.2,2.4 -544.4,0.4 -816.6,1 -11.5,0 -22.9,-1.5 -34.4,-1 -1.4,0.1 -2.8,0 -3.4,-1.5 z"
         inkscape:connector-curvature="0"
         style="fill:#5C5C5C" /><path
         id="XMLID_136_"
         class="st18"
         d="m 181.9,115 c 24.8,-13.4 50.7,-24.4 77.2,-33.9 16.4,-4.7 32.8,-9.6 49.6,-13 24.5,-5 49.2,-8.1 74.2,-9.2 17.3,0 34.6,-0.3 51.9,1 40.3,2.9 79.3,11.2 117.4,24.5 1.6,0.5 3.1,1 4.7,1.5 27.9,10.6 54.7,23.4 80.2,39 27.9,17.2 53.7,37 77.5,59.6 1.3,1.3 2.7,2.4 4.1,3.6 13.4,14 26.7,28.2 38.8,43.5 14.6,18.5 27.4,38.2 39.3,58.5 3.7,6.9 7.4,13.8 8.9,21.5 5.5,28.8 -20.9,41.3 -40.2,35.8 -2,-0.6 -4.9,-3 -6.2,-0.5 -1.4,2.7 2,4.2 3.8,5.6 15.7,12.8 40.8,11.7 56,-2.3 1.3,-1.2 2.3,-2.9 4.4,-3.5 3.9,9.2 7,18.6 10.1,28 1.1,3.3 -1.2,3.1 -3.3,3.1 -12.1,0 -24.3,0 -36.4,0 -1.3,0 -2.6,0.2 -4,0.2 -1.4,1.7 -3.3,2.1 -5.4,2.1 -30.3,0 -60.6,0.4 -90.9,-0.2 -11.1,0.2 -22.3,0.1 -33.4,0.1 -1.5,0 -3,0 -4.5,0 -2.2,-0.1 -4.9,0.2 -5.6,-2.2 -0.8,-2.6 2,-3.4 3.8,-4.4 16.8,-10.1 21.2,-23.5 18.2,-41.1 -2.1,-12.6 -8.8,-23.2 -17.1,-32.7 -6.1,-7 -12,-14.2 -18.7,-20.7 -17.2,-16.7 -35.4,-32.2 -56,-44.7 -2,-1.2 -3.7,-2.8 -5.7,-4 -30.6,-18.8 -63.2,-32.4 -98.2,-40.5 -17.1,-4 -34.5,-6.9 -52.1,-7.8 -4.6,-0.2 -9.2,-0.9 -13.9,-1.2 -4.6,0.6 -9.3,0.3 -13.9,0.4 -39.7,0.5 -78.1,7.9 -115,22.5 -0.8,0.3 -1.6,0.5 -2.3,0.8 -3.1,-0.3 -5.2,1.9 -7.8,3 -23.2,9.7 -44.8,22.3 -65.2,37.1 -1.2,0.9 -2.4,1.8 -3.8,2.3 -19.9,15.9 -38.6,33.1 -55.2,52.5 -8.7,10.2 -15.4,21.6 -17.7,35.2 -2.6,15 4.2,30.2 17.4,37.9 2.1,1.2 5.4,2.2 4.8,5 -0.7,3.3 -4.2,2.6 -6.8,2.6 -30.5,0 -60.9,0.3 -91.4,-0.1 -22.8,0.6 -45.5,0.2 -68.3,0.2 -2.1,0 -4,-0.4 -5.4,-2.1 -1.3,-0.1 -2.6,-0.2 -4,-0.2 -8.4,-0.1 -8.5,-0.1 -5.8,-7.8 2.3,-6.7 4.7,-13.4 7.2,-20 0.5,-1.2 0.1,-3.8 2.9,-3 14.6,17.3 43.5,19.5 60.1,4.5 0.5,-0.4 1,-0.9 1.4,-1.4 0.8,-1 2.2,-2 1.1,-3.4 -0.8,-1.1 -2.1,-0.6 -3.2,-0.2 -5.3,1.8 -10.6,2.7 -16.2,2 C 1.9,345.5 -9,328.7 -2.8,308 1.2,294.6 9.2,283.2 16.5,271.5 28,252.9 41,235.4 55.2,218.8 c 0.6,-0.7 1.1,-1.6 1.7,-2.4 10.7,-11.4 21.2,-22.9 32.6,-33.6 26.4,-24.8 55.2,-46.3 86.7,-64.3 2.1,-1.2 3.9,-2.4 5.7,-3.5 z"
         inkscape:connector-curvature="0"
         style="fill:#5B5B5B" /><path
         id="XMLID_135_"
         class="st17"
         d="m 808.9,712 c -2.5,4.5 -4.9,9.1 -7.4,13.6 -0.3,0 -0.5,0 -0.8,0 0.3,-1.6 0.6,-3.1 0.8,-4.7 3.7,-20.8 -8.2,-43.1 -26.8,-50.2 -16.7,-6.4 -36,0.1 -44.1,15.1 -5.4,10 -4.1,21.7 3.4,29.1 1.1,1.1 2.3,3 4.1,2 2,-1 0.9,-2.8 0.4,-4.4 -2.3,-8.8 0.2,-16 7.2,-20.5 7.3,-4.6 17.1,-3.9 23.7,1.8 11.9,10.3 12.7,27.4 1.7,38.5 -10,10.1 -22.3,13.3 -36.1,10.9 -2.6,1.8 -5.1,0.5 -7.5,-0.5 -13.2,-5.9 -21.8,-16.4 -26.3,-29.7 -6.8,-20 -4.6,-39 9.2,-55.7 6,-7.3 14.2,-11.2 23.6,-12.6 2.4,-0.8 4.9,-0.8 7.4,-0.8 20.6,0 41.1,0 61.7,0 2.8,0 5.7,-0.4 7.9,2 7.8,0 15.5,0 23.8,0 -6.8,23.2 -16,44.8 -25.9,66.1 z"
         inkscape:connector-curvature="0"
         style="fill:#5C5C5C" /><path
         id="XMLID_134_"
         class="st19"
         d="m 692,378 c 17.1,-0.1 34.2,-0.2 51.2,-0.2 15.6,0 31.2,0.1 46.8,0.2 1.1,6.9 -1,14 1,20.8 -32.3,0 -64.7,0 -97,0 -4.7,-4.5 -5.8,-15.4 -2,-20.8 z"
         style="fill:#C0C0C0;fill-opacity:1"
         inkscape:connector-curvature="0" /><path
         id="XMLID_133_"
         class="st3"
         d="m 811,645.9 c -22.5,0.1 -45,0.1 -67.6,0.2 -3.5,0 -6.9,0.4 -10.4,0.7 -1.6,-6.1 -1.3,-12.2 -0.5,-18.3 0.2,-1.7 1.1,-3.5 3.3,-3.9 23.6,-0.1 47.3,0 70.9,0 1.4,0 3,-0.5 4.3,0.6 0.7,6.9 0,13.8 0,20.7 z"
         style="fill:#C0C0C0;fill-opacity:1"
         inkscape:connector-curvature="0" /><path
         id="XMLID_132_"
         class="st20"
         d="m 811,625.2 c -25.3,0 -50.7,0 -76,0 -2.7,2.8 -6.2,2 -9.4,2 -45.4,0.1 -90.7,0.1 -136.1,0 -9.8,0 -19.6,0.3 -29.4,-0.3 -17.1,0.6 -34.2,0.2 -51.3,0.3 -23.9,0.1 -47.8,0 -71.8,0 -7,0 -13.9,0.1 -20.9,-0.2 -5.3,0.5 -10.6,0.2 -15.9,0.2 -39.4,0 -78.7,0 -118.1,0 -3.3,0 -6.6,0 -10,-0.3 -26.7,0.4 -53.4,0.5 -80.1,0 -29.5,0.6 -59,0.2 -88.5,0.2 -13.2,0 -26.3,0.4 -39.5,-0.3 -23.9,0.7 -47.8,0.2 -71.6,0.3 -2.1,0 -4,-0.4 -5.4,-2 -7.2,-0.1 -14.5,-0.1 -21.7,-0.2 -1.5,0 -3.9,1.1 -4.1,-2 1.8,1.2 3.8,1 5.8,1 291.3,0 582.6,0 873.9,0 -1.1,1.9 -3,1 -4.5,1 -8.5,0.2 -16.9,0.2 -25.4,0.3 z"
         inkscape:connector-curvature="0"
         style="fill:#757575" /><path
         id="XMLID_131_"
         class="st17"
         d="M 58,744.2 C 46.3,743.6 36.5,739 29.1,729.9 c -9.2,-11.4 -6.6,-28.7 5.3,-37.1 6.9,-4.9 16,-5 22.9,-0.2 6.5,4.5 8.9,11.8 6.4,20.3 -0.4,1.4 -1.5,2.9 0.2,4 1.6,1 2.8,-0.3 3.9,-1.3 9,-8 9.6,-22.9 1.3,-33.6 -14.7,-19 -43.3,-18.3 -58.7,1.7 -9.8,12.6 -12,27.1 -9,42.6 -8.3,-13.8 -14.5,-28.7 -21.1,-43.3 -3.7,-10.4 -7.5,-20.8 -11.2,-31.2 -1.9,-5.6 -1.8,-5.6 3.9,-5.6 4.6,0 9.3,-0.1 13.9,-0.2 1.3,-1.4 3,-2 4.9,-2 23.6,0 47.1,-0.5 70.7,0.2 22.9,1 36.5,14.9 41.1,37.3 4.2,20.8 -1.7,38.8 -17.1,53.6 -6.2,5.9 -13.7,9.3 -22.1,10.8 -2.3,0.3 -4.6,0.2 -6.4,-1.7 z"
         inkscape:connector-curvature="0"
         style="fill:#5C5C5C" /><path
         id="XMLID_130_"
         class="st21"
         d="m 64,645.9 c -25.7,0 -51.3,0 -77,0 0.5,-2.8 -1.2,-5.1 -1.8,-7.6 -1.1,-4.6 0.9,-8.8 1.8,-13.1 25.7,0 51.3,0 77,0 1,0.9 2.1,1.8 2.2,3.2 0.1,5.1 0.3,10.2 -0.4,15.2 -0.2,1 -1.1,1.6 -1.8,2.3 z"
         style="fill:#C0C0C0;fill-opacity:1"
         inkscape:connector-curvature="0" /><path
         id="XMLID_129_"
         class="st22"
         d="m -20,378 c 25,0 50,0 75,0 1.1,1 1.9,2.3 2,3.9 0.1,4.6 -0.8,9.2 -1.2,13.8 -0.1,1.6 -1.4,2.6 -2.8,3.2 -24.3,0 -48.7,0 -73,0 0,-7 0,-13.9 0,-20.9 z"
         style="fill:#C0C0C0;fill-opacity:1"
         inkscape:connector-curvature="0" /><path
         id="XMLID_128_"
         class="st17"
         d="m 287.2,951.9 c -18.9,-5.7 -37.8,-11.2 -56,-18.9 -9.4,-4 -18.8,-8.1 -28.1,-12.1 -18.5,-9.8 -36.8,-19.8 -54.2,-31.5 -35.6,-24 -67.2,-52.3 -94.8,-85 -1,-1.1 -2,-2.2 -3,-3.3 C 38,784.4 25.2,767.4 14.5,748.9 c 12.2,10.9 25.9,18 42.6,17.9 1.4,-1.4 3.1,-1.8 5,-1.9 23.6,-1.9 40.2,-14.3 51.8,-34.3 4.5,-7.7 7.3,-16 9,-24.8 0.4,-2.1 0.3,-4.7 2.9,-5.3 2.7,-0.6 4.1,1.9 5.3,3.8 7.6,11.6 16,22.5 25.1,33 3.6,4.1 7.8,7.8 10.8,12.4 16,15.1 32.4,29.7 51,41.7 7.4,4.8 14.9,9.4 22.7,13.4 29.5,15.7 60.6,26.5 93.4,32.6 17,3.2 34.2,4.7 51.5,5.7 11.8,0.7 23.6,-0.3 35.3,0.1 32.5,-2.1 64.3,-7.6 95.1,-18.3 15.1,-5.2 29.7,-11.7 43.9,-18.9 18.3,-9.9 35.7,-21.4 51.7,-34.7 21.6,-18 40.4,-38.6 56.3,-61.8 1.2,-1.8 2.3,-3.6 3.6,-5.4 1.3,-1.7 2.6,-3.9 5.1,-3.3 2.5,0.6 2.7,3.1 3.2,5.2 0.7,2.9 1.2,5.9 2.1,8.7 6.3,19.7 18,35 36.6,44.6 3.3,1.7 6.8,2.8 10.3,3.7 2,0.5 3.7,1.4 5.1,2.9 17.3,3.3 32.8,-1.2 46.9,-11.4 2,-1.4 3.8,-3.1 6.2,-5 -0.1,2.6 -1.6,4.1 -2.6,5.6 -15.7,24.7 -33.6,47.8 -53.8,69 -1,1.1 -1.9,2.3 -2.9,3.4 -17.1,16.3 -34.1,32.6 -53.1,46.7 -32.4,24.2 -67,44.3 -104.7,59 -1.4,0.5 -2.7,1.3 -4,1.9 -26.8,10.1 -54.1,18 -82.2,23.2 -24.7,4.6 -49.7,6.7 -74.8,7.6 -19.8,-0.1 -39.6,-0.8 -59.3,-3.1 -17.2,-2 -34.2,-5 -51.1,-8.6 -3.7,-0.6 -7.5,-1.4 -11.3,-2.3 z"
         inkscape:connector-curvature="0"
         style="fill:#5C5C5C" /><path
         id="XMLID_127_"
         class="st23"
         d="m 734,766 c -12.9,-1.4 -23.7,-7.3 -32.9,-16.1 -14,-13.2 -21.7,-29.5 -24.2,-48.8 -2.3,1.1 -2.9,3.3 -4,4.9 -27.7,41.1 -62.8,74.2 -106.1,98.5 -1.7,1 -3.6,1.7 -5.3,2.6 -3.8,1.1 -5.2,-1.5 -5.2,-4.2 0.1,-7.2 -1.2,-14.7 2.3,-21.5 1.5,-2.6 4.1,-3.8 6.5,-5.3 20.9,-12.7 39.9,-27.7 57.1,-45 20.6,-20.7 38.1,-44 51.5,-70.1 2.5,-4.8 4.9,-9.8 9.4,-13.1 -1.6,0.3 -3.3,0.2 -4.9,0.3 -37.1,0 -74.3,0 -111.4,0 -3.1,0 -6.5,0.7 -8.7,-2.4 -1.2,-7 -1.3,-14 2.1,-20.5 26.9,-0.1 53.8,-0.2 80.8,-0.2 31.4,0 62.8,0.1 94.2,0.2 -2.4,7 1.4,14.6 -2,21.6 -20.1,4.5 -29.6,18.6 -32.7,37.5 -4.8,29.2 14.1,54.3 34.6,58.9 -1.2,7.4 -1.1,15.1 -1.1,22.7 z"
         style="fill:#C0C0C0;fill-opacity:1"
         inkscape:connector-curvature="0" /><path
         id="XMLID_126_"
         class="st24"
         d="m 166,751 c -9.3,-9.2 -17.7,-19.3 -25.6,-29.7 -4.9,-6.5 -9.5,-13.2 -14.6,-20.4 -1,4.8 -1.6,9.1 -2.9,13.3 -8,25.5 -23.3,44.2 -50.1,51.3 -5.2,1.4 -10.4,2 -15.8,1.4 0.3,-7.6 0.7,-15.1 1,-22.7 22.8,-1.5 40.8,-18.9 44.1,-42.3 1.2,-8.2 0.8,-16.3 -1.5,-24.2 -5.2,-18.6 -17.2,-29.5 -36.6,-31.8 0,-6.9 0,-13.8 0,-20.7 29.9,-0.1 59.8,-0.1 89.7,-0.2 12.8,0 25.6,0.1 38.4,0.2 2.7,2 2.2,5.1 2.4,7.7 0.4,4.4 1.5,8.8 -0.6,13.1 -1.4,1.7 -3.3,2 -5.4,2 -22.1,0.1 -44.2,0.1 -66.3,0 -1.2,0 -2.3,-0.2 -3.3,-0.6 5.2,3.2 7.5,8.7 10.1,13.7 11.4,21.8 25.7,41.5 41.8,59.9 1.4,1.6 3,3.2 2.9,5.6 -5.8,4.8 -2.5,11.2 -3,17 -0.5,3.2 0.1,6.9 -4.7,7.4 z"
         style="fill:#C0C0C0;fill-opacity:1"
         inkscape:connector-curvature="0" /><path
         id="XMLID_125_"
         class="st25"
         d="m 680.7,527.8 c 9.3,12 18.6,24.1 28,36.2 1.7,2.2 3.6,4.4 5.2,6.7 2.2,3.1 1.3,5.2 -2.4,5.2 -7.7,0.2 -15.3,0 -23,0.1 -2.5,0 -3.4,-1.7 -4.6,-3.3 -9.6,-12.5 -19.3,-25 -28.9,-37.6 -1.8,-2.4 -3.7,-3.4 -6.7,-3.2 -4.7,0.2 -9.3,0.2 -14,0 -3.1,-0.2 -4,1 -4,4 0.1,11.5 -0.1,23 0.1,34.5 0.1,4.4 -1.3,6 -5.7,5.7 -4.6,-0.3 -9.3,-0.3 -14,0 -4,0.2 -5.5,-1.4 -5.1,-5.3 0.1,-1.3 0,-2.7 0,-4 0,-35.6 0,-71.3 0,-106.9 0,-7 0,-7 7.2,-7 16.3,0 32.6,0 49,0.1 7.9,0 15.5,1.8 22.6,5.5 13,6.8 20.2,17.4 20.7,32.3 0.5,15.3 -6.3,26.5 -19.4,34 -1.4,0.8 -2.9,1.6 -4.4,2.4 -0.2,0 -0.3,0.2 -0.6,0.6 z"
         inkscape:connector-curvature="0"
         style="fill:#FFFFFF" /><path
         id="XMLID_124_"
         class="st25"
         d="m 97.8,532.6 c 0.7,-11.4 -1.2,-25.4 1.1,-39.3 5,-30.4 29.4,-45 57.1,-41.8 28.4,3.2 45.4,22.4 45.9,51.1 0.4,22.8 0,45.6 0.1,68.5 0,3.6 -1.1,5.2 -4.9,5.1 -5.2,-0.2 -10.3,-0.2 -15.5,0 -3.5,0.1 -4.7,-1.2 -4.7,-4.7 0.1,-11 -0.1,-22 0.1,-33 0.1,-3.7 -0.7,-5.2 -4.8,-5.1 -15,0.2 -30,0.2 -45,0 -3.4,0 -4.6,0.9 -4.6,4.4 0.2,10.8 0,21.7 0.1,32.5 0.1,4.2 -1.2,6.2 -5.7,5.9 -4.8,-0.3 -9.7,-0.3 -14.5,0 -3.8,0.2 -4.9,-1.4 -4.9,-5 0.3,-12 0.2,-24 0.2,-38.6 z"
         inkscape:connector-curvature="0"
         style="fill:#FFFFFF" /><path
         id="XMLID_123_"
         class="st25"
         d="m 423.6,497.1 c -0.6,11.6 1.1,25.6 -1.4,39.5 -5.4,30.1 -30.1,44.2 -57.3,40.8 -28.7,-3.6 -45,-22.5 -45.5,-51.9 -0.4,-22.5 0,-45 -0.1,-67.5 0,-3.9 1.4,-5.4 5.3,-5.2 4.7,0.3 9.3,0.3 14,0 4.4,-0.3 5.8,1.2 5.7,5.6 -0.2,21 -0.1,42 -0.1,63 0,5.9 0.7,11.6 2.9,17.1 3.3,8.3 9.4,13 18.2,14.5 3.8,0.6 7.6,0.9 11.4,0.3 12.6,-2 19.8,-9.4 21.3,-22 1.1,-8.8 0.5,-17.6 0.6,-26.5 0.1,-15.5 0.1,-31 0,-46.5 0,-4 1.2,-5.8 5.5,-5.5 3.8,0.3 7.7,0.1 11.5,0.1 8,0 8,0 8,8.3 0,11.2 0,22.4 0,35.9 z"
         inkscape:connector-curvature="0"
         style="fill:#FFFFFF" /><path
         id="XMLID_122_"
         class="st25"
         d="m 444.1,514.5 c 0,-18.5 0.1,-37 -0.1,-55.5 -0.1,-4.9 1.6,-6.3 6.4,-6.2 15.2,0.3 30.3,-0.4 45.5,0.3 16.4,0.7 30.9,6.4 38.9,21.9 10.7,20.5 4.3,52.2 -31,60 -9.9,2.2 -19.9,1.7 -29.9,1.5 -4,-0.1 -5.1,1.2 -4.9,5.1 0.3,9.3 0.1,18.7 0.1,28 0,6.5 0,6.5 -6.7,6.5 -4,0 -8,-0.3 -12,0.1 -4.8,0.4 -6.4,-1.3 -6.4,-6.2 0.2,-18.5 0.1,-37 0.1,-55.5 z"
         inkscape:connector-curvature="0"
         style="fill:#FFFFFF" /><path
         id="XMLID_121_"
         class="st25"
         d="m 32.5,578 c -39.9,0 -66.2,-35.2 -60.8,-72.1 4.1,-28.1 21.9,-47.9 47.6,-53.4 25.4,-5.4 46.5,3 64.2,21.2 1.8,1.8 1.9,3.3 0.2,5.1 -4.2,4.3 -8.4,8.6 -12.6,12.9 -2,2 -3.7,1.6 -5.6,-0.2 -2.8,-2.7 -5.5,-5.3 -8.5,-7.7 -12.6,-10 -29,-11.4 -42.1,-3.9 -12.8,7.4 -20.6,23.6 -18.6,38.8 2.9,21.7 17.8,35.7 37.6,35.2 9.4,-0.2 17.5,-3.7 24.5,-9.8 2.7,-2.4 5.5,-4.9 8,-7.5 2,-2 3.6,-1.9 5.5,0 3.9,3.9 7.8,7.7 11.8,11.5 1.9,1.8 2.1,3.5 0.2,5.6 -13.8,14.9 -30.2,24.7 -51.4,24.3 z"
         inkscape:connector-curvature="0"
         style="fill:#FFFFFF" /><path
         id="XMLID_120_"
         class="st1"
         d="m 53,398.9 c 1.7,-6.8 1.4,-13.9 2,-20.8 18.5,-0.1 36.9,-0.2 55.4,-0.2 13.3,0 26.6,0 39.9,0 0.5,-1 -0.3,-1.3 -0.8,-1.5 -17.6,-7.2 -26.5,-27 -20.9,-47.6 3.8,-14.1 12.1,-25.4 21.6,-36 15.7,-17.5 32.5,-33.8 51.8,-47.5 2.3,1.7 2,4 1.5,6.3 -0.7,3.4 -0.3,6.9 -1.2,10.3 -0.7,2.5 0.6,4.5 2,6.4 0.8,3.9 -2.1,5.6 -4.5,7.7 -14.8,13 -29.4,26.2 -41.2,42 -6.6,8.8 -10.6,18.7 -7.2,30.4 4,14.1 18.7,19.3 29.5,17.2 2.5,-0.5 4.8,-1.5 7.3,-1.8 1.7,-0.3 3.4,0 4.4,1.7 0.9,1.7 0.2,3.3 -0.9,4.6 -2.6,2.9 -5.8,4.9 -9.4,6.2 2.4,0.9 5.7,-0.7 7.1,2.6 1.4,4.8 2,9.7 1.8,14.7 -0.1,2.1 -0.3,4 -2.1,5.3 -31.9,0.1 -63.8,0.2 -95.7,0.2 C 79.9,399 66.5,398.9 53,398.9 Z"
         style="fill:#C0C0C0;fill-opacity:1"
         inkscape:connector-curvature="0" /><path
         id="XMLID_119_"
         class="st26"
         d="m 692,378 c 0,7 -0.1,14 2,20.8 -31,0 -62,0 -93,0 -1.2,-1 -2,-2.2 -2,-3.8 0,-5.4 -0.9,-10.9 0.7,-16.3 1.1,-2.5 3.4,-2.1 5.5,-2.3 4.9,-0.3 9.8,0.7 14.6,-0.5 -3.1,-1.4 -6.1,-2.9 -8.4,-5.3 -1.4,-1.5 -2.9,-3.1 -1.8,-5.3 1.1,-2.2 3.3,-1.9 5.3,-1.6 2,0.3 3.9,1 5.8,1.4 19,4.2 34.7,-11.2 30.8,-30.3 -1.5,-7.1 -4.6,-13.5 -9.2,-19.1 -18.1,-22.4 -39.8,-40.9 -63,-57.7 -2,-1.5 -4.2,-2.8 -4.7,-5.5 -1.9,-5.1 -2.4,-10.5 -2.5,-15.9 0,-3.2 0.6,-6.2 4,-7.8 12.7,7.8 24.9,16.2 36.4,25.6 16.5,13.6 31.7,28.5 45.4,44.9 5.9,7.1 10.8,14.8 14.1,23.4 7.2,19 4.5,43 -20.2,55.2 13.3,0.1 26.8,0.1 40.2,0.1 z"
         style="fill:#C0C0C0;fill-opacity:1"
         inkscape:connector-curvature="0" /><path
         id="XMLID_118_"
         class="st25"
         d="m 754.4,547.7 c 3.7,-13.1 -3.2,-25.6 -12.9,-37.9 -12.5,-16 -23.7,-33 -35.4,-49.5 -1.2,-1.7 -3.3,-3.3 -2.1,-5.7 1.2,-2.6 3.8,-1.3 5.8,-1.6 1.2,-0.1 2.3,-0.1 3.5,0 6.1,0.3 13.2,-2.1 18.1,0.9 4.8,3 7.5,9.5 11.1,14.5 7.5,10.6 15,21.2 22.2,32 2,2.9 2.9,2.6 4.7,-0.1 9.8,-14.3 19.9,-28.3 29.6,-42.6 2.4,-3.6 5.1,-5.1 9.4,-4.8 5.3,0.4 10.7,0 16,0.1 1.9,0 4.3,-0.9 5.4,1.5 1.1,2.2 -0.6,3.7 -1.8,5.3 -15.1,21.3 -30.2,42.6 -45.5,63.8 -2.4,3.3 -3.4,6.5 -3.4,10.6 0.2,12.2 0,24.3 0.1,36.5 0.1,4 -1.1,5.8 -5.4,5.5 -4.6,-0.3 -9.3,-0.3 -14,0 -4.6,0.3 -5.8,-1.7 -5.6,-5.9 0.4,-6.5 0.2,-13 0.2,-22.6 z"
         inkscape:connector-curvature="0"
         style="fill:#FFFFFF" /><path
         id="XMLID_117_"
         class="st25"
         d="m 244.8,526 c 0,-14.8 -0.1,-29.7 0.1,-44.5 0,-3.4 -0.9,-4.6 -4.4,-4.5 -9.3,0.2 -18.7,0 -28,0.1 -3.5,0.1 -4.8,-1.1 -4.7,-4.6 0.2,-5.2 0.1,-10.3 0,-15.5 0,-3 1.2,-4.1 4.2,-4.1 30.2,0.1 60.3,0.1 90.5,0 3.3,0 4.5,1.4 4.4,4.5 -0.1,5 -0.1,10 0,15 0.1,3.4 -1.3,4.7 -4.8,4.7 -9.2,-0.1 -18.3,0.2 -27.5,-0.1 -4.1,-0.1 -4.9,1.2 -4.9,5 0.1,29 0.1,58 0.1,87 0,7.1 0,7.1 -7.3,7.1 -4.2,0 -8.3,-0.2 -12.5,0.1 -3.9,0.2 -5.3,-1.2 -5.2,-5.2 0.1,-15 0,-30 0,-45 z"
         inkscape:connector-curvature="0"
         style="fill:#FFFFFF" /><path
         id="XMLID_116_"
         class="st27"
         d="m 419,398.9 c -24.7,0.1 -49.3,0.2 -74,0.2 -26.3,0 -52.7,-0.1 -79,-0.2 -1.4,-1 -2.1,-2.5 -2.4,-4.2 -1,-6.1 -1,-12 2.4,-17.5 1.9,-1 3.9,-0.7 5.9,-0.7 46.7,0 93.4,0 140.1,0 1.8,0 3.7,-0.2 5.4,0.5 1.2,0.5 2,1.5 2.1,2.6 0.4,6.4 2.7,12.9 -0.5,19.3 z"
         style="fill:#C0C0C0;fill-opacity:1"
         inkscape:connector-curvature="0" /><path
         id="XMLID_115_"
         class="st25"
         d="m 556.8,514.5 c 0,-18.7 0.1,-37.3 -0.1,-56 0,-4.4 1.3,-6 5.7,-5.7 4.5,0.3 9,0.3 13.5,0 4.8,-0.4 5.9,1.7 5.9,6.1 -0.1,35.2 -0.1,70.3 -0.1,105.5 0,2.3 -0.1,4.7 0,7 0.2,3.5 -1.4,4.8 -4.8,4.6 -4.8,-0.2 -9.7,-0.3 -14.5,0 -4.4,0.3 -5.8,-1.2 -5.8,-5.7 0.4,-18.4 0.2,-37.1 0.2,-55.8 z"
         inkscape:connector-curvature="0"
         style="fill:#FFFFFF" /><path
         id="XMLID_114_"
         class="st28"
         d="m 419,398.9 c -1.3,-6.9 -0.9,-13.8 -1,-20.7 1.4,-2 3.5,-1.6 5.4,-1.6 38,0 76,0 114.1,0 1.7,0 3.3,-0.1 4.8,0.9 2.9,7.2 3.3,14.3 -0.3,21.4 -32.1,0.1 -64.1,0.1 -96.2,0.2 -8.9,-0.1 -17.9,-0.2 -26.8,-0.2 z"
         style="fill:#C0C0C0;fill-opacity:1"
         inkscape:connector-curvature="0" /><path
         id="XMLID_113_"
         class="st29"
         d="m 266,378.2 c 0.1,6.9 -1.2,13.8 0,20.7 -25.7,0 -51.3,0 -77,0 0.6,-6.9 -1.1,-13.8 -1,-20.7 1.4,-2 3.5,-1.6 5.4,-1.6 22.4,0 44.8,0 67.1,0 2,-0.1 4.2,-0.4 5.5,1.6 z"
         style="fill:#C0C0C0;fill-opacity:1"
         inkscape:connector-curvature="0" /><path
         id="XMLID_112_"
         class="st30"
         d="m 542,398.9 c 0,-6.9 0,-13.8 0,-20.7 1.4,-2 3.5,-1.6 5.4,-1.6 16.1,-0.1 32.1,-0.1 48.2,0 1.9,0 4.1,-0.4 5.4,1.6 0,6.9 0,13.8 0,20.7 -19.7,0 -39.3,0 -59,0 z"
         style="fill:#C0C0C0;fill-opacity:1"
         inkscape:connector-curvature="0" /><path
         id="XMLID_111_"
         class="st31"
         d="m 810.2,578 c -8.6,-0.1 -14.3,-6.2 -14.2,-15.1 0,-8.9 5.9,-14.9 14.4,-14.9 8.7,0 14.7,6.3 14.6,15.4 -0.2,8.8 -6.2,14.7 -14.8,14.6 z"
         inkscape:connector-curvature="0"
         style="fill:#EEEEEE" /><path
         id="XMLID_110_"
         class="st32"
         d="m 576,228.8 c -3.6,8.1 -0.8,16.2 -0.1,24.3 -3,1.4 -5.1,-0.6 -7.3,-2 -22.9,-14.4 -47.1,-26 -72.9,-34.3 -23,-7.4 -46.5,-12.1 -70.6,-14 -9.3,-0.7 -18.6,-0.4 -27.9,-0.8 -2.3,-0.1 -4.7,0.3 -6.4,-1.9 0.1,-2.7 2.1,-3 4.1,-3.2 2.8,-0.3 5.6,-0.1 8.4,-0.2 5.6,-0.2 6.6,-1.2 6.6,-6.7 0,-2.1 0,-4.3 -0.2,-6.4 -0.2,-1.7 -0.1,-3.3 1.3,-4.5 24.4,0.2 48.4,3.9 72,9.9 32,8.1 62.1,20.6 90.3,37.8 0.9,0.6 1.8,1.4 2.7,2 z"
         style="fill:#C0C0C0;fill-opacity:1"
         inkscape:connector-curvature="0" /><path
         id="XMLID_109_"
         class="st9"
         d="m 411,179.2 c 1.1,4 0.9,8.2 1.3,12.3 0.5,5 -1.7,7.3 -6.6,7.6 -4.9,0.3 -9.9,-0.9 -14.7,0.8 -1.1,2.2 -3.1,2.1 -5.1,2.3 -21.3,1.5 -42.3,4.5 -62.9,10 -12.5,3.3 -24.8,7.7 -37,12 -2,0.7 -4,1.6 -6.3,1.4 -5.8,-1.7 -6.8,-3.1 -6.1,-8.8 0.2,-1.7 0.4,-3.3 0.3,-5 -0.3,-3.8 0.9,-6.8 4.1,-9 26.3,-10.9 53.7,-17.7 81.9,-21.3 16.9,-2.2 33.9,-3 51.1,-2.3 z"
         style="fill:#C0C0C0;fill-opacity:1"
         inkscape:connector-curvature="0" /><path
         id="XMLID_108_"
         class="st30"
         d="m 277.9,202.7 c -3.2,5.4 -1.3,11.6 -2.6,17.3 -0.6,2.8 2.5,3.4 4.7,4 -0.2,4 -3.9,4.3 -6.3,5.4 -17,7.6 -33.2,16.9 -48.6,27.4 -5.2,3.6 -10.3,7.3 -15.4,11 -1.6,1.2 -3.1,2.6 -5.4,1.4 -4.9,-0.7 -4.6,-4.3 -4.2,-7.8 0.6,-5.3 1.2,-10.7 1.9,-16 23.3,-17.8 48.6,-32.1 75.9,-42.7 z"
         style="fill:#C0C0C0;fill-opacity:1"
         inkscape:connector-curvature="0" /><path
         id="XMLID_107_"
         class="st33"
         d="m 560,625.2 c 0.5,6.9 -0.8,13.8 -1,20.7 -1.9,3 -5,2.3 -7.7,2.3 -19,0.1 -38,0.1 -56.9,0.1 -23.1,0 -46.3,0 -69.4,0 -2.9,0 -6,0.5 -8.8,-1.1 -3.1,-2.8 -2.3,-6.6 -2.3,-10.1 0,-4 -0.3,-8.2 2.1,-11.8 29.7,-0.1 59.5,-0.1 89.2,-0.2 18.3,-0.1 36.5,0 54.8,0.1 z"
         inkscape:connector-curvature="0"
         style="fill:#C0C0C0" /><path
         id="XMLID_106_"
         class="st9"
         d="m 416,625.2 c 1.4,6.9 -0.8,13.8 0,20.7 -1.9,3 -5,2.3 -7.7,2.3 -19.1,0.1 -38.3,0.1 -57.4,0.1 -22.6,0 -45.3,0 -67.9,0 -3,0 -6,0.5 -8.8,-1 -2.3,-1.9 -3.2,-4.4 -3.2,-7.3 0,-3.4 0.1,-6.9 -0.4,-10.3 -0.3,-1.7 0.2,-3.2 1.6,-4.4 31.6,-0.1 63.1,-0.1 94.7,-0.2 16.2,-0.1 32.7,0 49.1,0.1 z"
         style="fill:#C0C0C0;fill-opacity:1"
         inkscape:connector-curvature="0" /><path
         id="XMLID_105_"
         class="st34"
         d="m 272,625.2 c 1.9,6.8 0,13.9 2,20.7 -1.3,2.3 -3.5,2.3 -5.7,2.3 -23.2,0.1 -46.4,0.2 -69.7,0 -2.1,0 -4.4,0 -5.7,-2.3 -0.3,-6.9 -0.7,-13.8 -1,-20.7 26.8,0 53.4,0 80.1,0 z"
         style="fill:#C0C0C0;fill-opacity:1"
         inkscape:connector-curvature="0" /><path
         id="XMLID_104_"
         class="st35"
         d="m 421,844.9 c -63.3,3.5 -123.6,-7.8 -180,-37.4 -0.7,-0.4 -1.3,-0.9 -2,-1.4 -3.8,-4.9 -1.7,-10.5 -2.2,-15.8 -0.1,-1.6 0,-3.3 0.3,-4.9 0.4,-2.1 1.8,-3.4 3.8,-4.1 2.6,-1.1 4.8,0 7.1,1.2 30.4,16.7 62.5,28.6 96.7,34.9 13.1,2.4 26.2,3.9 39.5,4.8 9.8,0.6 19.6,0.8 29.4,0.7 3.4,0.8 8,0.3 8.7,5.1 0.8,5.5 3.3,11.5 -1.3,16.9 z"
         style="fill:#C0C0C0;fill-opacity:1"
         inkscape:connector-curvature="0" /><path
         id="XMLID_103_"
         class="st33"
         d="m 421,844.9 c 0,-3.8 0.1,-7.5 0,-11.3 -0.1,-7.8 -0.5,-8.2 -8.2,-8.7 0.7,-3.1 3.3,-2.9 5.5,-3 27.6,-1.1 54.4,-6.5 80.5,-15.1 18.7,-6.1 36.6,-14 53.8,-23.6 2.2,-1.2 4.5,-3.3 7.3,-1.3 -3.1,6.9 -0.7,14.2 -1.8,21.3 -0.3,1.9 1.1,3.4 3.2,3.8 -18,10.4 -37.4,17.7 -57.2,23.8 -25,7.7 -50.7,11.9 -76.8,13.9 -2,0.3 -4.2,0.2 -6.3,0.2 z"
         inkscape:connector-curvature="0"
         style="fill:#C0C0C0" /><path
         id="XMLID_102_"
         class="st36"
         d="m 242.1,781.6 c -2.4,1.6 -3.3,3.7 -3.2,6.6 0.2,5.9 0.1,11.8 0.1,17.8 -20.6,-10.4 -39.1,-24 -56.4,-39.2 -5.7,-5 -11.1,-10.6 -16.6,-15.9 4.3,-4.6 2.8,-10.1 1.8,-15.2 -1,-5 0,-7.6 5.2,-8.8 3.7,-1 5.4,2 7.3,4 15.6,16 33,29.8 51.7,41.9 2.2,1.4 4.6,2.7 6.8,4.2 1.7,1.2 3.6,2.2 3.3,4.6 z"
         style="fill:#C0C0C0;fill-opacity:1"
         inkscape:connector-curvature="0" /><path
         id="XMLID_101_"
         class="st18"
         d="m 242.1,781.6 c -25.4,-15.3 -48.4,-33.5 -69.1,-54.7 -14.4,-16.1 -27.9,-33 -38.8,-51.7 -3.3,-5.6 -6.2,-11.3 -9.4,-17 -2.6,-4.6 -5.3,-9.2 -10.3,-12.4 26.2,0 52.3,0 78.5,0 27,0 54,0 81,0 32.3,0.1 64.7,0.1 97,0.2 15,0 30,-0.1 45,-0.2 8.5,0.1 16.9,0.2 25.4,0.2 37.1,0 74.1,0 111.2,0 2.2,0 4.3,-0.1 6.5,-0.2 36.8,0.1 73.6,0.1 110.4,0.2 6,0 12,0 19.1,0 -8.3,4.9 -11.2,12.8 -15.1,19.9 -26.3,47.8 -63.4,85.2 -109.8,113.5 -1.3,0.8 -2.5,1.7 -3.7,2.5 -14.6,7.5 -29.1,15.2 -44.4,21.1 -31.4,12.2 -63.7,19.4 -97.3,21.1 -1.8,0.1 -3.6,0.5 -5.4,0.7 -24.8,0.3 -49.5,-1.4 -73.9,-6.4 -33.5,-6.9 -65,-18.8 -94.6,-35.7 -0.8,-0.4 -1.6,-0.7 -2.3,-1.1 z"
         inkscape:connector-curvature="0"
         style="fill:#5B5B5B" /><path
         id="XMLID_100_"
         class="st37"
         d="m 647.2,508 c -4.2,0 -8.3,-0.2 -12.5,0.1 -3.1,0.2 -4.5,-0.6 -4.4,-4 0.2,-7.8 0.1,-15.6 0.1,-23.4 0,-1.9 0,-3.7 2.8,-3.6 11.3,0.4 22.6,-1 33.8,1 9.3,1.7 13.7,7.1 13.1,15.7 -0.4,6.3 -4.4,9.7 -9.8,12 -7.5,3.1 -15.4,2 -23.1,2.2 z"
         inkscape:connector-curvature="0"
         style="fill:#5D5D5D" /><path
         id="XMLID_99_"
         class="st17"
         d="m 149.6,509 c -7.8,0 -15.6,-0.1 -23.5,0 -2.6,0 -3.5,-0.8 -3.4,-3.4 0.2,-5 0.4,-9.9 2.1,-14.7 3.1,-8.6 9.1,-13.6 18.1,-15 20.6,-3.3 33.5,7.5 34.1,28.4 0.1,3.5 -0.5,5 -4.5,4.8 -7.6,-0.3 -15.3,-0.1 -22.9,-0.1 z"
         inkscape:connector-curvature="0"
         style="fill:#5C5C5C" /><path
         id="XMLID_98_"
         class="st17"
         d="m 469.1,494.3 c 0,-3.2 0,-6.3 0,-9.5 0,-7.8 0,-7.9 8,-7.7 7.3,0.1 14.6,-0.6 21.9,0.8 9.4,1.8 14.7,6.8 15.2,14.5 0.6,9.2 -3.6,15.3 -13,18.1 -9.9,3 -20.2,1.2 -30.3,1.5 -2.3,0.1 -1.9,-1.9 -1.9,-3.3 0,-4.8 0.1,-9.6 0.1,-14.4 z"
         inkscape:connector-curvature="0"
         style="fill:#5C5C5C" /><path
         id="XMLID_97_"
         class="st18"
         d="m 204.3,269.2 c 20.1,-15.3 41.1,-29 64.1,-39.6 3.9,-1.8 7.7,-3.7 11.6,-5.5 35.6,-14.3 72.5,-22.8 111,-24.2 20.2,-0.1 40.2,0.7 60.2,4 43.7,7.2 83.8,23.1 120.9,47 1.3,0.8 2.6,1.5 3.8,2.3 23.9,16.5 45.7,35.3 64.7,57.3 5.7,6.6 10.5,13.7 12.5,22.4 2.4,10.6 0.8,20.3 -7.5,27.9 -8.3,7.7 -18.2,9 -28.8,5.9 -2.1,-0.6 -4.1,-2.3 -7.2,-0.8 3.6,5.2 9,7.7 14.2,10.4 0.1,0.8 -0.3,1.3 -1.1,1.3 -1.5,0.1 -3,0.1 -4.5,0.1 -144.9,0 -289.7,0 -434.6,-0.1 -1.8,0 -4.3,1.6 -5.6,-1.3 3.9,-1.6 7.5,-3.6 10.7,-6.3 1.3,-1.1 3.9,-2.1 2.9,-4.1 -1,-2.1 -3.2,-0.4 -4.8,0.2 -5.4,2 -11,2.7 -16.7,1.5 -16.8,-3.4 -25.6,-18.9 -20.8,-36.2 2,-7.2 5.8,-13.4 10.6,-19 12,-14.1 25.2,-27 39.4,-38.8 1.9,-1.5 3.4,-3 5,-4.4 z"
         inkscape:connector-curvature="0"
         style="fill:#5B5B5B" /><path
         id="XMLID_96_"
         class="st38"
         d="m 178.1,376.2 c 1.8,1.3 3.9,0.8 5.8,0.8 144.7,0 289.5,0 434.2,0 1.9,0 4,0.5 5.8,-0.9 0.7,0.3 2,0.7 2,1.1 0.1,1.2 -1.1,0.8 -1.8,0.8 -7.7,0.1 -15.4,0.1 -23.1,0.2 -19.7,0 -39.3,0 -59,0 -31.4,-0.1 -62.8,-0.1 -94.2,-0.2 -10,0 -19.9,0.1 -29.9,0.2 -50.6,0 -101.3,0 -151.9,0 -26,0 -52,0 -78,0 -3.9,0 -7.8,0 -11.7,0 0,-1.7 0.9,-1.9 1.8,-2 z"
         inkscape:connector-curvature="0"
         style="fill:#858585" /><path
         id="XMLID_95_"
         class="st39"
         d="m 797.9,562.9 c 0,-8 4.8,-12.9 12.6,-12.9 7.9,0 12.7,5.1 12.6,13.4 -0.1,7.9 -5,12.7 -12.8,12.7 -7.8,-0.1 -12.5,-5.1 -12.4,-13.2 z"
         inkscape:connector-curvature="0"
         style="fill:#5E5E5E" /><path
         id="XMLID_94_"
         class="st40"
         d="m 243,316.6 c 0,-1.3 -0.2,-2.7 0,-4 0.7,-3.3 -2.3,-8.1 1.7,-9.6 7,-2.6 15.4,0.5 18.3,5.5 3,5.2 2.6,13.6 -1,17.9 -3,3.6 -13,6 -17.7,4.4 -1.6,-0.5 -1.4,-1.7 -1.4,-2.8 0.1,-3.8 0.1,-7.6 0.1,-11.4 z"
         inkscape:connector-curvature="0"
         style="fill:#FAFAFA" /><path
         id="XMLID_93_"
         class="st41"
         d="m 345,316.6 c 0,-1.3 -0.2,-2.7 0,-4 0.7,-3.3 -2.3,-8.2 1.7,-9.7 7.7,-2.9 16.7,0.7 19,6.8 2.2,5.8 2.4,11.9 -2,16.9 -4.7,5.3 -11.2,4.1 -17.3,4 -2,0 -1.4,-1.9 -1.5,-3.1 0.1,-3.6 0.1,-7.2 0.1,-10.9 z"
         inkscape:connector-curvature="0"
         style="fill:#FAFAFA" /><path
         id="XMLID_92_"
         class="st42"
         d="m 472.7,330.4 c 2.4,-3.6 4.4,-6.7 6.8,-10.4 -1.5,0 -2.2,0 -3,0 -6.3,-0.2 -9.7,-3.5 -9.5,-9 0.3,-5.5 4.9,-9.3 11.1,-8.9 6.1,0.3 10.1,4.3 9.4,9.9 -0.8,7.3 -6.2,12.3 -9.9,18.1 -0.8,1.3 -2.8,0.8 -4.9,0.3 z"
         inkscape:connector-curvature="0"
         style="fill:#FBFBFB" /><path
         id="XMLID_91_"
         class="st43"
         d="m 383.1,316.5 c 0,-3.5 0.1,-7 -0.1,-10.5 -0.2,-2.7 0.9,-3.5 3.4,-3.4 3.3,0.2 6.7,0 10,0.1 1,0 2,0.2 2,1.6 0,1.3 -0.9,1.6 -2,1.6 -1.5,0 -3,0.2 -4.5,0 -3.7,-0.6 -4.3,1.1 -4.3,4.4 0,3.5 1.1,4.9 4.5,4.4 0.5,-0.1 1,-0.1 1.5,0 1.4,0.4 4,-1.1 4,1.4 0,2.5 -2.5,1.5 -4,1.5 -5.9,0.2 -7.1,1.9 -6,7.8 0.4,2 1.6,1.8 2.9,1.8 2.2,0 4.3,0 6.5,0 1.2,0 1.8,0.5 1.8,1.8 0,1.3 -0.8,1.7 -1.9,1.7 -4,0 -8,0 -12,0 -1.9,0 -2,-1.3 -2,-2.8 0.2,-3.7 0.2,-7.6 0.2,-11.4 z"
         inkscape:connector-curvature="0"
         style="fill:#F7F7F7" /><path
         id="XMLID_90_"
         class="st44"
         d="m 281.1,316.5 c 0,-3.7 0,-7.3 0,-11 0,-1.7 0.2,-2.9 2.3,-2.9 3.7,0.1 7.3,0 11,0 1.1,0 2,0.4 1.9,1.7 0,1.4 -1,1.6 -2,1.6 -1.3,0 -2.7,0.2 -4,0 -3.8,-0.6 -4.8,0.9 -4.7,4.6 0.1,3.2 0.9,4.6 4.3,4.2 1.1,-0.2 2.3,-0.1 3.5,0 1.1,0.1 2.6,-0.2 2.4,1.7 -0.1,1.3 -1.3,1.3 -2.3,1.3 -0.7,0 -1.3,0 -2,0 -5.5,0.1 -7.2,2.6 -5.7,8 0.8,2.8 3,1 4.5,1.6 2.2,0.9 6.4,-2.1 6.4,1.9 0,3.1 -4.1,1.4 -6.2,1.5 -9.4,0.2 -9.4,0.1 -9.4,-9.2 -0.1,-1.6 -0.1,-3.3 0,-5 z"
         inkscape:connector-curvature="0"
         style="fill:#F5F5F5" /><path
         id="XMLID_89_"
         class="st42"
         d="m 319.1,331.2 c -2.4,0.1 -4.6,-0.4 -6.7,-1.6 -0.8,-0.5 -2,-0.9 -1.3,-2.2 0.6,-1 1.4,-2 2.8,-1.2 1.6,0.9 3.2,1.7 5.1,1.7 2.5,0 4.7,-0.7 5.5,-3.4 0.8,-2.6 -0.7,-4.2 -2.7,-5.3 -1.9,-1.1 -3.9,-1.8 -5.9,-2.7 -2.9,-1.5 -4.7,-3.8 -4.4,-7.2 0.3,-3.5 2.4,-5.7 5.7,-6.8 3.3,-1.1 6.6,-0.8 9.7,0.5 0.8,0.3 2.2,0.7 1.7,1.9 -0.5,1 -1.3,2.5 -3.1,1.4 -0.9,-0.5 -1.8,-0.9 -2.8,-1.1 -2.7,-0.5 -5.2,0.1 -6.3,2.8 -1.2,2.8 0.4,4.8 2.9,6 1,0.5 2.1,1 3.2,1.4 5.7,2.6 7.6,5.5 6.5,9.7 -1,4 -4.7,6.2 -9.9,6.1 z"
         inkscape:connector-curvature="0"
         style="fill:#FBFBFB" /><path
         id="XMLID_88_"
         class="st45"
         d="m 546,307.7 c -3.2,-0.4 -5.6,4.7 -7.3,1.3 -1.6,-3.1 3.2,-3.6 5.2,-4.8 5.1,-3.1 6.7,-2.1 6.8,3.7 0,6 0.1,12 -0.1,18 -0.1,1.8 1.4,4.8 -2.2,5 -3.9,0.2 -2.2,-3 -2.3,-4.7 -0.3,-6.3 -0.1,-12.4 -0.1,-18.5 z"
         inkscape:connector-curvature="0"
         style="fill:#F3F3F3" /><path
         id="XMLID_87_"
         class="st44"
         d="m 511.5,307.7 c -1,0 -1.2,0 -1.4,0 -2.2,0.1 -4.4,4.6 -6.1,1 -1.3,-2.7 3.1,-2.8 4.7,-4.3 1.1,-1 2.5,-1.6 4,-1.8 2.1,-0.2 3.4,0 3.4,2.8 -0.2,7.5 -0.1,15 0,22.5 0,1.6 0,3 -2.3,2.9 -2.2,-0.1 -2.3,-1.4 -2.3,-3 0,-6.7 0,-13.3 0,-20.1 z"
         inkscape:connector-curvature="0"
         style="fill:#F5F5F5" /><path
         id="XMLID_86_"
         class="st44"
         d="m 442.5,307.8 c -1.1,0 -1.2,0 -1.4,0 -2.2,0.1 -4.3,4.7 -6.2,1 -1.2,-2.4 2.7,-2.8 4.3,-4 1,-0.8 2.3,-1.5 3.5,-1.8 2.5,-0.6 4.5,-0.6 4.3,3.1 -0.3,7.2 -0.1,14.3 -0.1,21.5 0,1.6 0.4,3.5 -2.3,3.3 -2.6,-0.1 -2.2,-2 -2.2,-3.6 0.1,-6.5 0.1,-13 0.1,-19.5 z"
         inkscape:connector-curvature="0"
         style="fill:#F5F5F5" /><path
         id="XMLID_85_"
         class="st46"
         d="m 819.1,570.5 c -4.3,1.9 -5.3,-0.8 -6.8,-2.7 -1,-1.2 -1.8,-3.1 -3.8,-2.6 -2.1,0.5 -1.1,2.4 -1.3,3.8 -0.2,1 -0.1,2 -1.4,2.2 -1.8,0.1 -1.7,-1.1 -1.8,-2.3 0,-4.1 0,-8.3 0,-12.4 0,-0.6 0.1,-1.7 0.4,-1.8 3.4,-1.1 6.8,-1.1 10.1,0.2 2.7,1.1 4.3,3.9 2.8,6 -3.1,3.9 -1.9,6.7 1.8,9.6 z"
         inkscape:connector-curvature="0"
         style="fill:#FCFCFC" /><path
         id="XMLID_84_"
         class="st47"
         d="m 260.2,316.6 c 0,7 -3.3,10.8 -9.4,10.9 -1.9,0 -3.2,-0.1 -3.1,-2.6 0.1,-5.5 0.1,-11 0,-16.4 -0.1,-2.4 1.1,-2.6 3,-2.7 6.1,0 9.5,3.8 9.5,10.8 z"
         inkscape:connector-curvature="0"
         style="fill:#5B5B5B" /><path
         id="XMLID_83_"
         class="st47"
         d="m 349.8,316.5 c 0,-1.8 0,-3.7 0,-5.5 0,-5.3 2.3,-6.7 7.3,-4.4 4.2,1.9 6.1,7.1 4.9,13.4 -1,4.8 -4.2,7.3 -9.1,7.5 -2.4,0.1 -3.3,-0.7 -3.1,-3.1 0.2,-2.6 0,-5.3 0,-7.9 z"
         inkscape:connector-curvature="0"
         style="fill:#5B5B5B" /><path
         id="XMLID_82_"
         class="st48"
         d="m 483,311.1 c -0.4,3.4 -1.9,6 -5.8,5.9 -3.8,0 -5.3,-2.3 -5.3,-5.8 0,-3.7 1.7,-6.2 5.6,-6.1 3.5,0.1 5.1,2.5 5.5,6 z"
         inkscape:connector-curvature="0"
         style="fill:#5F5F5F" /><path
         id="XMLID_81_"
         class="st49"
         d="m 810.5,562 c -1.7,0 -3.3,0.2 -3.4,-2.1 -0.1,-2.4 1.5,-2.7 3.2,-2.5 1.6,0.1 3.7,0 3.6,2.4 0,2.1 -2,2.1 -3.4,2.2 z"
         inkscape:connector-curvature="0"
         style="fill:#727272" /><text
         xml:space="preserve"
         style="font-style:normal;font-weight:normal;font-size:42.66666794px;line-height:1.25;font-family:sans-serif;letter-spacing:0px;word-spacing:0px;fill:#000000;fill-opacity:1;stroke:none"
         x="161.36417"
         y="1273.7195"
         id="text897"><tspan
           sodipodi:role="line"
           id="tspan895"
           x="161.36417"
           y="1273.7195">LOGODOWNLOAD.ORG</tspan></text>
</g></g></svg>