<?xml version="1.0" encoding="UTF-8" standalone="no"?>
<!DOCTYPE svg PUBLIC "-//W3C//DTD SVG 1.1//EN" "http://www.w3.org/Graphics/SVG/1.1/DTD/svg11.dtd">
<svg width="100%" height="100%" viewBox="0 0 643 643" version="1.1" xmlns="http://www.w3.org/2000/svg" xmlns:xlink="http://www.w3.org/1999/xlink" xml:space="preserve" xmlns:serif="http://www.serif.com/" style="fill-rule:evenodd;clip-rule:evenodd;stroke-linejoin:round;stroke-miterlimit:2;">
    <g transform="matrix(0,-4.166667,-4.166667,0,321.101667,8.507917)">
        <path d="M-75.442,-75.404C-117.096,-75.404 -150.867,-41.635 -150.867,0.021C-150.867,41.673 -117.096,75.442 -75.442,75.442C-33.785,75.442 0.021,41.673 0.021,0.021C0.021,-41.635 -33.785,-75.404 -75.442,-75.404" style="fill:rgb(30,28,26);"/>
    </g>
    <g transform="matrix(4.166667,0,0,4.166667,624.267917,8.421667)">
        <path d="M0,55.614C-8.713,23.578 -37.994,0 -72.781,0C-107.564,0 -136.845,23.578 -145.557,55.614L0,55.614Z" style="fill:rgb(30,28,26);"/>
    </g>
    <g transform="matrix(4.166667,0,0,4.166667,123.650833,540.204167)">
        <path d="M0,-32.431C5.724,-15.981 24.393,0 47.369,0C70.348,0 90.355,-15.981 96.079,-32.431L0,-32.431Z" style="fill:rgb(30,28,26);"/>
    </g>
    <g transform="matrix(4.166667,0,0,4.166667,170.058333,326.224583)">
        <path d="M0,-1.747L-8.765,-1.747L-8.765,-2.331C-8.763,-3.989 -8.369,-5.244 -7.595,-6.059C-6.863,-6.825 -5.828,-7.199 -4.435,-7.204C-3.001,-7.198 -1.936,-6.797 -1.181,-5.98C-0.398,-5.13 -0.001,-3.861 0,-2.209L0,-1.747ZM-4.367,-11.11L-4.383,-11.11C-6.846,-11.125 -8.954,-10.305 -10.449,-8.768C-11.987,-7.191 -12.799,-4.915 -12.796,-2.185L-12.796,8.62C-12.796,8.873 -12.591,9.077 -12.339,9.077L-9.222,9.077C-8.97,9.077 -8.765,8.873 -8.765,8.62L-8.765,2.184L0,2.184L0,8.62C0,8.873 0.205,9.077 0.457,9.077L3.572,9.077C3.825,9.077 4.03,8.873 4.03,8.62L4.03,-2.331C4.034,-5.005 3.214,-7.243 1.656,-8.804C0.179,-10.292 -1.96,-11.11 -4.367,-11.11M105.448,-10.586C105.37,-10.738 105.213,-10.834 105.041,-10.834L101.259,-10.834C101.11,-10.834 100.97,-10.76 100.885,-10.639L95.29,-2.643L89.718,-10.637C89.633,-10.76 89.493,-10.834 89.343,-10.834L85.488,-10.834C85.316,-10.834 85.16,-10.738 85.081,-10.586C85.003,-10.434 85.016,-10.251 85.114,-10.112L93.248,1.354L93.248,8.628C93.248,8.881 93.454,9.085 93.706,9.085L96.822,9.085C97.075,9.085 97.279,8.881 97.279,8.628L97.279,1.331L105.414,-10.111C105.514,-10.25 105.527,-10.433 105.448,-10.586M80.391,-2.687C79.759,-2.208 78.76,-1.932 77.649,-1.932L73.233,-1.932L73.233,-6.901L77.729,-6.901C78.917,-6.901 79.905,-6.643 80.504,-6.18C81.03,-5.762 81.258,-5.265 81.268,-4.526L81.268,-4.483C81.258,-3.694 80.995,-3.156 80.391,-2.687M81.263,1.189C82.095,0.863 82.819,0.422 83.42,-0.127C84.642,-1.23 85.309,-2.793 85.299,-4.526L85.299,-4.576C85.297,-6.138 84.676,-7.654 83.595,-8.738C82.24,-10.087 80.179,-10.832 77.79,-10.834L69.659,-10.834C69.407,-10.834 69.202,-10.628 69.202,-10.376L69.202,8.628C69.202,8.881 69.407,9.085 69.659,9.085L72.775,9.085C73.028,9.085 73.233,8.881 73.233,8.628L73.233,1.975L76.794,1.975L82.124,8.907C82.21,9.019 82.344,9.085 82.487,9.085L86.434,9.085C86.609,9.085 86.767,8.987 86.844,8.83C86.921,8.673 86.902,8.486 86.796,8.348L81.263,1.189ZM64.9,-10.834L61.784,-10.834C61.532,-10.834 61.326,-10.628 61.326,-10.376L61.326,8.628C61.326,8.881 61.532,9.085 61.784,9.085L64.9,9.085C65.153,9.085 65.358,8.881 65.358,8.628L65.358,-10.376C65.358,-10.628 65.153,-10.834 64.9,-10.834M54.48,-4.091C54.472,-3.249 54.169,-2.617 53.53,-2.105C52.828,-1.55 51.758,-1.245 50.518,-1.245L47.183,-1.245L47.183,-6.901L50.682,-6.901C51.908,-6.901 52.937,-6.629 53.578,-6.135C54.199,-5.647 54.469,-5.047 54.48,-4.134L54.48,-4.091ZM56.224,-9.149C54.841,-10.251 52.952,-10.834 50.758,-10.834L43.609,-10.834C43.357,-10.834 43.152,-10.628 43.152,-10.376L43.152,8.628C43.152,8.881 43.357,9.085 43.609,9.085L46.726,9.085C46.979,9.085 47.183,8.881 47.183,8.628L47.183,2.688L50.438,2.688C52.594,2.685 54.502,2.112 55.953,1.032C57.592,-0.175 58.524,-2.069 58.511,-4.159L58.511,-4.205C58.523,-6.188 57.689,-7.991 56.224,-9.149M31.38,9.355L31.43,9.355C33.894,9.355 35.982,8.544 37.469,7.011C39.008,5.433 39.819,3.157 39.816,0.427L39.816,-10.376C39.816,-10.628 39.612,-10.834 39.359,-10.834L36.244,-10.834C35.991,-10.834 35.786,-10.628 35.786,-10.376L35.786,0.573C35.783,2.231 35.389,3.487 34.617,4.302C33.885,5.068 32.85,5.442 31.456,5.446C30.023,5.44 28.958,5.039 28.203,4.223C27.432,3.382 27.024,2.078 27.021,0.451L27.021,-10.376C27.021,-10.628 26.817,-10.834 26.563,-10.834L23.449,-10.834C23.196,-10.834 22.991,-10.628 22.991,-10.376L22.991,0.573C22.987,3.247 23.809,5.487 25.366,7.048C26.842,8.536 28.977,9.355 31.38,9.355ZM20.507,-10.834L5.425,-10.834C5.173,-10.834 4.968,-10.628 4.968,-10.376L4.968,-7.358C4.968,-7.105 5.173,-6.901 5.425,-6.901L10.952,-6.901L10.952,8.628C10.952,8.881 11.156,9.085 11.409,9.085L14.524,9.085C14.777,9.085 14.981,8.881 14.981,8.628L14.981,-6.901L20.507,-6.901C20.759,-6.901 20.964,-7.105 20.964,-7.358L20.964,-10.376C20.964,-10.628 20.759,-10.834 20.507,-10.834M-17.061,2.561C-17.239,2.388 -17.523,2.389 -17.701,2.564L-18.339,3.192C-20.079,4.879 -21.328,5.454 -23.285,5.47C-26.621,5.465 -29.15,2.737 -29.166,-0.874L-29.166,-0.919C-29.147,-4.503 -26.627,-7.211 -23.312,-7.22C-21.143,-7.207 -19.854,-6.391 -18.481,-5.083L-17.823,-4.443C-17.642,-4.268 -17.353,-4.272 -17.177,-4.452L-14.967,-6.722C-14.88,-6.811 -14.834,-6.93 -14.837,-7.054C-14.84,-7.178 -14.894,-7.295 -14.985,-7.378L-15.682,-8.018C-17.239,-9.468 -19.5,-11.128 -23.211,-11.128C-23.237,-11.128 -23.264,-11.127 -23.292,-11.128C-26.041,-11.128 -28.578,-10.045 -30.434,-8.079C-32.248,-6.165 -33.246,-3.606 -33.246,-0.874L-33.246,-0.823C-33.246,1.932 -32.248,4.494 -30.436,6.389C-28.596,8.319 -26.076,9.381 -23.339,9.381L-23.271,9.381C-20.317,9.381 -17.862,8.304 -15.549,5.992L-14.879,5.331C-14.792,5.245 -14.743,5.126 -14.744,5.003C-14.744,4.88 -14.794,4.763 -14.882,4.677L-17.061,2.561Z" style="fill:white;fill-rule:nonzero;"/>
    </g>
    <g transform="matrix(4.166667,0,0,4.166667,604.130417,351.165)">
        <path d="M0,1.773C-0.101,2.035 -0.242,2.26 -0.423,2.447C-0.605,2.634 -0.821,2.776 -1.071,2.873C-1.321,2.971 -1.598,3.02 -1.905,3.02C-2.212,3.02 -2.49,2.971 -2.74,2.873C-2.99,2.776 -3.205,2.634 -3.387,2.447C-3.568,2.26 -3.71,2.035 -3.81,1.773C-3.911,1.511 -3.961,1.215 -3.961,0.886C-3.961,0.557 -3.911,0.262 -3.81,0C-3.71,-0.263 -3.568,-0.485 -3.387,-0.669C-3.205,-0.852 -2.99,-0.995 -2.74,-1.095C-2.49,-1.197 -2.212,-1.248 -1.905,-1.248C-1.598,-1.248 -1.321,-1.197 -1.071,-1.095C-0.821,-0.995 -0.605,-0.852 -0.423,-0.669C-0.242,-0.485 -0.101,-0.263 0,0C0.101,0.262 0.151,0.557 0.151,0.886C0.151,1.215 0.101,1.511 0,1.773M0.256,-0.119C0.141,-0.417 -0.019,-0.67 -0.225,-0.877C-0.431,-1.086 -0.675,-1.247 -0.959,-1.362C-1.243,-1.476 -1.557,-1.534 -1.905,-1.534C-2.253,-1.534 -2.569,-1.476 -2.853,-1.362C-3.136,-1.247 -3.38,-1.086 -3.585,-0.877C-3.791,-0.67 -3.952,-0.417 -4.065,-0.119C-4.18,0.179 -4.237,0.514 -4.237,0.886C-4.237,1.259 -4.18,1.595 -4.065,1.892C-3.952,2.19 -3.791,2.444 -3.585,2.656C-3.38,2.868 -3.136,3.029 -2.853,3.14C-2.569,3.251 -2.253,3.307 -1.905,3.307C-1.557,3.307 -1.243,3.251 -0.959,3.14C-0.675,3.029 -0.431,2.868 -0.225,2.656C-0.019,2.444 0.141,2.19 0.256,1.892C0.37,1.595 0.427,1.259 0.427,0.886C0.427,0.514 0.37,0.179 0.256,-0.119" style="fill:white;fill-rule:nonzero;"/>
    </g>
    <g transform="matrix(4.166667,0,0,4.166667,596.62,355.3175)">
        <path d="M0,-0.298L-0.611,-0.298L-0.611,-0.998L0.011,-0.998C0.176,-0.998 0.311,-0.962 0.395,-0.897C0.468,-0.838 0.499,-0.768 0.501,-0.663L0.501,-0.657C0.499,-0.546 0.463,-0.471 0.379,-0.404C0.292,-0.337 0.154,-0.298 0,-0.298M0.5,0.142C0.615,0.096 0.715,0.034 0.798,-0.044C0.967,-0.199 1.059,-0.419 1.058,-0.663L1.058,-0.671C1.058,-0.891 0.971,-1.105 0.822,-1.257C0.635,-1.448 0.35,-1.553 0.02,-1.553L-1.105,-1.553C-1.14,-1.553 -1.168,-1.524 -1.168,-1.488L-1.168,1.19C-1.168,1.226 -1.14,1.255 -1.105,1.255L-0.674,1.255C-0.639,1.255 -0.611,1.226 -0.611,1.19L-0.611,0.252L-0.118,0.252L0.619,1.23C0.63,1.245 0.649,1.255 0.669,1.255L1.215,1.255C1.238,1.255 1.261,1.241 1.271,1.219C1.282,1.197 1.28,1.171 1.265,1.151L0.5,0.142Z" style="fill:white;fill-rule:nonzero;"/>
    </g>
    <g transform="matrix(4.166667,0,0,4.166667,225.955,189.535)">
        <path d="M0,0.013C0,-0.284 -0.038,-0.544 -0.112,-0.765C-0.186,-0.986 -0.288,-1.168 -0.417,-1.313C-0.546,-1.458 -0.7,-1.566 -0.879,-1.638C-1.057,-1.71 -1.249,-1.747 -1.452,-1.747L-2.056,-1.747L-2.056,1.76L-1.452,1.76C-1.249,1.76 -1.057,1.724 -0.879,1.652C-0.7,1.579 -0.546,1.471 -0.417,1.326C-0.288,1.181 -0.186,1 -0.112,0.781C-0.038,0.562 0,0.306 0,0.013M0.745,0.013C0.745,0.743 0.552,1.302 0.166,1.687C-0.221,2.071 -0.763,2.263 -1.458,2.263L-2.801,2.263L-2.801,-2.25L-1.45,-2.25C-0.754,-2.25 -0.214,-2.057 0.17,-1.67C0.554,-1.283 0.745,-0.722 0.745,0.013" style="fill:white;fill-rule:nonzero;"/>
    </g>
    <g transform="matrix(4.166667,0,0,4.166667,239.940417,180.162083)">
        <path d="M0,4.513L0,0L2.47,0L2.47,0.51L0.721,0.51L0.721,1.931L2.354,1.931L2.354,2.409L0.721,2.409L0.721,3.996L2.553,3.996L2.553,4.513L0,4.513Z" style="fill:white;fill-rule:nonzero;"/>
    </g>
    <g transform="matrix(4.166667,0,0,4.166667,272.262917,185.155)">
        <path d="M0,2.116C0,2.32 -0.042,2.504 -0.124,2.668C-0.207,2.831 -0.32,2.968 -0.46,3.079C-0.601,3.19 -0.768,3.275 -0.961,3.334C-1.155,3.393 -1.362,3.423 -1.584,3.423C-1.882,3.423 -2.165,3.375 -2.432,3.279C-2.701,3.184 -2.915,3.057 -3.074,2.901L-2.636,2.486C-2.509,2.613 -2.35,2.714 -2.159,2.785C-1.968,2.858 -1.777,2.894 -1.584,2.894C-1.334,2.894 -1.13,2.83 -0.969,2.703C-0.809,2.575 -0.729,2.391 -0.729,2.148C-0.729,2.033 -0.754,1.932 -0.804,1.845C-0.854,1.758 -0.923,1.679 -1.011,1.609C-1.1,1.54 -1.2,1.476 -1.314,1.418C-1.427,1.361 -1.55,1.306 -1.682,1.256C-1.843,1.196 -1.993,1.129 -2.135,1.054C-2.275,0.981 -2.4,0.894 -2.511,0.797C-2.622,0.699 -2.708,0.583 -2.772,0.449C-2.836,0.315 -2.868,0.157 -2.868,-0.026C-2.868,-0.243 -2.823,-0.432 -2.734,-0.593C-2.647,-0.755 -2.53,-0.888 -2.383,-0.995C-2.236,-1.101 -2.069,-1.18 -1.882,-1.231C-1.694,-1.282 -1.503,-1.307 -1.309,-1.307C-1.027,-1.307 -0.775,-1.271 -0.551,-1.199C-0.327,-1.126 -0.141,-1.018 0.009,-0.874L-0.439,-0.466C-0.649,-0.679 -0.931,-0.785 -1.284,-0.785C-1.389,-0.785 -1.494,-0.771 -1.596,-0.743C-1.697,-0.715 -1.79,-0.671 -1.873,-0.609C-1.956,-0.547 -2.022,-0.47 -2.072,-0.377C-2.122,-0.283 -2.146,-0.171 -2.146,-0.039C-2.146,0.076 -2.123,0.175 -2.076,0.258C-2.03,0.341 -1.966,0.415 -1.886,0.481C-1.806,0.546 -1.713,0.606 -1.608,0.659C-1.503,0.713 -1.389,0.762 -1.268,0.809C-1.113,0.869 -0.961,0.936 -0.812,1.01C-0.663,1.084 -0.527,1.173 -0.406,1.274C-0.284,1.377 -0.186,1.497 -0.112,1.635C-0.038,1.773 0,1.934 0,2.116" style="fill:white;fill-rule:nonzero;"/>
    </g>
    <g transform="matrix(4.166667,0,0,4.166667,294.64125,189.535)">
        <path d="M0,0.013C0,-0.284 -0.038,-0.544 -0.112,-0.765C-0.186,-0.986 -0.288,-1.168 -0.417,-1.313C-0.546,-1.458 -0.7,-1.566 -0.879,-1.638C-1.057,-1.71 -1.249,-1.747 -1.452,-1.747L-2.056,-1.747L-2.056,1.76L-1.452,1.76C-1.249,1.76 -1.057,1.724 -0.879,1.652C-0.7,1.579 -0.546,1.471 -0.417,1.326C-0.288,1.181 -0.186,1 -0.112,0.781C-0.038,0.562 0,0.306 0,0.013M0.745,0.013C0.745,0.743 0.552,1.302 0.166,1.687C-0.221,2.071 -0.763,2.263 -1.458,2.263L-2.801,2.263L-2.801,-2.25L-1.45,-2.25C-0.754,-2.25 -0.214,-2.057 0.17,-1.67C0.554,-1.283 0.745,-0.722 0.745,0.013" style="fill:white;fill-rule:nonzero;"/>
    </g>
    <g transform="matrix(4.166667,0,0,4.166667,308.62625,180.162083)">
        <path d="M0,4.513L0,0L2.47,0L2.47,0.51L0.721,0.51L0.721,1.931L2.354,1.931L2.354,2.409L0.721,2.409L0.721,3.996L2.553,3.996L2.553,4.513L0,4.513Z" style="fill:white;fill-rule:nonzero;"/>
    </g>
    <g transform="matrix(4.166667,0,0,4.166667,348.509583,180.162083)">
        <path d="M0,4.513L0,0.656L-1.045,1.268L-1.393,0.822L0.042,0L0.729,0L0.729,4.513L0,4.513Z" style="fill:white;fill-rule:nonzero;"/>
    </g>
    <g transform="matrix(4.166667,0,0,4.166667,368.125833,192.842083)">
        <path d="M0,-1.657C0,-1.52 0.018,-1.394 0.054,-1.277C0.089,-1.159 0.145,-1.058 0.219,-0.973C0.294,-0.888 0.386,-0.82 0.497,-0.772C0.607,-0.722 0.738,-0.698 0.887,-0.698C1.03,-0.698 1.159,-0.722 1.272,-0.772C1.386,-0.82 1.482,-0.889 1.562,-0.976C1.642,-1.064 1.704,-1.167 1.749,-1.286C1.793,-1.405 1.815,-1.533 1.815,-1.67C1.815,-1.965 1.735,-2.201 1.575,-2.38C1.415,-2.559 1.191,-2.649 0.903,-2.649C0.61,-2.649 0.386,-2.556 0.232,-2.371C0.077,-2.185 0,-1.947 0,-1.657M-0.746,-1.642C-0.746,-1.862 -0.707,-2.064 -0.626,-2.247C-0.546,-2.429 -0.433,-2.587 -0.286,-2.719C-0.14,-2.85 0.034,-2.951 0.236,-3.021C0.437,-3.092 0.663,-3.127 0.912,-3.127C1.165,-3.127 1.393,-3.093 1.595,-3.025C1.797,-2.957 1.97,-2.859 2.114,-2.731C2.256,-2.604 2.367,-2.449 2.445,-2.266C2.522,-2.083 2.561,-1.877 2.561,-1.648C2.561,-1.422 2.521,-1.202 2.441,-0.988C2.36,-0.773 2.254,-0.564 2.121,-0.36L0.928,1.47L0.124,1.47L1.417,-0.417L1.409,-0.424C1.22,-0.305 0.984,-0.245 0.696,-0.245C0.542,-0.245 0.379,-0.268 0.211,-0.312C0.042,-0.357 -0.112,-0.432 -0.253,-0.538C-0.394,-0.645 -0.511,-0.787 -0.605,-0.966C-0.699,-1.144 -0.746,-1.369 -0.746,-1.642" style="fill:white;fill-rule:nonzero;"/>
    </g>
    <g transform="matrix(4.166667,0,0,4.166667,394.924583,180.162083)">
        <path d="M0,4.513L0,0.656L-1.045,1.268L-1.393,0.822L0.042,0L0.729,0L0.729,4.513L0,4.513Z" style="fill:white;fill-rule:nonzero;"/>
    </g>
    <g transform="matrix(4.166667,0,0,4.166667,418.131667,180.162083)">
        <path d="M0,4.513L0,0.656L-1.045,1.268L-1.393,0.822L0.042,0L0.729,0L0.729,4.513L0,4.513Z" style="fill:white;fill-rule:nonzero;"/>
    </g>
    <g transform="matrix(4.166667,0,0,4.166667,-2264.0625,-1330.0125)">
        <clipPath id="_clip1">
            <path d="M620.498,319.203L620.439,319.203L620.439,319.204C577.926,319.236 543.375,353.753 543.375,396.273C543.375,438.813 577.863,473.302 620.402,473.302L620.402,473.283L620.439,473.283L620.439,473.302C662.979,473.302 697.467,438.813 697.467,396.273C697.467,353.753 663.01,319.236 620.498,319.204L620.498,319.203ZM556.145,361.095C568.632,338.43 592.789,323.008 620.476,322.995C648.164,323.008 672.209,338.43 684.697,361.095C688.38,367.782 682.62,370.992 678.739,369.48C678.128,369.242 677.986,369.626 678.348,369.993C679.549,371.214 681.302,371.915 683.172,371.915C685.347,371.915 687.294,370.927 688.586,369.374C689.254,371.066 689.861,372.787 690.404,374.538L660.367,374.538C664.428,373.41 666.966,367.977 661.766,361.793C651.854,350.011 637.064,342.444 620.47,342.435L620.47,342.434L620.439,342.434L620.439,342.435C603.778,342.444 588.987,350.011 579.076,361.793C573.874,367.977 576.412,373.41 580.475,374.538L550.436,374.538C550.981,372.787 551.587,371.066 552.254,369.374C553.547,370.927 555.494,371.915 557.67,371.915C559.538,371.915 561.292,371.214 562.493,369.993C562.855,369.626 562.713,369.242 562.103,369.48C561.468,369.727 560.783,369.848 560.096,369.848C556.589,369.848 553.064,366.689 556.145,361.095ZM581.684,363.736C591.556,352.425 605.473,345.8 620.455,345.795C635.368,345.8 649.286,352.425 659.157,363.736C664.137,369.442 659.396,374.519 654.772,372.56C654.192,372.294 653.911,372.562 654.314,372.938C655.228,373.752 656.211,374.271 657.194,374.538L583.647,374.538C584.63,374.271 585.613,373.752 586.528,372.938C586.931,372.562 586.649,372.294 586.069,372.56C585.379,372.853 584.685,372.988 584.023,372.988C580.246,372.988 577.448,368.589 581.684,363.736ZM547.159,396.273C547.159,389.963 547.958,383.835 549.461,377.99L620.386,377.985L620.455,377.985L691.381,377.99C692.883,383.835 693.681,389.963 693.681,396.273C693.681,402.537 692.895,408.619 691.415,414.422L549.426,414.422C547.946,408.619 547.159,402.537 547.159,396.273ZM671.562,432.083C668.027,428.915 667.619,423.541 670.551,419.881L670.872,419.501C670.872,419.501 672.746,417.873 675.092,417.873L690.444,417.873C688.98,422.623 687.038,427.163 684.688,431.447C685.032,430.473 685.185,429.429 685.127,428.366C685.097,427.829 685.014,427.303 684.882,426.793C684.691,425.962 684.357,425.172 683.908,424.472C683.65,424.067 683.348,423.7 683.03,423.358C682.86,423.199 682.691,423.039 682.524,422.883C682.426,422.799 682.433,422.806 682.442,422.814C682.446,422.817 682.45,422.822 682.438,422.81L682.424,422.8L682.397,422.779L682.346,422.74L682.136,422.582L682.085,422.544L682.003,422.488C681.887,422.409 681.77,422.332 681.65,422.261C681.529,422.186 681.411,422.12 681.305,422.073C681.088,421.971 680.873,421.864 680.648,421.792C680.426,421.708 680.204,421.638 679.976,421.588C679.754,421.527 679.525,421.497 679.3,421.47C678.401,421.361 677.526,421.464 676.748,421.717C675.971,421.974 675.289,422.375 674.75,422.859C674.481,423.103 674.236,423.355 674.035,423.625C673.972,423.706 673.909,423.786 673.847,423.867L673.748,424.032C673.695,424.116 673.585,424.311 673.503,424.475C672.902,425.721 673.025,426.888 673.332,427.69C673.632,428.507 674.129,428.966 674.445,429.24C674.798,429.547 675.171,429.219 674.977,428.817C674.916,428.694 674.702,428.162 674.734,427.485C674.803,426.054 676.036,424.793 677.812,424.793C680.198,424.793 681.411,427.322 681.411,428.767C681.411,429.847 681.044,430.815 680.34,431.6C679.232,432.837 677.709,433.569 676.051,433.659C675.93,433.667 675.808,433.67 675.689,433.67C674.161,433.67 672.708,433.109 671.562,432.083ZM576.077,420.371C575.335,418.941 574.727,417.918 573.448,417.876C573.448,417.874 573.446,417.873 573.445,417.873L667.396,417.873C667.394,417.873 667.393,417.874 667.393,417.876C666.116,417.918 665.505,418.941 664.763,420.371C656.759,435.79 639.572,446.717 620.439,446.717L620.402,446.717C601.27,446.717 584.082,435.79 576.077,420.371ZM550.397,417.873L565.749,417.873C568.095,417.873 569.969,419.501 569.969,419.501L570.29,419.881C573.222,423.541 572.814,428.915 569.279,432.083C568.042,433.191 566.448,433.756 564.791,433.659C563.132,433.569 561.609,432.837 560.5,431.6C559.796,430.815 559.429,429.847 559.429,428.767C559.429,427.322 560.644,424.793 563.03,424.793C564.805,424.793 566.039,426.054 566.106,427.485C566.139,428.162 565.924,428.694 565.865,428.817C565.671,429.219 566.042,429.547 566.396,429.24C566.712,428.966 567.209,428.507 567.509,427.69C567.815,426.888 567.939,425.721 567.339,424.475C567.257,424.311 567.146,424.116 567.093,424.032L566.994,423.867C566.932,423.786 566.869,423.706 566.806,423.625C566.605,423.355 566.36,423.103 566.092,422.859C565.552,422.375 564.871,421.974 564.093,421.717C563.315,421.464 562.44,421.361 561.541,421.47C561.316,421.497 561.088,421.527 560.865,421.588C560.639,421.638 560.415,421.708 560.193,421.792C559.967,421.864 559.754,421.971 559.535,422.073C559.431,422.12 559.313,422.186 559.192,422.261C559.071,422.332 558.955,422.409 558.838,422.488L558.757,422.544L558.705,422.582L558.599,422.661L558.496,422.74L558.444,422.779L558.417,422.8L558.404,422.81C558.391,422.822 558.394,422.817 558.399,422.814C558.407,422.806 558.415,422.799 558.317,422.883C558.15,423.039 557.981,423.199 557.811,423.358C557.494,423.7 557.191,424.067 556.933,424.472C556.484,425.172 556.149,425.962 555.959,426.793C555.827,427.303 555.745,427.829 555.715,428.366C555.656,429.429 555.809,430.473 556.154,431.447C553.803,427.163 551.86,422.623 550.397,417.873ZM664.925,426.541L664.928,426.54C665.195,429.63 666.589,432.63 669.075,434.858C670.914,436.505 673.248,437.396 675.698,437.396C675.882,437.396 676.069,437.391 676.255,437.381C678.907,437.235 681.344,436.066 683.116,434.088C683.184,434.011 683.249,433.934 683.314,433.856C670.519,455.216 647.15,469.516 620.439,469.516L620.439,469.521L620.402,469.521L620.402,469.516C593.691,469.516 570.323,455.216 557.527,433.856C557.592,433.934 557.658,434.011 557.726,434.088C559.498,436.066 561.935,437.235 564.586,437.381C564.773,437.391 564.959,437.396 565.143,437.396C567.594,437.396 569.927,436.505 571.766,434.858C574.253,432.63 575.646,429.63 575.914,426.54L575.914,426.541C585.453,441.512 601.261,450.054 620.32,450.079L620.367,450.079C620.379,450.079 620.391,450.08 620.402,450.08L620.402,450.079L620.439,450.079L620.439,450.08C639.535,450.08 655.375,441.534 664.925,426.541Z" clip-rule="nonzero"/>
        </clipPath>
        <g clip-path="url(#_clip1)">
            <rect x="543.375" y="319.202" width="154.092" height="154.099" style="fill:white;"/>
        </g>
    </g>
</svg>
