<?xml version="1.0" encoding="UTF-8" standalone="no"?>
<!DOCTYPE svg PUBLIC "-//W3C//DTD SVG 1.1//EN" "http://www.w3.org/Graphics/SVG/1.1/DTD/svg11.dtd">
<svg width="100%" height="100%" viewBox="0 0 1681 298" version="1.1" xmlns="http://www.w3.org/2000/svg" xmlns:xlink="http://www.w3.org/1999/xlink" xml:space="preserve" xmlns:serif="http://www.serif.com/" style="fill-rule:evenodd;clip-rule:evenodd;stroke-linejoin:round;stroke-miterlimit:2;">
    <g transform="matrix(4.166667,0,0,4.166667,1299.383071,97.203426)">
        <path d="M0,25.373C-3.853,25.373 -7.706,25.355 -11.558,25.388C-12.378,25.395 -12.797,25.056 -12.804,24.298C-12.831,21.573 -12.832,18.848 -12.803,16.123C-12.796,15.398 -12.475,14.994 -11.595,15.013C-10.875,15.028 -10.154,15.037 -9.432,15.042C-8.711,15.047 -7.987,15.048 -7.256,15.047C-5.811,15.045 -4.343,15.036 -2.83,15.036L-2.764,15.036C-2.689,15.036 -2.615,15.037 -2.541,15.038C-2.344,15.039 -2.151,15.04 -1.965,15.042L-1.87,15.042C-1.565,15.044 -1.271,15.043 -0.978,15.032C0.221,14.985 0.704,14.487 0.716,13.303C0.725,12.395 0.729,11.486 0.715,10.578C0.698,9.497 0.386,9.142 -0.664,9.024C-1.34,8.948 -2.021,8.871 -2.7,8.867C-5.644,8.849 -8.589,8.866 -11.533,8.854C-12.619,8.85 -12.811,8.641 -12.814,7.54C-12.82,5.535 -12.816,3.53 -12.815,1.525C-12.815,0.193 -12.628,-0.027 -11.321,-0.183C-11.074,-0.213 -10.82,-0.189 -10.57,-0.189C-7.03,-0.189 -3.491,-0.195 0.049,-0.185C0.88,-0.182 1.435,-0.503 1.461,-1.379C1.498,-2.613 1.477,-3.849 1.47,-5.085C1.464,-6.079 0.874,-6.398 -0.03,-6.397C-6.295,-6.39 -12.56,-6.396 -18.825,-6.39C-19.839,-6.39 -20.332,-5.915 -20.332,-4.931C-20.336,6.784 -20.336,18.499 -20.332,30.214C-20.331,31.156 -19.793,31.754 -18.874,31.756C-12.39,31.771 -5.906,31.769 0.579,31.757C1.286,31.756 1.907,31.409 2.006,30.69C2.156,29.587 2.231,28.457 2.179,27.346C2.099,25.641 1.74,25.373 0,25.373" style="fill:rgb(30,28,26);fill-rule:nonzero;"/>
    </g>
    <g transform="matrix(4.166667,0,0,4.166667,1179.782238,228.245093)">
        <path d="M0,-37.476C-0.166,-37.537 -0.33,-37.622 -0.495,-37.692C-0.582,-37.729 -0.666,-37.761 -0.75,-37.785C-0.833,-37.809 -0.916,-37.824 -1,-37.826C-2.439,-37.866 -3.88,-37.845 -5.321,-37.843C-6.551,-37.842 -7.042,-37.346 -7.043,-36.097C-7.045,-32.057 -7.043,-28.018 -7.045,-23.978C-7.046,-22.788 -7.401,-22.432 -8.582,-22.431C-11.589,-22.429 -14.595,-22.429 -17.601,-22.431C-18.913,-22.431 -19.072,-22.595 -19.072,-23.941C-19.073,-27.949 -19.068,-31.957 -19.075,-35.966C-19.078,-37.384 -19.553,-37.842 -20.966,-37.843C-22.375,-37.844 -23.785,-37.847 -25.194,-37.842C-25.944,-37.839 -26.528,-37.611 -26.62,-36.74C-26.662,-36.343 -26.773,-35.948 -26.773,-35.552C-26.782,-24.937 -26.78,-14.322 -26.78,-3.706C-26.78,-3.049 -26.793,-2.391 -26.778,-1.733C-26.744,-0.309 -26.112,0.39 -24.714,0.325C-23.558,0.272 -22.398,0.315 -21.239,0.315C-19.633,0.315 -19.074,-0.241 -19.073,-1.839C-19.072,-6.066 -19.072,-10.294 -19.072,-14.521C-19.072,-16.062 -19.072,-16.067 -17.49,-16.069C-14.546,-16.073 -11.603,-16.074 -8.659,-16.068C-7.138,-16.066 -7.045,-15.963 -7.045,-14.404C-7.043,-10.052 -7.047,-5.699 -7.042,-1.347C-7.041,-0.236 -6.512,0.303 -5.41,0.312C-3.969,0.324 -2.529,0.305 -1.088,0.319C-0.35,0.325 0.194,-0.008 0.436,-0.666C0.602,-1.118 0.619,-1.643 0.62,-2.135C0.629,-13.251 0.635,-24.368 0.606,-35.484C0.604,-36.13 0.305,-36.774 0,-37.476" style="fill:rgb(30,28,26);fill-rule:nonzero;"/>
    </g>
    <g transform="matrix(4.166667,0,0,4.166667,1420.123071,97.510093)">
        <path d="M0,25.3C-3.884,25.298 -7.768,25.301 -11.652,25.299C-12.831,25.298 -13.033,25.091 -13.034,23.89C-13.036,21.384 -13.036,18.879 -13.034,16.373C-13.033,15.09 -12.908,14.962 -11.676,14.962C-8.262,14.962 -4.848,14.965 -1.434,14.961C-0.316,14.959 0.189,14.647 0.302,13.522C0.427,12.275 0.369,10.998 0.256,9.746C0.229,9.454 -0.306,9.057 -0.665,8.98C-1.415,8.819 -2.203,8.798 -2.976,8.793C-5.983,8.77 -8.99,8.769 -11.996,8.777C-12.742,8.779 -13.055,8.472 -13.044,7.71C-13.016,5.674 -13.008,3.637 -13.042,1.602C-13.072,-0.172 -12.974,0.059 -11.249,-0.258C-11.068,-0.292 -10.874,-0.263 -10.686,-0.263C-7.241,-0.263 -3.795,-0.262 -0.35,-0.263C0.865,-0.264 1.233,-0.626 1.249,-1.858C1.261,-2.797 1.253,-3.737 1.25,-4.677C1.247,-6.052 0.844,-6.466 -0.5,-6.466C-6.577,-6.467 -12.653,-6.446 -18.729,-6.479C-20.452,-6.489 -20.512,-5.934 -20.727,-4.583C-20.771,-4.308 -20.738,-4.02 -20.738,-3.738L-20.738,17.687C-20.738,21.571 -20.762,25.455 -20.727,29.339C-20.711,31.178 -20.175,31.789 -18.392,31.702C-17.205,31.644 -16.012,31.691 -14.822,31.691C-9.904,31.691 -4.986,31.692 -0.068,31.69C1.338,31.689 1.813,31.205 1.815,29.782C1.816,28.905 1.816,28.028 1.815,27.151C1.813,25.79 1.336,25.301 0,25.3" style="fill:rgb(30,28,26);fill-rule:nonzero;"/>
    </g>
    <g transform="matrix(4.166667,0,0,4.166667,1037.810988,127.782593)">
        <path d="M0,10.756C-1.593,10.719 -3.191,10.682 -4.781,10.761C-5.559,10.799 -6.125,11.206 -6.077,12.191C-6.036,13.052 -6.164,13.924 -6.244,14.789C-6.357,16.011 -6.853,17.016 -7.988,17.604C-9.88,18.586 -11.878,18.563 -13.917,18.227C-16.415,17.816 -17.467,16.38 -17.493,14.237C-17.565,8.287 -17.578,2.336 -17.483,-3.613C-17.452,-5.494 -16.922,-6.836 -14.365,-7.556C-12.801,-7.996 -11.226,-7.994 -9.69,-7.681C-8.068,-7.35 -6.699,-6.502 -6.316,-4.708C-6.142,-3.896 -6.11,-3.051 -6.06,-2.217C-6.005,-1.33 -5.511,-0.958 -4.682,-0.952C-3.21,-0.943 -1.738,-0.959 -0.266,-0.946C0.445,-0.939 1.017,-1.247 1.063,-1.936C1.153,-3.311 1.12,-4.696 1.088,-6.077C0.997,-9.928 -2.139,-12.385 -5.382,-13.382C-7.548,-14.047 -9.748,-14.174 -11.961,-14.148C-13.718,-14.127 -15.49,-13.984 -17.225,-13.703C-19.095,-13.399 -20.846,-12.674 -22.335,-11.447C-24.453,-9.701 -25.199,-7.342 -25.218,-4.705C-25.231,-2.747 -25.233,-0.789 -25.231,1.181C-25.23,3.165 -25.225,5.172 -25.225,7.227C-25.162,10.471 -25.187,13.722 -25.008,16.96C-24.878,19.324 -23.658,21.187 -21.694,22.519C-19.312,24.135 -16.572,24.619 -13.791,24.775C-11.043,24.93 -8.281,24.851 -5.61,24.042C-3.087,23.277 -0.875,22.077 0.341,19.554C1.473,17.204 1.32,14.694 1.231,12.208C1.208,11.545 0.902,10.777 0,10.756" style="fill:rgb(30,28,26);fill-rule:nonzero;"/>
    </g>
    <g transform="matrix(4.166667,0,0,4.166667,741.715571,82.588426)">
        <path d="M0,-2.058C0.35,-2.823 1.31,-3.179 2.079,-2.953C2.188,-2.921 2.293,-2.878 2.391,-2.823C3.229,-2.351 3.586,-1.329 3.194,-0.526C2.742,0.401 1.768,0.791 0.862,0.408C-0.062,0.019 -0.403,-0.89 -0.005,-2.041C-0.003,-2.047 -0.002,-2.052 0,-2.058M5.67,2.465C5.791,2.331 5.904,2.19 6.009,2.045C6.054,1.983 6.091,1.917 6.133,1.853C6.189,1.767 6.247,1.683 6.298,1.594C6.368,1.471 6.429,1.344 6.489,1.216C6.504,1.183 6.523,1.152 6.538,1.119C7.473,-0.996 7.041,-3.719 5.257,-5.316C5.1,-5.456 4.935,-5.59 4.757,-5.712C3.612,-6.518 2.354,-6.805 0.956,-6.654C-1.553,-6.382 -3.485,-4.761 -3.936,-1.881C-4.278,0.303 -3.182,2.472 -0.97,3.685C0.967,4.747 3.948,4.378 5.67,2.465" style="fill:rgb(30,28,26);fill-rule:nonzero;"/>
    </g>
    <g transform="matrix(4.166667,0,0,4.166667,704.751821,118.731343)">
        <path d="M0,7.143C-0.033,7.177 -0.07,7.207 -0.103,7.239C-0.176,7.309 -0.248,7.38 -0.325,7.445C-0.392,7.502 -0.464,7.553 -0.535,7.606C-0.584,7.643 -0.631,7.683 -0.682,7.719C-0.807,7.804 -0.936,7.885 -1.071,7.96C-3.353,9.219 -6.5,8.628 -7.926,6.051C-9.114,3.903 -8.507,0.968 -6.479,-0.477C-4.498,-1.889 -1.827,-1.693 -0.05,0.09C0.071,0.212 0.188,0.343 0.306,0.483C0.402,0.597 0.5,0.716 0.605,0.851C0.793,1.142 0.945,1.447 1.066,1.761C1.778,3.61 1.35,5.761 0,7.143M-5.759,-4.806C-5.963,-4.753 -6.161,-4.694 -6.355,-4.629C-6.528,-4.57 -6.695,-4.505 -6.861,-4.436C-6.881,-4.428 -6.901,-4.421 -6.921,-4.413C-8.032,-3.941 -8.998,-3.237 -9.899,-2.333C-10.079,-2.153 -10.257,-1.964 -10.433,-1.768C-12.058,0.456 -12.643,2.925 -12.007,5.607C-10.905,10.267 -6.315,13.178 -1.593,12.066C3.008,10.984 5.99,6.457 4.893,1.656C3.797,-3.135 -0.982,-6.035 -5.759,-4.806" style="fill:rgb(30,28,26);fill-rule:nonzero;"/>
    </g>
    <g transform="matrix(4.166667,0,0,4.166667,809.035154,145.190093)">
        <path d="M0,9.019C-2.494,12.071 -6.374,12.943 -9.854,11.001C-12.362,9.601 -13.66,7.388 -13.769,4.444C-13.916,0.481 -11.117,-2.842 -7.096,-3.39C-6.805,-3.429 -6.519,-3.454 -6.238,-3.464C-6.09,-3.469 -5.948,-3.46 -5.805,-3.457C-5.673,-3.455 -5.54,-3.46 -5.411,-3.451C-3.789,-3.338 -2.348,-2.709 -1.11,-1.621C-0.559,-1.136 -0.048,-0.56 0.42,0.103C0.872,1.39 1.488,2.606 1.623,3.873C1.823,5.752 1.205,7.545 0,9.019M5.051,1.982C4.004,-3.664 -1.1,-7.327 -6.452,-7.148C-9.738,-7.038 -12.573,-5.704 -14.775,-3.096C-16.385,-1.188 -17.302,0.99 -17.463,3.398C-17.734,7.474 -16.25,10.911 -12.955,13.387C-10.056,15.565 -6.742,16.346 -3.222,15.311C-3.034,15.255 -2.847,15.192 -2.663,15.122C-1.371,14.634 -0.162,13.823 1.177,13.119C1.182,13.116 1.186,13.114 1.19,13.112C4.317,10.3 5.696,6.867 5.18,2.804C5.146,2.533 5.103,2.259 5.051,1.982" style="fill:rgb(30,28,26);fill-rule:nonzero;"/>
    </g>
    <g transform="matrix(4.166667,0,0,4.166667,873.763488,130.515509)">
        <path d="M0,8.117C-8.896,17.026 -17.807,25.92 -26.702,34.831C-28.892,37.024 -32.273,36.935 -34.307,34.815C-35.542,33.527 -36.814,32.273 -38.093,31.028C-38.651,30.485 -38.834,29.947 -38.442,29.218C-37.482,27.429 -36.956,25.488 -37.002,23.477C-37.133,17.719 -40.729,12.886 -46.616,11.578C-49.414,10.956 -52.201,11.252 -54.797,12.599C-55.631,13.032 -56.256,12.933 -56.919,12.224C-58.267,10.785 -59.697,9.422 -61.088,8.023C-63.046,6.056 -63.059,2.772 -61.11,0.816C-58.678,-1.625 -56.238,-4.057 -53.755,-6.54C-51.933,-8.361 -50.124,-10.171 -48.309,-11.986C-46.469,-13.826 -37.138,-23.157 -34.308,-25.987C-32.147,-28.148 -28.9,-28.19 -26.737,-26.032C-17.803,-17.116 -8.877,-8.192 0.037,0.744C2.082,2.795 2.054,6.06 0,8.117M-19.044,-23.583C-20.707,-25.24 -22.364,-26.903 -24.032,-28.555C-27.832,-32.321 -33.368,-32.193 -37.065,-28.489C-45.383,-20.156 -53.72,-11.841 -62.042,-3.51C-62.81,-2.741 -63.555,-1.942 -64.252,-1.109C-66.91,2.065 -67.064,6.62 -64.338,9.796C-62.244,12.235 -59.896,14.458 -57.624,16.739C-56.788,17.577 -55.894,17.61 -54.865,16.997C-54.467,16.76 -54.105,16.463 -53.707,16.225C-50.265,14.165 -46.405,14.569 -43.445,17.237C-40.221,20.143 -39.719,25.044 -42.507,28.831C-43.513,30.197 -43.438,30.919 -42.244,32.125C-40.439,33.952 -38.634,35.78 -36.795,37.572C-35.356,38.974 -33.608,39.874 -31.621,40.1C-28.65,40.438 -26.085,39.448 -23.971,37.338C-15.198,28.575 -6.426,19.81 2.335,11.035C4.184,9.184 5.261,6.954 5.232,4.303C5.203,1.681 4.061,-0.471 2.227,-2.302C-4.837,-9.359 -11.891,-16.426 -19.044,-23.583" style="fill:rgb(30,28,26);fill-rule:nonzero;"/>
    </g>
    <g transform="matrix(4.166667,0,0,4.166667,1539.363904,155.981759)">
        <path d="M0,-2.806C-3.47,-4.244 -7.017,-5.505 -10.565,-6.741C-12.221,-7.317 -13.49,-8.106 -13.591,-10.023C-13.616,-10.506 -13.49,-10.995 -13.461,-11.484C-13.379,-12.892 -12.615,-13.811 -11.345,-14.286C-9.639,-14.924 -7.862,-15.07 -6.089,-14.639C-4.96,-14.366 -3.737,-13.993 -3.285,-12.805C-2.924,-11.859 -2.844,-10.786 -2.762,-9.759C-2.677,-8.68 -2.259,-8.12 -1.215,-8.1C0.225,-8.072 1.668,-8.057 3.107,-8.108C3.875,-8.136 4.552,-8.418 4.613,-9.361C4.666,-10.166 4.791,-10.974 4.745,-11.773C4.659,-13.27 4.421,-14.744 3.648,-16.081C2.413,-18.217 0.46,-19.357 -1.792,-20.135C-3.817,-20.834 -5.911,-20.91 -8.011,-20.932C-10.793,-20.962 -13.544,-20.789 -16.123,-19.566C-18.632,-18.376 -20.39,-16.55 -20.76,-13.74C-20.995,-11.961 -21.002,-10.138 -20.942,-8.339C-20.909,-7.364 -20.649,-6.346 -20.269,-5.44C-20.169,-5.2 -20.059,-4.97 -19.94,-4.751C-19.876,-4.633 -19.802,-4.525 -19.733,-4.412C-19.675,-4.316 -19.62,-4.216 -19.557,-4.124C-18.741,-2.93 -17.621,-2.078 -16.285,-1.438C-15.688,-1.152 -15.048,-0.909 -14.373,-0.696C-11.495,0.404 -8.622,1.518 -5.736,2.599C-3.771,3.335 -2.491,4.494 -2.434,6.802C-2.382,8.935 -2.972,10.526 -4.733,11.207C-7.214,12.166 -9.757,12.19 -12.245,11.095C-13.615,10.492 -14.168,9.387 -14.216,7.944C-14.247,7.012 -14.367,6.082 -14.388,5.149C-14.408,4.255 -14.938,3.956 -15.7,3.943C-17.172,3.918 -18.645,3.933 -20.117,3.936C-21.163,3.938 -21.712,4.466 -21.725,5.511C-21.74,6.701 -21.759,7.892 -21.723,9.082C-21.626,12.259 -20.132,14.593 -17.385,16.157C-15.152,17.428 -12.682,17.869 -10.183,18.005C-7.43,18.156 -4.667,18.075 -1.982,17.28C1.133,16.359 3.785,14.77 4.612,11.437C5.103,9.455 5.125,7.325 5.121,5.262C5.116,1.545 3.519,-1.347 0,-2.806" style="fill:rgb(30,28,26);fill-rule:nonzero;"/>
    </g>
    <g transform="matrix(4.166667,0,0,4.166667,1680.652654,89.712176)">
        <path d="M0,28.938C-0.001,27.655 -0.488,27.172 -1.796,27.171C-5.711,27.17 -9.627,27.173 -13.542,27.17C-14.615,27.168 -14.845,26.94 -14.847,25.875C-14.853,23.276 -14.854,20.676 -14.847,18.076C-14.844,17.009 -14.66,16.834 -13.608,16.834C-10.162,16.833 -6.717,16.836 -3.271,16.832C-1.851,16.83 -1.505,16.484 -1.504,15.099C-1.503,14.566 -1.512,14.033 -1.502,13.502C-1.452,10.935 -1.254,10.724 -4.387,10.669C-7.456,10.615 -10.526,10.663 -13.595,10.652C-14.652,10.648 -14.844,10.443 -14.847,9.395C-14.853,7.328 -14.819,5.26 -14.859,3.194C-14.886,1.842 -14.673,1.93 -13.444,1.617C-13.238,1.564 -13.008,1.608 -12.788,1.608C-9.218,1.608 -5.646,1.611 -2.076,1.607C-0.953,1.606 -0.572,1.228 -0.565,0.125C-0.559,-0.846 -0.564,-1.817 -0.564,-2.788C-0.564,-4.269 -0.883,-4.595 -2.344,-4.595C-5.227,-4.595 -8.11,-4.596 -11.005,-4.596C-13.882,-4.596 -16.782,-4.595 -19.726,-4.595L-19.819,-4.595C-20.173,-4.61 -20.489,-4.628 -20.769,-4.628C-21.804,-4.63 -22.351,-4.404 -22.515,-3.001C-22.515,-2.997 -22.515,-2.993 -22.516,-2.989C-22.528,-2.887 -22.537,-2.779 -22.545,-2.664C-22.55,-2.595 -22.552,-2.518 -22.556,-2.445C-22.558,-2.39 -22.561,-2.339 -22.563,-2.282C-22.567,-2.146 -22.569,-2.003 -22.568,-1.851C-22.538,9.174 -22.556,20.2 -22.556,31.226C-22.556,31.476 -22.576,31.73 -22.549,31.977C-22.447,32.901 -21.819,33.553 -20.939,33.555C-14.455,33.568 -7.972,33.568 -1.488,33.555C-0.561,33.553 -0.017,32.967 -0.003,32.039C0.012,31.005 0.001,29.971 0,28.938" style="fill:rgb(30,28,26);fill-rule:nonzero;"/>
    </g>
    <g transform="matrix(4.166667,0,0,4.166667,412.263904,150.445926)">
        <path d="M0,-0.558C-1.323,-0.399 -2.489,-0.231 -3.658,-0.201C-5.628,-0.15 -7.6,-0.181 -9.57,-0.189C-10.864,-0.194 -11.179,-0.51 -11.179,-1.771C-11.18,-6.057 -11.18,-10.343 -11.178,-14.629C-11.178,-15.619 -10.848,-15.968 -9.853,-15.972C-7.288,-15.982 -4.716,-16.087 -2.159,-15.94C-0.063,-15.82 2.066,-15.544 3.645,-13.851C4.392,-13.051 4.787,-12.118 4.794,-11.029C4.804,-9.246 4.739,-7.46 4.81,-5.681C4.91,-3.214 3.4,-1.48 1.08,-0.765C0.732,-0.658 0.361,-0.625 0,-0.558M6.795,12.708C5.41,9.797 3.989,6.904 2.623,3.985C2.092,2.852 2.282,2.668 3.504,2.243C7.109,0.987 8.715,-1.138 8.909,-4.699C9.034,-6.978 9.008,-9.272 8.909,-11.553C8.829,-13.384 8.289,-15.065 6.903,-16.437C4.789,-18.529 2.097,-19.095 -0.66,-19.321C-3.3,-19.538 -5.966,-19.449 -8.621,-19.479C-10.155,-19.496 -11.69,-19.503 -13.223,-19.476C-14.987,-19.445 -15.128,-19.285 -15.128,-17.554L-15.128,14.381C-15.128,15.351 -15.143,16.322 -15.124,17.292C-15.104,18.239 -14.708,18.606 -13.761,18.61C-13.354,18.612 -12.947,18.613 -12.54,18.61C-11.458,18.605 -11.18,18.331 -11.18,17.249C-11.178,13.053 -11.18,8.858 -11.179,4.663C-11.179,3.402 -10.983,3.199 -9.763,3.198C-7.571,3.196 -5.379,3.22 -3.188,3.187C-2.304,3.173 -1.767,3.499 -1.385,4.316C0.498,8.345 2.518,12.313 4.295,16.388C5.068,18.161 6.085,18.98 7.987,18.612C8.048,18.601 8.112,18.613 8.175,18.61C9.021,18.571 9.303,18.209 8.962,17.418C8.277,15.832 7.537,14.268 6.795,12.708" style="fill:rgb(30,28,26);fill-rule:nonzero;"/>
    </g>
    <g transform="matrix(4.166667,0,0,4.166667,318.926821,227.425926)">
        <path d="M0,-37.832C-0.617,-37.895 -1.239,-37.917 -2.042,-37.958C-8.647,-37.958 -15.253,-37.946 -21.859,-37.965C-23.798,-37.971 -24.092,-37.245 -23.792,-35.364C-23.671,-34.605 -23.255,-34.433 -22.565,-34.44C-19.998,-34.465 -17.431,-34.453 -14.863,-34.448C-13.615,-34.446 -13.404,-34.231 -13.404,-33.009C-13.403,-25.057 -13.404,-17.105 -13.404,-9.153C-13.404,-6.493 -13.407,-3.832 -13.401,-1.17C-13.4,-0.258 -13.017,0.125 -12.127,0.135C-11.845,0.139 -11.564,0.136 -11.282,0.136C-9.423,0.136 -9.266,-0.019 -9.266,-1.852C-9.266,-12.277 -9.267,-22.702 -9.266,-33.127C-9.266,-34.3 -9.12,-34.448 -7.919,-34.449C-5.352,-34.452 -2.784,-34.469 -0.217,-34.441C0.855,-34.429 1.15,-34.848 1.241,-36.005C1.338,-37.235 0.98,-37.732 0,-37.832" style="fill:rgb(30,28,26);fill-rule:nonzero;"/>
    </g>
    <g transform="matrix(4.166667,0,0,4.166667,220.930154,83.150093)">
        <path d="M0,31.404C-4.414,31.357 -8.828,31.377 -13.243,31.377C-14.614,31.377 -14.882,31.1 -14.882,29.679L-14.882,-1.031C-14.882,-1.437 -14.805,-1.865 -14.905,-2.245C-14.996,-2.589 -15.224,-3.075 -15.493,-3.156C-16.074,-3.328 -16.729,-3.37 -17.337,-3.305C-18.834,-3.146 -18.83,-3.111 -18.83,-1.575L-18.83,33.177C-18.83,33.396 -18.855,33.619 -18.825,33.834C-18.745,34.411 -18.512,34.774 -17.817,34.772C-11.712,34.754 -5.607,34.768 0.498,34.743C0.818,34.742 1.381,34.525 1.414,34.336C1.548,33.567 1.675,32.727 1.476,32.003C1.388,31.684 0.518,31.41 0,31.404" style="fill:rgb(30,28,26);fill-rule:nonzero;"/>
    </g>
    <g transform="matrix(4.166667,0,0,4.166667,541.643071,127.778009)">
        <path d="M0,10.133C-2.506,10.149 -5.012,10.144 -7.518,10.139C-8.626,10.136 -8.881,9.833 -8.577,8.748C-8.253,7.585 -7.848,6.444 -7.478,5.295C-6.577,2.266 -5.677,-0.602 -4.825,-3.484C-4.515,-4.533 -4.334,-5.619 -4.065,-6.681C-3.966,-7.071 -3.782,-7.438 -3.558,-8.015C-1.747,-1.909 -0.01,3.946 1.772,9.953C1.019,10.033 0.51,10.13 0,10.133M3.443,1.944C1.94,-2.929 0.454,-7.808 -1.096,-12.666C-1.249,-13.147 -1.726,-13.74 -2.171,-13.865C-2.883,-14.066 -3.698,-13.873 -4.462,-13.935C-5.204,-13.995 -5.55,-13.588 -5.757,-13C-6.037,-12.201 -6.268,-11.384 -6.52,-10.574C-7.765,-6.569 -9.009,-2.563 -10.276,1.597C-11.342,5.105 -12.401,8.616 -13.476,12.122C-14.508,15.49 -15.575,18.847 -16.592,22.22C-17.075,23.821 -16.736,24.199 -15.215,24.053C-15.029,24.035 -14.837,24.032 -14.652,24.054C-13.637,24.175 -13.168,23.661 -12.89,22.73C-12.053,19.936 -11.137,17.166 -10.291,14.375C-10.065,13.628 -9.652,13.325 -8.883,13.329C-5.377,13.347 -1.87,13.349 1.637,13.327C2.35,13.323 2.844,13.564 3.06,14.243C3.822,16.645 4.623,19.036 5.305,21.46C6.031,24.041 5.979,24.055 8.548,24.051C9.842,24.049 10.137,23.65 9.748,22.39C7.649,15.573 5.545,8.759 3.443,1.944" style="fill:rgb(30,28,26);fill-rule:nonzero;"/>
    </g>
    <g transform="matrix(4.166667,0,0,4.166667,101.657654,221.308009)">
        <path d="M0,-34.296C-0.017,-36.569 -0.274,-36.459 -2.512,-36.448C-2.633,-36.447 -2.757,-36.36 -2.873,-36.373C-3.771,-36.473 -3.976,-35.853 -4.101,-35.18C-4.152,-34.908 -4.114,-34.618 -4.114,-34.337C-4.115,-25.003 -4.107,-15.668 -4.123,-6.334C-4.126,-4.947 -4.654,-3.782 -5.822,-2.934C-6.97,-2.101 -8.247,-1.709 -9.643,-1.561C-12.183,-1.291 -14.695,-1.194 -17.14,-2.138C-19.083,-2.889 -20.277,-4.581 -20.278,-6.659L-20.278,-34.755C-20.278,-36.167 -20.306,-36.321 -21.633,-36.403C-24.099,-36.557 -24.375,-36.508 -24.382,-34.109C-24.407,-25.433 -24.398,-16.756 -24.385,-8.08C-24.383,-6.993 -24.34,-5.898 -24.214,-4.819C-23.965,-2.689 -22.908,-1.044 -21.106,0.139C-18.721,1.705 -16.007,2.006 -13.277,2.148C-10.862,2.273 -8.449,2.087 -6.109,1.409C-3.723,0.717 -1.612,-0.437 -0.705,-2.904C-0.26,-4.114 -0.042,-5.47 -0.022,-6.764C0.054,-11.775 0.009,-16.787 0.009,-21.986C0.009,-26.09 0.03,-30.193 0,-34.296" style="fill:rgb(30,28,26);fill-rule:nonzero;"/>
    </g>
</svg>
