<?xml version="1.0" encoding="UTF-8" standalone="no"?>
<!DOCTYPE svg PUBLIC "-//W3C//DTD SVG 1.1//EN" "http://www.w3.org/Graphics/SVG/1.1/DTD/svg11.dtd">
<svg width="100%" height="100%" viewBox="0 0 1172 246" version="1.1" xmlns="http://www.w3.org/2000/svg" xmlns:xlink="http://www.w3.org/1999/xlink" xml:space="preserve" xmlns:serif="http://www.serif.com/" style="fill-rule:evenodd;clip-rule:evenodd;">
    <g transform="matrix(4.166667,0,0,4.166667,329.42906,127.738284)">
        <path d="M0,-2.559L0,0.543C0.394,4.444 1.886,8.459 2.397,9.277C3.442,10.954 4.065,12.14 5.453,13.519C6.369,14.43 8.41,16.111 9.645,16.629C11.791,17.991 15.976,19.293 19.351,19.427L24.371,19.427C26.784,19.494 30.726,18.251 31.742,17.853C33.983,16.974 35.3,16.475 35.69,13.223C36.086,10.911 36.525,9.323 36.694,7.568C36.694,6.742 36.233,6.29 35.416,6.29L35.324,6.29C34.069,6.29 33.531,8.489 32.875,9.407C32.02,10.605 31.515,11.508 30.464,12.562C28.568,14.467 26.139,15.596 22.362,15.596L21.724,15.596C19.308,15.596 16.804,14.251 15.409,13.149C13.125,11.344 11.963,8.61 11.122,5.938C10.504,3.972 10.314,1.381 10.314,-0.643L10.314,-2.103C10.314,-5.34 10.905,-9.315 12.487,-12.246C13.092,-13.364 13.703,-14.31 14.549,-15.203C16.11,-16.85 18.492,-18.158 21.632,-18.158L22.18,-18.158C25.151,-18.158 28.258,-16.237 29.779,-14.715C30.729,-13.766 31.491,-12.765 32.191,-11.561C32.706,-10.676 33.452,-8.397 34.503,-8.397C35.254,-8.397 35.731,-8.845 35.782,-9.582C35.917,-11.569 35.429,-14.159 35.084,-16.095C34.716,-18.168 35.19,-18.358 33.481,-19.327C30.576,-20.975 26.328,-21.361 23.093,-21.899C17.157,-21.899 12.386,-21.089 7.447,-17.467C6.8,-16.993 6.328,-16.502 5.774,-15.946C4.811,-14.986 3.657,-13.567 3,-12.333C2.171,-10.78 1.686,-9.757 1.061,-7.884C0.78,-7.044 0.139,-4.711 0,-2.559M52.667,12.584L52.667,0.269L67.364,0.269L67.271,12.402L67.089,14.227C67.032,14.7 66.493,15.386 65.68,15.83C65.202,16.09 63.62,16.13 63.62,16.872L63.62,17.42C63.62,17.672 63.781,17.985 64.4,18.044L79.605,18.045C80.51,18.061 80.6,18.011 80.597,17.785C80.439,15.872 79.932,16.462 78.378,15.808C77.586,15.475 76.855,14.065 76.855,13.041L76.855,-15.239C76.855,-18.956 80.415,-18.256 80.415,-19.162C80.415,-19.971 80.283,-20.439 79.32,-20.439L64.807,-20.439C64.319,-20.439 63.62,-20.149 63.62,-19.71L63.62,-19.071C64.039,-18.92 63.816,-18.775 64.809,-18.525C65.251,-18.414 65.688,-18.273 66.032,-18.015C66.595,-17.594 67.271,-16.602 67.271,-15.695L67.271,-3.471L52.759,-3.471L52.759,-15.422C52.759,-19.02 56.41,-18.106 56.41,-19.436C56.41,-20.406 55.876,-20.353 55.04,-20.439L40.358,-20.444C39.904,-20.321 39.614,-20.007 39.614,-19.801L39.614,-19.528C39.614,-18.346 40.838,-18.577 41.764,-18.118C42.468,-17.767 43.174,-16.894 43.174,-15.878L43.265,11.581C43.265,13.034 43.398,14.007 42.603,15.025C41.914,15.908 40.79,15.983 39.797,16.508C39.304,17.487 39.179,18.059 41.074,18.059L55.406,18.059C56.124,18.059 56.588,17.659 56.41,16.964C56.341,16.145 54.765,16.134 54.11,15.704C53.27,15.154 52.667,13.594 52.667,12.584M85.071,-18.524C86.01,-18.524 86.989,-17.887 87.299,-17.193C87.784,-16.105 87.808,-15.564 87.808,-14.054L87.808,12.22C87.808,13.409 87.597,14.713 86.95,15.285C86.503,15.681 86.278,15.758 85.698,15.949C85.289,16.083 84.482,16.445 84.249,16.508L84.249,17.511C84.249,17.806 84.645,18.059 84.979,18.059L99.857,18.059C100.765,18.059 101.044,17.64 101.044,16.872C101.044,15.936 97.393,16.478 97.393,13.133L97.393,-15.969C97.393,-16.633 97.984,-17.661 98.503,-18.052C99.158,-18.546 100.405,-18.621 100.405,-19.436C100.405,-20.195 100.005,-20.439 99.219,-20.439L84.888,-20.621C83.51,-20.101 83.983,-18.696 85.071,-18.524M184.472,-21.534C181.681,-21.302 178.406,-19.54 176.873,-17.999C175.168,-16.286 173.519,-13.681 173.519,-10.313L173.519,-9.401C173.519,-7.099 174.695,-4.522 175.778,-3.266C176.491,-2.44 177.033,-1.864 177.915,-1.206C178.372,-0.864 179.924,0.269 180.546,0.269C180.769,0.601 186.999,3.263 187.941,3.735C189.401,4.466 190.156,4.718 191.295,5.857C192.12,6.681 192.961,7.986 192.961,9.574L192.961,9.939C192.961,12.969 190.403,15.23 187.393,15.23L186.389,15.23C183.382,15.23 180.334,13.14 178.928,11.467C177.95,10.304 177.491,9.344 176.694,8.043C176.16,7.172 175.47,4.922 174.249,4.922C172.046,4.922 173.128,7.871 173.313,8.959C173.733,11.423 173.762,16.147 176.805,17.146C180.703,18.427 182.01,18.937 185.93,19.179C189.285,19.134 192.28,18.64 195.347,17.159C197.437,16.149 199.486,13.982 200.408,11.818C201.758,8.649 201.94,5.123 200.649,1.89C197.606,-5.727 188.353,-4.651 183.396,-9.877C182.629,-10.687 182.099,-11.775 182.099,-13.324C182.099,-14.707 182.518,-15.537 183.103,-16.334C184.196,-17.825 186.046,-17.976 187.575,-17.976C194.674,-17.976 196.068,-8.945 197.889,-8.945L198.255,-8.945C198.85,-8.945 199.113,-9.413 199.35,-9.765C199.35,-11.843 199.132,-14.748 198.902,-16.708C198.724,-18.23 198.585,-18.415 197.73,-19.277C194.959,-22.067 187.879,-21.769 184.472,-21.534M116.358,-16.294C116.304,-16.44 116.287,-16.606 116.287,-16.79L116.287,-16.973C116.287,-18.761 119.117,-18.326 119.117,-19.254C119.117,-19.912 118.908,-20.439 118.113,-20.439L104.239,-20.439C102.636,-20.439 102.937,-18.988 103.526,-18.723C104.327,-18.362 105.021,-18.119 105.457,-17.37C106.173,-16.141 106.805,-14.147 107.379,-12.722L117.99,14.715C118.703,16.149 119.544,18.059 120.943,18.059L123.358,18.059C125.091,18.067 125.188,16.968 125.888,14.939C129.526,4.383 133.921,-5.396 138.098,-15.825C138.118,-15.818 138.973,-17.738 139.414,-18.034C139.893,-18.356 141.571,-18.77 141.571,-19.254L141.571,-19.801C141.571,-20.055 141.187,-20.439 140.933,-20.439L128.975,-20.439C128.845,-20.078 128.61,-20.185 128.61,-19.528L128.61,-19.436C128.61,-18.186 131.439,-18.584 131.439,-17.247L131.439,-16.973L123.954,3.461L123.772,3.462L116.358,-16.294ZM150.335,-8.762L150.517,-8.762C152.108,-4.271 153.726,0.052 155.291,4.547L145.587,4.557L150.335,-8.489L150.335,-8.762ZM135.273,13.588C135.038,13.683 134.756,14.451 134.583,14.723C134.361,15.07 133.931,15.406 133.578,15.635C132.584,16.284 131.439,15.871 131.439,17.329C131.439,17.575 131.483,17.58 131.526,17.876L135.729,18.059L144.492,18.059C144.823,18.059 145.002,17.982 145.223,17.876C145.49,17.389 145.405,17.33 145.405,16.781C145.405,15.912 142.21,16.431 142.21,14.318L144.127,8.388L156.802,8.392L158.823,14.227L158.823,14.774C158.823,16.404 156.085,15.59 156.085,17.146L156.085,17.237C156.085,17.688 156.455,18.059 156.906,18.059L164.574,18.081L171.967,17.967C172.303,17.465 172.282,16.985 172.149,16.417L171.693,16.233C169.937,16.233 169.312,14.434 168.726,13.179L155.993,-18.797C155.401,-19.974 154.729,-20.531 153.712,-20.531L150.243,-20.531C148.569,-20.531 147.987,-18.422 147.516,-17.143L135.273,13.588ZM-38.698,10.548L-34.843,7.19C-34.52,6.909 -34.503,6.413 -34.806,6.11L-43.168,-2.244C-43.457,-2.533 -43.925,-2.532 -44.213,-2.243L-47.818,1.365C-48.107,1.654 -48.106,2.122 -47.818,2.41L-39.706,10.514C-39.43,10.789 -38.992,10.804 -38.698,10.548M-49.921,-8.985L-53.243,-5.666L-64.944,6.022C-65.245,6.323 -65.229,6.82 -64.909,7.101L-61.067,10.472C-60.773,10.73 -60.333,10.715 -60.057,10.439C-59.707,10.089 -46.266,-3.337 -44.181,-5.42C-43.256,-6.236 -41.449,-8.353 -37.203,-8.724C-33.894,-9.014 -30.334,-8.509 -28.549,-5.346C-27.368,-2.898 -27.275,-0.366 -28.272,2.162C-30.142,7.033 -34.168,10.653 -38.394,13.513C-42.337,16.161 -45.767,18.249 -49.931,20.536C-54.623,17.972 -58.464,15.582 -62.838,12.506C-65.032,10.921 -66.736,9.372 -68.523,7.338C-71.297,4.167 -73.953,-1.857 -71.028,-5.76C-68.214,-9.515 -62.377,-9.98 -59.286,-7.951L-56.811,-6.349C-56.514,-6.157 -56.136,-6.197 -55.886,-6.447L-52.163,-10.174C-51.875,-10.463 -51.875,-10.932 -52.165,-11.22L-57.972,-17.006C-58.828,-17.859 -58.224,-19.321 -57.016,-19.321L-42.822,-19.321C-41.694,-19.321 -41.093,-18.049 -41.712,-17.186L-49.921,-8.985ZM-45.699,-26.238L-49.28,-29.874C-49.631,-30.231 -50.206,-30.231 -50.557,-29.874L-54.139,-26.238C-54.659,-25.71 -55.292,-25.445 -56.034,-25.445L-66.562,-25.445C-66.754,-25.445 -66.919,-25.376 -67.054,-25.239L-70.604,-21.634C-70.948,-21.285 -70.948,-20.725 -70.604,-20.376L-68.562,-18.302C-66.911,-16.626 -67.85,-14.912 -70.05,-14.08C-76.885,-11.494 -80.476,-4.238 -77.485,4.336C-76.626,6.797 -75.293,9.047 -73.549,11.158C-72.674,12.217 -72.599,13.67 -73.571,14.64L-75.634,16.701C-75.985,17.051 -75.985,17.619 -75.635,17.969L-72.253,21.355C-71.903,21.705 -71.335,21.706 -70.985,21.356L-68.403,18.777C-67.605,17.979 -66.375,17.745 -65.456,18.399C-61.113,21.49 -55.871,24.459 -50.008,27.635L-49.919,27.672L-49.83,27.635C-43.966,24.459 -38.725,21.49 -34.381,18.399C-33.462,17.745 -32.232,17.979 -31.434,18.777L-28.853,21.356C-28.502,21.706 -27.934,21.705 -27.584,21.355L-24.202,17.969C-23.852,17.619 -23.853,17.051 -24.203,16.701L-26.266,14.64C-27.238,13.67 -27.163,12.217 -26.289,11.158C-24.544,9.047 -23.211,6.797 -22.352,4.336C-19.361,-4.238 -22.953,-11.494 -29.787,-14.08C-31.987,-14.912 -32.927,-16.626 -31.276,-18.302L-29.233,-20.376C-28.889,-20.725 -28.889,-21.285 -29.233,-21.634L-32.784,-25.239C-32.919,-25.376 -33.083,-25.445 -33.275,-25.445L-43.803,-25.445C-44.545,-25.445 -45.178,-25.71 -45.699,-26.238" style="fill:rgb(30,28,26);"/>
    </g>
    <g transform="matrix(4.166667,0,0,4.166667,1244.49156,-52.772549)">
        <clipPath id="_clip1">
            <path d="M-270.173,13.449L-273.754,17.084C-274.274,17.613 -274.908,17.878 -275.65,17.878L-286.178,17.878C-286.369,17.878 -286.534,17.946 -286.669,18.084L-290.22,21.689C-290.563,22.038 -290.563,22.598 -290.22,22.947L-288.177,25.02C-286.526,26.697 -287.465,28.411 -289.665,29.243C-296.5,31.829 -300.092,39.085 -297.1,47.658C-296.242,50.121 -294.909,52.37 -293.164,54.481C-292.289,55.54 -292.215,56.993 -293.186,57.963L-295.25,60.024C-295.6,60.374 -295.6,60.942 -295.25,61.292L-291.868,64.678C-291.518,65.028 -290.95,65.028 -290.6,64.678L-288.018,62.1C-287.22,61.302 -285.991,61.067 -285.072,61.722C-280.727,64.813 -275.487,67.781 -269.623,70.957L-269.534,70.994L-269.445,70.957C-263.582,67.781 -258.34,64.813 -253.996,61.722C-253.078,61.067 -251.847,61.302 -251.049,62.1L-248.468,64.678C-248.118,65.028 -247.55,65.028 -247.2,64.678L-243.817,61.292C-243.467,60.942 -243.468,60.374 -243.818,60.024L-245.881,57.963C-246.853,56.993 -246.778,55.54 -245.904,54.481C-244.16,52.37 -242.827,50.121 -241.967,47.658C-238.976,39.085 -242.568,31.829 -249.402,29.243C-251.603,28.411 -252.542,26.697 -250.891,25.02L-248.848,22.947C-248.504,22.598 -248.504,22.038 -248.848,21.689L-252.399,18.084C-252.534,17.946 -252.698,17.878 -252.89,17.878L-263.419,17.878C-264.16,17.878 -264.794,17.613 -265.314,17.084L-268.895,13.449C-269.071,13.271 -269.302,13.181 -269.534,13.181C-269.765,13.181 -269.997,13.271 -270.173,13.449ZM-275.501,36.875L-271.779,33.148C-271.49,32.86 -271.491,32.392 -271.78,32.103L-277.587,26.317C-278.443,25.464 -277.839,24.002 -276.631,24.002L-262.437,24.002C-261.31,24.002 -260.709,25.274 -261.327,26.137L-269.537,34.338L-272.859,37.657L-284.56,49.345C-284.86,49.645 -284.844,50.143 -284.525,50.423L-280.681,53.794C-280.388,54.053 -279.949,54.038 -279.672,53.762C-279.321,53.412 -265.881,39.986 -263.797,37.902C-262.871,37.087 -261.064,34.97 -256.818,34.598C-253.51,34.309 -249.949,34.814 -248.165,37.977C-246.984,40.425 -246.89,42.957 -247.887,45.485C-249.757,50.356 -253.783,53.975 -258.01,56.836C-261.952,59.484 -265.382,61.572 -269.546,63.858C-274.238,61.295 -278.08,58.905 -282.454,55.829C-284.648,54.243 -286.351,52.695 -288.138,50.661C-290.912,47.49 -293.568,41.465 -290.643,37.563C-287.829,33.808 -281.992,33.344 -278.901,35.371L-276.426,36.973C-276.301,37.055 -276.161,37.094 -276.023,37.094C-275.833,37.094 -275.646,37.02 -275.501,36.875ZM-212.169,25.857C-212.815,26.33 -213.287,26.821 -213.842,27.377C-214.804,28.337 -215.959,29.756 -216.616,30.989C-217.444,32.544 -217.929,33.566 -218.554,35.439C-218.835,36.279 -219.476,38.612 -219.616,40.764L-219.616,43.866C-219.221,47.767 -217.729,51.782 -217.218,52.6C-216.173,54.277 -215.55,55.463 -214.162,56.842C-213.246,57.753 -211.205,59.434 -209.97,59.951C-207.824,61.314 -203.64,62.615 -200.265,62.749L-195.244,62.749C-192.832,62.817 -188.89,61.574 -187.874,61.176C-185.632,60.297 -184.315,59.798 -183.926,56.547C-183.529,54.235 -183.09,52.646 -182.922,50.891C-182.922,50.065 -183.382,49.613 -184.2,49.613L-184.291,49.613C-185.546,49.613 -186.084,51.813 -186.739,52.73C-187.594,53.928 -188.1,54.831 -189.151,55.885C-191.048,57.79 -193.477,58.918 -197.253,58.918L-197.891,58.918C-200.307,58.918 -202.811,57.574 -204.206,56.473C-206.491,54.667 -207.652,51.932 -208.492,49.261C-209.112,47.295 -209.301,44.704 -209.301,42.679L-209.301,41.22C-209.301,37.983 -208.71,34.008 -207.128,31.077C-206.523,29.959 -205.912,29.012 -205.066,28.12C-203.505,26.473 -201.123,25.164 -197.983,25.164L-197.435,25.164C-194.465,25.164 -191.357,27.086 -189.836,28.608C-188.887,29.557 -188.125,30.558 -187.424,31.762C-186.909,32.647 -186.163,34.926 -185.112,34.926C-184.361,34.926 -183.885,34.478 -183.833,33.741C-183.698,31.753 -184.186,29.164 -184.531,27.228C-184.899,25.155 -184.426,24.966 -186.134,23.995C-189.039,22.347 -193.288,21.962 -196.522,21.424C-202.459,21.424 -207.23,22.233 -212.169,25.857ZM-35.143,21.789C-37.934,22.021 -41.209,23.783 -42.742,25.324C-44.447,27.036 -46.096,29.642 -46.096,33.01L-46.096,33.921C-46.096,36.224 -44.92,38.8 -43.837,40.057C-43.124,40.883 -42.582,41.459 -41.7,42.117C-41.243,42.458 -39.691,43.592 -39.069,43.592C-38.846,43.923 -32.616,46.585 -31.675,47.058C-30.215,47.789 -29.459,48.041 -28.32,49.179C-27.495,50.004 -26.654,51.309 -26.654,52.897L-26.654,53.262C-26.654,56.292 -29.212,58.554 -32.222,58.554L-33.226,58.554C-36.233,58.554 -39.281,56.463 -40.687,54.79C-41.665,53.627 -42.125,52.668 -42.921,51.366C-43.456,50.495 -44.145,48.245 -45.367,48.245C-47.57,48.245 -46.487,51.193 -46.302,52.282C-45.882,54.746 -45.853,59.471 -42.811,60.469C-38.912,61.749 -37.605,62.26 -33.685,62.502C-30.33,62.457 -27.335,61.963 -24.268,60.482C-22.179,59.472 -20.129,57.304 -19.207,55.141C-17.857,51.972 -17.674,48.447 -18.966,45.213C-22.009,37.595 -31.263,38.673 -36.219,33.445C-36.987,32.636 -37.517,31.548 -37.517,29.999C-37.517,28.616 -37.097,27.786 -36.512,26.989C-35.42,25.497 -33.569,25.346 -32.04,25.346C-24.941,25.346 -23.547,34.378 -21.726,34.378L-21.36,34.378C-20.765,34.378 -20.502,33.91 -20.266,33.557C-20.266,31.48 -20.483,28.575 -20.713,26.615C-20.891,25.093 -21.03,24.908 -21.886,24.046C-23.842,22.076 -27.949,21.645 -31.392,21.645C-32.825,21.645 -34.143,21.72 -35.143,21.789ZM-134.544,24.798C-133.605,24.798 -132.626,25.436 -132.316,26.13C-131.831,27.218 -131.807,27.759 -131.807,29.268L-131.807,55.543C-131.807,56.732 -132.019,58.036 -132.665,58.608C-133.113,59.004 -133.337,59.081 -133.918,59.272C-134.326,59.406 -135.134,59.768 -135.367,59.831L-135.367,60.833C-135.367,61.129 -134.971,61.381 -134.636,61.381L-119.758,61.381C-118.85,61.381 -118.572,60.963 -118.572,60.195C-118.572,59.258 -122.222,59.801 -122.222,56.456L-122.222,27.353C-122.222,26.69 -121.632,25.661 -121.112,25.271C-120.457,24.777 -119.21,24.702 -119.21,23.887C-119.21,23.128 -119.61,22.884 -120.397,22.884L-134.728,22.701C-136.105,23.222 -135.633,24.626 -134.544,24.798ZM-69.372,22.792C-71.046,22.792 -71.628,24.901 -72.099,26.18L-84.343,56.911C-84.577,57.006 -84.859,57.773 -85.032,58.046C-85.254,58.392 -85.685,58.729 -86.037,58.958C-87.031,59.607 -88.176,59.194 -88.176,60.652C-88.176,60.898 -88.132,60.903 -88.089,61.199L-83.886,61.381L-75.122,61.381C-74.792,61.381 -74.613,61.305 -74.392,61.199C-74.125,60.712 -74.211,60.653 -74.211,60.103C-74.211,59.235 -77.405,59.754 -77.405,57.641L-75.488,51.711L-62.813,51.715L-60.793,57.549L-60.793,58.096C-60.793,59.726 -63.53,58.914 -63.53,60.469L-63.53,60.56C-63.53,61.011 -63.16,61.381 -62.709,61.381L-55.041,61.404L-47.648,61.29C-47.312,60.788 -47.333,60.308 -47.466,59.74L-47.923,59.556C-49.678,59.556 -50.304,57.756 -50.89,56.502L-63.622,24.525C-64.214,23.349 -64.887,22.792 -65.904,22.792L-69.372,22.792ZM-69.28,34.834L-69.28,34.56L-69.099,34.56C-67.507,39.051 -65.888,43.374 -64.324,47.87L-74.028,47.881L-69.28,34.834ZM-180.001,23.522L-180.001,23.795C-180.001,24.977 -178.777,24.746 -177.851,25.205C-177.147,25.555 -176.441,26.428 -176.441,27.445L-176.35,54.904C-176.35,56.357 -176.217,57.33 -177.012,58.347C-177.701,59.231 -178.825,59.305 -179.818,59.831C-180.312,60.81 -180.436,61.381 -178.541,61.381L-164.21,61.381C-163.491,61.381 -163.027,60.982 -163.205,60.287C-163.274,59.468 -164.851,59.457 -165.506,59.027C-166.345,58.477 -166.948,56.916 -166.948,55.908L-166.948,43.592L-152.251,43.592L-152.344,55.725L-152.527,57.549C-152.583,58.023 -153.122,58.709 -153.935,59.152C-154.413,59.413 -155.995,59.453 -155.995,60.195L-155.995,60.743C-155.995,60.994 -155.834,61.308 -155.216,61.367L-140.01,61.368C-139.104,61.384 -139.015,61.334 -139.018,61.108C-139.176,59.194 -139.683,59.785 -141.237,59.131C-142.029,58.798 -142.76,57.388 -142.76,56.364L-142.76,28.084C-142.76,24.367 -139.2,25.067 -139.2,24.161C-139.2,23.351 -139.332,22.884 -140.295,22.884L-154.807,22.884C-155.296,22.884 -155.995,23.174 -155.995,23.613L-155.995,24.252C-155.577,24.403 -155.798,24.548 -154.807,24.797C-154.364,24.909 -153.927,25.049 -153.583,25.308C-153.02,25.729 -152.344,26.721 -152.344,27.628L-152.344,39.852L-166.857,39.852L-166.857,27.9C-166.857,24.303 -163.205,25.217 -163.205,23.887C-163.205,22.916 -163.74,22.97 -164.575,22.884L-179.257,22.878C-179.711,23.002 -180.001,23.315 -180.001,23.522ZM-90.64,22.884C-90.771,23.245 -91.006,23.138 -91.006,23.795L-91.006,23.887C-91.006,25.137 -88.176,24.739 -88.176,26.076L-88.176,26.35L-95.661,46.784L-95.843,46.785L-103.256,27.028C-103.311,26.883 -103.328,26.716 -103.328,26.533L-103.328,26.35C-103.328,24.561 -100.498,24.996 -100.498,24.069C-100.498,23.41 -100.708,22.884 -101.501,22.884L-115.377,22.884C-116.979,22.884 -116.678,24.335 -116.089,24.599C-115.288,24.96 -114.595,25.204 -114.158,25.953C-113.443,27.182 -112.81,29.176 -112.237,30.6L-101.626,58.038C-100.913,59.472 -100.07,61.381 -98.673,61.381L-96.257,61.381C-94.525,61.389 -94.427,60.291 -93.728,58.262C-90.088,47.706 -85.695,37.926 -81.518,27.497C-81.497,27.505 -80.642,25.586 -80.201,25.289C-79.722,24.967 -78.044,24.553 -78.044,24.069L-78.044,23.522C-78.044,23.267 -78.429,22.884 -78.683,22.884L-90.64,22.884ZM-263.828,41.079L-267.433,44.688C-267.721,44.977 -267.721,45.445 -267.433,45.733L-259.321,53.837C-259.045,54.112 -258.607,54.127 -258.314,53.871L-254.458,50.513C-254.135,50.231 -254.118,49.735 -254.42,49.433L-262.783,41.079C-262.928,40.935 -263.117,40.862 -263.306,40.862C-263.495,40.862 -263.684,40.935 -263.828,41.079Z" clip-rule="nonzero"/>
        </clipPath>
        <g clip-path="url(#_clip1)">
            <path d="M0,100.467L0,0L-316.252,0L-316.252,100.467" style="fill:rgb(30,28,26);stroke:rgb(8,6,6);stroke-width:0.25px;"/>
        </g>
    </g>
</svg>
