<?xml version="1.0" encoding="UTF-8" standalone="no"?>
<!DOCTYPE svg PUBLIC "-//W3C//DTD SVG 1.1//EN" "http://www.w3.org/Graphics/SVG/1.1/DTD/svg11.dtd">
<svg width="100%" height="100%" viewBox="0 0 928 310" version="1.1" xmlns="http://www.w3.org/2000/svg" xmlns:xlink="http://www.w3.org/1999/xlink" xml:space="preserve" xmlns:serif="http://www.serif.com/" style="fill-rule:evenodd;clip-rule:evenodd;stroke-linejoin:round;stroke-miterlimit:2;">
    <g transform="matrix(4.166667,0,0,4.166667,176.558333,133.365833)">
        <path d="M0,24.886C-3.191,28.077 -7.599,30.05 -12.467,30.05C-22.205,30.05 -30.099,22.156 -30.099,12.418C-30.099,2.681 -22.205,-5.213 -12.467,-5.213C-10.114,-5.213 -7.868,-4.752 -5.815,-3.915L-1.092,-15.157C-4.61,-16.614 -8.468,-17.418 -12.513,-17.418C-29.005,-17.418 -42.374,-4.049 -42.374,12.443C-42.374,28.935 -29.005,42.304 -12.513,42.304C-4.41,42.304 2.94,39.077 8.32,33.837L0,24.886Z" style="fill:rgb(30,28,26);fill-rule:nonzero;"/>
    </g>
    <g transform="matrix(4.166667,0,0,4.166667,365.662917,176.80125)">
        <path d="M0,3.961C-0.075,3.303 -0.113,2.634 -0.113,1.957C-0.113,-7.781 7.781,-15.675 17.518,-15.675C22.869,-15.675 27.663,-13.292 30.897,-9.528L0,3.961ZM29.986,14.424C26.795,17.614 22.387,19.588 17.518,19.588C14.032,19.588 10.781,18.576 8.045,16.829L1.447,27.182C6.077,30.132 11.575,31.842 17.473,31.842C25.584,31.842 32.94,28.608 38.321,23.359L29.986,14.424ZM46.57,-4.764C43.512,-18.007 31.646,-27.881 17.473,-27.881C0.981,-27.881 -12.388,-14.511 -12.388,1.981C-12.388,7.964 -10.629,13.537 -7.598,18.209L46.57,-4.764Z" style="fill:rgb(30,28,26);fill-rule:nonzero;"/>
    </g>
    <g transform="matrix(4.166667,0,0,4.166667,852.93,201.455417)">
        <path d="M0,9.084C-3.132,11.934 -7.294,13.671 -11.862,13.671C-21.599,13.671 -29.493,5.777 -29.493,-3.96C-29.493,-6.654 -28.889,-9.206 -27.81,-11.489L-38.844,-16.841C-40.719,-12.935 -41.769,-8.558 -41.769,-3.936C-41.769,12.556 -28.4,25.925 -11.907,25.925C-4.145,25.925 2.925,22.964 8.235,18.109L0,9.084Z" style="fill:rgb(30,28,26);fill-rule:nonzero;"/>
    </g>
    <g transform="matrix(4.166667,0,0,4.166667,193.698333,258.707917)">
        <path d="M0,-30.314L4.546,-41.625L14.026,-37.742C14.026,-37.742 21.265,-35.065 21.265,-26.355L21.265,11.311L9.841,11.311L9.841,-26.016L0,-30.314Z" style="fill:rgb(30,28,26);fill-rule:nonzero;"/>
    </g>
    <g transform="matrix(4.166667,0,0,4.166667,671.422083,51.4025)">
        <path d="M0,50.584L-4.546,61.895L-14.026,58.011C-14.026,58.011 -21.265,55.334 -21.265,46.625L-21.265,-11.311L-9.841,-11.311L-9.841,46.286L0,50.584Z" style="fill:rgb(30,28,26);fill-rule:nonzero;"/>
    </g>
    <g transform="matrix(4.166667,0,0,4.166667,753.701667,168.651667)">
        <path d="M0,-9.084C3.132,-11.933 7.294,-13.67 11.862,-13.67C21.599,-13.67 29.493,-5.777 29.493,3.961C29.493,6.654 28.889,9.206 27.81,11.489L38.844,16.841C40.719,12.935 41.769,8.559 41.769,3.937C41.769,-12.555 28.399,-25.925 11.908,-25.925C4.145,-25.925 -2.925,-22.963 -8.236,-18.108L0,-9.084Z" style="fill:rgb(164,162,162);fill-rule:nonzero;"/>
    </g>
    <g transform="matrix(0,-4.166667,-4.166667,0,258.345,0.002083)">
        <path d="M-8.314,-8.314C-12.905,-8.314 -16.628,-4.592 -16.628,0C-16.628,4.591 -12.905,8.314 -8.314,8.314C-3.723,8.314 0,4.591 0,0C0,-4.592 -3.723,-8.314 -8.314,-8.314" style="fill:rgb(164,162,162);fill-rule:nonzero;"/>
    </g>
</svg>
