<?xml version="1.0" encoding="UTF-8" standalone="no"?>
<!DOCTYPE svg PUBLIC "-//W3C//DTD SVG 1.1//EN" "http://www.w3.org/Graphics/SVG/1.1/DTD/svg11.dtd">
<svg width="100%" height="100%" viewBox="0 0 1043 337" version="1.1" xmlns="http://www.w3.org/2000/svg" xmlns:xlink="http://www.w3.org/1999/xlink" xml:space="preserve" xmlns:serif="http://www.serif.com/" style="fill-rule:evenodd;clip-rule:evenodd;stroke-linejoin:round;stroke-miterlimit:2;">
    <g transform="matrix(4.166667,0,0,4.166667,0,335.100833)">
        <path d="M0,-14.695L10.582,-14.695L10.582,-12.472L2.574,-12.472L2.574,-8.628L9.984,-8.628L9.984,-6.529L2.574,-6.529L2.574,-2.222L10.725,-2.222L10.725,0L0,0L0,-14.695Z" style="fill:rgb(30,28,26);fill-rule:nonzero;"/>
    </g>
    <g transform="matrix(4.166667,0,0,4.166667,53.214167,335.100833)">
        <path d="M0,-14.695L3.065,-14.695L6.399,-9.508L9.884,-14.695L12.765,-14.695L7.903,-7.619L13.114,0L9.987,0L6.322,-5.622L2.593,0L-0.352,0L4.859,-7.619L0,-14.695Z" style="fill:rgb(30,28,26);fill-rule:nonzero;"/>
    </g>
    <g transform="matrix(4.166667,0,0,4.166667,156.569583,315.61)">
        <path d="M0,-5.346C-0.435,-7.037 -1.525,-8.273 -3.664,-8.273C-6.813,-8.273 -8.132,-5.491 -8.132,-2.678C-8.132,0.147 -6.813,2.927 -3.664,2.927C-1.377,2.927 -0.124,1.215 0.085,-0.922L2.593,-0.922C2.389,2.6 -0.105,5.026 -3.664,5.026C-8.073,5.026 -10.707,1.526 -10.707,-2.678C-10.707,-6.866 -8.073,-10.372 -3.664,-10.372C-0.346,-10.351 2.266,-8.519 2.572,-5.346L0,-5.346Z" style="fill:rgb(30,28,26);fill-rule:nonzero;"/>
    </g>
    <g transform="matrix(4.166667,0,0,4.166667,182.800833,335.100833)">
        <path d="M0,-14.695L10.577,-14.695L10.577,-12.472L2.572,-12.472L2.572,-8.628L9.987,-8.628L9.987,-6.529L2.572,-6.529L2.572,-2.222L10.725,-2.222L10.725,0L0,0L0,-14.695Z" style="fill:rgb(30,28,26);fill-rule:nonzero;"/>
    </g>
    <g transform="matrix(4.166667,0,0,4.166667,243.730417,335.100833)">
        <path d="M0,-14.695L10.578,-14.695L10.578,-12.472L2.575,-12.472L2.575,-8.628L9.985,-8.628L9.985,-6.529L2.575,-6.529L2.575,-2.222L10.723,-2.222L10.723,0L0,0L0,-14.695Z" style="fill:rgb(30,28,26);fill-rule:nonzero;"/>
    </g>
    <g transform="matrix(4.166667,0,0,4.166667,315.390833,282.621667)">
        <path d="M0,10.496L2.531,10.496C6.564,10.496 7.431,8.193 7.431,5.239C7.431,2.302 6.564,-0.001 2.531,-0.001L0,-0.001L0,10.496ZM-2.575,-2.1L3.519,-2.1C8.048,-2.1 10.003,1.191 10.003,5.239C10.003,9.304 8.048,12.596 3.519,12.596L-2.575,12.596L-2.575,-2.1Z" style="fill:rgb(30,28,26);fill-rule:nonzero;"/>
    </g>
    <g transform="matrix(4.166667,0,0,4.166667,411.501667,297.902083)">
        <path d="M0,3.161L-5.517,-5.767L-2.531,-5.767L1.359,0.815L5.186,-5.767L8.067,-5.767L2.575,3.161L2.575,8.928L0,8.928L0,3.161Z" style="fill:rgb(30,28,26);fill-rule:nonzero;"/>
    </g>
    <g transform="matrix(4.166667,0,0,4.166667,458.10875,304.49375)">
        <path d="M0,-0.01C0,2.814 1.315,5.595 4.47,5.595C7.616,5.595 8.932,2.814 8.932,-0.01C8.932,-2.823 7.616,-5.605 4.47,-5.605C1.315,-5.605 0,-2.823 0,-0.01M11.506,-0.01C11.506,4.194 8.873,7.694 4.47,7.694C0.062,7.694 -2.575,4.194 -2.575,-0.01C-2.575,-4.198 0.062,-7.704 4.47,-7.704C8.873,-7.704 11.506,-4.198 11.506,-0.01" style="fill:rgb(30,28,26);fill-rule:nonzero;"/>
    </g>
    <g transform="matrix(4.166667,0,0,4.166667,519.004583,336.550833)">
        <path d="M0,-15.043L2.577,-15.043L2.577,-6.485C2.577,-4.503 2.7,-2.222 6.032,-2.222C9.37,-2.222 9.49,-4.503 9.49,-6.485L9.49,-15.043L12.064,-15.043L12.064,-5.636C12.064,-1.873 9.66,0 6.032,0C2.408,0 0,-1.873 0,-5.636L0,-15.043Z" style="fill:rgb(30,28,26);fill-rule:nonzero;"/>
    </g>
    <g transform="matrix(4.166667,0,0,4.166667,596.645,307.249167)">
        <path d="M0,-1.326L4.221,-1.326C5.845,-1.326 6.73,-2.127 6.73,-3.667C6.73,-5.541 5.518,-5.912 4.177,-5.912L0,-5.912L0,-1.326ZM-2.575,-8.011L4.448,-8.011C7.657,-8.011 9.304,-6.529 9.304,-4.043C9.304,-1.219 7.346,-0.5 6.879,-0.339L6.879,-0.295C7.761,-0.172 9.058,0.489 9.058,2.814C9.058,4.521 9.304,6.083 9.86,6.685L7.104,6.685C6.709,6.045 6.709,5.24 6.709,4.521C6.709,1.825 6.154,0.633 3.786,0.633L0,0.633L0,6.685L-2.575,6.685L-2.575,-8.011Z" style="fill:rgb(30,28,26);fill-rule:nonzero;"/>
    </g>
    <g transform="matrix(4.166667,0,0,4.166667,674.0275,335.101667)">
        <path d="M0,-14.696L2.68,-14.696L6.366,-3.066L6.406,-3.066L10.172,-14.696L12.791,-14.696L7.764,0L4.903,0L0,-14.696Z" style="fill:rgb(30,28,26);fill-rule:nonzero;"/>
    </g>
    <g transform="matrix(4.166667,0,0,4.166667,-2151.31625,-3658.682917)">
        <rect x="693.529" y="943.812" width="2.569" height="14.696" style="fill:rgb(30,28,26);"/>
    </g>
    <g transform="matrix(4.166667,0,0,4.166667,773.205,294.26875)">
        <path d="M0,4.898C0,7.164 1.669,8.049 3.722,8.049C5.989,8.049 6.834,6.938 6.834,5.827C6.834,4.694 6.214,4.238 5.618,4.012C4.587,3.625 3.247,3.352 1.234,2.798C-1.279,2.117 -2.02,0.597 -2.02,-0.927C-2.02,-3.865 0.694,-5.25 3.352,-5.25C6.424,-5.25 8.996,-3.618 8.996,-0.552L6.424,-0.552C6.3,-2.448 5.019,-3.151 3.247,-3.151C2.055,-3.151 0.557,-2.715 0.557,-1.233C0.557,-0.202 1.25,0.371 2.305,0.661C2.531,0.721 5.784,1.564 6.544,1.789C8.481,2.363 9.41,4.012 9.41,5.542C9.41,8.834 6.483,10.148 3.56,10.148C0.206,10.148 -2.516,8.537 -2.576,4.898L0,4.898Z" style="fill:rgb(30,28,26);fill-rule:nonzero;"/>
    </g>
    <g transform="matrix(4.166667,0,0,4.166667,-2151.31625,-3658.682917)">
        <rect x="714.79" y="943.812" width="2.572" height="14.696" style="fill:rgb(30,28,26);"/>
    </g>
    <g transform="matrix(4.166667,0,0,4.166667,862.422917,304.49375)">
        <path d="M0,-0.01C0,2.814 1.318,5.595 4.467,5.595C7.619,5.595 8.938,2.814 8.938,-0.01C8.938,-2.824 7.619,-5.605 4.467,-5.605C1.318,-5.605 0,-2.824 0,-0.01M11.509,-0.01C11.509,4.194 8.87,7.694 4.467,7.694C0.061,7.694 -2.572,4.194 -2.572,-0.01C-2.572,-4.198 0.061,-7.704 4.467,-7.704C8.87,-7.704 11.509,-4.198 11.509,-0.01" style="fill:rgb(30,28,26);fill-rule:nonzero;"/>
    </g>
    <g transform="matrix(4.166667,0,0,4.166667,924.372083,335.101667)">
        <path d="M0,-14.696L2.714,-14.696L9.428,-3.871L9.466,-3.871L9.466,-14.696L11.918,-14.696L11.918,0L9.202,0L2.508,-10.808L2.451,-10.808L2.451,0L0,0L0,-14.696Z" style="fill:rgb(30,28,26);fill-rule:nonzero;"/>
    </g>
    <g transform="matrix(4.166667,0,0,4.166667,674.265417,39.45)">
        <path d="M0,37.35C-10.062,37.35 -13.942,28.087 -13.942,18.675C-13.942,9.263 -10.062,-0.001 0,-0.001C10.061,-0.001 13.943,9.263 13.943,18.675C13.943,28.087 10.061,37.35 0,37.35M0,-9.468C-15.842,-9.468 -24.987,2.404 -24.987,18.675C-24.987,34.946 -15.842,46.818 0,46.818C15.842,46.818 24.987,34.946 24.987,18.675C24.987,2.404 15.842,-9.468 0,-9.468" style="fill:rgb(30,28,26);fill-rule:nonzero;"/>
    </g>
    <g transform="matrix(4.166667,0,0,4.166667,0,227.947083)">
        <path d="M0,-53.13L39.708,-53.13L39.708,-43.661L11.048,-43.661L11.048,-31.878L37.775,-31.878L37.775,-22.643L11.048,-22.643L11.048,-9.471L39.708,-9.471L39.708,0L0,0L0,-53.13Z" style="fill:rgb(30,28,26);fill-rule:nonzero;"/>
    </g>
    <g transform="matrix(4.166667,0,0,4.166667,272.884583,112.420417)">
        <path d="M0,2.322L-10.007,2.322L-10.007,-15.936L-10.009,-15.937L0,-15.937C6.942,-15.937 11.56,-12.914 11.56,-6.808C11.56,-0.701 6.942,2.322 0,2.322M-21.052,27.726L-10.007,27.726L-10.007,11.788L0,11.788C13.521,11.788 22.605,5.137 22.605,-6.808C22.605,-18.753 13.521,-25.404 0,-25.404L-21.052,-25.404L-21.052,27.726Z" style="fill:rgb(30,28,26);fill-rule:nonzero;"/>
    </g>
    <g transform="matrix(4.166667,0,0,4.166667,843.050417,227.947083)">
        <path d="M0,-53.13L-11.346,-53.13L-11.346,0L-0.522,0L-0.522,-21.523C-0.522,-27.405 -0.736,-32.637 -0.934,-37.253C0.343,-34.595 4.215,-26.603 6.014,-23.6L20.102,0L31.44,0L31.44,-53.13L20.617,-53.13L20.617,-32.144C20.617,-26.26 20.832,-20.492 21.028,-15.875C19.751,-18.533 15.88,-26.526 14.078,-29.528L0,-53.13Z" style="fill:rgb(30,28,26);fill-rule:nonzero;"/>
    </g>
    <g transform="matrix(4.166667,0,0,4.166667,419.330417,79.545)">
        <path d="M0,18.037C0,25.177 5.94,27.958 12.256,27.958C16.388,27.958 23.081,26.756 23.081,21.27C23.081,15.482 14.894,14.389 7.001,12.284C-1.279,10.097 -9.242,6.986 -9.242,-2.857C-9.242,-13.828 1.13,-19.09 10.826,-19.09C22.024,-19.09 32.319,-14.203 32.319,-1.802L21.274,-1.802C20.897,-8.266 15.939,-9.921 10.302,-9.921C6.54,-9.921 1.803,-8.343 1.803,-3.832C1.803,0.3 4.504,0.942 17.959,4.401C21.866,5.377 34.126,7.741 34.126,19.917C34.126,29.761 26.388,37.127 11.801,37.127C-0.073,37.127 -11.195,31.266 -11.045,18.037L0,18.037Z" style="fill:rgb(30,28,26);fill-rule:nonzero;"/>
    </g>
    <g transform="matrix(4.166667,0,0,4.166667,1018.331667,4.357917)">
        <path d="M0,11.689C3.228,11.689 5.844,9.073 5.844,5.845C5.844,2.617 3.228,0 0,0C-3.228,0 -5.845,2.617 -5.845,5.845C-5.845,9.073 -3.228,11.689 0,11.689M-5.314,5.845C-5.314,2.911 -2.935,0.531 0,0.531C2.935,0.531 5.312,2.911 5.312,5.845C5.312,8.78 2.935,11.158 0,11.158C-2.935,11.158 -5.314,8.78 -5.314,5.845" style="fill:rgb(30,28,26);fill-rule:nonzero;"/>
    </g>
    <g transform="matrix(4.166667,0,0,4.166667,1020.667083,29.362083)">
        <path d="M0,-0.312C0.607,-0.312 1.134,-0.736 1.134,-1.478C1.134,-2.222 0.607,-2.646 0,-2.646L-1.777,-2.648L-1.777,3.265L-2.967,3.265L-2.967,-3.577L0,-3.577C1.408,-3.577 2.324,-2.649 2.324,-1.478C2.324,-0.457 1.57,0.319 0.775,0.45L2.685,3.265L1.263,3.265L-1.032,-0.312L0,-0.312Z" style="fill:rgb(30,28,26);fill-rule:nonzero;"/>
    </g>
</svg>
