<?xml version="1.0" encoding="UTF-8" standalone="no"?>
<!DOCTYPE svg PUBLIC "-//W3C//DTD SVG 1.1//EN" "http://www.w3.org/Graphics/SVG/1.1/DTD/svg11.dtd">
<svg width="100%" height="100%" viewBox="0 0 1138 224" version="1.1" xmlns="http://www.w3.org/2000/svg" xmlns:xlink="http://www.w3.org/1999/xlink" xml:space="preserve" xmlns:serif="http://www.serif.com/" style="fill-rule:evenodd;clip-rule:evenodd;stroke-linejoin:round;stroke-miterlimit:2;">
    <g transform="matrix(4.166667,0,0,4.166667,1042.982083,0.5966)">
        <rect x="-8.613" y="0" width="8.613" height="0.139" style="fill:rgb(30,28,26);fill-rule:nonzero;"/>
    </g>
    <g transform="matrix(4.166667,0,0,4.166667,640.693333,28.287017)">
        <path d="M0,30.307L0,19.61C0.189,19.492 0.398,19.475 0.616,19.466C4.287,19.313 12.314,18.667 12.905,23.723C13.847,31.794 5.224,30.187 0,30.307M0,3.357C3.095,3.596 9.992,2.336 11.632,5.825C12.248,7.137 12.075,9.535 11.171,10.707C9.126,13.357 2.964,12.302 0,12.525L0,3.357ZM14.587,15.858C14.577,15.324 15.338,15.408 15.728,15.264C19.006,14.057 20.723,11.15 20.975,7.731C22.098,-7.515 1.213,-3.14 -8.139,-3.875L-8.613,-3.728L-8.483,37.313L-7.918,37.531C-2.806,37.705 3.471,37.822 8.542,37.529C16.734,37.057 23.2,32.357 21.933,23.447C21.331,19.212 18.787,16.615 14.587,15.858" style="fill:rgb(30,28,26);fill-rule:nonzero;"/>
    </g>
    <g transform="matrix(4.166667,0,0,4.166667,1083.001667,76.44285)">
        <path d="M0,8.098L12.345,-5.7L2.829,-5.7L-6.064,3.883C-7.258,5.379 -8.389,6.93 -9.605,8.407C-9.739,8.57 -9.747,8.955 -10.022,8.678C-9.96,6.388 -9.673,4.092 -9.605,1.801L-9.744,-18.064C-9.755,-17.954 -9.795,-17.789 -9.872,-17.786C-12.497,-17.698 -15.424,-17.699 -18.051,-17.786L-18.218,-18.064L-18.219,25.974L-9.744,25.973L-9.752,16.442L-9.605,16.11L-5.795,13.196L3.317,25.902C6.422,25.889 9.607,26.162 12.708,25.984C12.884,25.973 13.052,25.987 13.178,25.835L0,8.098Z" style="fill:rgb(30,28,26);fill-rule:nonzero;"/>
    </g>
    <g transform="matrix(0.138712,-4.164357,-4.164357,-0.138712,1025.714263,-15.15865)">
        <path d="M-4.067,-4.014C-4.061,-4.091 -3.895,-4.126 -3.785,-4.134L-4.067,4.336L-4.339,4.16C-4.338,1.532 -4.242,-1.394 -4.067,-4.014" style="fill:rgb(30,28,26);fill-rule:nonzero;"/>
    </g>
    <g transform="matrix(4.166667,0,0,4.166667,823.604167,108.721184)">
        <path d="M0,6.349C-0.326,10.522 -3.253,12.9 -7.43,12.529C-10.33,12.271 -11.511,10.126 -10.772,7.385C-9.734,3.53 -4.722,3.746 -1.592,3.646C-1.327,3.637 0,3.282 0,3.71C0,4.558 0.065,5.52 0,6.349M8.474,-3.723C7.993,-12.725 0.71,-14.459 -7.021,-14.008C-10.399,-13.812 -13.737,-12.681 -16.809,-11.361C-16.302,-10.571 -14.479,-5.876 -14.032,-5.59C-13.768,-5.421 -12.076,-6.25 -11.637,-6.4C-8.178,-7.58 -1.241,-9.528 -0.172,-4.315C-0.076,-3.851 0.079,-2.268 0,-1.847C-0.079,-1.428 -1.166,-1.393 -1.599,-1.362C-3.57,-1.225 -5.59,-1.396 -7.57,-1.221C-15.396,-0.527 -21.227,2.674 -19.55,11.59C-17.961,20.032 -6.433,20.808 -1.038,15.73C-0.756,15.464 0.579,13.739 0.832,13.921C1.205,14.61 2.051,17.741 2.501,18.088L8.336,18.089L8.474,-3.723Z" style="fill:rgb(30,28,26);fill-rule:nonzero;"/>
    </g>
    <g transform="matrix(4.166667,0,0,4.166667,993.4775,156.602434)">
        <path d="M0,1.261C0.005,0.841 0.011,0.42 0.015,0C0.009,0.421 0.003,0.841 0,1.261" style="fill:rgb(30,28,26);fill-rule:nonzero;"/>
    </g>
    <g transform="matrix(4.166667,0,0,4.166667,951.265,184.37785)">
        <path d="M0,-32.167C-3.942,-32.374 -7.504,-31.394 -10.149,-28.411C-10.411,-28.116 -10.782,-27.157 -11.315,-27.591C-11.476,-27.722 -12.117,-31.109 -12.459,-31.585L-18.969,-31.466L-18.83,0.069L-10.355,0.07L-10.362,-16.954C-10.021,-21.26 -8.819,-25.248 -3.764,-25.36C-0.303,-25.437 1.354,-23.304 1.596,-20.01C2.044,-13.924 1.523,-6.906 1.588,-0.693C1.591,-0.458 1.5,-0.075 1.73,0.069L1.799,-19.381C2.095,-13.166 1.646,-6.905 1.863,-0.688C1.872,-0.424 1.849,-0.162 2.008,0.069C4.651,0.207 7.41,-0.034 10.065,0.069L10.204,-22.158C9.841,-28.316 6.118,-31.846 0,-32.167" style="fill:rgb(30,28,26);fill-rule:nonzero;"/>
    </g>
    <g transform="matrix(-0.014267,4.166642,4.166642,0.014267,692.069697,97.99894)">
        <path d="M-20.387,-21.013L20.792,-21.013C20.944,-20.99 20.864,-20.368 20.869,-20.177C20.864,-20.497 20.79,-20.73 20.647,-20.878L-20.387,-21.013Z" style="fill:rgb(30,28,26);fill-rule:nonzero;"/>
    </g>
    <g transform="matrix(-0.000508,4.166667,4.166667,0.000508,692.199758,97.28124)">
        <path d="M-20.284,-20.977L20.751,-20.977C20.894,-20.83 20.968,-20.597 20.974,-20.277L20.758,-20.842L-20.284,-20.977Z" style="fill:rgb(30,28,26);fill-rule:nonzero;"/>
    </g>
    <g transform="matrix(-3.371268,2.448605,2.448605,3.371268,810.33908,110.48056)">
        <path d="M1.031,21.14C2.669,20.042 4.253,18.873 5.782,17.633C5.586,18.301 1.72,20.543 1.031,21.257L-11.868,3.498L1.031,21.14Z" style="fill:rgb(30,28,26);fill-rule:nonzero;"/>
    </g>
    <g transform="matrix(0.013155,-4.166646,-4.166646,-0.013155,891.883576,126.882007)">
        <path d="M-13.799,7.938L8.056,7.938L-13.755,8.007L-13.773,13.843C-13.871,11.877 -13.879,9.909 -13.799,7.938" style="fill:rgb(30,28,26);fill-rule:nonzero;"/>
    </g>
    <g transform="matrix(4.166667,0,0,4.166667,993.806667,163.274934)">
        <path d="M0,4.794C-0.077,3.099 -0.092,1.384 -0.079,-0.34C-0.101,1.484 -0.112,3.31 -0.145,5.134L0,4.794Z" style="fill:rgb(30,28,26);fill-rule:nonzero;"/>
    </g>
    <g transform="matrix(4.166667,0,0,4.166667,993.780833,156.602434)">
        <path d="M0,-15.492C0.028,-10.326 -0.002,-5.163 -0.058,0C0.019,-5.186 0.298,-10.438 0,-15.492" style="fill:rgb(30,28,26);fill-rule:nonzero;"/>
    </g>
    <g transform="matrix(-4.166365,-0.050108,-0.050108,4.166365,993.776896,120.116353)">
        <path d="M-0.049,8.757C-0.043,3.593 -0.009,-1.57 0.08,-6.735L-0.049,15.492C-0.059,13.668 -0.049,11.843 -0.049,10.018C-0.047,9.598 -0.048,9.178 -0.049,8.757" style="fill:rgb(30,28,26);fill-rule:nonzero;"/>
    </g>
    <g transform="matrix(4.166667,0,0,4.166667,958.845417,184.721184)">
        <path d="M0,-0.261C-0.012,-0.134 -0.039,-0.028 -0.09,-0.013C0.003,-0.01 0.096,-0.018 0.188,-0.013C0.091,0 0.033,-0.117 0,-0.261" style="fill:rgb(30,28,26);fill-rule:nonzero;"/>
    </g>
    <g transform="matrix(4.166667,0,0,4.166667,958.761667,184.7191)">
        <path d="M0,-19.463L-0.069,-0.013C-0.019,-0.027 0.008,-0.133 0.02,-0.26C-0.031,-0.48 -0.023,-0.764 -0.001,-0.752C0.02,-0.74 0.04,-0.471 0.02,-0.26C0.053,-0.117 0.111,0 0.208,-0.013C0.05,-0.244 0.073,-0.506 0.064,-0.77C-0.154,-6.987 0.296,-13.248 0,-19.463" style="fill:rgb(30,28,26);fill-rule:nonzero;"/>
    </g>
    <g transform="matrix(4.166667,0,0,4.166667,958.75625,183.577434)">
        <path d="M0,-0.478C-0.022,-0.491 -0.03,-0.206 0.021,0.013C0.042,-0.197 0.021,-0.466 0,-0.478" style="fill:rgb(30,28,26);fill-rule:nonzero;"/>
    </g>
    <g transform="matrix(4.166667,0,0,4.166667,1042.982083,184.664517)">
        <path d="M0,-9.863C-0.111,-6.588 -0.157,-3.3 -0.139,0L0,-9.863Z" style="fill:rgb(30,28,26);fill-rule:nonzero;"/>
    </g>
    <g transform="matrix(4.166667,0,0,4.166667,1042.403333,143.569934)">
        <path d="M0,9.863C-0.018,6.563 0.028,3.275 0.139,0L-0.008,0.332L0,9.863Z" style="fill:rgb(30,28,26);fill-rule:nonzero;"/>
    </g>
    <g transform="matrix(4.166667,0,0,4.166667,1042.403333,83.950767)">
        <path d="M0,-19.866C0.122,-13.411 0.162,-6.545 0.139,0C0.336,-6.609 -0.008,-13.255 0.139,-19.866C0.099,-19.745 0.053,-19.746 0,-19.866" style="fill:rgb(30,28,26);fill-rule:nonzero;"/>
    </g>
    <g transform="matrix(4.166667,0,0,4.166667,1042.982083,1.679934)">
        <path d="M0,-0.121L-0.139,-0.121C-0.086,-0.001 -0.039,0 0,-0.121" style="fill:rgb(30,28,26);fill-rule:nonzero;"/>
    </g>
    <g transform="matrix(4.166667,0,0,4.166667,1042.403333,83.950767)">
        <path d="M0,-19.866L0.139,0C0.162,-6.545 0.122,-13.411 0,-19.866" style="fill:rgb(30,28,26);fill-rule:nonzero;"/>
    </g>
    <g transform="matrix(4.166667,0,0,4.166667,132.625,73.789934)">
        <path d="M0,10.917C0,22.603 -5.382,27.063 -16.146,27.063C-27.063,27.063 -31.83,21.066 -31.83,11.84L-31.83,5.997L-19.99,5.997L-19.99,10.763C-19.99,13.992 -19.99,17.068 -16.453,17.068C-13.07,17.068 -13.224,12.916 -13.224,11.071L-13.224,-16.146L0,-16.146L0,10.917Z" style="fill:rgb(30,28,26);"/>
    </g>
    <g transform="matrix(4.166667,0,0,4.166667,267.17125,107.744517)">
        <path d="M0,5.228C0,-6.766 -4.92,-13.532 -15.992,-13.532C-24.91,-13.532 -30.753,-6.304 -30.753,2.614C-30.753,12.916 -23.988,18.76 -15.069,18.76C-8.611,18.76 -2.768,15.684 -0.615,9.072L-10.61,9.072C-11.532,10.456 -13.378,11.225 -15.069,11.225C-18.452,11.225 -20.297,8.765 -20.605,5.228L0,5.228ZM-20.451,-0.923C-19.99,-4.152 -18.145,-5.997 -15.069,-5.997C-12.301,-5.997 -10.302,-3.691 -10.302,-0.923L-20.451,-0.923Z" style="fill:rgb(30,28,26);"/>
    </g>
    <g transform="matrix(4.166667,0,0,4.166667,398.514583,107.744517)">
        <path d="M0,5.228C0,-6.766 -4.92,-13.532 -15.992,-13.532C-24.91,-13.532 -30.754,-6.304 -30.754,2.614C-30.754,12.916 -23.988,18.76 -15.069,18.76C-8.765,18.76 -2.768,15.684 -0.615,9.072L-10.61,9.072C-11.533,10.456 -13.378,11.225 -15.069,11.225C-18.452,11.225 -20.297,8.765 -20.605,5.228L0,5.228ZM-20.451,-0.923C-19.99,-4.152 -18.145,-5.997 -15.069,-5.997C-12.302,-5.997 -10.303,-3.691 -10.303,-0.923L-20.451,-0.923Z" style="fill:rgb(30,28,26);"/>
    </g>
    <g transform="matrix(4.166667,0,0,4.166667,402.999167,51.360767)">
        <path d="M0,41.364L10.61,41.364L10.61,28.14L10.764,28.14C12.301,30.754 15.223,32.292 18.452,32.292C27.832,32.292 30.292,23.527 30.292,16.3C30.292,8.611 26.602,0 18.606,0C13.378,0 11.686,2.153 10.303,4.152L10.303,0.769L0,0.769L0,41.364ZM10.303,16.146C10.303,12.456 11.071,8.611 14.915,8.611C18.76,8.611 19.682,12.456 19.682,16.146C19.682,19.683 18.76,23.681 14.915,23.681C11.071,23.681 10.303,19.683 10.303,16.146" style="fill:rgb(30,28,26);"/>
    </g>
    <g transform="matrix(4.166667,0,0,4.166667,515.761667,206.410767)">
        <path d="M0,-2.46L0.769,-2.46C1.076,-2.46 1.384,-2.306 1.384,-1.999C1.384,-1.537 0.923,-1.384 0.615,-1.384L0,-1.384L0,-2.46ZM-0.461,0.308L0,0.308L0,-1.076L0.615,-1.076L1.384,0.308L1.999,0.308L1.076,-1.076C1.538,-1.076 1.845,-1.384 1.845,-1.999C1.845,-2.46 1.538,-2.767 0.769,-2.767L-0.461,-2.767L-0.461,0.308ZM-2.153,-1.23C-2.153,0.154 -0.923,1.384 0.615,1.384C1.999,1.384 3.229,0.154 3.229,-1.23C3.229,-2.767 1.999,-3.844 0.615,-3.844C-0.923,-3.844 -2.153,-2.767 -2.153,-1.23M-1.538,-1.23C-1.538,-2.614 -0.615,-3.536 0.615,-3.536C1.845,-3.536 2.768,-2.614 2.768,-1.23C2.768,0 1.845,0.923 0.615,0.923C-0.615,0.923 -1.538,0 -1.538,-1.23" style="fill:rgb(30,28,26);"/>
    </g>
</svg>
