<?xml version="1.0" encoding="UTF-8" standalone="no"?>
<!DOCTYPE svg PUBLIC "-//W3C//DTD SVG 1.1//EN" "http://www.w3.org/Graphics/SVG/1.1/DTD/svg11.dtd">
<svg width="100%" height="100%" viewBox="0 0 1113 310" version="1.1" xmlns="http://www.w3.org/2000/svg" xmlns:xlink="http://www.w3.org/1999/xlink" xml:space="preserve" xmlns:serif="http://www.serif.com/" style="fill-rule:evenodd;clip-rule:evenodd;stroke-linejoin:round;stroke-miterlimit:2;">
    <g transform="matrix(4.166667,0,0,4.166667,226.920833,266.055524)">
        <path d="M0,-63.85C-4.199,-63.726 -11.36,-59.897 -16.425,-56.316C-19.142,-54.463 -20.252,-53.105 -20.252,-51.747C-20.252,-51.006 -19.883,-50.265 -19.142,-49.278C-18.154,-48.042 -17.413,-47.3 -16.548,-47.3C-15.931,-47.3 -15.313,-47.671 -14.078,-48.906C-10.497,-52.118 -7.78,-54.463 -5.433,-56.316C-4.693,-57.057 -4.075,-57.55 -3.705,-57.55C-3.333,-57.55 -3.211,-57.057 -3.458,-56.316C-5.927,-49.031 -8.645,-41.249 -12.35,-33.84C-32.231,-32.729 -54.461,-23.344 -54.461,-10.499C-54.461,-2.102 -47.669,0.121 -41.124,-0.004C-23.341,-0.25 -11.979,-14.698 -4.075,-32.851C0,-42.237 4.693,-53.6 4.693,-58.539C4.693,-60.764 5.063,-63.971 0,-63.85M-32.725,-6.919C-34.825,-5.93 -36.926,-5.436 -38.652,-5.315C-42.359,-5.315 -45.075,-7.289 -45.075,-11.982C-45.198,-22.601 -29.145,-28.408 -14.201,-29.889C-20.377,-17.662 -25.317,-10.375 -32.725,-6.919" style="fill:rgb(30,28,26);fill-rule:nonzero;"/>
    </g>
    <g transform="matrix(4.166667,0,0,4.166667,765.663333,36.381774)">
        <path d="M0,9.138C0.618,9.509 0.988,9.633 1.975,9.509C4.322,9.262 7.163,5.434 7.163,1.728C7.163,0.123 6.051,-0.495 4.569,-0.371C1.235,-0.124 -2.594,1.851 -2.594,5.31C-2.594,7.039 -1.729,8.15 0,9.138" style="fill:rgb(30,28,26);fill-rule:nonzero;"/>
    </g>
    <g transform="matrix(4.166667,0,0,4.166667,515.587083,267.068024)">
        <path d="M0,-36.182C-1.728,-36.182 -4.198,-35.195 -6.174,-33.342C-12.966,-26.797 -16.918,-23.956 -21.488,-23.956C-24.822,-23.956 -26.674,-25.932 -25.934,-29.39C-24.946,-34.33 -18.647,-39.395 -11.113,-39.517C-7.04,-39.64 -5.432,-38.899 -3.828,-38.159C-2.47,-37.542 -0.864,-38.899 -0.246,-41.37C-0.123,-41.864 0,-42.358 0,-42.851C0,-44.58 -1.358,-46.309 -9.138,-46.186C-20.13,-46.062 -27.539,-38.159 -33.837,-31.366C-40.011,-24.822 -46.681,-20.377 -52.978,-19.757C-56.189,-19.512 -58.413,-20.746 -59.029,-24.696C-48.656,-27.908 -40.136,-31.983 -40.136,-38.159C-40.136,-41.864 -42.604,-44.58 -47.668,-44.456C-55.695,-44.333 -67.674,-33.713 -67.428,-23.834C-67.303,-17.535 -63.352,-13.83 -56.93,-13.83C-49.767,-13.83 -41.863,-18.524 -33.714,-26.056C-33.714,-20.377 -30.996,-16.671 -25.563,-16.794C-20.377,-16.794 -16.423,-19.635 -11.854,-24.204C-11.113,-24.945 -10.743,-25.438 -10.251,-25.438C-9.632,-25.438 -9.879,-24.696 -10.621,-23.339C-11.113,-22.475 -22.475,0.125 -23.835,3.211C-24.452,4.694 -24.822,5.805 -24.822,6.669C-24.822,8.152 -24.118,9.028 -22.76,9.647C-22.265,9.894 -21.488,10.127 -20.747,10.127C-20.13,10.127 -19.76,10.003 -19.141,9.633C-17.659,8.646 -16.178,6.175 -14.078,1.976C-9.632,-7.039 -2.099,-23.71 0,-28.526C0.494,-29.761 1.975,-32.849 2.224,-34.083C2.471,-35.565 1.482,-36.308 0,-36.182M-49.15,-38.653C-46.928,-38.653 -46.432,-37.789 -46.555,-36.43C-46.804,-33.96 -51.497,-30.502 -59.277,-27.662C-59.277,-32.849 -54.336,-38.529 -49.15,-38.653" style="fill:rgb(30,28,26);fill-rule:nonzero;"/>
    </g>
    <g transform="matrix(4.166667,0,0,4.166667,1111.0475,86.508024)">
        <path d="M0,18.277C-0.37,17.658 -0.988,17.29 -2.594,17.905C-8.149,20.005 -10.531,20.875 -14.607,20.898C-19.766,20.925 -17.656,17.455 -20.62,6.588C-20.992,5.231 -20.992,4.365 -23.707,3.997C-27.165,3.501 -27.907,5.231 -28.893,6.588C-33.833,13.38 -42.016,20.2 -46.833,21.189C-51.031,22.053 -51.649,18.473 -51.154,13.904C-50.784,10.198 -49.918,7.852 -48.437,3.53C-46.833,3.53 -45.598,3.777 -44.609,3.53C-41.893,3.158 -41.151,2.419 -40.535,-2.276C-40.288,-4.251 -41.645,-4.498 -42.757,-4.372L-45.968,-4.004C-45.227,-6.597 -44.856,-8.326 -44.856,-9.438C-44.856,-10.795 -45.844,-10.92 -47.203,-10.92C-53.006,-10.92 -52.513,-9.314 -53.623,-4.004L-53.872,-3.017C-58.07,-2.521 -62.27,-2.152 -66.22,-1.782C-69.306,-1.535 -69.678,-0.669 -70.048,1.306C-70.419,3.282 -69.306,3.53 -66.59,3.53L-55.971,3.53C-61.404,12.173 -67.455,19.336 -72.149,19.706C-77.335,20.2 -77.458,15.014 -79.31,5.752C-79.68,3.9 -80.176,3.282 -82.027,2.912C-84.622,2.419 -85.486,3.158 -86.597,4.887C-88.944,8.469 -94.5,18.019 -96.971,19.996C-97.712,20.611 -98.7,20.983 -99.44,20.983C-100.922,20.983 -101.64,17.518 -101.787,14.808C-101.961,11.603 -101.415,8.264 -101.292,5.175C-101.168,3.077 -102.281,3.077 -104.505,3.198C-108.455,3.447 -109.32,7.398 -115.001,14.561C-117.347,17.525 -120.186,20.49 -123.769,20.86C-126.114,20.983 -127.102,19.624 -127.102,17.155C-127.102,13.327 -122.286,4.681 -122.04,2.088C-121.916,0.854 -122.533,0.483 -124.51,0.483C-130.067,0.483 -129.943,0.977 -132.167,6.412C-133.648,10.115 -135.748,17.155 -135.625,20.983C-135.377,27.157 -130.561,28.517 -126.732,28.269C-121.298,27.898 -116.482,24.441 -111.543,16.291C-111.171,15.672 -111.047,15.427 -110.679,15.427C-110.43,15.427 -110.307,15.672 -110.307,16.537L-110.307,18.883C-110.307,23.699 -107.317,26.372 -103.741,26.688C-99.077,27.1 -94.995,23.783 -87.585,12.544C-87.09,11.804 -86.967,11.804 -86.597,11.804C-86.35,11.804 -86.228,12.051 -86.104,12.544C-83.756,21.807 -82.027,26.005 -74.124,25.512C-68.32,25.139 -63.01,19.583 -58.564,13.409C-60.292,22.177 -58.44,27.858 -52.513,28.104C-46.338,28.351 -40.291,24.946 -35.474,20.131C-32.51,17.168 -29.878,14.909 -27.362,12.396C-26.967,12 -26.716,12.072 -26.591,12.072C-26.345,12.072 -26.222,12.319 -26.096,12.813C-23.381,23.805 -24.21,25.99 -19.627,27.373C-13.6,29.197 -8.24,25.453 -1.482,20.622C0.315,19.337 0.494,19.141 0,18.277" style="fill:rgb(30,28,26);fill-rule:nonzero;"/>
    </g>
    <g transform="matrix(3.81867,1.666994,1.666994,-3.81867,1002.82578,71.078294)">
        <path d="M1.847,-0.079C4.052,-0.193 6.593,0.78 6.48,2.888C6.229,6.552 4.377,9.247 1.847,9.49C-0.521,9.668 -2.363,8.325 -2.95,6.587C-4.254,2.784 -1.074,0.128 1.847,-0.079" style="fill:rgb(30,28,26);fill-rule:nonzero;"/>
    </g>
</svg>
