<?xml version="1.0" encoding="UTF-8" standalone="no"?>
<!DOCTYPE svg PUBLIC "-//W3C//DTD SVG 1.1//EN" "http://www.w3.org/Graphics/SVG/1.1/DTD/svg11.dtd">
<svg width="100%" height="100%" viewBox="0 0 1458 183" version="1.1" xmlns="http://www.w3.org/2000/svg" xmlns:xlink="http://www.w3.org/1999/xlink" xml:space="preserve" xmlns:serif="http://www.serif.com/" style="fill-rule:evenodd;clip-rule:evenodd;stroke-linejoin:round;stroke-miterlimit:2;">
    <g transform="matrix(4.166667,0,0,4.166667,79.591667,149.612501)">
        <path d="M0,-31.454L0,-18.842C-0.993,-21.142 -3.203,-23.163 -5.451,-24.535L-14.92,-24.535C-11.85,-22.241 -7.001,-18.658 -7.001,-15.792C-7.001,-14.367 -8.73,-14.082 -9.716,-14.082L-15.687,-14.082L-15.687,-7.224L-6.331,-7.224C-4.236,-7.224 -1.222,-7.985 -0.001,-11.217L-0.001,-2.021L8.719,-2.021L8.719,-11.217C9.938,-7.985 12.952,-7.224 15.047,-7.224L24.402,-7.224L24.402,-14.082L18.431,-14.082C17.446,-14.082 15.717,-14.367 15.717,-15.792C15.717,-18.658 20.567,-22.241 23.636,-24.535L14.167,-24.535C11.918,-23.164 9.71,-21.142 8.714,-18.842L8.714,-31.455L0,-31.454ZM4.359,-35.907C17.317,-35.904 27.822,-26.867 27.823,-15.723C27.826,-4.578 17.322,4.455 4.365,4.453C-8.592,4.451 -19.099,-4.586 -19.102,-15.731C-19.102,-26.875 -8.601,-35.909 4.359,-35.907" style="fill:rgb(30,28,26);fill-rule:nonzero;"/>
    </g>
    <g transform="matrix(4.166667,0,0,4.166667,400.75,40.021668)">
        <path d="M0,-5.338L7.374,-5.338L7.001,0L-0.372,0L0,-5.338Z" style="fill:rgb(30,28,26);fill-rule:nonzero;"/>
    </g>
    <g transform="matrix(4.166667,0,0,4.166667,1236.745417,69.235835)">
        <path d="M0,13.36C3.643,13.36 3.876,9.971 4.069,7.219C2.425,7.219 0.87,7.137 -0.235,7.671C-1.426,8.246 -2.313,9.234 -2.414,10.672C-2.517,12.151 -1.479,13.36 0,13.36M3.385,14.764L3.303,14.764C1.63,16.317 0.047,17.449 -2.966,17.449C-7.855,17.449 -9.907,14.666 -9.907,11.019C-9.907,6.909 -5.698,4.27 1.779,4.27L4.244,4.27C4.371,2.462 4.999,-0.519 1.903,-0.519C-0.293,-0.519 -0.829,1.571 -0.874,2.576L-7.978,2.576C-7.815,-0.114 -6.652,-1.911 -4.491,-2.856C-2.287,-3.842 0.402,-4.089 2.702,-4.089C6.893,-4.089 12.033,-2.002 11.686,3.112L11.103,13.031C11.043,13.894 11.032,14.798 11.146,17.263L3.782,17.263L3.385,14.764Z" style="fill:rgb(30,28,26);fill-rule:nonzero;"/>
    </g>
    <g transform="matrix(4.166667,0,0,4.166667,1390.1975,65.696668)">
        <path d="M0,6.633L7.383,-2.558L16.249,-2.558L8.297,6.181L15.833,18.135L6.228,18.135L0,6.633ZM-8.609,18.135L-6.535,-11.502L1.268,-11.502L-0.804,18.135L-8.609,18.135Z" style="fill:rgb(30,28,26);fill-rule:nonzero;"/>
    </g>
    <g transform="matrix(4.166667,0,0,4.166667,824.792917,128.514585)">
        <path d="M0,-14.561L0.082,-14.561C2.085,-17.139 4.391,-17.569 6.932,-17.569L6.469,-10.955C5.945,-10.996 5.41,-10.996 4.876,-10.996C-0.267,-10.996 -0.426,-8.047 -0.617,-4.633L-1.082,3.059L-9.092,3.059L-8.02,-12.264C-7.891,-14.113 -7.846,-15.345 -7.895,-17.62L-0.261,-17.62L0,-14.561Z" style="fill:rgb(30,28,26);fill-rule:nonzero;"/>
    </g>
    <g transform="matrix(0.290723,-4.156512,-4.156512,-0.290723,931.542602,103.836831)">
        <path d="M-10.304,18.588L19.407,18.588L19.934,11.05L-9.776,11.049L-10.304,18.588Z" style="fill:rgb(30,28,26);fill-rule:nonzero;"/>
    </g>
    <g transform="matrix(4.166667,0,0,4.166667,623.539167,60.873335)">
        <path d="M0,9.245C-0.122,11.765 0.512,15.325 3.339,15.325C6.932,15.325 7.817,11.742 7.951,8.877C8.067,6.344 7.568,2.585 4.519,2.594C0.624,2.606 0.129,6.506 0,9.245M-6.192,-10.346L1.545,-10.346L0.716,1.468L0.867,1.468C2.432,-0.38 4.607,-1.924 7.391,-1.924C13.716,-1.924 16.154,3.644 15.81,8.674C15.461,13.779 12.792,19.591 5.728,19.591C3.345,19.591 1.032,18.279 -0.039,16.748L-0.202,16.748L-0.667,19.269L-8.267,19.269L-6.192,-10.346Z" style="fill:rgb(30,28,26);fill-rule:nonzero;"/>
    </g>
    <g transform="matrix(4.166667,0,0,4.166667,755.605417,107.188335)">
        <path d="M0,-4.709C0.078,-5.817 -0.172,-6.927 -0.729,-7.789C-1.283,-8.652 -2.129,-9.186 -3.323,-9.104C-6.044,-8.981 -6.77,-7.05 -7.137,-4.709L0,-4.709ZM-7.505,-0.812C-7.731,2.039 -7.081,4.34 -4.166,4.34C-1.989,4.34 -0.614,2.889 -0.614,1.539L6.616,1.539C6.454,4.052 4.702,6.005 2.649,7.155C0.763,8.306 -1.402,8.509 -3.721,8.509C-12.142,8.509 -15.397,5.015 -14.877,-2.823C-14.445,-9.356 -9.183,-13.218 -2.983,-13.12C5.315,-12.988 7.984,-8.102 7.192,-0.812L-7.505,-0.812Z" style="fill:rgb(30,28,26);fill-rule:nonzero;"/>
    </g>
    <g transform="matrix(4.166667,0,0,4.166667,272.755833,141.230001)">
        <path d="M0,-29.628L8.687,-29.628L6.605,0L-2.081,0L0,-29.628Z" style="fill:rgb(30,28,26);fill-rule:nonzero;"/>
    </g>
    <g transform="matrix(4.166667,0,0,4.166667,348.9975,141.230001)">
        <path d="M0,-29.628L-10.38,-16.466L-1.131,0L9.273,0L-1.096,-16.895L9.815,-29.628L0,-29.628Z" style="fill:rgb(30,28,26);fill-rule:nonzero;"/>
    </g>
    <g transform="matrix(4.166667,0,0,4.166667,397.766667,141.230001)">
        <path d="M0,-20.672L7.373,-20.672L5.925,0L-1.448,0L0,-20.672Z" style="fill:rgb(30,28,26);fill-rule:nonzero;"/>
    </g>
    <g transform="matrix(4.166667,0,0,4.166667,467.354167,138.719585)">
        <path d="M0,-20.071L-0.003,-17.279L0.08,-17.279C2.382,-20.29 5.547,-20.56 7.493,-20.56C10.311,-20.56 13.193,-19 13.775,-16.909C15.368,-19.381 18.212,-20.601 21.347,-20.684C25.857,-20.684 28.991,-17.8 28.668,-13.226L27.688,0.602L19.756,0.602L20.617,-11.536C20.723,-13.505 20.565,-15.74 17.974,-15.74C14.174,-15.74 14.323,-11.495 14.285,-11.248L13.471,0.608L5.516,0.608L6.396,-11.536C6.434,-13.555 6.17,-15.74 3.656,-15.74C-0.354,-15.74 -0.268,-11.495 -0.264,-11.248L-1.088,0.613L-9.267,0.613L-7.832,-20.07L0,-20.071Z" style="fill:rgb(30,28,26);fill-rule:nonzero;"/>
    </g>
    <g transform="matrix(4.166667,0,0,4.166667,933.1525,55.121668)">
        <path d="M0,30.623L-7.173,30.623L-2.548,21.011L-10.125,0L-1.327,0L2.086,12.829L7.516,0L14.775,0L0,30.623Z" style="fill:rgb(30,28,26);fill-rule:nonzero;"/>
    </g>
    <g transform="matrix(4.166667,0,0,4.166667,997.873333,99.392085)">
        <path d="M0,-6.469L9.997,-6.469L6.803,0L-3.196,0L0,-6.469Z" style="fill:rgb(30,28,26);fill-rule:nonzero;"/>
    </g>
    <g transform="matrix(4.166667,0,0,4.166667,1106.382917,142.457085)">
        <path d="M0,-30.714C6.107,-30.714 12.349,-28.045 12.078,-20.626L3.665,-20.626C3.665,-22.572 2.534,-24.789 -0.316,-24.789C-3.166,-24.789 -6.512,-22.663 -7.1,-16.51C-7.688,-10.358 -6.919,-5.7 -1.944,-5.7C2.353,-5.7 3.211,-9.409 3.303,-10.132L11.649,-10.132C11.649,-6.83 8.911,0 -2.396,0C-14.338,0 -16.464,-8.686 -15.47,-16.782C-14.636,-23.561 -9.815,-30.714 0,-30.714" style="fill:rgb(30,28,26);fill-rule:nonzero;"/>
    </g>
    <g transform="matrix(0.290583,-4.156522,-4.156522,-0.290583,1237.625376,103.830653)">
        <path d="M-10.305,18.588L19.406,18.588L19.933,11.05L-9.778,11.053L-10.305,18.588Z" style="fill:rgb(30,28,26);fill-rule:nonzero;"/>
    </g>
    <g transform="matrix(4.166667,0,0,4.166667,1326.499167,128.514585)">
        <path d="M0,-14.561L0.083,-14.561C2.086,-17.139 4.394,-17.569 6.981,-17.569L6.517,-10.955C5.946,-10.996 5.412,-10.996 4.879,-10.996C-0.265,-10.996 -0.425,-8.047 -0.617,-4.633L-1.08,3.059L-9.09,3.059L-8.018,-12.264C-7.889,-14.113 -7.843,-15.345 -7.894,-17.62L-0.26,-17.62L0,-14.561Z" style="fill:rgb(30,28,26);fill-rule:nonzero;"/>
    </g>
</svg>
