<?xml version="1.0" encoding="UTF-8" standalone="no"?>
<!DOCTYPE svg PUBLIC "-//W3C//DTD SVG 1.1//EN" "http://www.w3.org/Graphics/SVG/1.1/DTD/svg11.dtd">
<svg width="100%" height="100%" viewBox="0 0 968 389" version="1.1" xmlns="http://www.w3.org/2000/svg" xmlns:xlink="http://www.w3.org/1999/xlink" xml:space="preserve" xmlns:serif="http://www.serif.com/" style="fill-rule:evenodd;clip-rule:evenodd;stroke-linejoin:round;stroke-miterlimit:2;">
    <g transform="matrix(4.166667,0,0,4.166667,752.958333,388.720833)">
        <path d="M0,-93.293L0,-46.74C-1.626,-45.457 -3.009,-44.081 -4.298,-42.599L-4.298,-93.293L-55.864,-93.293L-55.864,-50.904L-60.136,-50.904L-60.136,-93.293L-111.71,-93.293L-111.71,-50.836L-115.977,-50.836L-115.977,-93.293L-167.553,-93.293L-167.553,-44.902L-180.71,-1.028L-169.138,-1.028L-163.325,-20.459L-161.653,-20.459L-152.055,-1.028L-138.071,-1.028L-147.384,-20.459L-126.252,-20.459L-132.116,-1.028L-119.468,-1.028L-113.682,-20.404L-110.906,-20.404L-110.906,-20.459L-82.75,-20.459L-88.334,-1.085L-75.583,-1.085L-70.172,-20.459L-64.434,-20.459L-64.28,-1.085L-53.583,-1.085L-41.306,-20.459L-33.267,-20.459L-37.414,-1.085L-24.859,-1.085L-20.787,-20.459L-13.526,-20.459C-13.814,-14.453 -12.279,-8.999 -8.296,-5.325C-3.432,-0.855 4.038,0 9.568,0C17.133,0 24.985,-1.085 32.886,-2.867L37.236,-20.459L51.566,-20.459L51.566,-93.293L0,-93.293ZM-117.836,-48.365L-118.586,-45.879L-125.439,-23.076L-125.71,-22.274L-148.264,-22.274L-150.025,-25.989L-125.71,-50.836L-141.331,-50.836L-160.345,-30.355L-154.186,-50.836L-165.705,-50.836L-165.705,-91.454L-117.836,-91.454L-117.836,-48.365ZM-104.521,-29.083L-104.535,-29.083C-104.999,-29.059 -105.467,-29.019 -106.001,-29.019C-106.7,-29.019 -107.246,-28.993 -107.761,-28.993L-110.828,-29.019L-109.41,-34.26L-108.739,-36.862L-107.131,-42.959C-106.418,-42.959 -105.719,-42.985 -105.052,-42.985L-102.678,-42.985C-98.628,-42.985 -96.064,-42.754 -95.132,-41.451C-94.417,-40.474 -94.51,-38.782 -95.353,-36.211C-96.799,-31.781 -98.628,-29.533 -104.521,-29.083M-69.656,-22.274L-64.612,-40.183L-64.434,-22.274L-69.656,-22.274ZM-61.989,-50.904L-73.978,-50.904L-82.203,-22.274L-94.916,-22.274C-88.438,-24.67 -84.496,-29.246 -83.276,-36.037C-82.272,-41.313 -82.75,-44.785 -84.901,-47.384C-88.126,-51.253 -94.598,-50.921 -100.348,-50.921C-101.354,-50.921 -109.858,-50.904 -109.858,-50.904L-109.858,-91.454L-61.989,-91.454L-61.989,-50.904ZM-32.904,-22.274L-40.111,-22.274L-29.202,-39.437L-32.904,-22.274ZM-6.153,-50.098L-6.177,-40.183C-9.517,-35.568 -11.591,-30.528 -12.561,-26.469C-12.927,-25.048 -13.185,-23.668 -13.324,-22.274L-20.364,-22.274L-14.345,-50.836L-34.604,-50.856L-52.736,-22.274L-54.057,-22.274L-54.057,-91.454L-6.153,-91.454L-6.153,-50.098ZM21.465,-10.582C18.73,-10.087 16.003,-9.757 13.406,-9.757C6.497,-9.757 1.692,-12.968 1.591,-20.459L23.914,-20.459L21.465,-10.582ZM49.746,-22.274L37.678,-22.274L39.671,-30.254L15.49,-30.254L13.502,-22.274L1.818,-22.274L1.818,-23.913C1.999,-24.812 2.154,-25.755 2.38,-26.764C4.506,-35.369 10.156,-43.873 19.929,-43.873C23.796,-43.873 27.639,-42.399 27.112,-37.05L41.498,-37.05C42.065,-39.546 43.017,-43.798 40.303,-47.706C37.236,-51.954 31.059,-53.658 23.048,-53.658C17.35,-53.658 9.018,-52.746 1.818,-48.047L1.818,-91.454L49.746,-91.454L49.746,-22.274Z" style="fill:rgb(30,28,26);fill-rule:nonzero;"/>
    </g>
</svg>
