<?xml version="1.0" encoding="UTF-8" standalone="no"?>
<!DOCTYPE svg PUBLIC "-//W3C//DTD SVG 1.1//EN" "http://www.w3.org/Graphics/SVG/1.1/DTD/svg11.dtd">
<svg width="100%" height="100%" viewBox="0 0 745 512" version="1.1" xmlns="http://www.w3.org/2000/svg" xmlns:xlink="http://www.w3.org/1999/xlink" xml:space="preserve" xmlns:serif="http://www.serif.com/" style="fill-rule:evenodd;clip-rule:evenodd;stroke-linejoin:round;stroke-miterlimit:2;">
    <g transform="matrix(4.166667,0,0,4.166667,488.550833,398.388333)">
        <path d="M0,-10.61L-0.503,-11.302L-1.153,-11.91L-1.95,-12.434L-2.851,-12.833L-3.858,-13.084L-4.948,-13.168L-6.416,-13.105L-7.611,-12.916L-8.597,-12.602L-9.436,-12.162L-10.232,-11.595L-10.232,-12.791L-15.516,-12.791L-15.516,2.558L-10.232,2.558L-10.232,-6.06L-9.876,-7.046L-8.995,-8.01L-7.527,-8.45L-6.521,-8.241L-5.703,-7.695L-5.116,-6.877L-4.885,-5.892L-4.885,2.558L0.419,2.558L0.419,-9.1L0.315,-9.876L0,-10.61Z" style="fill:rgb(30,28,26);fill-rule:nonzero;"/>
    </g>
    <g transform="matrix(4.166667,0,0,4.166667,497.8125,286.995833)">
        <path d="M0,-15.118L0.209,-14.153L0.399,-13.168L0.587,-12.182L0.776,-11.197L0.964,-10.19L1.132,-9.184L1.321,-8.157L1.489,-7.129L1.677,-6.102L1.845,-5.074L2.013,-4.047L2.18,-2.978L2.349,-1.929L2.516,-0.86L2.684,0.209L2.831,1.3L2.998,2.39L3.145,3.481L3.292,4.571L3.438,5.682L3.585,6.794L3.733,7.905L3.878,9.037L3.984,9.981L20.83,9.981L20.716,9.373L20.527,8.345L20.339,7.318L20.15,6.312L19.94,5.284L19.731,4.278L19.521,3.271L19.311,2.265L19.101,1.258L18.871,0.252L18.661,-0.755L18.43,-1.74L18.2,-2.726L17.969,-3.732L17.739,-4.718L17.508,-5.682L17.257,-6.647L17.005,-7.633L16.774,-8.597L16.522,-9.562L16.271,-10.526L15.998,-11.49L15.746,-12.455L15.495,-13.398L15.222,-14.342L14.95,-15.286L14.678,-16.229L14.405,-17.152L14.132,-18.095L13.86,-19.018L13.587,-19.94L13.293,-20.842L13.021,-21.744L12.727,-22.666L12.434,-23.547L12.14,-24.449L11.847,-25.329L11.553,-26.21L11.26,-27.09L10.945,-27.95L10.652,-28.81L10.337,-29.669L10.023,-30.529L9.708,-31.368L9.414,-32.207L9.1,-33.045L8.764,-33.863L8.136,-35.499L7.821,-36.296L7.485,-37.092L7.171,-37.868L6.835,-38.665L6.5,-39.441L6.165,-40.195L5.829,-40.95L5.494,-41.705L5.158,-42.46L4.822,-43.194L4.487,-43.907L4.152,-44.641L3.816,-45.353L3.459,-46.046L3.124,-46.737L2.768,-47.429L2.432,-48.1L2.076,-48.771L1.719,-49.421L1.362,-50.092L1.027,-50.721L0.315,-51.979L-0.042,-52.587L-0.399,-53.196L-0.755,-53.783L-1.133,-54.37L-1.489,-54.935L-1.845,-55.502L-2.201,-56.068L-2.558,-56.613L-2.935,-57.138L-3.292,-57.661L-3.67,-58.186L-4.026,-58.689L-4.382,-59.171L-4.76,-59.653L-5.116,-60.115L-5.493,-60.576L-5.871,-61.037L-6.228,-61.457L-6.605,-61.897L-6.962,-62.295L-7.339,-62.715L-7.716,-63.092L-8.073,-63.47L-8.45,-63.847L-8.828,-64.204L-9.205,-64.539L-9.562,-64.874L-9.939,-65.189L-10.316,-65.503L-10.673,-65.797L-11.05,-66.07L-11.428,-66.342L-11.784,-66.594L-12.162,-66.845L-12.539,-67.076L-12.916,-67.286L-13.273,-67.496L-13.65,-67.684L-14.028,-67.852L-14.384,-68.019L-14.761,-68.167L-15.118,-68.292L-15.496,-68.418L-15.873,-68.523L-16.229,-68.628L-16.607,-68.712L-16.963,-68.774L-17.319,-68.816L-17.697,-68.858L-18.054,-68.879L-19.039,-68.879L-19.626,-68.837L-20.234,-68.753L-20.821,-68.649L-21.387,-68.523L-21.974,-68.355L-22.541,-68.167L-23.086,-67.936L-23.651,-67.705L-24.197,-67.432L-24.721,-67.139L-25.266,-66.825L-25.79,-66.468L-26.315,-66.112L-26.818,-65.713L-27.322,-65.294L-27.824,-64.854L-28.328,-64.413L-28.81,-63.931L-29.292,-63.428L-29.754,-62.903L-30.236,-62.359L-30.698,-61.792L-31.138,-61.226L-31.599,-60.618L-32.018,-60.01L-32.438,-59.381L-32.878,-58.731L-33.297,-58.06L-33.717,-57.389L-34.115,-56.697L-34.514,-55.984L-34.911,-55.271L-35.31,-54.516L-35.688,-53.783L-36.065,-53.007L-36.442,-52.252L-36.799,-51.455L-37.155,-50.659L-37.512,-49.861L-37.868,-49.044L-38.204,-48.226L-38.539,-47.388L-38.874,-46.549L-39.189,-45.71L-39.504,-44.85L-39.818,-43.99L-40.112,-43.11L-40.426,-42.25L-40.699,-41.37L-40.992,-40.489L-41.265,-39.608L-41.558,-38.706L-41.809,-37.826L-42.082,-36.925L-42.334,-36.044L-42.838,-34.24L-43.068,-33.339L-43.299,-32.437L-43.529,-31.556L-43.759,-30.655L-43.97,-29.775L-44.18,-28.873L-44.389,-27.992L-44.578,-27.111L-44.766,-26.231L-44.955,-25.351L-45.144,-24.491L-45.312,-23.631L-45.5,-22.771L-45.647,-21.911L-45.815,-21.073L-45.961,-20.255L-46.108,-19.416L-46.255,-18.598L-46.402,-17.802L-46.527,-17.005L-46.654,-16.209L-46.779,-15.432L-46.905,-14.677L-47.01,-13.923L-47.22,-12.455L-47.304,-13.189L-47.409,-13.923L-47.535,-14.677L-47.639,-15.432L-47.765,-16.209L-47.891,-17.005L-48.037,-17.802L-48.163,-18.598L-48.31,-19.416L-48.457,-20.255L-48.624,-21.073L-48.771,-21.933L-48.939,-22.771L-49.107,-23.631L-49.296,-24.491L-49.463,-25.351L-49.652,-26.231L-49.862,-27.111L-50.051,-27.992L-50.26,-28.873L-50.469,-29.775L-50.679,-30.655L-50.91,-31.556L-51.141,-32.458L-51.372,-33.339L-51.602,-34.24L-51.854,-35.142L-52.105,-36.044L-52.357,-36.925L-52.629,-37.826L-52.881,-38.706L-53.174,-39.608L-53.447,-40.489L-53.74,-41.37L-54.013,-42.25L-54.328,-43.11L-54.622,-43.99L-54.936,-44.85L-55.251,-45.71L-55.566,-46.549L-55.901,-47.388L-56.236,-48.226L-56.571,-49.044L-56.928,-49.861L-57.284,-50.659L-57.641,-51.455L-57.998,-52.252L-58.375,-53.007L-58.752,-53.783L-59.129,-54.516L-59.528,-55.271L-60.324,-56.697L-60.723,-57.389L-61.142,-58.06L-61.562,-58.731L-62.002,-59.381L-62.421,-60.01L-62.861,-60.618L-63.323,-61.226L-63.763,-61.792L-64.225,-62.359L-64.686,-62.903L-65.168,-63.428L-65.65,-63.931L-66.132,-64.392L-66.636,-64.854L-67.118,-65.294L-67.621,-65.713L-68.146,-66.112L-68.67,-66.468L-69.194,-66.825L-69.718,-67.139L-70.263,-67.432L-70.808,-67.705L-71.353,-67.936L-71.919,-68.167L-72.486,-68.355L-73.052,-68.523L-73.639,-68.649L-74.226,-68.753L-74.814,-68.837L-75.422,-68.879L-76.386,-68.879L-76.743,-68.858L-77.12,-68.816L-77.476,-68.774L-77.854,-68.712L-78.21,-68.628L-78.588,-68.544L-78.944,-68.418L-79.321,-68.313L-79.699,-68.167L-80.056,-68.019L-80.433,-67.852L-80.811,-67.684L-81.167,-67.496L-81.921,-67.076L-82.278,-66.845L-82.656,-66.594L-83.032,-66.342L-83.411,-66.07L-83.766,-65.797L-84.144,-65.503L-84.522,-65.189L-84.899,-64.874L-85.255,-64.539L-85.633,-64.204L-86.011,-63.847L-86.367,-63.49L-86.744,-63.092L-87.121,-62.715L-87.478,-62.316L-87.856,-61.897L-88.233,-61.478L-88.589,-61.037L-88.967,-60.597L-89.323,-60.136L-89.7,-59.653L-90.057,-59.171L-90.434,-58.689L-90.791,-58.186L-91.168,-57.682L-91.524,-57.158L-91.882,-56.613L-92.258,-56.068L-92.615,-55.523L-92.971,-54.957L-93.328,-54.391L-93.684,-53.804L-94.041,-53.196L-94.398,-52.608L-94.754,-51.979L-95.11,-51.371L-95.467,-50.742L-95.823,-50.092L-96.18,-49.442L-96.536,-48.792L-96.872,-48.121L-97.228,-47.45L-97.563,-46.758L-97.92,-46.066L-98.255,-45.353L-98.612,-44.641L-98.948,-43.928L-99.283,-43.215L-99.618,-42.46L-99.954,-41.726L-100.289,-40.971L-100.625,-40.216L-100.96,-39.441L-101.275,-38.685L-101.61,-37.889L-101.946,-37.113L-102.26,-36.316L-102.575,-35.499L-102.91,-34.702L-103.225,-33.884L-103.539,-33.066L-103.854,-32.228L-104.169,-31.389L-104.483,-30.55L-104.776,-29.69L-105.091,-28.831L-105.405,-27.971L-105.699,-27.111L-105.993,-26.231L-106.286,-25.351L-106.58,-24.47L-106.873,-23.568L-107.167,-22.687L-107.461,-21.765L-107.754,-20.863L-108.027,-19.961L-108.3,-19.039L-108.592,-18.116L-108.865,-17.173L-109.139,-16.25L-109.411,-15.306L-109.662,-14.363L-109.935,-13.42L-110.186,-12.476L-110.459,-11.511L-110.71,-10.547L-110.962,-9.582L-111.214,-8.618L-111.465,-7.653L-111.696,-6.667L-111.947,-5.703L-112.178,-4.739L-112.409,-3.753L-112.639,-2.767L-112.87,-1.761L-113.101,-0.776L-113.31,0.23L-113.541,1.237L-113.75,2.244L-114.17,4.256L-114.38,5.263L-114.589,6.29L-114.778,7.297L-114.967,8.324L-115.155,9.352L-115.344,10.358L-115.533,11.385L-115.722,12.413L-115.89,13.44L-116.057,14.468L-116.224,15.516L-116.392,16.544L-116.56,17.571L-116.707,18.619L-116.875,19.647L-117.021,20.695L-117.169,21.722L-117.294,22.771L-117.441,23.798L-117.567,24.847L-117.693,25.895L-117.818,26.923L-117.944,27.971L-118.049,29.02L-118.175,30.047L-118.28,31.095L-118.384,32.144L-118.49,33.171L-118.573,34.22L-118.657,35.247L-118.741,36.295L-118.825,37.344L-118.909,38.371L-118.972,39.398L-119.035,40.447L-119.097,41.474L-119.161,42.502L-119.223,43.551L-119.349,46.632L-119.37,47.66L-119.412,48.687L-119.433,49.694L-119.454,50.722L-119.454,51.728L-119.475,52.755L-119.475,53.761L-101.044,53.761L-101.044,51.224L-101.023,49.967L-101.002,48.708L-100.96,46.192L-100.939,44.955L-100.897,43.697L-100.877,42.46L-100.834,41.202L-100.793,39.964L-100.73,38.727L-100.687,37.491L-100.625,36.254L-100.562,35.038L-100.499,33.8L-100.436,32.584L-100.352,31.368L-100.289,30.152L-100.205,28.936L-100.122,27.719L-100.038,26.524L-99.933,25.329L-99.849,24.134L-99.744,22.939L-99.64,21.765L-99.534,20.569L-99.43,19.395L-99.324,18.221L-99.22,17.068L-99.094,15.894L-98.968,14.74L-98.843,13.587L-98.717,12.434L-98.465,10.17L-98.318,9.037L-98.171,7.905L-98.046,6.794L-97.899,5.682L-97.753,4.571L-97.605,3.481L-97.438,2.39L-97.291,1.3L-97.123,0.209L-96.976,-0.86L-96.808,-1.929L-96.641,-2.978L-96.305,-5.074L-96.117,-6.102L-95.949,-7.129L-95.76,-8.157L-95.593,-9.163L-95.404,-10.19L-95.215,-11.176L-95.026,-12.182L-94.838,-13.168L-94.649,-14.132L-94.46,-15.118L-94.271,-16.082L-94.062,-17.026L-93.873,-17.97L-93.664,-18.913L-93.453,-19.836L-93.265,-20.758L-93.055,-21.66L-92.846,-22.562L-92.636,-23.463L-92.427,-24.343L-92.216,-25.224L-91.986,-26.084L-91.776,-26.944L-91.567,-27.783L-91.336,-28.621L-91.126,-29.439L-90.896,-30.256L-90.665,-31.054L-90.455,-31.85L-90.225,-32.647L-89.994,-33.423L-89.764,-34.178L-89.533,-34.932L-89.302,-35.687L-89.071,-36.421L-88.841,-37.134L-88.61,-37.847L-88.379,-38.539L-88.149,-39.231L-87.918,-39.902L-87.688,-40.573L-87.436,-41.223L-87.206,-41.873L-86.975,-42.502L-86.723,-43.11L-86.493,-43.718L-86.241,-44.326L-86.011,-44.913L-85.78,-45.479L-85.528,-46.025L-85.297,-46.57L-85.046,-47.115L-84.815,-47.639L-84.564,-48.142L-84.312,-48.624L-84.081,-49.107L-83.829,-49.589L-83.599,-50.029L-83.347,-50.47L-83.117,-50.91L-82.865,-51.329L-82.634,-51.727L-82.383,-52.106L-82.152,-52.482L-81.901,-52.839L-81.669,-53.196L-81.418,-53.51L-81.187,-53.845L-80.937,-54.139L-80.706,-54.433L-80.475,-54.705L-80.223,-54.957L-79.992,-55.208L-79.762,-55.439L-79.51,-55.649L-79.28,-55.837L-79.049,-56.026L-78.818,-56.194L-78.588,-56.34L-78.357,-56.488L-78.126,-56.592L-77.896,-56.718L-77.665,-56.802L-77.434,-56.865L-77.203,-56.927L-76.973,-56.97L-76.743,-56.991L-76.533,-57.011L-76.281,-56.991L-76.03,-56.97L-75.778,-56.949L-75.547,-56.907L-75.296,-56.844L-75.044,-56.781L-74.792,-56.697L-74.562,-56.592L-74.31,-56.488L-74.079,-56.361L-73.828,-56.236L-73.597,-56.089L-73.346,-55.942L-73.115,-55.753L-72.864,-55.586L-72.633,-55.376L-72.402,-55.188L-72.151,-54.957L-71.919,-54.726L-71.689,-54.475L-71.459,-54.223L-71.228,-53.95L-70.997,-53.656L-70.767,-53.363L-70.536,-53.069L-70.305,-52.734L-70.074,-52.42L-69.844,-52.063L-69.614,-51.707L-69.403,-51.329L-69.173,-50.952L-68.963,-50.553L-68.732,-50.155L-68.523,-49.736L-68.292,-49.295L-68.083,-48.855L-67.873,-48.394L-67.642,-47.932L-67.433,-47.45L-67.013,-46.444L-66.804,-45.941L-66.594,-45.395L-66.384,-44.85L-66.196,-44.305L-65.986,-43.739L-65.776,-43.152L-65.588,-42.565L-65.378,-41.957L-65.189,-41.349L-65,-40.72L-64.791,-40.07L-64.602,-39.42L-64.413,-38.749L-64.225,-38.078L-63.847,-36.694L-63.68,-35.981L-63.49,-35.247L-63.302,-34.513L-63.134,-33.758L-62.967,-33.003L-62.778,-32.228L-62.442,-30.634L-62.275,-29.816L-62.107,-28.998L-61.939,-28.159L-61.771,-27.321L-61.604,-26.462L-61.457,-25.602L-61.289,-24.7L-61.142,-23.819L-60.996,-22.897L-60.849,-21.996L-60.681,-21.052L-60.535,-20.108L-60.408,-19.165L-60.262,-18.2L-60.115,-17.215L-59.989,-16.229L-59.843,-15.222L-59.717,-14.196L-59.591,-13.168L-59.444,-12.14L-59.318,-11.092L-59.213,-10.022L-59.087,-8.954L-58.962,-7.863L-58.836,-6.773L-58.731,-5.661L-58.626,-4.55L-58.521,-3.418L-58.395,-2.286L-58.291,-1.132L-58.207,0.042L-58.102,1.237L-57.998,2.411L-57.913,3.627L-57.829,4.843L-57.725,6.06L-57.641,7.297L-57.473,9.813L-57.465,9.981L-36.977,9.981L-36.966,9.813L-36.882,8.555L-36.799,7.297L-36.715,6.06L-36.631,4.843L-36.526,3.627L-36.442,2.411L-36.337,1.237L-36.253,0.042L-36.149,-1.132L-36.044,-2.286L-35.939,-3.418L-35.813,-4.55L-35.708,-5.661L-35.603,-6.773L-35.478,-7.863L-35.352,-8.954L-35.226,-10.022L-35.121,-11.092L-34.996,-12.14L-34.848,-13.168L-34.723,-14.196L-34.597,-15.222L-34.45,-16.229L-34.324,-17.215L-34.177,-18.2L-34.031,-19.165L-33.884,-20.108L-33.737,-21.052L-33.591,-21.996L-33.444,-22.897L-33.297,-23.819L-33.13,-24.7L-32.982,-25.602L-32.814,-26.462L-32.647,-27.321L-32.5,-28.159L-32.332,-28.998L-32.165,-29.837L-31.997,-30.634L-31.83,-31.431L-31.661,-32.228L-31.493,-33.003L-31.326,-33.758L-31.138,-34.513L-30.948,-35.247L-30.781,-35.981L-30.592,-36.694L-30.403,-37.386L-30.215,-38.078L-30.026,-38.749L-29.838,-39.42L-29.46,-40.72L-29.25,-41.349L-29.061,-41.957L-28.873,-42.565L-28.663,-43.152L-28.454,-43.739L-28.265,-44.305L-27.845,-45.395L-27.636,-45.941L-27.006,-47.45L-26.797,-47.932L-26.587,-48.394L-26.378,-48.855L-26.147,-49.295L-25.937,-49.736L-25.707,-50.155L-25.497,-50.553L-25.266,-50.952L-25.057,-51.329L-24.826,-51.707L-24.595,-52.063L-24.386,-52.42L-24.155,-52.734L-23.925,-53.069L-23.694,-53.363L-23.464,-53.678L-23.232,-53.95L-23.002,-54.223L-22.771,-54.475L-22.541,-54.726L-22.289,-54.957L-22.058,-55.188L-21.828,-55.376L-21.597,-55.586L-21.346,-55.753L-21.115,-55.942L-20.863,-56.089L-20.632,-56.236L-20.381,-56.361L-20.151,-56.488L-19.899,-56.592L-19.668,-56.697L-19.416,-56.781L-19.165,-56.844L-18.934,-56.907L-18.682,-56.949L-18.431,-56.97L-18.2,-56.991L-17.949,-57.011L-17.718,-56.991L-17.487,-56.97L-17.277,-56.927L-17.047,-56.865L-16.817,-56.802L-16.586,-56.718L-16.355,-56.592L-16.124,-56.488L-15.894,-56.34L-15.663,-56.194L-15.411,-56.026L-15.181,-55.837L-14.951,-55.649L-14.719,-55.439L-14.468,-55.208L-14.237,-54.957L-14.006,-54.705L-13.755,-54.433L-13.524,-54.139L-13.273,-53.824L-13.042,-53.51L-12.791,-53.196L-12.56,-52.839L-12.308,-52.482L-12.078,-52.106L-11.826,-51.727L-11.596,-51.329L-11.344,-50.91L-11.113,-50.47L-10.861,-50.029L-10.63,-49.589L-10.379,-49.107L-10.148,-48.624L-9.897,-48.142L-9.646,-47.639L-9.415,-47.115L-9.163,-46.57L-8.932,-46.025L-8.681,-45.479L-8.45,-44.913L-8.198,-44.326L-7.968,-43.718L-7.738,-43.13L-7.486,-42.502L-7.255,-41.873L-7.024,-41.223L-6.772,-40.573L-6.312,-39.231L-6.081,-38.539L-5.829,-37.847L-5.599,-37.134L-5.368,-36.421L-5.137,-35.687L-4.907,-34.932L-4.676,-34.178L-4.466,-33.423L-4.236,-32.647L-4.005,-31.85L-3.774,-31.075L-3.565,-30.256L-3.335,-29.439L-3.104,-28.621L-2.894,-27.783L-2.684,-26.944L-2.453,-26.084L-2.244,-25.224L-2.034,-24.343L-1.824,-23.463L-1.615,-22.562L-1.195,-20.758L-0.986,-19.836L-0.776,-18.913L-0.588,-17.97L-0.378,-17.026L-0.189,-16.082L0,-15.118Z" style="fill:rgb(30,28,26);fill-rule:nonzero;"/>
    </g>
    <g transform="matrix(4.166667,0,0,4.166667,521.925417,361.342917)">
        <path d="M0,7.591L-0.307,7.296L-0.567,7.045L-0.734,6.291L-0.455,5.403L-0.398,5.221L0.482,4.592L1.635,4.361L2.432,4.382L3.187,4.34L3.754,4.215L3.754,5.599L3.187,6.836L2.202,7.57L1.006,7.8L0,7.591ZM2.118,11.092L2.956,10.547L3.754,9.918L3.754,11.449L9.1,11.449L9.1,0.168L8.932,-0.692L8.618,-1.468L8.156,-2.138L7.549,-2.726L6.835,-3.208L6.018,-3.606L5.116,-3.9L4.109,-4.109L3.04,-4.235L1.928,-4.277L0.524,-4.214L-0.692,-4.046L-1.344,-3.89L-1.741,-3.794L-2.621,-3.438L-3.355,-3.019L-3.942,-2.537L-4.382,-2.013L-4.718,-1.447L-4.948,-0.838L-5.074,-0.23L-5.116,0.399L-0.105,0.399L0.188,-0.377L0.902,-0.817L1.803,-0.943L2.704,-0.776L3.439,-0.294L3.754,0.482L3.564,1.175L2.936,1.678L1.677,1.866L0.209,1.929L-0.752,2.058L-1.049,2.097L-2.16,2.349L-3.104,2.684L-3.9,3.104L-4.529,3.586L-5.053,4.11L-5.452,4.697L-5.746,5.305L-5.955,5.934L-6.06,6.563L-6.102,7.192L-5.997,8.115L-5.704,8.995L-5.263,9.771L-4.655,10.484L-3.921,11.05L-3.104,11.49L-2.181,11.763L-1.174,11.868L0.014,11.771L0.105,11.763L1.195,11.511L2.118,11.092Z" style="fill:rgb(30,28,26);fill-rule:nonzero;"/>
    </g>
    <g transform="matrix(4.166667,0,0,4.166667,396.1175,373.22625)">
        <path d="M0,1.887L-0.188,2.851L-0.566,3.732L-1.132,4.445L-1.929,4.948L-2.998,5.116L-4.068,4.948L-4.865,4.445L-5.431,3.732L-5.808,2.851L-5.996,1.887L-6.06,0.944L-5.996,0L-5.808,-0.965L-5.431,-1.846L-4.865,-2.558L-4.068,-3.061L-2.998,-3.229L-1.929,-3.061L-1.132,-2.558L-0.566,-1.846L-0.188,-0.965L0,0L0.063,0.944L0,1.887ZM4.886,-0.881L4.697,-1.72L4.404,-2.537L4.068,-3.271L3.648,-3.963L3.145,-4.592L2.6,-5.159L1.971,-5.662L1.279,-6.102L0.545,-6.458L-0.252,-6.752L-1.132,-6.961L-2.034,-7.087L-2.998,-7.129L-3.963,-7.087L-4.885,-6.961L-5.745,-6.752L-6.542,-6.458L-7.297,-6.102L-7.947,-5.662L-8.576,-5.159L-9.142,-4.592L-9.624,-3.963L-10.043,-3.271L-10.4,-2.516L-10.673,-1.72L-10.882,-0.881L-10.988,0L-11.029,0.944L-10.988,1.887L-10.882,2.768L-10.673,3.627L-10.4,4.424L-10.043,5.158L-9.624,5.85L-9.142,6.479L-8.576,7.045L-7.947,7.548L-7.297,7.989L-6.542,8.345L-5.745,8.638L-4.885,8.848L-3.963,8.974L-2.998,9.016L-2.034,8.974L-1.132,8.848L-0.252,8.638L0.545,8.345L1.279,7.989L1.971,7.548L2.6,7.045L3.145,6.479L3.648,5.85L4.068,5.158L4.424,4.424L4.697,3.627L4.886,2.768L5.012,1.887L5.053,0.944L5.012,0L4.886,-0.881Z" style="fill:rgb(30,28,26);fill-rule:nonzero;"/>
    </g>
    <g transform="matrix(4.166667,0,0,4.166667,262.010417,480.948333)">
        <path d="M0,-14.929L0.042,-13.462L0.064,-11.993L0.084,-10.505L0.105,-9.016L0.126,-7.507L0.147,-5.997L0.147,-4.466L0.168,-2.914L0.168,0.189L18.557,0.189L18.578,-1.363L18.578,-4.466L18.599,-5.997L18.599,-7.507L18.62,-9.016L18.64,-10.505L18.661,-11.993L18.704,-13.462L18.724,-14.929L18.729,-15.118L-0.003,-15.118L0,-14.929Z" style="fill:rgb(30,28,26);fill-rule:nonzero;"/>
    </g>
    <g transform="matrix(4.166667,0,0,4.166667,217.015833,385.103333)">
        <path d="M0,-3.815L0.336,-4.696L0.86,-5.409L1.594,-5.912L2.558,-6.08L3.691,-5.828L4.488,-5.178L4.99,-4.213L9.981,-4.213L9.708,-5.136L9.352,-5.996L8.911,-6.793L8.387,-7.506L8.136,-7.766L7.78,-8.135L7.088,-8.679L6.311,-9.141L5.473,-9.497L4.572,-9.77L3.607,-9.938L2.558,-9.98L1.573,-9.938L0.651,-9.791L-0.23,-9.539L-1.027,-9.225L-1.761,-8.805L-2.453,-8.302L-3.04,-7.737L-3.585,-7.086L-4.047,-6.373L-4.424,-5.597L-4.718,-4.758L-4.948,-3.857L-5.074,-2.913L-5.116,-1.907L-5.074,-0.9L-4.927,0.043L-4.676,0.945L-4.361,1.784L-3.962,2.559L-3.48,3.272L-2.914,3.922L-2.285,4.488L-1.614,4.991L-0.859,5.411L-0.084,5.725L0.755,5.977L1.635,6.123L2.558,6.165L3.523,6.123L4.445,5.956L5.326,5.684L6.165,5.327L6.92,4.866L7.633,4.321L8.136,3.817L8.262,3.691L8.807,2.979L9.289,2.182L9.666,1.343L9.96,0.42L4.99,0.42L4.467,1.364L3.691,2.014L2.558,2.266L1.594,2.098L0.86,1.595L0.336,0.882L0,0.001L-0.167,-0.963L-0.23,-1.907L-0.167,-2.85L0,-3.815Z" style="fill:rgb(30,28,26);fill-rule:nonzero;"/>
    </g>
    <g transform="matrix(4.166667,0,0,4.166667,568.753333,335.832917)">
        <rect x="0" y="0" width="5.346" height="17.571" style="fill:rgb(30,28,26);fill-rule:nonzero;"/>
    </g>
    <g transform="matrix(4.166667,0,0,4.166667,319.149583,367.45875)">
        <path d="M0,2.81L-0.335,3.942L-0.86,4.802L-1.531,5.431L-2.265,5.85L-3.062,6.081L-3.859,6.144L-6.626,6.144L-6.626,-3.333L-3.859,-3.333L-3.062,-3.271L-2.265,-3.04L-1.531,-2.621L-0.86,-1.992L-0.335,-1.132L0,0L0.125,1.405L0,2.81ZM5.976,-0.44L5.787,-1.279L5.514,-2.097L5.179,-2.872L4.759,-3.585L4.298,-4.235L3.753,-4.843L3.145,-5.41L2.495,-5.892L1.782,-6.332L1.027,-6.709L0.21,-7.024L-0.671,-7.276L-1.573,-7.443L-2.516,-7.569L-3.522,-7.59L-12.686,-7.59L-12.686,10.4L-3.522,10.4L-2.516,10.358L-1.573,10.254L-0.671,10.086L0.21,9.834L1.027,9.519L1.782,9.142L2.495,8.701L3.145,8.22L3.753,7.654L4.298,7.045L4.759,6.396L5.179,5.662L5.209,5.595L5.514,4.907L5.787,4.089L5.976,3.25L6.101,2.349L6.144,1.405L6.101,0.461L5.976,-0.44Z" style="fill:rgb(30,28,26);fill-rule:nonzero;"/>
    </g>
    <g transform="matrix(4.166667,0,0,4.166667,602.040417,426.343333)">
        <path d="M0,18.305L-0.021,17.278L-0.021,16.251L-0.063,15.244L-0.084,14.217L-0.105,13.189L-0.147,12.162L-0.189,11.134L-0.231,10.107L-0.294,9.079L-0.356,8.052L-0.42,7.004L-0.483,5.976L-0.546,4.949L-0.629,3.9L-0.713,2.873L-0.797,1.824L-0.881,0.798L-0.965,-0.252L-1.07,-1.299L-1.142,-2.013L-19.099,-2.013L-19.039,-0.859L-18.955,0.357L-18.892,1.573L-18.829,2.81L-18.787,4.047L-18.724,5.284L-18.682,6.521L-18.641,7.758L-18.599,8.995L-18.515,11.511L-18.494,12.749L-18.431,16.523L-18.431,17.781L-18.41,19.06L-18.41,20.318L0.021,20.318L0,19.312L0,18.305Z" style="fill:rgb(30,28,26);fill-rule:nonzero;"/>
    </g>
    <g transform="matrix(4.166667,0,0,4.166667,154.725417,410.791667)">
        <path d="M0,-17.99L-2.768,-7.611L-5.556,-17.99L-11.931,-17.99L-14.74,0L-9.456,0L-8.073,-10.504L-5.2,0L-0.356,0L2.516,-10.504L3.921,0L9.184,0L6.396,-17.99L0,-17.99Z" style="fill:rgb(30,28,26);fill-rule:nonzero;"/>
    </g>
    <g transform="matrix(-0.219315,4.160891,4.160891,0.219315,690.242537,339.296519)">
        <path d="M-0.611,-4.201L4.177,-4.201L4.038,-1.563L-0.802,-0.58L-0.611,-4.201Z" style="fill:rgb(30,28,26);fill-rule:nonzero;"/>
    </g>
    <g transform="matrix(4.166667,0,0,4.166667,742.87375,375.49625)">
        <path d="M0,1.531L-0.567,0.797L-1.321,0.168L-2.223,-0.314L-3.25,-0.713L-4.319,-0.964L-5.388,-1.132L-6.395,-1.3L-7.276,-1.488L-7.968,-1.782L-8.429,-2.243L-8.597,-2.894L-8.324,-3.753L-7.695,-4.172L-6.962,-4.277L-5.934,-4.109L-5.284,-3.522L-5.074,-2.536L0,-2.536L-0.105,-3.501L-0.377,-4.34L-0.818,-5.032L-1.405,-5.598L-2.118,-6.038L-2.936,-6.395L-3.837,-6.625L-4.823,-6.793L-5.85,-6.898L-6.899,-6.919L-8.303,-6.856L-9.498,-6.625L-10.505,-6.29L-11.344,-5.85L-12.015,-5.347L-12.518,-4.759L-12.895,-4.172L-13.147,-3.543L-13.294,-2.935L-13.336,-2.348L-13.189,-1.153L-12.79,-0.21L-12.203,0.525L-11.448,1.049L-10.631,1.405L-9.666,1.657L-8.597,1.867L-7.528,2.097L-6.563,2.349L-5.745,2.726L-5.2,3.23L-4.99,3.942L-5.2,4.718L-5.829,5.2L-6.878,5.347L-7.842,5.116L-8.492,4.446L-8.744,3.376L-13.881,3.376L-13.818,4.236L-13.671,5.033L-13.419,5.725L-13.042,6.353L-12.559,6.919L-11.952,7.381L-11.217,7.759L-10.358,8.073L-9.352,8.283L-8.199,8.409L-6.899,8.45L-5.64,8.409L-4.508,8.283L-3.46,8.052L-2.558,7.738L-1.761,7.36L-1.091,6.899L-0.524,6.333L-0.084,5.725L0.23,5.012L0.42,4.236L0.482,3.376L0.356,2.39L0,1.531Z" style="fill:rgb(30,28,26);fill-rule:nonzero;"/>
    </g>
    <g transform="matrix(4.166667,0,0,4.166667,651.925417,476.93)">
        <path d="M0,-0.608L-0.964,-0.461L-2.495,-0.461L-2.495,-2.684L-0.755,-2.684L0.126,-2.558L0.587,-2.202L0.734,-1.677L0.566,-1.007L0,-0.608ZM1.279,-0.21L1.95,-0.839L2.201,-1.783L1.845,-2.81L0.902,-3.523L-0.503,-3.795L-3.795,-3.795L-3.795,3.187L-2.495,3.187L-2.495,0.65L-1.3,0.65L-0.104,0.923L0.503,1.74L0.692,3.187L2.16,3.187L2.034,1.845L1.51,0.818L0.357,0.104L0.357,0.084L1.279,-0.21Z" style="fill:rgb(30,28,26);fill-rule:nonzero;"/>
    </g>
    <g transform="matrix(4.166667,0,0,4.166667,669.311667,472.038333)">
        <path d="M0,1.908L-0.252,2.831L-0.65,3.669L-1.174,4.403L-1.824,5.053L-2.579,5.577L-3.418,5.975L-4.319,6.227L-5.284,6.311L-6.248,6.227L-7.15,5.975L-7.968,5.577L-8.722,5.053L-9.373,4.403L-9.897,3.669L-10.295,2.831L-10.547,1.908L-10.631,0.943L-10.547,-0.021L-10.295,-0.923L-9.897,-1.762L-9.373,-2.496L-8.722,-3.146L-7.968,-3.67L-7.15,-4.068L-6.248,-4.32L-5.284,-4.403L-4.319,-4.32L-3.418,-4.068L-2.579,-3.67L-1.824,-3.146L-1.174,-2.496L-0.65,-1.762L-0.252,-0.923L0,-0.021L0.084,0.943L0,1.908ZM0.419,-0.944L0.063,-1.825L-0.44,-2.6L-1.027,-3.293L-1.741,-3.9L-2.516,-4.383L-3.376,-4.739L-4.298,-4.97L-5.284,-5.053L-6.248,-4.97L-7.171,-4.739L-8.031,-4.383L-8.828,-3.9L-9.519,-3.293L-10.127,-2.6L-10.609,-1.825L-10.966,-0.944L-11.197,-0.021L-11.281,0.943L-11.197,1.929L-10.966,2.851L-10.609,3.711L-10.127,4.508L-9.519,5.199L-8.828,5.808L-8.031,6.29L-7.171,6.647L-6.248,6.877L-5.284,6.961L-4.298,6.877L-3.376,6.647L-2.516,6.29L-1.741,5.808L-1.027,5.199L-0.44,4.508L0.063,3.711L0.419,2.851L0.65,1.929L0.734,0.943L0.65,-0.021L0.419,-0.944Z" style="fill:rgb(30,28,26);fill-rule:nonzero;"/>
    </g>
    <g transform="matrix(4.166667,0,0,4.166667,619.599167,362.040833)">
        <path d="M0,5.41L-0.126,4.089L0,2.747L0.378,1.657L0.986,0.839L1.804,0.336L2.831,0.169L4.026,0.399L4.907,1.007L5.41,1.93L5.41,6.543L4.739,7.36L3.858,7.864L2.831,8.01L1.804,7.843L0.986,7.319L0.378,6.501L0,5.41ZM1.49,11.7L3.376,11.512L4.592,11.03L5.41,10.421L5.41,11.281L10.757,11.281L10.757,-6.29L5.41,-6.29L5.41,-2.558L4.76,-3.04L3.607,-3.481L1.825,-3.69L1.174,-3.669L0.503,-3.585L-0.167,-3.438L-0.859,-3.229L-1.53,-2.956L-2.181,-2.579L-2.788,-2.117L-3.375,-1.572L-3.879,-0.922L-4.34,-0.167L-4.697,0.713L-4.99,1.699L-5.158,2.831L-5.221,4.089L-5.137,5.431L-4.948,6.605L-4.634,7.633L-4.214,8.534L-3.711,9.289L-3.627,9.386L-3.144,9.94L-2.516,10.463L-1.845,10.882L-1.174,11.198L-0.482,11.428L0.21,11.575L0.86,11.679L1.49,11.7Z" style="fill:rgb(30,28,26);fill-rule:nonzero;"/>
    </g>
</svg>
