<?xml version="1.0" encoding="UTF-8" standalone="no"?>
<!DOCTYPE svg PUBLIC "-//W3C//DTD SVG 1.1//EN" "http://www.w3.org/Graphics/SVG/1.1/DTD/svg11.dtd">
<svg width="100%" height="100%" viewBox="0 0 1064 215" version="1.1" xmlns="http://www.w3.org/2000/svg" xmlns:xlink="http://www.w3.org/1999/xlink" xml:space="preserve" xmlns:serif="http://www.serif.com/" style="fill-rule:evenodd;clip-rule:evenodd;stroke-linejoin:round;stroke-miterlimit:2;">
    <g transform="matrix(3.798994,0,0,3.798994,215.102822,92.75623)">
        <path d="M0,7.586L-4.978,-0.716C-6.325,-2.907 -7.616,-4.92 -8.862,-6.766C-4.375,-13.69 -0.674,-17.14 3.727,-17.14C12.87,-17.14 20.185,-3.678 20.185,12.859C20.185,19.162 18.121,22.819 13.843,22.819C9.743,22.819 7.785,20.112 0,7.586M-27.167,9.007C-34.365,20.29 -36.855,22.819 -40.863,22.819C-44.987,22.819 -47.439,19.198 -47.439,12.742C-47.439,-1.071 -40.552,-15.195 -32.342,-15.195C-27.896,-15.195 -24.181,-12.627 -18.49,-4.48C-23.894,3.808 -27.167,9.007 -27.167,9.007M4.31,-24.416C-2.651,-24.416 -8.093,-19.173 -13.019,-12.513C-19.789,-21.132 -25.45,-24.416 -32.225,-24.416C-46.038,-24.416 -56.621,-6.44 -56.621,12.586C-56.621,24.492 -50.861,32.002 -41.213,32.002C-34.269,32.002 -29.275,28.728 -20.397,13.209C-20.397,13.209 -16.696,6.673 -14.15,2.171C-13.258,3.612 -12.32,5.161 -11.331,6.828L-7.168,13.831C0.942,27.403 5.461,32.002 13.649,32.002C23.048,32.002 28.279,24.39 28.279,12.236C28.279,-7.685 17.457,-24.416 4.31,-24.416M214.996,5.054C214.102,2.781 212.691,0.988 210.763,-0.328C208.835,-1.643 206.607,-2.301 204.079,-2.301C200.503,-2.301 197.656,-1.1 195.537,1.3C193.417,3.701 192.357,6.944 192.357,11.03C192.357,15.142 193.378,18.398 195.422,20.798C197.464,23.199 200.235,24.399 203.734,24.399C206.313,24.399 208.612,23.735 210.629,22.407C212.646,21.079 214.102,19.291 214.996,17.044L214.996,5.054ZM223.347,31.026L215.149,31.026L215.149,25.433C213.694,27.527 211.842,29.143 209.595,30.279C207.348,31.415 204.794,31.984 201.934,31.984C198.41,31.984 195.288,31.083 192.568,29.283C189.848,27.482 187.709,25.005 186.151,21.852C184.594,18.697 183.815,15.09 183.815,11.03C183.815,6.944 184.606,3.33 186.19,0.189C187.773,-2.952 189.963,-5.416 192.759,-7.204C195.556,-8.991 198.767,-9.886 202.393,-9.886C205.126,-9.886 207.577,-9.355 209.748,-8.296C211.919,-7.236 213.719,-5.735 215.149,-3.795L215.149,-8.928L223.347,-8.928L223.347,31.026ZM159.374,-1.841L151.406,-1.841L151.406,-8.928L159.374,-8.928L159.374,-20.649L167.725,-20.649L167.725,-8.928L179.83,-8.928L179.83,-1.841L167.725,-1.841L167.725,16.125C167.725,19.112 168.235,21.245 169.257,22.522C170.278,23.799 172.028,24.437 174.505,24.437C175.603,24.437 176.536,24.393 177.302,24.303C178.068,24.214 178.911,24.092 179.83,23.939L179.83,30.949C178.885,31.23 177.819,31.46 176.631,31.639C175.444,31.817 174.199,31.907 172.896,31.907C163.881,31.907 159.374,26.978 159.374,17.121L159.374,-1.841ZM137.462,0.17C135.649,-1.681 133.273,-2.608 130.337,-2.608C127.477,-2.608 125.082,-1.662 123.155,0.227C121.226,2.117 120.007,4.658 119.496,7.851L140.565,7.851C140.309,4.581 139.275,2.022 137.462,0.17M131.141,31.984C127.132,31.984 123.608,31.096 120.569,29.321C117.53,27.546 115.161,25.088 113.463,21.947C111.764,18.806 110.916,15.205 110.916,11.145C110.916,7.034 111.745,3.394 113.406,0.227C115.065,-2.939 117.37,-5.416 120.32,-7.204C123.27,-8.991 126.66,-9.886 130.49,-9.886C134.295,-9.886 137.57,-8.986 140.316,-7.185C143.061,-5.384 145.174,-2.862 146.656,0.381C148.136,3.624 148.877,7.429 148.877,11.796L148.877,14.171L119.496,14.171C120.033,17.44 121.354,20.013 123.461,21.89C125.568,23.767 128.23,24.705 131.448,24.705C134.027,24.705 136.249,24.322 138.113,23.556C139.977,22.79 141.727,21.628 143.361,20.07L147.958,25.701C143.386,29.89 137.781,31.984 131.141,31.984M46.14,-22.603L56.751,-22.603L74.793,10.034L92.836,-22.603L103.217,-22.603L103.217,31.026L94.56,31.026L94.56,-10.077L78.739,18.385L70.618,18.385L54.797,-10.077L54.797,31.026L46.14,31.026L46.14,-22.603Z" style="fill:rgb(30,28,26);fill-rule:nonzero;"/>
    </g>
</svg>
