<?xml version="1.0" encoding="UTF-8" standalone="no"?>
<!DOCTYPE svg PUBLIC "-//W3C//DTD SVG 1.1//EN" "http://www.w3.org/Graphics/SVG/1.1/DTD/svg11.dtd">
<svg width="100%" height="100%" viewBox="0 0 873 454" version="1.1" xmlns="http://www.w3.org/2000/svg" xmlns:xlink="http://www.w3.org/1999/xlink" xml:space="preserve" xmlns:serif="http://www.serif.com/" style="fill-rule:evenodd;clip-rule:evenodd;stroke-linejoin:round;stroke-miterlimit:2;">
    <g transform="matrix(4.166667,0,0,4.166667,92.794583,449.414167)">
        <path d="M0,-46.632C-1.88,-47.177 -4.049,-47.538 -6.701,-47.656C-7.603,-47.714 -8.515,-47.714 -9.418,-47.714L-21.548,-47.714L-21.548,1.082L-13.46,1.082L-13.46,-17.981L-9.232,-17.981C-8.395,-17.981 -7.487,-17.981 -6.701,-18.037C-3.33,-18.221 -0.666,-18.703 1.143,-19.552C3.369,-20.515 5.173,-22.205 6.499,-24.564C7.838,-26.847 8.493,-29.622 8.493,-32.82C8.493,-36.317 7.715,-39.334 6.016,-41.817C4.399,-44.336 2.348,-45.91 0,-46.632M-1.991,-26.478C-3.019,-25.521 -4.589,-24.856 -6.701,-24.621C-7.543,-24.493 -8.45,-24.434 -9.418,-24.434L-13.46,-24.434L-13.46,-41.5L-9.418,-41.5C-8.395,-41.5 -7.487,-41.443 -6.701,-41.377C-5.726,-41.318 -4.888,-41.215 -4.292,-41.018C-3.204,-40.657 -2.245,-39.812 -1.344,-38.425C-0.429,-37.048 0.049,-35.231 0.049,-32.991C0.049,-29.979 -0.666,-27.81 -1.991,-26.478" style="fill:rgb(30,28,26);fill-rule:nonzero;"/>
    </g>
    <g transform="matrix(4.166667,0,0,4.166667,172.159167,341.87625)">
        <path d="M0,4.986L15.627,4.986L15.627,-1.517L0,-1.517L0,-15.453L19.911,-15.453L19.911,-21.905L-8.084,-21.905L-8.084,26.891L20.204,26.891L20.204,20.259L0,20.259L0,4.986Z" style="fill:rgb(30,28,26);fill-rule:nonzero;"/>
    </g>
    <g transform="matrix(4.166667,0,0,4.166667,-5552.277917,-1198.45125)">
        <rect x="1460.832" y="347.774" width="8.084" height="48.796" style="fill:rgb(30,28,26);"/>
    </g>
    <g transform="matrix(4.166667,0,0,4.166667,717.9925,395.910417)">
        <path d="M0,-20.95C0,-25.414 -1.271,-28.904 -3.741,-31.313C-6.209,-33.602 -9.945,-34.815 -15.023,-34.873L-30.211,-34.873L-30.211,13.923L-22.134,13.923L-22.134,-6.465L-14.602,-6.465L-6.931,13.923L-0.24,13.923L0.589,11.062L0.774,11.501L1.81,13.923L7.483,13.923L10.495,1.675L24.727,1.675L27.808,13.923L36.01,13.923L22.918,-34.873L13.928,-34.873L0.774,10.413L0.589,11.062L-7.48,-8.16C-2.483,-10.632 0,-14.909 0,-20.95M23.106,-4.664L12.121,-4.664L17.609,-27.03L17.667,-26.914L23.106,-4.664ZM-9.883,-15.033C-11.031,-13.637 -12.729,-12.92 -15.023,-12.744L-22.134,-12.744L-22.134,-28.659L-15.866,-28.659C-15.617,-28.659 -15.321,-28.659 -15.023,-28.602C-10.311,-28.374 -7.903,-25.832 -7.903,-21.003C-7.903,-18.536 -8.563,-16.543 -9.883,-15.033" style="fill:rgb(30,28,26);fill-rule:nonzero;"/>
    </g>
    <g transform="matrix(4.166667,0,0,4.166667,443.052917,341.87625)">
        <path d="M0,4.986L15.627,4.986L15.627,-1.517L0,-1.517L0,-15.453L19.902,-15.453L19.902,-21.905L-8.073,-21.905L-8.073,26.891L20.204,26.891L20.204,20.259L0,20.259L0,4.986Z" style="fill:rgb(30,28,26);fill-rule:nonzero;"/>
    </g>
    <g transform="matrix(4.166667,0,0,4.166667,389.804167,395.910417)">
        <path d="M0,-20.95C0,-25.414 -1.27,-28.904 -3.803,-31.313C-6.275,-33.602 -10.016,-34.815 -15.088,-34.873L-30.282,-34.873L-30.282,13.923L-22.198,13.923L-22.198,-6.465L-14.591,-6.465L-7.001,13.923L1.802,13.923L-7.48,-8.16C-2.476,-10.632 0,-14.909 0,-20.95M-9.897,-15.033C-11.043,-13.637 -12.78,-12.92 -15.088,-12.744L-22.198,-12.744L-22.198,-28.659L-15.921,-28.659C-15.619,-28.659 -15.315,-28.659 -15.088,-28.602C-10.319,-28.374 -7.962,-25.832 -7.962,-21.003C-7.962,-18.536 -8.554,-16.543 -9.897,-15.033" style="fill:rgb(30,28,26);fill-rule:nonzero;"/>
    </g>
    <g transform="matrix(4.166667,0,0,4.166667,872.743333,97.4625)">
        <path d="M0,-23.391L0,0L-208.429,0L0,-23.391Z" style="fill:rgb(30,28,26);fill-rule:nonzero;"/>
    </g>
    <g transform="matrix(4.166667,0,0,4.166667,40.475,160.634583)">
        <path d="M0,6.329L4.657,6.329C4.657,10.856 3.196,13.029 0.184,13.029C-3.366,13.029 -5.183,9.824 -5.183,3.192C-5.183,-3.372 -3.428,-6.707 0.066,-6.707C1.154,-6.707 2.058,-6.399 2.837,-5.735C3.62,-5.07 4.228,-3.614 4.657,-1.391L8.573,-2.346C7.602,-7.599 4.827,-10.256 0.184,-10.256C-3.19,-10.256 -5.662,-8.988 -7.297,-6.512C-8.922,-4.046 -9.714,-0.674 -9.714,3.556C-9.714,7.6 -8.864,10.795 -7.243,13.086C-5.606,15.441 -3.32,16.585 -0.415,16.585C2.409,16.585 4.527,15.441 5.855,13.029L6.391,16.345L8.691,16.345L8.691,2.902L0,2.902L0,6.329Z" style="fill:rgb(30,28,26);fill-rule:nonzero;"/>
    </g>
    <g transform="matrix(4.166667,0,0,4.166667,154.1125,197.065)">
        <path d="M0,-11.089C0,-13.511 -0.743,-15.317 -2.063,-16.581C-3.325,-17.85 -5.379,-18.453 -8.036,-18.51L-16.119,-18.51L-16.119,7.421L-11.827,7.421L-11.827,-3.378L-7.796,-3.378L-3.753,7.421L0.894,7.421L-3.987,-4.283C-1.343,-5.613 0,-7.907 0,-11.089M-5.314,-7.961C-5.918,-7.228 -6.818,-6.82 -8.036,-6.757L-11.827,-6.757L-11.827,-15.198L-8.036,-15.198C-5.507,-15.021 -4.228,-13.688 -4.228,-11.089C-4.228,-9.827 -4.589,-8.742 -5.314,-7.961" style="fill:rgb(30,28,26);fill-rule:nonzero;"/>
    </g>
    <g transform="matrix(4.166667,0,0,4.166667,380.245,215.6775)">
        <path d="M0,-20.092C-1.627,-22.317 -3.912,-23.467 -6.936,-23.467C-9.954,-23.467 -12.297,-22.317 -13.87,-20.029C-15.503,-17.807 -16.282,-14.415 -16.282,-10.019C-16.282,-5.549 -15.503,-2.181 -13.87,-0.002C-12.238,2.293 -9.954,3.375 -6.936,3.375L-6.867,3.375C-3.865,3.375 -1.565,2.293 0,-0.002C1.571,-2.228 2.409,-5.549 2.409,-10.019C2.409,-14.478 1.571,-17.807 0,-20.092M-3.196,-2.725C-3.912,-0.977 -5.186,-0.125 -6.867,-0.125L-6.936,-0.125C-8.749,-0.125 -10.016,-0.977 -10.727,-2.779C-11.394,-4.589 -11.757,-6.992 -11.757,-10.019C-11.757,-13.092 -11.394,-15.506 -10.727,-17.256C-10.016,-19.066 -8.749,-19.97 -6.936,-19.97C-5.186,-19.97 -3.912,-19.066 -3.196,-17.312C-2.477,-15.506 -2.115,-13.092 -2.115,-10.019C-2.115,-6.881 -2.477,-4.414 -3.196,-2.725" style="fill:rgb(30,28,26);fill-rule:nonzero;"/>
    </g>
    <g transform="matrix(4.166667,0,0,4.166667,215.925833,162.92125)">
        <path d="M0,5.72C0,7.953 -0.124,9.463 -0.364,10.182C-0.602,10.97 -1.096,11.506 -1.696,11.869C-2.299,12.296 -3.14,12.48 -4.227,12.48C-5.374,12.48 -6.293,12.233 -6.937,11.813C-7.67,11.329 -8.09,10.604 -8.263,9.76C-8.447,8.929 -8.565,7.595 -8.565,5.78L-8.565,-10.316L-12.794,-10.316L-12.794,5.78C-12.794,9.043 -12.441,11.27 -11.834,12.48C-11.16,13.744 -10.203,14.651 -8.938,15.189C-7.67,15.796 -6.161,16.036 -4.467,16.036C-2.247,16.036 -0.487,15.616 0.832,14.709C2.109,13.803 2.952,12.66 3.303,11.395C3.675,10.007 3.854,8.019 3.854,5.482L3.854,-10.316L0,-10.316L0,5.72Z" style="fill:rgb(30,28,26);fill-rule:nonzero;"/>
    </g>
    <g transform="matrix(4.166667,0,0,4.166667,291.5825,225.742083)">
        <path d="M0,-24.855C-0.976,-25.091 -2.177,-25.275 -3.564,-25.335C-4.056,-25.393 -4.535,-25.393 -5.023,-25.393L-11.467,-25.393L-11.467,0.538L-7.125,0.538L-7.125,-9.595L-3.564,-9.595C-1.757,-9.725 -0.379,-9.959 0.599,-10.378C1.797,-10.923 2.752,-11.83 3.494,-13.041C4.157,-14.294 4.509,-15.745 4.509,-17.438C4.509,-19.306 4.094,-20.937 3.249,-22.263C2.348,-23.596 1.265,-24.432 0,-24.855M-1.097,-14.052C-1.574,-13.57 -2.421,-13.222 -3.564,-13.097C-3.99,-13.041 -4.479,-13.041 -5.023,-13.041L-7.125,-13.041L-7.125,-22.08L-5.023,-22.08C-4.479,-22.08 -3.99,-22.08 -3.564,-22.024C-3.029,-21.956 -2.598,-21.903 -2.302,-21.847C-1.699,-21.652 -1.164,-21.176 -0.667,-20.447C-0.188,-19.728 0.053,-18.767 0.053,-17.562C0.053,-15.927 -0.304,-14.79 -1.097,-14.052" style="fill:rgb(30,28,26);fill-rule:nonzero;"/>
    </g>
    <g transform="matrix(-4.166667,0,0,4.166667,6990.63875,-1006.892917)">
        <rect x="1497.935" y="347.76" width="14.43" height="2.85" style="fill:rgb(30,28,26);"/>
    </g>
</svg>
