<?xml version="1.0" encoding="UTF-8" standalone="no"?>
<!DOCTYPE svg PUBLIC "-//W3C//DTD SVG 1.1//EN" "http://www.w3.org/Graphics/SVG/1.1/DTD/svg11.dtd">
<svg width="100%" height="100%" viewBox="0 0 1064 548" version="1.1" xmlns="http://www.w3.org/2000/svg" xmlns:xlink="http://www.w3.org/1999/xlink" xml:space="preserve" xmlns:serif="http://www.serif.com/" style="fill-rule:evenodd;clip-rule:evenodd;stroke-linejoin:round;stroke-miterlimit:2;">
    <g transform="matrix(4.166667,0,0,4.166667,396.629167,311.582083)">
        <path d="M0,54.156C-3.745,55.888 -7.333,56.615 -11.854,56.615C-23.883,56.615 -31.88,49.137 -31.88,36.09C-31.88,23.684 -24.255,15.182 -12.03,15.182C-7.364,15.182 -3.293,16.036 0.084,17.678L-3.344,26.095C-5.503,24.813 -8.156,24.042 -11.309,24.042C-18.086,24.042 -21.944,28.538 -21.944,35.898C-21.944,43.88 -17.64,47.735 -11.396,47.756C-8.135,47.765 -5.983,47.125 -3.344,45.702L0,54.156ZM4.178,4.477L4.178,55.659L14.103,55.659L14.103,37.189L26.644,55.659L39.096,55.659L23.481,33.637L39.291,16.141L26.537,16.141L14.103,30.614L14.103,-2.472L4.178,4.477ZM41.806,5.528C41.806,8.939 44.571,11.705 47.982,11.705C51.393,11.705 54.159,8.939 54.159,5.528C54.159,2.117 51.393,-0.648 47.982,-0.648C44.571,-0.648 41.806,2.117 41.806,5.528M43.04,55.66L52.925,55.66L52.925,16.141L43.04,16.141L43.04,55.66ZM86.306,8.978L86.306,16.141L72.792,16.141L72.792,2.089L62.957,8.976L62.957,16.141L56.88,16.141L56.88,24.484L62.957,24.484L62.957,43.838C62.957,48.311 63.995,51.298 66.15,53.513C68.301,55.724 71.616,56.628 75.749,56.628C78.897,56.628 81.972,55.981 84.523,54.779L81.22,46.429C79.968,47.185 78.329,47.62 76.985,47.62C74.059,47.62 72.792,46.018 72.792,43.183L72.792,24.484L86.306,24.484L86.306,43.838C86.306,48.311 87.345,51.298 89.5,53.513C91.65,55.724 94.966,56.628 99.099,56.628C102.247,56.628 105.322,55.981 107.872,54.779L104.57,46.429C103.318,47.185 101.679,47.62 100.335,47.62C97.408,47.62 96.142,46.018 96.142,43.078L96.142,24.484L106.54,24.484L106.54,16.141L96.142,16.141L96.142,2.089L86.306,8.978ZM-70.696,36.09C-70.696,49.17 -63.192,56.615 -50.094,56.615C-44.853,56.615 -40.345,55.734 -36.452,53.94L-39.821,45.656C-43.113,47.389 -46.703,47.853 -49.536,47.821C-55.996,47.747 -59.592,45.053 -60.632,39.787L-35.665,39.787C-35.501,37.979 -35.436,36.249 -35.436,34.175C-35.436,24.219 -39.525,15.182 -51.779,15.182C-64.722,15.182 -70.696,25.444 -70.696,36.09M-52.444,23.443C-47.474,23.443 -45.102,27.733 -45.102,32.559L-60.74,32.559C-59.897,26.496 -56.795,23.443 -52.444,23.443M-85.376,21.821L-85.411,21.821L-85.411,16.14L-95.191,16.14L-95.191,55.664L-85.34,55.664L-85.34,36.885C-85.34,31.41 -84.777,29.493 -83.215,27.593C-81.752,25.811 -79.803,25.024 -77.45,25.024C-75.756,25.024 -74.527,25.315 -73.471,25.819L-68.648,16.911C-70.147,15.955 -72.905,15.186 -75.597,15.186C-80.668,15.186 -83.603,17.794 -85.376,21.821" style="fill:rgb(30,28,26);fill-rule:nonzero;"/>
    </g>
    <g transform="matrix(4.166667,0,0,4.166667,891.8925,313.616667)">
        <path d="M0,-75.268C-25.38,-75.268 -46.071,-55.48 -46.071,-27.651C-46.071,-18.409 -43.984,-9.879 -40.313,-2.431L-28.733,-10.538C-31.243,-15.866 -32.663,-22.033 -32.663,-28.903C-32.663,-48.732 -18.113,-63.75 0.545,-63.75C18.771,-63.75 29.961,-50.898 29.961,-34.305C29.961,-19.462 20.079,-9.821 7.26,-9.821C-5.001,-9.821 -13.661,-18.219 -13.661,-30.168C-13.661,-40.698 -6.999,-47.749 1.023,-47.749C7.051,-47.749 10.352,-44.91 10.352,-40.603C10.352,-35.665 5.247,-32.911 0.014,-34.377L-5.544,-30.485C-1.933,-25.317 6.716,-17.836 10.343,-15.537C10.362,-15.549 16.196,-19.636 16.196,-19.636C14.127,-21.115 10.126,-24.494 6.756,-27.739C14.798,-29.068 18.433,-34.917 18.433,-40.636C18.433,-49.508 12.114,-55.776 1.104,-55.776C-11.994,-55.776 -22.957,-45.006 -22.957,-29.65C-22.957,-12.617 -10.501,0 7.416,0C27.204,0 41.209,-14.768 41.209,-34.647C41.209,-58.101 24.933,-75.268 0,-75.268" style="fill:rgb(30,28,26);fill-rule:nonzero;"/>
    </g>
</svg>
