<?xml version="1.0" encoding="UTF-8" standalone="no"?>
<!DOCTYPE svg PUBLIC "-//W3C//DTD SVG 1.1//EN" "http://www.w3.org/Graphics/SVG/1.1/DTD/svg11.dtd">
<svg width="100%" height="100%" viewBox="0 0 1129 556" version="1.1" xmlns="http://www.w3.org/2000/svg" xmlns:xlink="http://www.w3.org/1999/xlink" xml:space="preserve" xmlns:serif="http://www.serif.com/" style="fill-rule:evenodd;clip-rule:evenodd;stroke-linejoin:round;stroke-miterlimit:2;">
    <g transform="matrix(4.166667,0,0,4.166667,112.977083,62.58875)">
        <path d="M0,7.697L-0.127,7.843L-0.313,7.933L-0.645,7.92L-1.048,7.747L-1.432,7.441L-1.911,6.922L-2.639,5.907L-2.927,5.363L-3.099,4.839L-3.131,4.654L-3.119,4.296L-3.024,4.009L-2.946,3.919L-2.8,3.919L-2.589,4.142L-0.134,7.287L0.019,7.575L0,7.697ZM1.439,6.846L0.793,6.021L-0.402,4.429L-4.583,-0.997L-5.485,-2.103L-5.605,-2.173L-5.766,-2.141L-6.034,-1.765L-6.34,-1.233L-6.385,-0.997L-6.245,-0.709L-5.522,0.237L-5.152,0.773L-4.411,1.733L-4.084,2.244L-4.065,2.435L-4.442,3.215L-4.602,3.835L-4.666,4.366L-4.615,4.955L-4.448,5.582L-4.155,6.309L-3.598,7.236L-2.793,8.285L-2.103,9.013L-1.572,9.435L-1.035,9.722L-0.543,9.858L-0.102,9.87L0.263,9.761L0.639,9.551L0.979,9.263L1.401,8.744L1.956,7.812L1.969,7.626L1.918,7.479L1.439,6.846Z" style="fill:rgb(30,28,26);fill-rule:nonzero;"/>
    </g>
    <g transform="matrix(4.166667,0,0,4.166667,126.187083,34.325417)">
        <path d="M0,13.061L0.097,12.862L0.013,12.588L-2.192,8.669L-4.104,5.46L-4.276,5.089L-4.263,5.019L-4.11,5.121L-1.227,8.107L-0.306,9.123L1.26,10.779L1.547,11.041L1.694,11.073L1.835,11.002L2.679,10.216L2.768,10.037L2.717,9.833L2.014,8.74L1.471,7.876L0.863,6.956L-0.448,4.847L-1.534,3.14L-1.822,2.648L-1.879,2.475L-1.668,2.59L-0.652,3.697L1.189,5.619L1.535,5.978L1.995,6.476L2.545,7.02L3.702,8.209L4.046,8.548L4.232,8.631L4.412,8.586L5.063,8.164L5.421,7.876L5.452,7.716L5.325,7.518L3.043,5.351L-2.538,0.015L-2.902,-0.344L-3.534,-0.862L-3.675,-0.888L-3.969,-0.766L-4.659,-0.248L-4.871,0.015L-4.871,0.219L-4.583,0.73L-1.828,4.929L-0.811,6.553L-0.773,6.681L-0.843,6.668L-1.476,6.042L-5.222,2.131L-5.529,1.805L-6.027,1.324L-6.194,1.241L-6.353,1.286L-6.545,1.459L-6.73,1.631L-7.133,2.111L-7.261,2.367L-7.229,2.558L-5.809,5.236L-3.912,8.688L-2.365,11.367L-0.959,13.879L-0.817,13.949L-0.639,13.841L0,13.061Z" style="fill:rgb(30,28,26);fill-rule:nonzero;"/>
    </g>
    <g transform="matrix(4.166667,0,0,4.166667,121.87375,51.32375)">
        <path d="M0,-4.309L0.383,-3.791L0.883,-3.298L1.816,-2.666L3.408,-1.879L5.146,-1.144L6.137,-0.665L6.903,-0.185L7.262,0.121L7.588,0.499L7.691,0.787L7.625,1.023L7.46,1.151L7.243,1.195L6.84,1.093L6.424,0.825L6.092,0.518L5.747,0.179L5.586,0.089L5.414,0.102L4.731,0.467L4.448,0.658L4.385,0.787L4.429,0.907L4.795,1.323L5.849,2.243L6.354,2.55L6.866,2.742L7.446,2.831L7.678,2.812L8.022,2.742L8.476,2.55L8.86,2.288L9.141,1.956L9.333,1.598L9.403,1.24L9.39,0.832L9.263,0.312L9.065,-0.108L8.7,-0.627L8.278,-1.067L7.703,-1.528L6.789,-2.084L5.869,-2.543L4.11,-3.279L3.925,-3.389L3.752,-3.452L3.395,-3.586L2.639,-3.989L1.988,-4.43L1.649,-4.775L1.515,-5.03L1.496,-5.262L1.573,-5.465L1.739,-5.612L2.021,-5.663L2.443,-5.554L2.909,-5.287L3.376,-4.871L3.612,-4.723L3.803,-4.737L4.353,-4.968L4.788,-5.215L4.851,-5.362L4.711,-5.593L4.059,-6.188L3.184,-6.763L2.519,-7.032L2.039,-7.14L1.425,-7.14L0.844,-7.012L0.435,-6.821L0.095,-6.515L-0.154,-6.131L-0.268,-5.74L-0.3,-5.299L-0.211,-4.826L0,-4.309Z" style="fill:rgb(30,28,26);fill-rule:nonzero;"/>
    </g>
    <g transform="matrix(4.166667,0,0,4.166667,283.258333,191.691667)">
        <path d="M0,41.4L-0.026,42.583L-0.133,43.491L-0.174,44.258L-0.211,44.411L-0.262,45.082L-0.376,46.034L-0.779,48.522L-0.985,50.675L-1.068,51.264L-1.056,54.019L-0.966,56.83L-1.016,58.083L-1.107,58.89L-1.45,60.712L-1.605,61.12L-1.681,61.109L-1.771,60.922L-2.219,59.561L-2.692,58.27L-2.948,57.138L-3.1,55.623L-3.049,52.734L-3.126,51.45L-3.426,49.289L-3.746,47.755L-3.862,47.313L-3.982,46.233L-3.95,44.757L-3.862,43.772L-3.759,43.145L-3.74,42.207L-3.83,41.555L-4.098,40.691L-4.328,40.199L-4.615,39.758L-5.018,39.343L-5.35,39.132L-5.734,38.997L-6.118,38.984L-6.515,39.112L-6.891,39.4L-7.237,39.797L-7.466,40.218L-7.792,41.138L-7.947,41.905L-8.144,43.363L-8.432,44.348L-8.655,45.012L-8.943,46.476L-9.007,47.339L-8.994,48.017L-8.917,48.495L-8.867,49.014L-8.681,49.806L-8.539,50.394L-8.432,50.765L-7.996,52.754L-7.906,53.827L-7.941,54.306L-8.106,54.876L-8.349,55.317L-8.598,55.598L-8.898,55.79L-9.071,55.84L-9.365,55.829L-9.601,55.732L-9.863,55.541L-10.112,55.246L-10.324,54.863L-10.458,54.306L-10.49,53.635L-10.439,52.971L-10.305,52.025L-9.708,49.391L-9.428,48.279L-9.281,47.287L-9.249,46.457L-9.352,45.843L-9.563,45.165L-9.889,44.475L-10.447,43.599L-11.174,42.698L-11.94,42.007L-12.938,41.279L-14.273,40.467L-15.049,39.797L-15.482,39.317L-15.885,38.729L-16.486,37.77L-17.291,36.62L-17.981,35.929L-18.589,35.526L-19.063,35.335L-19.625,35.181L-20.059,35.131L-20.711,35.162L-21.459,35.335L-21.925,35.545L-22.443,35.929L-22.826,36.313L-23.21,36.862L-23.41,37.31L-23.633,37.757L-23.901,38.697L-24.118,40.199L-24.214,42.213L-24.201,42.475L-24.258,44.066L-24.405,45.459L-24.654,46.534L-25.038,47.691L-25.461,48.733L-25.836,49.596L-26.259,50.931L-26.489,51.928L-26.574,52.299L-26.624,52.286L-26.975,50.988L-27.513,49.685L-28.049,48.54L-28.72,47.281L-29.117,46.591L-29.692,45.517L-30.038,44.674L-30.382,43.606L-30.766,41.894L-31.213,39.317L-31.558,38.051L-31.885,37.266L-32.172,36.753L-32.479,36.351L-32.569,36.274L-32.78,36.082L-33.048,35.91L-33.387,35.82L-33.808,35.82L-34.186,35.968L-34.505,36.217L-34.792,36.633L-35.138,37.399L-35.547,38.441L-35.873,39.01L-36.314,39.585L-37.593,40.819L-37.977,41.35L-38.226,41.842L-38.411,42.494L-38.488,42.973L-38.545,44.526L-38.43,46.31L-37.817,49.838L-37.765,51.085L-37.798,51.564L-37.906,52.018L-38.129,52.364L-38.379,52.548L-38.641,52.658L-38.91,52.645L-39.108,52.529L-39.318,52.306L-39.472,52.025L-39.588,51.66L-39.657,51.219L-39.606,50.164L-39.415,49.16L-38.967,47.135L-38.756,45.945L-38.699,45.006L-38.807,44.035L-39.037,43.082L-39.415,41.976L-39.645,41.125L-39.811,39.982L-39.913,39.087L-40.054,38.416L-40.322,37.725L-40.706,37.073L-41.108,36.581L-41.581,36.217L-41.946,36.026L-42.399,35.91L-42.591,35.878L-43.167,35.91L-43.665,36.044L-44.196,36.294L-44.803,36.753L-45.75,37.591L-46.472,38.07L-47.066,38.358L-48.011,38.665L-49.553,39.016L-50.237,39.285L-50.755,39.643L-51.38,40.282L-51.803,40.896L-52.09,41.426L-52.301,42.065L-52.468,42.839L-52.506,43.97L-52.487,44.833L-52.493,46.361L-52.653,47.665L-52.825,48.279L-53.874,50.669L-54.225,51.845L-54.283,51.902L-54.347,51.583L-54.456,50.944L-54.935,49.499L-55.235,48.803L-55.58,47.794L-55.81,46.738L-55.938,45.734L-56.072,43.548L-56.181,42.878L-56.316,42.564L-56.559,42.333L-56.762,42.264L-57.013,42.296L-57.23,42.411L-57.421,42.616L-57.632,43.056L-57.824,43.778L-58.137,45.831L-58.387,46.706L-58.751,47.55L-58.917,47.914L-59.282,48.886L-59.435,49.532L-59.498,49.735L-59.595,49.864L-59.774,49.883L-59.915,49.755L-60.029,49.428L-60.241,48.637L-60.854,47.077L-61.001,46.502L-61.173,45.198L-61.199,44.015L-61.282,43.747L-61.417,43.58L-61.621,43.496L-61.852,43.561L-62.024,43.785L-62.158,44.066L-62.37,44.794L-62.497,45.908L-62.567,46.617L-62.65,47.268L-63.276,49.806L-63.807,51.801L-64.153,53.559L-64.338,54.882L-64.376,56.071L-64.319,57.259L-64.171,58.545L-64.139,58.692L-64.095,59.107L-63.616,61.773L-63.226,63.895L-63.079,65.378L-63.11,66.176L-63.232,66.88L-63.468,67.552L-63.718,67.929L-63.826,68.024L-64.153,68.275L-64.549,68.401L-64.887,68.388L-65.169,68.275L-65.572,67.967L-65.878,67.532L-66.07,67.09L-66.217,66.425L-66.275,65.698L-66.256,64.758L-66.051,63.276L-65.495,60.647L-65.181,59.178L-65.131,58.839L-64.97,57.777L-64.901,57.158L-64.836,56.838L-64.721,55.496L-64.721,53.213L-64.875,51.698L-65.233,49.468L-65.712,46.751L-65.943,45.466L-66.505,41.555L-66.62,39.829L-66.537,36.094L-66.051,32.375L-65.668,30.483L-65.284,28.974L-64.689,27.076L-63.999,25.183L-62.925,22.755L-61.832,20.715L-60.394,18.421L-59.455,17.117L-58.227,15.603L-56.884,14.124L-55.446,12.687L-53.912,11.382L-52.711,10.481L-51.445,9.619L-50.946,9.306L-50.831,9.153L-50.672,9.133L-50.474,9.063L-50.218,9.082L-49.668,9.203L-49.054,9.184L-48.555,9.076L-48.005,8.845L-47.455,8.5L-46.938,8.078L-46.702,7.855L-46.554,7.868L-46.44,8.033L-46.203,8.366L-45.961,8.595L-45.564,8.826L-45.097,8.999L-44.892,9.031L-44.202,9.012L-43.723,8.865L-43.313,8.634L-42.834,8.269L-41.971,7.349L-40.642,5.726L-40.207,5.362L-39.765,5.094L-39.312,4.92L-38.923,4.799L-38.832,4.678L-38.865,4.536L-39.14,4.442L-39.409,4.429L-39.97,4.518L-40.476,4.71L-40.975,4.997L-41.447,5.381L-42.604,6.583L-42.949,6.966L-43.461,7.368L-43.805,7.503L-44.24,7.535L-44.675,7.426L-44.918,7.273L-45.11,7.029L-45.25,6.601L-45.257,6.231L-45.11,5.617L-44.764,4.914L-44.304,4.345L-43.825,3.904L-43.231,3.483L-42.586,3.155L-41.639,2.81L-40.897,2.658L-39.753,2.587L-38.628,2.716L-37.855,2.907L-36.577,3.425L-36.001,3.751L-35.202,4.384L-34.991,4.665L-34.774,4.991L-34.671,5.042L-34.531,5.01L-34.454,4.875L-34.384,4.486L-34.384,1.456L-34.498,-1.056L-34.614,-2.782L-34.684,-3.401L-34.786,-4.93L-34.876,-5.723L-35.151,-8.555L-35.393,-10.165L-35.585,-11.009L-35.873,-11.904L-36.141,-12.383L-36.557,-12.876L-36.711,-13.208L-36.742,-13.328L-36.73,-13.777L-36.48,-14.749L-35.982,-15.931L-35.33,-17.081L-34.39,-18.495L-33.451,-19.722L-32.301,-21.006L-30.766,-22.56L-30.19,-23.078L-29.462,-23.749L-28.182,-24.783L-26.643,-25.915L-24.963,-26.971L-23.875,-27.546L-23.146,-27.872L-22.489,-28.064L-21.938,-28.095L-21.644,-27.986L-21.434,-27.731L-21.382,-27.405L-21.509,-26.734L-21.931,-25.781L-23.197,-23.832L-23.811,-23.026L-24.131,-22.636L-24.828,-21.76L-26.183,-20.265L-27.57,-18.865L-29.776,-16.986L-31.092,-16.002L-31.724,-15.426L-31.974,-15.017L-32.109,-14.684L-32.14,-14.345L-32.096,-9.845L-32.031,-8.49L-32.045,-8.286L-32.024,-7.941L-32.031,-4.879L-32.109,-0.929L-32.14,-0.481L-32.255,2.128L-32.383,4.384L-32.319,4.575L-32.236,4.646L-32.07,4.646L-31.079,3.943L-30.6,3.693L-29.839,3.386L-29.219,3.233L-28.881,3.181L-28.037,3.2L-27.519,3.329L-27.103,3.501L-26.593,3.827L-26.246,4.172L-25.903,4.723L-25.761,5.151L-25.735,5.598L-25.824,6.141L-26.016,6.583L-26.344,6.966L-26.93,7.349L-27.391,7.529L-27.513,7.656L-27.448,7.791L-27.308,7.886L-26.963,7.919L-26.407,7.829L-25.875,7.617L-25.461,7.33L-25.038,6.858L-24.789,6.365L-24.618,5.808L-24.572,5.356L-24.636,4.799L-24.751,4.454L-24.982,4.001L-25.057,3.866L-24.904,3.885L-24.27,4.307L-23.946,4.55L-23.216,5.131L-22.852,5.469L-21.778,6.493L-21.242,7.011L-20.372,7.733L-19.643,8.212L-19.1,8.482L-18.698,8.59L-18.103,8.628L-17.529,8.57L-17.291,8.66L-16.121,9.331L-14.836,10.155L-12.958,11.498L-11.269,12.916L-10.944,13.218L-9.85,14.259L-9.659,14.463L-8.93,15.219L-7.837,16.484L-7.638,16.765L-7.319,17.148L-6.417,18.338L-6.239,18.606L-4.807,20.735L-4.271,21.629L-3.484,23.15L-2.942,24.34L-2.864,24.558L-2.39,25.701L-1.719,27.594L-1.125,29.614L-0.895,30.515L-0.594,32.1L-0.275,34.253L-0.12,35.654L-0.108,35.916L-0.064,36.709L-0.045,37.277L-0.102,37.469L-0.006,37.885L0.013,40.487L0,41.4ZM-4.143,55.035L-4.212,55.277L-4.731,56.154L-4.852,56.263L-4.973,56.218L-5.018,56.045L-4.999,55.732L-4.967,55.361L-5.018,55.138L-5.261,54.876L-5.415,54.721L-5.466,54.595L-5.453,54.382L-5.28,54.012L-5.114,53.743L-5.051,53.418L-5.095,53.124L-5.287,52.748L-5.516,52.529L-5.503,52.178L-5.191,51.334L-5.119,50.97L-5.191,50.81L-5.356,50.656L-5.765,50.349L-5.932,50.139L-5.932,49.972L-5.778,49.699L-5.402,49.04L-5.132,48.438L-5.151,48.182L-5.261,48.099L-5.376,48.144L-5.645,48.598L-5.9,49.097L-6.301,49.653L-6.462,49.767L-6.604,49.755L-6.96,49.544L-7.325,49.499L-7.486,49.403L-7.581,49.173L-7.792,48.201L-7.861,47.652L-7.88,46.636L-7.767,45.715L-7.466,44.655L-7.032,43.376L-6.924,42.897L-6.866,41.881L-6.777,41.522L-6.507,41.069L-6.226,40.838L-6.003,40.768L-5.759,40.799L-5.516,40.933L-5.325,41.171L-5.114,41.561L-4.903,42.251L-4.833,42.743L-4.833,43.932L-4.928,45.198L-5.018,45.831L-5.044,46.483L-4.864,48.182L-4.724,48.86L-4.48,49.704L-4.212,51.111L-4.092,52.395L-4.072,53.82L-4.143,55.035ZM-10.835,48.995L-11.026,49.014L-11.315,48.995L-12.081,49.18L-12.208,49.154L-12.223,49.014L-11.991,48.701L-10.982,47.397L-10.522,46.725L-10.452,46.521L-10.483,46.265L-10.598,46.202L-10.726,46.284L-11.32,47.032L-12.401,48.445L-12.696,48.713L-12.86,48.713L-13.143,48.49L-15.137,46.451L-17.381,43.977L-17.636,43.657L-18.895,42.104L-19.056,41.784L-19.028,41.644L-18.786,41.408L-18.058,40.78L-17.226,40.027L-17.132,39.834L-17.194,39.649L-17.316,39.617L-17.438,39.688L-18.634,40.718L-19.24,41.177L-19.445,41.228L-19.567,41.164L-20.219,40.358L-20.743,39.649L-21.062,39.201L-21.453,38.614L-21.56,38.448L-21.663,38.307L-21.778,38.287L-21.887,38.384L-21.938,38.506L-21.906,38.697L-21.702,39.055L-20.123,41.196L-19.918,41.445L-19.855,41.611L-20.016,41.81L-21.434,42.979L-22.404,43.734L-22.54,43.932L-22.54,44.137L-22.489,44.187L-22.335,44.174L-22.027,43.977L-20.814,43.024L-20.148,42.488L-19.707,42.175L-19.541,42.117L-19.419,42.162L-19.113,42.519L-17.879,44.035L-17.541,44.417L-16.614,45.492L-13.89,48.445L-13.762,48.56L-13.283,49.046L-13.239,49.18L-13.276,49.25L-14.371,49.519L-14.632,49.532L-14.938,49.454L-15.392,49.442L-15.636,49.327L-15.898,49.141L-16.07,49.091L-16.378,49.122L-17.042,49.371L-17.361,49.544L-17.516,49.71L-18.127,50.503L-18.359,50.669L-18.647,50.83L-18.934,51.149L-19.048,51.405L-19.12,51.679L-19.089,51.999L-18.973,52.222L-18.786,52.376L-18.621,52.427L-17.739,52.37L-17.636,52.42L-17.591,52.554L-17.841,53.355L-17.866,53.808L-17.994,53.968L-18.799,54.6L-18.928,54.652L-19.131,54.621L-19.606,54.434L-20.078,54.325L-20.418,54.339L-20.66,54.453L-20.85,54.715L-21.298,55.585L-21.446,55.732L-21.631,55.764L-21.996,55.63L-22.199,55.661L-22.629,55.885L-22.801,55.955L-22.987,55.942L-23.133,55.764L-23.901,54.408L-23.984,54.159L-23.94,53.891L-23.785,53.629L-23.562,53.456L-23.318,53.412L-22.903,53.43L-22.698,53.335L-22.232,52.612L-21.951,52.344L-21.862,52.312L-21.382,52.325L-21.279,52.261L-21.242,52.102L-21.376,51.902L-21.67,51.731L-21.918,51.66L-22.219,51.692L-22.532,51.756L-22.942,51.744L-23.331,51.576L-23.53,51.597L-23.785,51.769L-24.131,52.089L-24.411,52.28L-24.929,52.312L-25.013,52.267L-25.077,52.018L-25.205,51.902L-25.238,51.832L-25.205,51.628L-24.226,49.544L-23.639,48.088L-23.275,46.853L-23.101,46.015L-22.903,44.674L-22.763,42.091L-22.693,40.059L-22.54,39.265L-22.367,38.652L-22.041,37.955L-21.676,37.482L-21.292,37.156L-20.845,36.946L-20.346,36.817L-19.829,36.817L-19.362,36.907L-18.839,37.098L-18.23,37.502L-17.791,37.961L-17.291,38.722L-16.479,40.244L-16.057,40.87L-15.675,41.311L-14.932,41.963L-14.121,42.559L-12.663,43.389L-11.577,44.098L-11.058,44.597L-10.638,45.191L-10.311,45.908L-10.221,46.386L-10.163,47.384L-10.273,48.445L-10.367,48.924L-10.439,49.002L-10.547,49.014L-10.835,48.995ZM-12.031,52.146L-12.453,52.376L-12.835,52.535L-13.225,52.823L-13.974,53.91L-14.339,54.237L-14.568,54.35L-14.881,54.364L-15.029,54.357L-15.272,54.453L-15.636,54.799L-15.885,55.138L-16.346,55.847L-16.563,56.249L-16.729,56.442L-16.984,56.536L-17.381,56.62L-17.572,56.557L-17.833,56.391L-18.039,56.391L-18.301,56.562L-18.436,56.652L-18.773,56.723L-18.908,56.742L-19.202,56.71L-19.464,56.646L-19.766,56.614L-19.93,56.468L-20.027,56.301L-20.047,56.166L-19.955,56.026L-19.822,55.968L-19.548,55.904L-19.305,55.623L-19.056,55.374L-18.033,54.608L-17.924,54.588L-17.885,54.6L-17.904,54.741L-18.175,55.157L-18.55,55.548L-18.64,55.764L-18.608,55.942L-18.461,56.058L-18.219,56.09L-17.572,55.904L-17.329,55.732L-16.447,54.702L-16.396,54.555L-16.346,54.325L-16.154,53.974L-15.95,53.82L-15.724,53.769L-15.463,53.743L-15.353,53.68L-15.291,53.507L-15.291,53.053L-15.137,52.786L-14.701,52.492L-14.491,52.325L-14.011,52.165L-13.591,51.877L-13.444,51.789L-13.232,51.737L-12.696,51.705L-12.324,51.589L-12.196,51.519L-12.018,51.539L-11.902,51.718L-11.884,51.96L-12.031,52.146ZM-23.562,56.142L-23.665,56.223L-23.844,56.173L-24.265,55.885L-24.553,55.661L-24.718,55.63L-25.141,55.764L-25.543,55.751L-25.645,55.674L-25.716,55.399L-25.729,54.702L-25.645,54.453L-25.524,54.382L-25.046,54.421L-24.796,54.402L-24.457,54.473L-24.291,54.608L-23.888,55.322L-23.709,55.674L-23.562,55.976L-23.562,56.142ZM-24.954,66.957L-25.096,67.672L-25.345,68.299L-25.594,68.695L-25.903,68.964L-26.252,69.136L-26.501,69.207L-26.848,69.174L-27.198,69.021L-27.544,68.695L-27.737,68.382L-28.005,67.692L-28.132,66.829L-28.145,66.068L-28.037,64.642L-27.775,63.3L-27.652,62.879L-27.621,62.68L-27.519,62.226L-27.256,61.145L-27.16,60.725L-26.714,58.622L-26.567,57.726L-26.514,57.713L-26.444,57.97L-26.297,58.909L-26.049,60.182L-25.742,61.466L-25.538,62.175L-25.269,63.223L-25.013,64.649L-24.929,65.659L-24.954,66.957ZM-55.286,58.238L-55.083,56.844L-54.391,53.368L-54.353,53.316L-54.303,53.412L-53.759,57.419L-53.714,58.277L-53.734,59.158L-53.842,59.638L-54.015,59.919L-54.213,60.066L-54.385,60.117L-54.673,60.085L-54.947,59.931L-55.12,59.746L-55.273,59.388L-55.325,59.023L-55.286,58.238ZM-28.318,55.655L-28.415,55.24L-28.579,55.028L-28.784,54.92L-28.989,54.952L-29.577,55.317L-29.922,55.655L-30.324,55.904L-31.207,56.199L-31.686,56.518L-32.005,56.588L-32.364,56.575L-32.549,56.499L-32.683,56.352L-32.856,55.898L-32.875,55.419L-32.78,54.92L-32.824,54.702L-33.182,54.396L-33.419,54.3L-33.636,54.275L-34.135,54.306L-34.633,54.211L-34.946,54.243L-35.976,54.6L-36.378,54.588L-36.519,54.684L-36.602,54.812L-36.691,54.812L-36.865,54.421L-37.043,53.987L-37.133,53.878L-37.299,53.859L-37.439,53.949L-37.484,54.127L-37.023,55.501L-36.979,55.783L-37.023,56.007L-37.331,56.41L-37.388,56.595L-37.325,56.73L-36.985,56.979L-36.717,57.119L-36.544,57.324L-36.295,58.167L-35.892,59.785L-35.535,61.516L-35.554,62.072L-35.483,62.252L-35.355,62.424L-35.144,63.402L-34.716,66.163L-34.614,67.135L-34.684,67.277L-35.017,67.366L-35.305,67.385L-35.841,67.385L-35.963,67.314L-36.231,66.886L-36.34,66.56L-36.449,65.704L-36.417,65.104L-36.487,64.962L-36.608,64.886L-37.101,64.784L-37.267,64.655L-37.555,64.177L-37.663,63.818L-37.638,63.589L-37.535,63.447L-37.331,63.288L-37.299,63.108L-37.464,62.648L-37.42,62.546L-37.126,62.457L-36.352,62.349L-36.199,62.271L-36.136,62.118L-36.18,61.99L-36.301,61.92L-36.8,61.939L-37.356,62.01L-37.535,61.965L-37.625,61.786L-37.612,61.51L-37.555,61.414L-37.452,61.39L-37.126,61.422L-36.87,61.312L-36.582,61.089L-36.199,60.583L-36.149,60.444L-36.18,60.169L-36.372,59.53L-36.774,58.692L-37.017,58.295L-37.209,57.957L-37.497,57.528L-37.568,57.337L-37.535,56.953L-37.489,56.742L-37.516,56.512L-37.656,56.256L-37.924,55.91L-38.539,55.298L-38.82,55.009L-39.229,54.588L-39.37,54.537L-39.786,54.563L-39.964,54.453L-40.156,54.434L-40.463,54.479L-40.782,54.37L-41.249,54.147L-41.895,53.93L-41.984,53.853L-41.984,53.743L-41.824,53.649L-40.68,53.335L-40.515,53.207L-40.515,53.029L-40.603,52.919L-40.802,52.9L-42.176,53.278L-42.381,53.29L-42.528,53.22L-42.72,53.035L-42.898,52.964L-43.192,52.996L-43.64,53.124L-44.107,53.155L-44.72,53.118L-45.135,53.226L-45.678,53.488L-46.336,53.649L-46.797,53.82L-46.894,53.949L-46.976,54.275L-47.137,54.37L-47.629,54.473L-47.699,54.524L-47.763,54.837L-47.948,55.022L-47.961,55.246L-47.955,55.393L-48.069,55.541L-48.607,55.777L-48.792,55.968L-49.125,56.461L-49.482,56.767L-50.327,57.388L-50.633,57.726L-50.862,58.122L-51.113,58.686L-51.234,59.01L-51.502,59.42L-51.547,59.542L-51.515,59.772L-51.33,60.155L-51.247,60.431L-51.023,60.692L-50.914,60.941L-50.946,61.063L-51.042,61.109L-51.452,61.025L-52.109,60.839L-52.39,60.825L-52.531,60.897L-52.595,61.012L-52.55,61.14L-52.205,61.274L-51.074,61.626L-50.966,61.715L-50.934,61.881L-50.952,62.13L-50.902,62.252L-50.716,62.495L-50.735,62.642L-50.883,62.789L-51.483,63.082L-51.668,63.269L-51.803,63.633L-51.866,63.928L-51.969,64.009L-52.154,63.978L-52.729,63.709L-54.679,62.617L-56.693,61.312L-57.824,60.508L-58.712,59.766L-58.802,59.585L-58.783,59.324L-58.649,58.96L-58.546,58.89L-58.361,58.922L-57.064,59.51L-56.865,59.51L-56.782,59.388L-56.795,59.184L-56.904,59.056L-58.348,58.359L-58.502,58.199L-58.527,58.122L-58.489,56.934L-58.559,56.052L-58.515,55.892L-58.373,55.84L-57.971,55.822L-57.511,55.822L-56.417,55.745L-56.296,55.693L-56.2,55.553L-56.213,55.425L-56.321,55.335L-56.591,55.322L-58.508,55.38L-58.636,55.329L-58.726,55.189L-58.981,54.293L-59.268,53.604L-59.295,53.481L-59.243,53.361L-58.808,53.073L-55.951,51.456L-55.702,51.232L-55.683,51.104L-55.754,51.001L-55.919,51.001L-56.386,51.232L-58.687,52.587L-59.32,52.932L-59.505,52.964L-59.646,52.874L-59.921,52.44L-60.592,51.615L-61.372,50.886L-61.986,50.42L-62.037,50.318L-61.966,49.748L-61.768,48.534L-61.698,47.991L-61.621,47.831L-61.571,47.882L-61.18,49.512L-60.873,50.368L-60.375,51.289L-59.895,51.897L-59.511,52.299L-59.41,52.37L-59.308,52.357L-59.166,51.82L-58.885,51.289L-58.578,50.426L-58.265,49.365L-57.959,48.695L-57.735,48.259L-57.294,47.147L-57.114,46.354L-56.999,45.556L-56.942,45.453L-56.871,45.511L-56.744,46.137L-56.686,46.751L-56.424,48.036L-55.926,49.486L-55.664,50.132L-55.453,50.868L-55.325,51.776L-55.293,52.727L-55.344,53.347L-55.568,54.576L-56.233,56.946L-56.488,58.59L-56.495,59.12L-56.417,59.695L-56.252,60.239L-56.022,60.718L-55.741,61.083L-55.395,61.37L-55.018,61.561L-54.711,61.632L-54.174,61.613L-53.759,61.466L-53.363,61.217L-53.017,60.851L-52.768,60.475L-52.538,59.874L-52.41,59.235L-52.41,58.448L-52.531,57.343L-53.138,53.962L-53.177,53.578L-53.158,52.638L-52.934,51.64L-52.493,50.554L-51.924,49.391L-51.445,48.088L-51.222,47.135L-51.067,45.984L-51.048,44.776L-51.087,44.411L-51.067,43.453L-50.959,42.839L-50.825,42.328L-50.633,41.95L-50.287,41.509L-49.923,41.183L-49.317,40.819L-48.307,40.435L-47.181,40.084L-46.223,39.624L-45.5,39.163L-44.19,38.172L-43.506,37.751L-43.033,37.56L-42.687,37.489L-42.336,37.521L-41.908,37.673L-41.741,37.802L-41.473,38.186L-41.3,38.652L-40.949,40.812L-40.622,41.803L-40.111,42.884L-39.957,43.37L-39.837,44.284L-39.83,45.025L-39.957,46.054L-40.304,47.652L-40.489,48.272L-40.757,49.428L-40.859,50.266L-40.865,51.353L-40.738,52.05L-40.489,52.69L-40.22,53.142L-39.875,53.526L-39.421,53.853L-39.031,54.006L-38.737,54.057L-38.226,54.025L-37.708,53.872L-37.388,53.68L-37.023,53.355L-36.736,52.958L-36.506,52.447L-36.34,51.813L-36.282,51.334L-36.32,50.491L-36.525,49.122L-37.318,45.446L-37.356,45.101L-37.338,43.97L-37.228,43.312L-37.075,42.921L-36.826,42.526L-36.5,42.181L-35.509,41.408L-35.049,40.947L-34.665,40.379L-34.435,39.924L-34.16,39.087L-33.93,38.71L-33.764,38.556L-33.559,38.511L-33.342,38.594L-33.073,38.857L-32.767,39.343L-32.459,40.064L-32.115,41.343L-31.847,42.672L-31.686,43.536L-31.38,44.539L-31.015,45.498L-30.612,46.322L-30.466,46.577L-30.152,47.205L-29.219,48.905L-28.203,51.123L-27.799,52.273L-27.454,53.788L-27.314,54.779L-27.295,55.713L-27.397,56.173L-27.487,56.249L-27.677,56.249L-28.005,56.097L-28.235,55.873L-28.318,55.655ZM-30.006,65.104L-30.158,65.378L-30.555,65.934L-30.901,66.535L-31.264,66.893L-31.91,67.021L-32.045,67.04L-32.261,67.007L-32.294,66.886L-32.203,66.682L-31.617,65.769L-31.463,65.511L-31.079,65.091L-30.734,64.848L-30.299,64.618L-30.158,64.629L-30.025,64.726L-29.973,64.855L-30.006,65.104ZM-31.98,67.641L-31.98,67.59L-31.813,67.577L-31.763,67.609L-31.794,67.652L-31.98,67.641ZM-30.466,71.636L-30.677,71.973L-30.823,72.147L-31.002,72.243L-31.374,72.345L-31.545,72.39L-31.898,72.339L-32.613,72.109L-32.837,71.956L-32.991,71.718L-33.092,71.38L-33.259,70.959L-33.431,70.811L-33.681,70.671L-33.834,70.472L-33.905,69.59L-33.943,68.747L-34.032,67.896L-33.987,67.762L-33.694,67.672L-33.348,67.634L-32.869,67.634L-32.78,67.685L-32.919,68.069L-32.901,68.702L-32.837,68.874L-32.511,69.296L-32.274,69.425L-32.005,69.457L-31.807,69.386L-31.482,69.041L-31.322,68.97L-30.952,68.881L-30.887,68.912L-30.874,69.131L-30.88,69.315L-30.747,69.661L-30.606,69.955L-30.637,70.229L-30.663,70.435L-30.574,70.755L-30.35,71.067L-30.338,71.278L-30.466,71.636ZM-34.135,67.04L-34.211,66.081L-34.167,66.055L-33.918,66.279L-33.694,66.35L-33.08,66.388L-32.754,66.331L-32.689,66.362L-32.703,66.509L-32.862,66.829L-32.843,67.071L-32.991,67.142L-33.694,67.232L-33.943,67.251L-34.09,67.18L-34.135,67.04ZM-32.991,60.047L-32.767,60.257L-32.626,60.699L-32.421,60.928L-32.421,61.025L-32.632,61.12L-33.694,61.39L-34.691,61.613L-34.933,61.6L-35.043,61.472L-35.406,59.836L-35.727,58.372L-35.713,58.193L-35.528,58.212L-35.188,58.277L-34.908,58.251L-34.78,58.186L-34.608,58.059L-34.41,58.059L-33.956,58.167L-33.782,58.27L-33.63,58.456L-33.354,59.037L-33.073,59.356L-33.061,59.561L-33.08,59.849L-32.991,60.047ZM-34.378,65.153L-34.761,62.673L-34.882,62.166L-33.846,61.913L-33.271,61.792L-31.967,61.479L-31.724,61.51L-31.52,61.715L-31.469,61.92L-31.538,62.303L-31.456,62.54L-31.271,62.712L-31.06,62.872L-30.996,63.007L-31.097,63.269L-32.492,64.732L-32.805,65.288L-33.035,65.511L-33.367,65.621L-33.924,65.64L-34.103,65.711L-34.192,65.831L-34.249,65.831L-34.378,65.153ZM-34.416,70.255L-34.537,70.326L-35.228,70.491L-35.426,70.478L-35.477,70.261L-35.497,69.782L-35.438,69.073L-35.464,68.682L-35.445,68.453L-35.355,68.03L-35.292,67.82L-35.188,67.768L-34.691,67.768L-34.569,67.839L-34.498,68.075L-34.365,69.187L-34.345,70.108L-34.416,70.255ZM-35.662,70.959L-35.784,71.036L-36.199,71.175L-36.307,71.303L-36.43,71.726L-36.577,71.918L-37.548,72.37L-37.823,72.359L-38.123,72.293L-38.43,72.262L-38.5,72.204L-38.296,72.096L-37.28,71.726L-36.928,71.553L-36.736,71.329L-36.537,70.964L-36.359,70.849L-35.976,70.798L-35.674,70.811L-35.636,70.868L-35.662,70.959ZM-43.218,79.423L-43.115,80.085L-42.898,81.441L-42.79,82.611L-42.764,83.55L-42.872,84.387L-43.064,84.962L-43.333,85.359L-43.634,85.627L-44.068,85.82L-44.279,85.871L-44.72,85.858L-45.212,85.705L-45.57,85.475L-45.896,85.078L-46.145,84.548L-46.311,83.799L-46.35,83.205L-46.216,81.71L-45.993,80.368L-45.775,79.255L-45.743,78.967L-45.404,77.274L-45.027,75.074L-44.975,74.71L-44.829,74.052L-44.534,72.39L-44.483,72.325L-44.426,72.428L-44.265,73.49L-44.017,75.299L-43.218,79.423ZM-46.957,55.08L-47.213,55.214L-47.347,55.265L-47.507,55.234L-47.558,55.131L-47.532,55.003L-47.423,54.933L-47.213,54.882L-46.989,54.894L-46.932,54.965L-46.957,55.08ZM-52.487,64.489L-52.947,64.458L-53.324,64.361L-53.625,64.17L-54.257,63.715L-54.526,63.537L-55.504,62.719L-55.689,62.648L-56.284,62.743L-56.52,62.654L-56.98,62.271L-58.227,61.102L-58.783,60.494L-58.885,60.315L-58.802,60.302L-57.62,61.128L-57.159,61.466L-55.062,62.903L-54.123,63.428L-52.903,64.112L-52.441,64.348L-52.397,64.419L-52.487,64.489ZM-59.032,58.359L-59.25,59.349L-59.365,59.567L-59.429,59.599L-59.588,59.549L-59.876,59.246L-60.662,58.212L-61.372,57.144L-61.665,56.691L-62.216,55.835L-62.867,54.652L-63.079,54.076L-63.11,53.808L-63.002,53.303L-62.619,52.146L-62.337,51.392L-62.216,51.053L-62.094,50.995L-61.928,51.04L-61.321,51.5L-60.937,51.915L-60.285,52.74L-59.921,53.335L-59.556,54.095L-59.268,54.894L-59.116,55.528L-58.975,56.468L-58.95,57.508L-59.032,58.359ZM-50.959,5.521L-50.805,4.791L-50.613,4.327L-50.077,3.443L-49.502,2.81L-49.143,2.485L-48.102,1.737L-46.881,1.085L-45.646,0.586L-43.909,0.165L-42.994,0.036L-41.728,-0.001L-40.693,0.107L-39.849,0.28L-38.992,0.529L-38.034,0.952L-37.369,1.334L-36.487,2.005L-35.797,2.696L-35.432,3.207L-35.418,3.297L-35.598,3.207L-36.25,2.753L-37.247,2.254L-38.181,1.928L-39.043,1.744L-40.118,1.61L-41.153,1.628L-42.176,1.815L-43.064,2.083L-43.947,2.504L-44.726,2.984L-45.205,3.406L-45.819,4.089L-46.606,5.278L-47.341,6.583L-47.839,7.139L-48.255,7.445L-48.747,7.656L-49.169,7.746L-49.661,7.714L-50.135,7.56L-50.518,7.26L-50.69,7.011L-50.844,6.678L-50.971,6.096L-50.959,5.521ZM-48.831,-1.568L-48.639,-2.047L-48.352,-2.464L-47.974,-2.788L-47.437,-3.153L-46.849,-3.441L-46.069,-3.69L-45.123,-3.895L-44.586,-3.953L-43.455,-3.933L-42.297,-3.728L-41.293,-3.384L-39.9,-2.693L-38.807,-1.983L-37.868,-1.273L-36.813,-0.239L-36.219,0.472L-35.585,1.463L-35.387,1.89L-35.375,1.98L-35.4,2.031L-35.598,1.884L-36.18,1.315L-37.043,0.607L-37.918,-0.008L-38.89,-0.488L-39.811,-0.814L-40.987,-1.101L-41.824,-1.209L-42.265,-1.248L-43.377,-1.229L-44.458,-1.063L-45.813,-0.698L-47.105,-0.207L-47.616,-0.097L-48.044,-0.129L-48.415,-0.263L-48.677,-0.475L-48.812,-0.691L-48.894,-1.056L-48.831,-1.568ZM-43.153,-6.931L-42.981,-7.321L-42.738,-7.563L-42.438,-7.736L-42.112,-7.825L-41.652,-7.845L-41.038,-7.717L-40.239,-7.334L-39.478,-6.853L-38.437,-5.939L-37.656,-5.09L-36.793,-3.92L-36.276,-3.025L-35.873,-2.104L-35.528,-1.017L-35.26,0.094L-35.228,0.517L-35.267,0.613L-35.387,0.491L-36.007,-0.488L-36.487,-1.121L-37.388,-2.06L-38.558,-3.018L-39.856,-3.843L-42.003,-5L-42.521,-5.384L-42.847,-5.742L-43.077,-6.176L-43.167,-6.503L-43.153,-6.931ZM-37.401,-16.122L-37.676,-15.464L-37.779,-15.343L-37.937,-15.375L-38.187,-15.618L-38.379,-15.886L-38.43,-16.071L-38.417,-16.41L-38.321,-16.851L-37.727,-18.232L-36.96,-19.548L-35.674,-21.409L-34.179,-23.173L-33.527,-23.869L-32.607,-24.783L-31.15,-26.05L-29.124,-27.583L-27.665,-28.485L-26.151,-29.329L-24.942,-29.846L-24.143,-30.013L-23.844,-29.962L-23.523,-29.693L-23.41,-29.495L-23.428,-29.367L-23.575,-29.239L-24.963,-28.619L-26.354,-27.833L-27.103,-27.341L-27.467,-27.105L-28.925,-26.05L-29.328,-25.711L-30.536,-24.727L-32.147,-23.288L-33.489,-21.812L-33.84,-21.395L-34.466,-20.662L-35.636,-19.089L-36.461,-17.823L-37.401,-16.122ZM-38.551,-17.894L-38.858,-17.197L-39.056,-16.596L-39.127,-16.525L-39.351,-16.474L-39.606,-16.441L-39.811,-16.359L-40.06,-16.373L-40.259,-16.525L-41.437,-17.847L-41.274,-18.533L-41.293,-18.814L-41.396,-19.012L-42.009,-19.722L-43.141,-20.988L-45.807,-23.863L-48.645,-26.932L-49.719,-28.14L-50.077,-28.51L-50.287,-28.83L-50.333,-29.104L-50.249,-29.661L-49.942,-30.722L-49.444,-31.962L-48.831,-33.189L-48.236,-34.238L-47.622,-35.159L-46.299,-36.903L-45.474,-37.804L-44.458,-38.782L-43.736,-39.396L-42.662,-40.221L-41.121,-41.199L-39.497,-42.043L-38.2,-42.58L-37.183,-42.926L-36.589,-43.053L-36.014,-43.071L-35.695,-42.982L-35.47,-42.81L-34.378,-41.621L-34.051,-41.243L-32.952,-40.016L-32.326,-39.32L-29.673,-36.431L-29.124,-35.868L-28.809,-35.491L-26.336,-32.844L-26.119,-32.711L-25.907,-32.685L-25.428,-32.774L-25.141,-32.762L-24.942,-32.627L-24.54,-32.192L-24.302,-31.886L-24.04,-31.579L-24.008,-31.413L-24.118,-31.132L-24.311,-30.659L-24.476,-30.581L-25.238,-30.344L-26.898,-29.598L-27.915,-29.042L-30.344,-27.431L-31.552,-26.472L-33.131,-25.053L-34.486,-23.691L-35.47,-22.528L-36.096,-21.741L-37.075,-20.392L-38.053,-18.821L-38.551,-17.894ZM-42.324,-16.646L-42.444,-16.717L-42.867,-17.158L-43.083,-17.458L-44.017,-18.782L-44.669,-19.824L-45.148,-20.699L-45.289,-21.07L-45.296,-21.134L-45.135,-21.082L-44.291,-20.258L-42.911,-18.686L-42.642,-18.251L-42.598,-18.014L-42.7,-17.446L-42.617,-17.177L-42.317,-16.735L-42.324,-16.646ZM-50.927,-29.758L-51.01,-29.668L-51.15,-29.718L-51.458,-30.076L-51.547,-30.3L-51.528,-30.722L-51.438,-31.183L-51.055,-32.295L-50.575,-33.381L-49.847,-34.679L-48.664,-36.425L-48.389,-36.832L-47.802,-37.517L-47.354,-38.072L-47.168,-38.266L-46.126,-39.377L-45.628,-39.856L-45.212,-40.208L-44.669,-40.681L-43.295,-41.698L-41.876,-42.561L-40.489,-43.308L-39.171,-43.885L-38.072,-44.229L-37.356,-44.357L-37.037,-44.344L-36.852,-44.268L-36.487,-43.909L-36.424,-43.769L-36.48,-43.698L-37.587,-43.481L-38.871,-43.04L-40.552,-42.254L-41.741,-41.602L-43.402,-40.489L-44.618,-39.512L-45.474,-38.745L-46.375,-37.785L-47.622,-36.257L-48.447,-35.101L-49.425,-33.515L-50.153,-32.078L-50.557,-31.042L-50.927,-29.758ZM-28.1,-37.249L-27.129,-36.654L-25.844,-35.715L-24.808,-34.794L-24.137,-34.046L-24.08,-33.899L-24.106,-33.867L-24.283,-33.995L-24.649,-34.316L-24.891,-34.423L-25.166,-34.392L-25.371,-34.328L-25.594,-34.36L-25.971,-34.704L-26.782,-35.58L-28.235,-37.121L-28.305,-37.281L-28.1,-37.249ZM-30.728,-2.047L-30.114,-3.428L-29.423,-4.693L-28.963,-5.339L-28.138,-6.259L-27.781,-6.604L-27.186,-7.066L-26.574,-7.449L-25.811,-7.755L-25.351,-7.864L-24.66,-7.845L-24.265,-7.717L-23.927,-7.454L-23.734,-7.212L-23.611,-6.842L-23.587,-6.444L-23.697,-6.107L-23.946,-5.729L-24.387,-5.306L-25.077,-4.867L-26.093,-4.348L-26.995,-3.901L-27.665,-3.459L-29.001,-2.464L-29.827,-1.657L-30.363,-0.993L-30.958,-0.046L-31.29,0.562L-31.374,0.65L-31.418,0.625L-31.399,0.35L-31.11,-0.827L-30.728,-2.047ZM-23.356,-3.856L-22.897,-3.914L-21.938,-3.895L-21.376,-3.785L-20.972,-3.614L-20.588,-3.37L-20.321,-3.095L-20.129,-2.756L-20.059,-2.456L-20.071,-2.098L-20.245,-1.702L-20.513,-1.356L-20.96,-1.108L-21.67,-0.896L-22.398,-0.827L-25.332,-0.654L-26.413,-0.488L-27.153,-0.296L-28.132,0.031L-28.855,0.337L-29.909,0.932L-30.823,1.634L-30.913,1.686L-30.964,1.654L-30.785,1.239L-30.114,0.299L-28.835,-1.088L-27.896,-1.831L-26.757,-2.577L-25.519,-3.23L-24.291,-3.671L-23.356,-3.856ZM-19.682,1.565L-18.997,2.005L-18.077,2.774L-17.521,3.38L-17.119,4.051L-16.901,4.575L-16.774,5.08L-16.762,5.637L-16.851,6.103L-17.003,6.473L-17.285,6.851L-17.668,7.1L-18.14,7.247L-18.621,7.235L-19.037,7.119L-19.606,6.755L-21.024,5.489L-22.027,4.613L-22.54,4.205L-23,3.827L-24.099,3.08L-24.783,2.716L-25.89,2.254L-26.836,2.044L-27.768,1.935L-28.381,1.954L-29.136,2.102L-30.082,2.409L-30.287,2.485L-30.35,2.459L-30.177,2.274L-29.755,1.986L-28.778,1.469L-27.902,1.104L-26.553,0.74L-25.735,0.593L-24.891,0.497L-23.416,0.536L-22.341,0.664L-21.222,0.912L-20.41,1.219L-19.682,1.565ZM1.03,33.526L0.639,31.02L0.3,29.53L0.217,29.179L-0.255,27.626L-0.313,27.37L-0.568,26.641L-0.697,26.27L-1.24,24.82L-2.314,22.441L-3.849,19.743L-4.96,18.018L-5.804,16.843L-6.724,15.692L-7.544,14.731L-8.757,13.378L-10.197,11.996L-10.726,11.569L-11.518,10.885L-12.86,9.848L-15.943,7.733L-16.005,7.605L-15.962,7.445L-15.643,6.952L-15.392,6.352L-15.272,5.739L-15.252,5.119L-15.316,4.639L-15.489,4.013L-15.795,3.347L-16.236,2.696L-17.176,1.718L-18.376,0.817L-19.041,0.426L-19.419,0.223L-19.955,0.005L-20.034,-0.078L-19.99,-0.161L-19.567,-0.397L-19.126,-0.756L-18.825,-1.166L-18.634,-1.574L-18.531,-2.086L-18.55,-2.558L-18.653,-3.032L-18.902,-3.588L-19.164,-3.985L-19.631,-4.437L-20.065,-4.706L-20.845,-5.012L-21.612,-5.16L-22.532,-5.16L-22.635,-5.206L-22.635,-5.269L-22.373,-5.703L-22.219,-6.081L-22.112,-6.54L-22.143,-7.09L-22.315,-7.615L-22.546,-8.062L-22.987,-8.542L-23.403,-8.829L-23.94,-9.078L-24.373,-9.194L-25.179,-9.244L-25.761,-9.136L-26.521,-8.906L-27.091,-8.637L-27.819,-8.177L-28.356,-7.755L-28.541,-7.602L-29.231,-6.853L-29.807,-6.126L-30.158,-5.588L-30.46,-5.096L-30.716,-4.61L-30.926,-4.253L-31.015,-4.253L-31.041,-4.329L-30.913,-7.538L-30.895,-8.707L-30.816,-14.269L-30.753,-14.532L-30.593,-14.755L-29.155,-15.776L-27.506,-17.081L-27.198,-17.362L-26.879,-17.618L-25.499,-18.941L-24.501,-20.035L-23.504,-21.185L-22.448,-22.585L-21.644,-23.754L-20.858,-25.091L-20.264,-26.26L-19.977,-27.021L-19.842,-27.513L-19.797,-27.98L-19.861,-28.377L-19.977,-28.671L-20.245,-29.079L-20.5,-29.233L-20.998,-29.317L-21.376,-29.527L-21.734,-29.834L-22.367,-30.505L-22.54,-30.78L-22.52,-30.933L-22.335,-31.292L-22.302,-31.527L-22.411,-31.822L-22.808,-32.365L-23,-32.621L-23.019,-32.806L-22.698,-33.189L-22.584,-33.407L-22.571,-33.618L-22.679,-33.822L-23.21,-34.494L-24.731,-35.963L-25.903,-36.903L-27.166,-37.785L-27.947,-38.246L-28.944,-38.726L-29.985,-39.115L-30.344,-39.346L-31.015,-40.036L-32.498,-41.679L-33.169,-42.388L-34.544,-43.947L-34.774,-44.248L-34.825,-44.453L-34.755,-44.919L-34.819,-45.329L-34.952,-45.532L-35.228,-45.725L-35.752,-45.897L-36.512,-46.006L-37.376,-45.968L-38.475,-45.745L-39.868,-45.303L-41.607,-44.498L-43.134,-43.558L-43.96,-43.021L-44.809,-42.395L-45.551,-41.813L-47.008,-40.528L-47.859,-39.665L-48.005,-39.512L-49.137,-38.169L-49.982,-37.077L-50.767,-35.912L-51.592,-34.474L-52.244,-33.221L-52.666,-32.23L-52.896,-31.534L-53.1,-30.454L-53.119,-29.975L-53.03,-29.265L-52.876,-28.729L-52.666,-28.396L-52.429,-28.261L-51.937,-28.178L-51.65,-28.082L-51.291,-27.833L-49.693,-26.171L-48.281,-24.707L-47.494,-23.787L-47.245,-23.391L-46.586,-21.595L-46.031,-20.316L-45.532,-19.377L-44.458,-17.67L-43.269,-16.103L-42.483,-15.298L-42.22,-15.125L-42.015,-15.094L-41.85,-15.159L-41.429,-15.503L-41.262,-15.547L-41.108,-15.484L-40.718,-15.068L-40.463,-14.895L-40.213,-14.862L-39.849,-14.965L-39.619,-14.946L-39.383,-14.794L-38.845,-14.198L-38.5,-13.777L-38.328,-13.521L-38.265,-13.086L-38.168,-12.619L-37.977,-12.269L-37.669,-12.012L-37.42,-11.807L-37.196,-11.476L-37.004,-10.964L-36.679,-9.692L-36.449,-8.286L-36.18,-6.278L-35.925,-4.879L-35.885,-4.253L-35.932,-4.131L-36.04,-4.247L-36.392,-4.899L-36.909,-5.729L-37.81,-6.911L-38.359,-7.486L-39.134,-8.138L-39.626,-8.465L-40.373,-8.868L-41.242,-9.175L-41.785,-9.283L-42.554,-9.283L-42.892,-9.213L-43.333,-9.059L-43.864,-8.733L-44.209,-8.387L-44.477,-7.986L-44.65,-7.576L-44.713,-7.205L-44.707,-6.74L-44.592,-6.259L-44.343,-5.742L-44.119,-5.416L-44.074,-5.282L-44.132,-5.211L-44.892,-5.18L-45.64,-5.16L-46.67,-4.994L-47.674,-4.706L-48.352,-4.418L-49.061,-3.959L-49.444,-3.614L-49.885,-3.114L-50.173,-2.655L-50.442,-1.996L-50.55,-1.44L-50.531,-0.827L-50.46,-0.5L-50.269,-0.084L-49.885,0.446L-49.508,0.759L-49.463,0.888L-49.547,1.021L-50.038,1.373L-51.004,2.267L-51.477,2.868L-51.975,3.693L-52.283,4.396L-52.487,5.272L-52.506,5.924L-52.378,6.8L-52.205,7.362L-51.886,7.944L-51.854,8.111L-51.924,8.232L-52.807,8.845L-53.573,9.389L-55.293,10.73L-56.507,11.824L-56.808,12.093L-58.137,13.435L-58.482,13.819L-58.726,14.067L-59.781,15.333L-61.103,17.079L-62.254,18.804L-62.887,19.853L-63.922,21.732L-64.786,23.567L-65.668,25.74L-66.147,27.159L-66.742,29.147L-67.144,30.846L-67.509,32.79L-67.789,34.88L-67.847,35.764L-67.892,36.05L-67.936,37.143L-67.943,38.064L-67.962,38.294L-67.982,39.885L-67.847,41.976L-67.464,44.852L-66.972,46.911L-66.44,49.008L-66.352,49.512L-66.108,50.899L-66.057,51.666L-66.006,52.102L-65.93,53.654L-65.968,55.976L-66.102,57.279L-66.153,57.477L-66.236,58.277L-66.422,59.287L-67.029,61.709L-67.54,64.279L-67.655,65.372L-67.655,66.618L-67.527,67.57L-67.239,68.369L-66.857,69.028L-66.53,69.367L-66.089,69.712L-65.681,69.922L-65.22,70.057L-64.644,70.069L-64.179,69.98L-63.711,69.788L-63.219,69.462L-62.759,69.021L-62.433,68.561L-62.203,68.165L-61.973,67.487L-61.838,66.809L-61.794,66.126L-61.826,64.815L-62.018,63.512L-62.772,60.169L-63.06,58.277L-63.206,56.896L-63.226,56.397L-63.181,56.326L-63.047,56.428L-62.528,57.215L-62.273,57.631L-60.835,59.65L-60.241,60.411L-59.933,60.814L-58.515,62.469L-57.581,63.486L-56.367,64.687L-55.242,65.704L-53.356,67.142L-51.918,68.101L-49.565,69.5L-47.437,70.517L-45.928,71.137L-45.558,71.309L-45.493,71.482L-45.678,72.793L-46.229,75.643L-46.97,79.242L-47.405,81.901L-47.551,83.347L-47.551,84.138L-47.469,84.618L-47.276,85.29L-46.989,85.883L-46.567,86.452L-46.075,86.875L-45.634,87.123L-45.052,87.316L-44.452,87.406L-43.857,87.353L-43.288,87.182L-42.892,86.951L-42.47,86.567L-42.067,86.069L-41.741,85.347L-41.568,84.587L-41.524,83.87L-41.562,82.349L-41.716,81.339L-41.889,80.221L-43.077,74.321L-43.269,73.087L-43.333,72.69L-43.359,72.179L-43.327,72.089L-43.244,72.026L-41.601,72.454L-39.024,72.984L-36.512,73.291L-35.976,73.31L-34.997,73.387L-32.045,73.407L-30.165,73.252L-27.864,72.952L-25.722,72.531L-24.291,72.167L-22.496,71.648L-20.692,71.017L-18.78,70.19L-17.113,69.347L-15.501,68.388L-13.68,67.18L-12.242,66.107L-11.245,65.288L-10.017,64.196L-9.507,63.728L-7.773,61.965L-7.127,61.235L-5.894,59.708L-4.673,57.994L-4.225,57.227L-4.098,57.08L-4.047,57.08L-4.001,57.158L-3.9,58.09L-2.832,61.855L-2.353,63.715L-2.077,65.301L-1.925,65.787L-1.797,65.915L-1.618,65.915L-1.508,65.806L-1.292,65.147L-0.837,63.78L-0.442,62.38L-0.351,62.085L-0.071,60.783L0.122,59.669L0.345,57.682L0.409,57.489L0.365,57.279L0.397,56.595L0.345,55.84L0.358,55.674L0.306,55.112L0.217,53.93L0.21,51.372L0.223,51.156L0.217,50.759L0.313,49.468L0.562,47.927L0.67,47.193L0.869,46.028L0.99,45.23L1.189,43.376L1.36,40.097L1.38,37.68L1.24,35.443L1.03,33.526Z" style="fill:rgb(30,28,26);fill-rule:nonzero;"/>
    </g>
    <g transform="matrix(4.166667,0,0,4.166667,279.579583,484.075833)">
        <path d="M0,9.85L0,10.118L-0.089,10.623L-0.262,11.108L-0.53,11.525L-0.888,11.793L-1.322,11.959L-1.778,11.928L-2.059,11.812L-2.402,11.505L-2.595,11.211L-2.786,10.681L-2.87,10.207L-2.876,9.275L-2.761,8.45L-2.657,7.964L-2.556,7.3L-2.039,5.14L-1.586,3.503L-1.158,1.476L-1.087,1.394L-0.984,1.77L-0.811,3.202L-0.504,5.523L-0.331,6.538L0,9.044L0.019,9.697L0,9.85ZM1.1,7.702L0.532,4.89L0.129,2.998L0.025,2.359L-0.255,0.683L-0.312,0.134L-0.46,-0.965L-0.555,-2.212L-0.613,-3.018L-0.683,-3.421L-0.761,-3.541L-0.868,-3.567L-0.984,-3.509L-1.06,-3.369L-1.336,-1.745L-1.891,0.773L-2.595,3.176L-2.927,4.365L-3.17,5.165L-3.612,6.813L-3.987,8.66L-4.103,9.755L-4.084,9.926L-4.103,10.156L-4.052,10.95L-3.919,11.499L-3.706,11.973L-3.363,12.503L-2.919,12.906L-2.487,13.175L-1.987,13.327L-1.303,13.417L-1.053,13.398L-0.613,13.288L-0.177,13.078L0.16,12.836L0.486,12.464L0.775,12.061L1.043,11.48L1.203,10.911L1.267,10.081L1.241,9.051L1.1,7.702Z" style="fill:rgb(30,28,26);fill-rule:nonzero;"/>
    </g>
    <g transform="matrix(4.166667,0,0,4.166667,41.6325,468.559167)">
        <path d="M0,11.967L-0.183,13.008L-0.352,13.465L-0.617,13.929L-0.956,14.28L-1.341,14.517L-1.703,14.612L-2.124,14.586L-2.478,14.477L-2.829,14.254L-3.162,13.904L-3.397,13.495L-3.588,12.905L-3.664,12.512L-3.673,11.834L-3.486,10.483L-3.029,8.37L-2.284,5.498L-1.413,1.549L-1.372,1.488L-1.309,1.662L-1.145,3.241L-0.894,4.682L-0.828,5.183L-0.368,7.637L-0.222,8.754L-0.123,9.41L0.004,10.738L0,11.967ZM1.131,8.896L0.952,8.013L0.677,6.581L0.511,5.845L0.473,5.641L0.09,4.063L-0.735,0.144L-1.138,-2.311L-1.336,-3.909L-1.393,-4.112L-1.502,-4.157L-1.598,-4.133L-1.7,-3.96L-1.745,-3.434L-2.142,-0.931L-2.73,1.857L-2.909,2.752L-3.075,3.468L-3.311,4.588L-3.669,5.999L-4.129,7.994L-4.57,10.18L-4.762,11.657L-4.775,12.405L-4.692,13.319L-4.532,13.931L-4.34,14.449L-3.995,15.006L-3.656,15.364L-3.273,15.671L-2.685,15.959L-2.071,16.105L-1.343,16.124L-1.029,16.074L-0.525,15.901L0.109,15.536L0.224,15.421L0.447,15.191L0.793,14.738L1.004,14.335L1.253,13.612L1.399,12.826L1.438,11.848L1.381,10.678L1.131,8.896Z" style="fill:rgb(30,28,26);fill-rule:nonzero;"/>
    </g>
    <g transform="matrix(4.166667,0,0,4.166667,143.64,453.070417)">
        <path d="M0,0.639L0.391,0.703L0.53,0.634L0.627,0.377L0.69,0.032L0.608,-0.127L0.41,-0.198L0.057,-0.185L-0.536,-0.07L-0.792,0.045L-0.958,0.23L-0.984,0.397L-0.921,0.582L-0.696,0.787L-0.492,0.837L0,0.639Z" style="fill:rgb(30,28,26);fill-rule:nonzero;"/>
    </g>
    <g transform="matrix(4.166667,0,0,4.166667,114.6375,391.762083)">
        <path d="M0,-1.414L0.115,-1.35L0.204,-1.394L0.282,-1.56L0.244,-1.802L0.012,-2.314L-0.978,-4.156L-1.125,-4.489L-1.093,-4.692L-0.96,-4.839L-0.295,-5.248L-0.173,-5.39L-0.16,-5.561L-0.269,-5.683L-0.487,-5.664L-1.265,-5.229L-1.445,-5.21L-1.612,-5.376L-1.886,-5.881L-2.749,-7.318L-3.631,-8.585L-3.9,-8.905L-4.021,-8.93L-4.123,-8.866L-4.149,-8.726L-4.084,-8.54L-3.624,-7.818L-3.356,-7.389L-2.538,-6.112L-2.078,-5.287L-1.975,-4.973L-2.021,-4.826L-2.327,-4.596L-4.666,-3.229L-7.652,-1.489L-8.674,-0.946L-9.953,-0.205L-10.158,-0.173L-10.42,-0.41L-10.548,-0.397L-10.618,-0.268L-10.598,-0.058L-10.611,0.108L-10.739,0.262L-10.854,0.447L-10.836,0.581L-10.732,0.633L-10.49,0.568L-10.368,0.581L-10.247,0.696L-9.8,1.699L-9.385,2.525L-8.713,3.95L-8.061,5.618L-7.83,6.315L-7.85,6.488L-7.959,6.564L-9.908,6.891L-11.691,7.076L-12.005,7.166L-12.069,7.293L-12.024,7.428L-11.89,7.505L-11.596,7.516L-10.177,7.363L-7.895,7.024L-7.678,6.948L-7.594,6.679L-7.409,6.456L-7.409,6.289L-8.08,4.347L-8.496,3.349L-9.02,2.193L-9.876,0.485L-9.896,0.281L-9.787,0.165L-6.405,-1.739L-3.894,-3.19L-3.676,-3.273L-3.433,-3.439L-2.933,-3.714L-2.251,-4.13L-1.745,-4.36L-1.598,-4.34L-1.349,-3.982L-0.249,-1.809L0,-1.414Z" style="fill:rgb(30,28,26);fill-rule:nonzero;"/>
    </g>
    <g transform="matrix(4.166667,0,0,4.166667,159.034167,406.54125)">
        <path d="M0,-3.132L-0.152,-3.132L-0.952,-2.698L-2.966,-1.719L-4.979,-0.837L-5.746,-0.543L-6.15,-0.37L-6.219,-0.23L-6.187,-0.05L-6.065,0L-5.913,-0.032L-4.634,-0.511L-2.908,-1.277L-0.473,-2.467L0.038,-2.775L0.116,-2.888L0.097,-3.024L0,-3.132Z" style="fill:rgb(30,28,26);fill-rule:nonzero;"/>
    </g>
    <g transform="matrix(4.166667,0,0,4.166667,160.951667,214.003333)">
        <path d="M0,0.371L0.308,0.793L0.544,1.235L0.697,1.438L0.838,1.47L0.87,1.38L0.756,0.211L0.633,-0.199L0.441,-0.499L0.18,-0.767L-0.186,-0.991L-0.677,-1.099L-1.119,-1.079L-1.463,-0.991L-1.898,-0.78L-2.179,-0.549L-2.25,-0.409L-2.217,-0.268L-2.115,-0.243L-1.655,-0.312L-1.271,-0.293L-0.849,-0.185L-0.338,0.083L0,0.371Z" style="fill:rgb(30,28,26);fill-rule:nonzero;"/>
    </g>
    <g transform="matrix(4.166667,0,0,4.166667,229.852917,518.140833)">
        <path d="M0,6.033C-1.556,6.033 -2.757,4.809 -2.757,3.016C-2.757,1.234 -1.556,0 0,0C1.535,0 2.759,1.234 2.759,3.016C2.759,4.809 1.535,6.033 0,6.033M0,-0.858C-2.137,-0.858 -3.875,0.879 -3.875,3.016C-3.875,5.152 -2.137,6.891 0,6.891C2.135,6.891 3.875,5.152 3.875,3.016C3.875,0.879 2.135,-0.858 0,-0.858" style="fill:rgb(30,28,26);fill-rule:nonzero;"/>
    </g>
    <g transform="matrix(4.166667,0,0,4.166667,230.345,532.226667)">
        <path d="M0,-0.761L-0.751,-0.761L-0.751,-1.824L-0.094,-1.824C0.269,-1.824 0.741,-1.771 0.741,-1.33C0.741,-0.836 0.442,-0.761 0,-0.761M1.666,-1.245C1.666,-2.21 1.043,-2.533 -0.054,-2.533L-1.674,-2.533L-1.674,1.772L-0.751,1.772L-0.751,-0.053L-0.31,-0.053L0.72,1.772L1.666,1.772L0.526,-0.096C1.192,-0.15 1.666,-0.462 1.666,-1.245" style="fill:rgb(30,28,26);fill-rule:nonzero;"/>
    </g>
    <g transform="matrix(4.166667,0,0,4.166667,460.912083,144.257917)">
        <path d="M0,12.863C0,7.482 -3.817,5.27 -7.185,3.318C-9.748,1.831 -12.169,0.428 -12.169,-2.162C-12.169,-5.129 -9.026,-6.457 -5.912,-6.457C-3.549,-6.457 -0.942,-5.811 1.32,-4.73C1.459,-5.213 2.712,-9.504 2.847,-9.963C0.32,-10.926 -2.665,-11.435 -6.065,-11.435C-12.071,-11.435 -19.084,-8.729 -19.084,-1.106C-19.084,3.858 -15.615,5.766 -12.259,7.611C-9.512,9.119 -6.917,10.546 -6.917,13.567C-6.917,17.54 -10.47,19.319 -13.991,19.319C-17.111,19.319 -20.035,18.147 -22.562,17.008C-22.716,17.512 -24.085,21.96 -24.229,22.425C-20.728,23.655 -17.417,24.298 -14.399,24.298C-10.07,24.298 0,23.185 0,12.863" style="fill:rgb(30,28,26);fill-rule:nonzero;"/>
    </g>
    <g transform="matrix(4.166667,0,0,4.166667,487.670833,128.378333)">
        <path d="M0,26.957L2.561,14.923L14.35,14.923L11.79,26.957L16.887,26.957L22.622,0L17.525,0L15.165,11.092L3.376,11.092L5.736,0L0.639,0L-5.097,26.957L0,26.957Z" style="fill:rgb(30,28,26);fill-rule:nonzero;"/>
    </g>
    <g transform="matrix(4.166667,0,0,4.166667,489.500833,241.730417)">
        <path d="M0,-27.452L5.602,-27.452L3.242,-16.36L14.526,-16.36L16.886,-27.452L22.488,-27.452L16.647,-0L11.046,-0L13.605,-12.035L2.322,-12.035L-0.239,-0L-5.841,-0L0,-27.452ZM-0.039,0.247L2.521,-11.787L13.3,-11.787L10.74,0.247L16.847,0.247L22.793,-27.699L16.686,-27.699L14.325,-16.607L3.547,-16.607L5.908,-27.699L-0.2,-27.699L-6.146,0.247L-0.039,0.247Z" style="fill:rgb(30,28,26);fill-rule:nonzero;"/>
    </g>
    <g transform="matrix(4.166667,0,0,4.166667,490.33375,240.701667)">
        <path d="M0,-26.958L5.097,-26.958L2.737,-15.866L14.526,-15.866L16.886,-26.958L21.982,-26.958L16.247,-0.001L11.151,-0.001L13.711,-12.035L1.922,-12.035L-0.639,-0.001L-5.736,-0.001L0,-26.958ZM-0.439,0.247L2.122,-11.788L13.405,-11.788L10.846,0.247L16.448,0.247L22.288,-27.205L16.686,-27.205L14.326,-16.113L3.042,-16.113L5.402,-27.205L-0.2,-27.205L-6.041,0.247L-0.439,0.247Z" style="fill:rgb(30,28,26);fill-rule:nonzero;"/>
    </g>
    <g transform="matrix(4.166667,0,0,4.166667,647.122083,128.378333)">
        <path d="M0,26.957L0.849,23.124L-10.191,23.124L-8.446,14.923L1.357,14.923L2.136,11.092L-7.631,11.092L-6.086,3.831L4.836,3.831L5.579,0L-10.366,0L-16.143,26.957L0,26.957Z" style="fill:rgb(30,28,26);fill-rule:nonzero;"/>
    </g>
    <g transform="matrix(4.166667,0,0,4.166667,603.098333,241.730417)">
        <path d="M0,-27.452L16.444,-27.452L15.605,-23.127L4.679,-23.127L3.24,-16.36L13.004,-16.36L12.124,-12.035L2.319,-12.035L0.68,-4.328L11.723,-4.328L10.764,-0L-5.883,-0L0,-27.452ZM10.962,0.247L12.031,-4.575L0.985,-4.575L2.519,-11.787L12.326,-11.787L13.306,-16.607L3.545,-16.607L4.879,-22.88L15.809,-22.88L16.744,-27.699L-0.2,-27.699L-6.189,0.247L10.962,0.247Z" style="fill:rgb(30,28,26);fill-rule:nonzero;"/>
    </g>
    <g transform="matrix(4.166667,0,0,4.166667,603.930417,240.701667)">
        <path d="M0,-26.958L15.945,-26.958L15.202,-23.127L4.28,-23.127L2.735,-15.866L12.502,-15.866L11.723,-12.035L1.92,-12.035L0.175,-3.834L11.215,-3.834L10.366,-0.001L-5.777,-0.001L0,-26.958ZM10.564,0.247L11.523,-4.081L0.48,-4.081L2.12,-11.788L11.925,-11.788L12.804,-16.113L3.04,-16.113L4.479,-22.88L15.406,-22.88L16.244,-27.205L-0.2,-27.205L-6.083,0.247L10.564,0.247Z" style="fill:rgb(30,28,26);fill-rule:nonzero;"/>
    </g>
    <g transform="matrix(4.166667,0,0,4.166667,713.50625,191.867083)">
        <path d="M0,-3.519L-2.345,-3.519L-0.681,-11.407L1.839,-11.407C4.09,-11.407 6.891,-11.407 6.891,-8.287C6.891,-3.984 2.072,-3.519 0,-3.519M4.161,11.72L9.53,11.72L6.925,0.974C6.68,-0.04 6.028,-1.267 4.311,-1.354L4.076,-1.366L4.076,-1.924L4.319,-1.928C9.13,-2.011 12.239,-4.785 12.239,-8.995C12.239,-11.778 11.128,-13.56 8.844,-14.444C6.791,-15.239 4.11,-15.239 1.541,-15.238L-5.041,-15.238L-10.778,11.72L-5.682,11.72L-3.242,0.314L-0.92,0.314C1.866,0.314 2.172,1.951 2.595,4.216C2.669,4.615 2.746,5.027 2.842,5.462L4.161,11.72Z" style="fill:rgb(30,28,26);fill-rule:nonzero;"/>
    </g>
    <g transform="matrix(4.166667,0,0,4.166667,713.50625,146.399167)">
        <path d="M0,6.899L-1.736,6.899L-0.28,0L1.839,0C4.182,0 6.396,0 6.396,2.626C6.396,6.483 1.923,6.899 0,6.899M1.839,-0.247L-0.481,-0.247L-2.04,7.146L0,7.146C3.002,7.146 6.644,6.243 6.644,2.626C6.644,-0.247 4.122,-0.247 1.839,-0.247" style="fill:rgb(30,28,26);fill-rule:nonzero;"/>
    </g>
    <g transform="matrix(4.166667,0,0,4.166667,709.67125,174.868333)">
        <path d="M0,4.641L-2.122,4.641L-4.561,16.046L-10.163,16.046L-4.321,-11.405L2.283,-11.405C7.446,-11.405 13.406,-11.482 13.406,-4.915C13.406,-0.197 9.804,2.32 5.244,2.399L5.244,2.478C6.764,2.555 7.725,3.5 8.085,4.995L10.765,16.046L4.881,16.046L3.521,9.595C2.881,6.686 3.04,4.641 0,4.641M3.279,9.646L4.681,16.294L11.079,16.294L8.326,4.937C8.049,3.788 7.443,2.974 6.576,2.554C10.919,2.013 13.653,-0.814 13.653,-4.915C13.653,-7.926 12.44,-9.859 9.943,-10.825C7.804,-11.653 5.08,-11.651 2.461,-11.652L-4.521,-11.652L-10.468,16.294L-4.362,16.294L-1.922,4.888L0,4.888C2.376,4.888 2.608,6.131 3.029,8.386C3.104,8.789 3.182,9.205 3.279,9.646" style="fill:rgb(30,28,26);fill-rule:nonzero;"/>
    </g>
    <g transform="matrix(4.166667,0,0,4.166667,709.671667,175.580833)">
        <path d="M0,4.223L-2.322,4.223L-4.761,15.628L-9.858,15.628L-4.121,-11.329L2.461,-11.329C5.031,-11.33 7.711,-11.33 9.765,-10.535C12.049,-9.652 13.159,-7.869 13.159,-5.086C13.159,-0.877 10.05,1.897 5.239,1.981L4.996,1.985L4.996,2.542L5.231,2.554C6.949,2.641 7.601,3.868 7.845,4.882L10.451,15.628L5.081,15.628L3.762,9.371C3.666,8.936 3.589,8.523 3.515,8.124C3.092,5.859 2.786,4.223 0,4.223M4.881,15.876L10.765,15.876L8.085,4.824C7.725,3.329 6.764,2.385 5.244,2.307L5.244,2.228C9.804,2.149 13.406,-0.368 13.406,-5.086C13.406,-11.653 7.446,-11.576 2.283,-11.576L-4.321,-11.576L-10.163,15.876L-4.561,15.876L-2.122,4.47L0,4.47C3.04,4.47 2.881,6.515 3.521,9.424L4.881,15.876Z" style="fill:rgb(30,28,26);fill-rule:nonzero;"/>
    </g>
    <g transform="matrix(4.166667,0,0,4.166667,713.50625,145.370417)">
        <path d="M0,7.393L-2.04,7.393L-0.481,0L1.839,0C4.122,0 6.644,0 6.644,2.872C6.644,6.49 3.002,7.393 0,7.393M6.891,2.872C6.891,-0.247 4.09,-0.247 1.839,-0.247L-0.681,-0.247L-2.345,7.64L0,7.64C2.072,7.64 6.891,7.176 6.891,2.872" style="fill:rgb(30,28,26);fill-rule:nonzero;"/>
    </g>
    <g transform="matrix(4.166667,0,0,4.166667,814.469167,128.378333)">
        <path d="M0,26.957L9.844,5.011L10.327,5.011L10.33,5.255L10.606,26.957L17.209,26.957L30.297,0L25.043,0L15.163,21.04L14.679,21.04L14.558,0L7.446,0L-1.839,21.04L-2.317,21.04L-3.158,0L-8.259,0L-6.532,26.957L0,26.957Z" style="fill:rgb(30,28,26);fill-rule:nonzero;"/>
    </g>
    <g transform="matrix(4.166667,0,0,4.166667,802.29875,241.730417)">
        <path d="M0,-27.452L0.841,-6.411L0.92,-6.411L10.206,-27.452L17.725,-27.452L17.845,-6.411L17.927,-6.411L27.807,-27.452L33.613,-27.452L20.285,-0L13.283,-0L13.004,-21.947L12.925,-21.947L3.081,-0L-3.843,-0L-5.602,-27.452L0,-27.452ZM-4.074,0.247L3.241,0.247L12.769,-20.996L13.036,0.003L13.039,0.247L20.439,0.247L34.007,-27.699L27.65,-27.699L18.087,-7.334L17.971,-27.699L10.045,-27.699L1.052,-7.321L0.237,-27.699L-5.865,-27.699L-4.089,0.015L-4.074,0.247Z" style="fill:rgb(30,28,26);fill-rule:nonzero;"/>
    </g>
    <g transform="matrix(4.166667,0,0,4.166667,801.309167,240.701667)">
        <path d="M0,-26.958L0.841,-5.917L1.319,-5.917L10.605,-26.958L17.717,-26.958L17.837,-5.917L18.321,-5.917L28.201,-26.958L33.455,-26.958L20.367,-0.001L13.764,-0.001L13.489,-21.703L13.485,-21.947L13.002,-21.947L3.158,-0.001L-3.373,-0.001L-5.101,-26.958L0,-26.958ZM3.318,0.247L13.162,-21.7L13.241,-21.7L13.52,0.247L20.522,0.247L33.85,-27.205L28.044,-27.205L18.164,-6.164L18.083,-6.164L17.963,-27.205L10.444,-27.205L1.158,-6.164L1.079,-6.164L0.238,-27.205L-5.364,-27.205L-3.605,0.247L3.318,0.247Z" style="fill:rgb(30,28,26);fill-rule:nonzero;"/>
    </g>
    <g transform="matrix(0.87311,-4.074161,-4.074161,-0.87311,1009.815248,197.20328)">
        <path d="M-13.005,10.869L14.564,10.869L13.445,16.09L-14.124,16.088L-13.005,10.869Z" style="fill:rgb(30,28,26);fill-rule:nonzero;"/>
    </g>
    <g transform="matrix(4.166667,0,0,4.166667,955.17,241.730417)">
        <path d="M0,-27.452L5.844,-27.452L-0.039,-0L-5.881,-0L0,-27.452ZM0.161,0.247L6.15,-27.699L-0.2,-27.699L-6.187,0.247L0.161,0.247Z" style="fill:rgb(30,28,26);fill-rule:nonzero;"/>
    </g>
    <g transform="matrix(4.166667,0,0,4.166667,956.0025,240.701667)">
        <path d="M0,-26.958L5.339,-26.958L-0.438,-0.001L-5.775,-0.001L0,-26.958ZM-0.238,0.247L5.645,-27.205L-0.2,-27.205L-6.081,0.247L-0.238,0.247Z" style="fill:rgb(30,28,26);fill-rule:nonzero;"/>
    </g>
    <g transform="matrix(4.166667,0,0,4.166667,997.539583,128.378333)">
        <path d="M0,26.957L4.441,5.916L4.911,5.916L10.751,26.957L17.567,26.957L23.502,0L18.726,0L14.163,20.843L13.698,20.843L7.736,0L1.039,0L-4.854,26.957L0,26.957Z" style="fill:rgb(30,28,26);fill-rule:nonzero;"/>
    </g>
    <g transform="matrix(4.166667,0,0,4.166667,1001.03875,241.730417)">
        <path d="M0,-27.452L7.082,-27.452L13.045,-6.608L13.124,-6.608L17.687,-27.452L22.97,-27.452L16.926,-0L9.724,-0L3.883,-21.041L3.802,-21.041L-0.639,-0L-6.001,-0L0,-27.452ZM-0.439,0.247L3.87,-20.166L9.536,0.247L17.125,0.247L23.277,-27.699L17.489,-27.699L13.058,-7.461L7.269,-27.699L-0.199,-27.699L-6.308,0.247L-0.439,0.247Z" style="fill:rgb(30,28,26);fill-rule:nonzero;"/>
    </g>
    <g transform="matrix(4.166667,0,0,4.166667,1001.867917,240.701667)">
        <path d="M0,-26.958L6.697,-26.958L12.659,-6.114L13.124,-6.114L17.687,-26.958L22.464,-26.958L16.528,-0.001L9.712,-0.001L3.872,-21.041L3.402,-21.041L-1.039,-0.001L-5.893,-0.001L0,-26.958ZM-0.838,0.247L3.603,-20.794L3.684,-20.794L9.525,0.247L16.727,0.247L22.771,-27.205L17.489,-27.205L12.925,-6.362L12.846,-6.362L6.883,-27.205L-0.199,-27.205L-6.2,0.247L-0.838,0.247Z" style="fill:rgb(30,28,26);fill-rule:nonzero;"/>
    </g>
    <g transform="matrix(4.166667,0,0,4.166667,1112.890833,406.217917)">
        <path d="M0,-0.762L-0.749,-0.762L-0.749,-1.824L-0.094,-1.824C0.27,-1.824 0.742,-1.77 0.742,-1.33C0.742,-0.837 0.444,-0.762 0,-0.762M1.669,-1.247C1.669,-2.212 1.045,-2.534 -0.051,-2.534L-1.671,-2.534L-1.671,1.772L-0.749,1.772L-0.749,-0.054L-0.307,-0.054L0.721,1.772L1.669,1.772L0.528,-0.097C1.193,-0.15 1.669,-0.462 1.669,-1.247" style="fill:rgb(30,28,26);fill-rule:nonzero;"/>
    </g>
    <g transform="matrix(4.166667,0,0,4.166667,1112.408333,392.12875)">
        <path d="M0,6.033C-1.556,6.033 -2.759,4.808 -2.759,3.016C-2.759,1.233 -1.556,0 0,0C1.534,0 2.759,1.233 2.759,3.016C2.759,4.808 1.534,6.033 0,6.033M0,-0.858C-2.137,-0.858 -3.875,0.879 -3.875,3.016C-3.875,5.153 -2.137,6.891 0,6.891C2.135,6.891 3.875,5.153 3.875,3.016C3.875,0.879 2.135,-0.858 0,-0.858" style="fill:rgb(30,28,26);fill-rule:nonzero;"/>
    </g>
    <g transform="matrix(4.166667,0,0,4.166667,519.19125,420.17125)">
        <path d="M0,-34.639C-0.116,-34.379 -11.703,-7.885 -11.703,-7.885L-12.219,-7.97C-12.219,-7.97 -12.358,-34.21 -12.36,-34.639L-20.944,-34.639C-21.054,-34.371 -31.934,-7.889 -31.934,-7.889L-32.452,-7.964C-32.452,-7.964 -33.429,-34.223 -33.445,-34.639L-39.664,-34.639C-39.636,-34.184 -37.62,-0.405 -37.596,0L-29.712,0C-29.601,-0.268 -18.057,-27.906 -18.057,-27.906L-17.54,-27.825C-17.54,-27.825 -17.215,-0.429 -17.21,0L-9.237,0C-9.121,-0.255 6.145,-34.034 6.417,-34.639L0,-34.639Z" style="fill:rgb(30,28,26);fill-rule:nonzero;"/>
    </g>
    <g transform="matrix(-0.815256,4.086131,4.086131,0.815256,600.602545,374.028935)">
        <path d="M-13.484,-15.901L14.008,-15.901L13.042,-11.059L-14.45,-11.059L-13.484,-15.901Z" style="fill:rgb(30,28,26);fill-rule:nonzero;"/>
    </g>
    <g transform="matrix(4.166667,0,0,4.166667,545.625833,304.939583)">
        <path d="M0,27.454L-5.441,27.454L0.036,0L5.477,0L0,27.454ZM-0.166,-0.247L-5.742,27.701L0.203,27.701L5.779,-0.247L-0.166,-0.247Z" style="fill:rgb(30,28,26);fill-rule:nonzero;"/>
    </g>
    <g transform="matrix(4.166667,0,0,4.166667,544.78125,305.967917)">
        <path d="M0,26.96L-4.937,26.96L0.442,0L5.379,0L0,26.96ZM0.239,-0.247L-5.238,27.207L0.203,27.207L5.68,-0.247L0.239,-0.247Z" style="fill:rgb(30,28,26);fill-rule:nonzero;"/>
    </g>
    <g transform="matrix(4.166667,0,0,4.166667,609.081667,418.302917)">
        <path d="M0,-26.96L-4.712,-26.96L-10.128,0L4.758,0L5.549,-3.831L-4.656,-3.831L0,-26.96Z" style="fill:rgb(30,28,26);fill-rule:nonzero;"/>
    </g>
    <g transform="matrix(4.166667,0,0,4.166667,633.465833,322.959167)">
        <path d="M0,18.804L-0.892,23.129L-16.282,23.129L-10.766,-4.324L-5.55,-4.324L-10.206,18.804L0,18.804ZM-5.249,-4.572L-10.969,-4.572L-16.584,23.376L-0.691,23.376L0.303,18.557L-9.904,18.557L-5.249,-4.572Z" style="fill:rgb(30,28,26);fill-rule:nonzero;"/>
    </g>
    <g transform="matrix(4.166667,0,0,4.166667,632.202083,321.930417)">
        <path d="M0,19.298L-0.791,23.129L-15.677,23.129L-10.26,-3.831L-5.549,-3.831L-10.205,19.298L0,19.298ZM-5.247,-4.078L-10.463,-4.078L-15.979,23.376L-0.589,23.376L0.303,19.051L-9.903,19.051L-5.247,-4.078Z" style="fill:rgb(30,28,26);fill-rule:nonzero;"/>
    </g>
    <g transform="matrix(4.166667,0,0,4.166667,667.539167,323.164167)">
        <path d="M0,18.706L4.598,-4.127L-0.115,-4.127L-5.526,22.833L9.357,22.833L10.147,19.002L-0.06,19.002L0,18.706Z" style="fill:rgb(30,28,26);fill-rule:nonzero;"/>
    </g>
    <g transform="matrix(4.166667,0,0,4.166667,711.08375,322.959167)">
        <path d="M0,18.804L-0.893,23.129L-16.279,23.129L-10.768,-4.324L-5.55,-4.324L-10.208,18.804L0,18.804ZM-5.308,-4.276L-5.248,-4.572L-10.971,-4.572L-16.521,23.081L-16.581,23.376L-0.691,23.376L0.303,18.557L-9.906,18.557L-5.308,-4.276Z" style="fill:rgb(30,28,26);fill-rule:nonzero;"/>
    </g>
    <g transform="matrix(4.166667,0,0,4.166667,709.82,321.930417)">
        <path d="M0,19.298L-0.79,23.129L-15.674,23.129L-10.262,-3.831L-5.549,-3.831L-10.147,19.002L-10.207,19.298L0,19.298ZM-5.247,-4.078L-10.465,-4.078L-15.976,23.376L-0.589,23.376L0.303,19.051L-9.905,19.051L-5.247,-4.078Z" style="fill:rgb(30,28,26);fill-rule:nonzero;"/>
    </g>
    <g transform="matrix(-0.814819,4.086219,4.086219,0.814819,797.581725,374.021017)">
        <path d="M-13.483,-15.9L14.007,-15.9L13.043,-11.061L-14.448,-11.06L-13.483,-15.9Z" style="fill:rgb(30,28,26);fill-rule:nonzero;"/>
    </g>
    <g transform="matrix(4.166667,0,0,4.166667,742.600417,304.939583)">
        <path d="M0,27.454L-5.438,27.454L0.036,0L5.475,0L0,27.454ZM-0.166,-0.247L-5.739,27.701L0.203,27.701L5.777,-0.247L-0.166,-0.247Z" style="fill:rgb(30,28,26);fill-rule:nonzero;"/>
    </g>
    <g transform="matrix(4.166667,0,0,4.166667,741.755833,305.967917)">
        <path d="M0,26.96L-4.934,26.96L0.442,0L5.377,0L0,26.96ZM0.239,-0.247L-5.235,27.207L0.203,27.207L5.678,-0.247L0.239,-0.247Z" style="fill:rgb(30,28,26);fill-rule:nonzero;"/>
    </g>
    <g transform="matrix(4.166667,0,0,4.166667,799.730833,348.16)">
        <path d="M0,6.708L6.517,-5.741L7.033,-5.741L8.739,6.708L0,6.708ZM4.913,-10.126L-10.566,16.834L-5.366,16.834L-2.052,10.539L9.379,10.539L10.275,16.834L14.981,16.834L10.335,-10.126L4.913,-10.126Z" style="fill:rgb(30,28,26);fill-rule:nonzero;"/>
    </g>
    <g transform="matrix(4.166667,0,0,4.166667,803.132917,326.296667)">
        <path d="M0,11.461L5.829,0.326L7.356,11.461L0,11.461ZM5.85,-0.247L-0.408,11.708L7.639,11.708L6,-0.247L5.85,-0.247Z" style="fill:rgb(30,28,26);fill-rule:nonzero;"/>
    </g>
    <g transform="matrix(4.166667,0,0,4.166667,841.65125,304.939583)">
        <path d="M0,27.454L-0.897,21.159L-11.963,21.159L-15.278,27.454L-21.054,27.454L-5.291,0L0.483,0L5.214,27.454L0,27.454ZM-5.434,-0.247L-21.481,27.701L-15.129,27.701L-11.814,21.406L-1.111,21.406L-0.215,27.701L5.507,27.701L0.691,-0.247L-5.434,-0.247Z" style="fill:rgb(30,28,26);fill-rule:nonzero;"/>
    </g>
    <g transform="matrix(4.166667,0,0,4.166667,801.432083,325.268333)">
        <path d="M0,11.955L6.258,-0L6.409,-0L8.048,11.955L0,11.955ZM6.109,-0.247L-0.408,12.202L8.331,12.202L6.624,-0.247L6.109,-0.247Z" style="fill:rgb(30,28,26);fill-rule:nonzero;"/>
    </g>
    <g transform="matrix(4.166667,0,0,4.166667,842.545,305.967917)">
        <path d="M0,26.96L-0.897,20.665L-12.327,20.665L-15.642,26.96L-20.841,26.96L-5.362,0L0.06,0L4.706,26.96L0,26.96ZM-5.505,-0.247L-21.268,27.207L-15.493,27.207L-12.178,20.912L-1.111,20.912L-0.214,27.207L4.999,27.207L0.268,-0.247L-5.505,-0.247Z" style="fill:rgb(30,28,26);fill-rule:nonzero;"/>
    </g>
    <g transform="matrix(4.166667,0,0,4.166667,984.832917,418.302917)">
        <path d="M0,-26.96L-10.245,-7.176L-10.697,-7.176L-12.447,-26.96L-20.626,-26.96L-26.043,0L-21.587,0L-16.82,-22.732L-16.319,-22.732L-14.233,0L-9.614,0L2.158,-22.732L2.687,-22.732L-2.228,0L2.777,0L8.23,-26.96L0,-26.96Z" style="fill:rgb(30,28,26);fill-rule:nonzero;"/>
    </g>
    <g transform="matrix(4.166667,0,0,4.166667,997.24875,304.939583)">
        <path d="M0,27.454L-5.514,27.454L-0.599,4.722L-0.672,4.722L-12.444,27.454L-17.439,27.454L-19.524,4.722L-19.599,4.722L-24.366,27.454L-29.325,27.454L-23.809,0L-15.201,0L-13.45,19.784L-13.375,19.784L-3.13,0L5.553,0L0,27.454ZM-3.28,-0.247L-13.268,19.04L-14.975,-0.247L-24.011,-0.247L-29.626,27.701L-24.166,27.701L-19.643,6.134L-17.664,27.701L-12.294,27.701L-1.18,6.242L-5.82,27.701L0.202,27.701L5.855,-0.247L-3.28,-0.247Z" style="fill:rgb(30,28,26);fill-rule:nonzero;"/>
    </g>
    <g transform="matrix(4.166667,0,0,4.166667,996.405833,305.967917)">
        <path d="M0,26.96L-5.005,26.96L-0.09,4.229L-0.619,4.229L-12.392,26.96L-17.011,26.96L-19.096,4.229L-19.597,4.229L-24.365,26.96L-28.821,26.96L-23.404,0L-15.225,0L-13.474,19.784L-13.023,19.784L-2.777,0L5.453,0L0,26.96ZM-2.928,-0.247L-13.173,19.537L-13.248,19.537L-14.999,-0.247L-23.606,-0.247L-29.122,27.207L-24.164,27.207L-19.397,4.476L-19.322,4.476L-17.236,27.207L-12.242,27.207L-0.469,4.476L-0.396,4.476L-5.312,27.207L0.202,27.207L5.755,-0.247L-2.928,-0.247Z" style="fill:rgb(30,28,26);fill-rule:nonzero;"/>
    </g>
    <g transform="matrix(4.166667,0,0,4.166667,1030.14875,386.722917)">
        <path d="M0,-11.801C0,-7.929 2.518,-6.442 4.954,-5.004C6.965,-3.816 8.865,-2.695 8.865,-0.316C8.865,2.816 6.252,4.218 3.662,4.218C1.407,4.218 -0.715,3.32 -2.55,2.433L-3.747,6.614C-1.22,7.566 1.171,8.049 3.364,8.049C6.385,8.049 8.923,7.354 10.702,6.038C12.764,4.513 13.81,2.19 13.81,-0.865C13.81,-5.064 11.038,-6.791 8.592,-8.315C6.716,-9.483 4.944,-10.587 4.944,-12.627C4.944,-14.97 7.257,-16.019 9.549,-16.019C11.26,-16.019 13.155,-15.547 14.795,-14.718L15.885,-18.734C14.06,-19.475 11.892,-19.85 9.437,-19.85C5.084,-19.85 0,-17.742 0,-11.801" style="fill:rgb(30,28,26);fill-rule:nonzero;"/>
    </g>
    <g transform="matrix(4.166667,0,0,4.166667,1092.455417,397.3675)">
        <path d="M0,-16.911C-1.53,-17.737 -3.501,-18.327 -5.405,-18.327C-7.265,-18.327 -9.762,-17.54 -9.762,-15.182C-9.762,-10.775 -0.897,-11.052 -0.897,-3.42C-0.897,3.304 -5.887,5.741 -11.59,5.741C-14.083,5.741 -16.656,5.115 -19.001,4.209L-17.66,-0.472C-15.649,0.51 -13.525,1.416 -11.292,1.416C-8.792,1.416 -6.336,0.079 -6.336,-2.871C-6.336,-7.827 -15.201,-7.04 -15.201,-14.356C-15.201,-20.136 -10.509,-22.652 -5.516,-22.652C-3.24,-22.652 -0.897,-22.339 1.227,-21.434L0,-16.911ZM1.324,-21.661C-0.604,-22.483 -2.905,-22.899 -5.516,-22.899C-10.098,-22.899 -15.448,-20.662 -15.448,-14.356C-15.448,-10.202 -12.687,-8.571 -10.251,-7.133C-8.283,-5.971 -6.583,-4.967 -6.583,-2.871C-6.583,-0.08 -8.948,1.169 -11.292,1.169C-13.551,1.169 -15.707,0.207 -17.551,-0.694L-17.816,-0.824L-19.3,4.358L-19.089,4.44C-16.428,5.467 -13.905,5.988 -11.59,5.988C-4.637,5.988 -0.65,2.559 -0.65,-3.42C-0.65,-7.894 -3.672,-9.776 -6.1,-11.289C-7.933,-12.43 -9.515,-13.416 -9.515,-15.182C-9.515,-17.469 -6.931,-18.08 -5.405,-18.08C-3.676,-18.08 -1.749,-17.575 -0.118,-16.694L0.157,-16.545L1.522,-21.577L1.324,-21.661Z" style="fill:rgb(30,28,26);fill-rule:nonzero;"/>
    </g>
    <g transform="matrix(4.166667,0,0,4.166667,1091.79625,398.874167)">
        <path d="M0,-17.634C-1.64,-18.464 -3.535,-18.936 -5.246,-18.936C-7.538,-18.936 -9.851,-17.887 -9.851,-15.543C-9.851,-13.503 -8.079,-12.4 -6.203,-11.231C-3.758,-9.708 -0.986,-7.981 -0.986,-3.782C-0.986,-0.726 -2.031,1.597 -4.094,3.122C-5.872,4.437 -8.41,5.132 -11.432,5.132C-13.625,5.132 -16.016,4.65 -18.542,3.698L-17.345,-0.483C-15.511,0.403 -13.389,1.301 -11.134,1.301C-8.544,1.301 -5.93,-0.1 -5.93,-3.233C-5.93,-5.611 -7.83,-6.733 -9.841,-7.92C-12.277,-9.358 -14.795,-10.845 -14.795,-14.717C-14.795,-20.659 -9.712,-22.767 -5.358,-22.767C-2.903,-22.767 -0.736,-22.391 1.09,-21.65L0,-17.634ZM-15.043,-14.717C-15.043,-7.401 -6.177,-8.189 -6.177,-3.233C-6.177,-0.282 -8.634,1.054 -11.134,1.054C-13.367,1.054 -15.491,0.149 -17.501,-0.834L-18.842,3.848C-16.497,4.753 -13.925,5.38 -11.432,5.38C-5.729,5.38 -0.739,2.942 -0.739,-3.782C-0.739,-11.413 -9.604,-11.137 -9.604,-15.543C-9.604,-17.901 -7.107,-18.689 -5.246,-18.689C-3.343,-18.689 -1.372,-18.099 0.158,-17.273L1.385,-21.795C-0.739,-22.701 -3.082,-23.014 -5.358,-23.014C-10.35,-23.014 -15.043,-20.497 -15.043,-14.717" style="fill:rgb(30,28,26);fill-rule:nonzero;"/>
    </g>
    <g transform="matrix(4.166667,0,0,4.166667,82.200417,303.672083)">
        <path d="M0,5.858L-0.155,5.777L-0.204,5.654L-0.227,0.205L-0.171,0.069L0.008,0L3.614,0L3.769,0.069L3.836,0.297L3.827,1.075L3.764,1.23L3.647,1.298L1.443,1.298L1.214,1.367L1.146,1.558L1.155,2.021L1.217,2.157L1.446,2.225L3.151,2.225L3.286,2.293L3.342,2.447L3.349,3.349L3.299,3.505L3.181,3.578L1.409,3.596L1.217,3.664L1.149,3.837L1.168,4.394L1.235,4.51L1.39,4.56L3.602,4.56L3.812,4.628L3.868,4.708L3.873,5.671L3.806,5.79L3.688,5.839L0,5.858Z" style="fill:rgb(30,28,26);fill-rule:nonzero;"/>
    </g>
    <g transform="matrix(4.166667,0,0,4.166667,167.449167,303.365417)">
        <path d="M0,5.857L-1.047,5.838L-1.184,5.776L-1.245,5.623L-1.259,1.503L-1.322,1.36L-1.463,1.298L-2.675,1.274L-2.803,1.188L-2.854,1.008L-2.854,0.186L-2.803,0.086L-2.593,0.019L1.595,0L1.849,0.068L1.916,0.155L1.91,1.094L1.816,1.25L1.624,1.298L0.409,1.316L0.274,1.384L0.222,1.521L0.204,5.654L0.143,5.789L0,5.857Z" style="fill:rgb(30,28,26);fill-rule:nonzero;"/>
    </g>
    <g transform="matrix(4.166667,0,0,4.166667,184.365833,303.366667)">
        <path d="M0,5.838L-0.797,5.834L-0.953,5.765L-1.014,5.6L-1.037,0.244L-1.006,0.083L-0.908,0.016L0.071,0.019L0.243,0.086L0.311,0.26L0.315,1.89L0.365,2.138L0.494,2.211L2.501,2.224L2.712,2.157L2.772,1.99L2.785,0.155L2.847,0.061L3.021,0L3.931,0L4.091,0.067L4.161,0.198L4.182,5.554L4.126,5.739L4.008,5.807L2.965,5.788L2.866,5.721L2.817,5.523L2.812,3.837L2.762,3.639L2.627,3.571L0.458,3.576L0.378,3.657L0.336,3.872L0.35,5.616L0.302,5.733L0.147,5.819L0,5.838Z" style="fill:rgb(30,28,26);fill-rule:nonzero;"/>
    </g>
    <g transform="matrix(4.166667,0,0,4.166667,117.317917,314.504583)">
        <path d="M0,0.571L0.096,0.503L0.066,0.36L-0.546,-1.289L-0.613,-1.289L-1.145,0.329L-1.201,0.488L-1.103,0.562L0,0.571ZM-3.221,3.221L-3.338,3.171L-3.368,3.109L-1.577,-2.421L-1.453,-2.601L-1.33,-2.65L0.096,-2.636L0.288,-2.568L0.399,-2.407L2.605,2.999L2.587,3.142L2.451,3.209L1.431,3.221L1.128,3.152L1.017,3.01L0.711,2.106L0.565,2.008L-1.448,2.01L-1.633,2.102L-1.917,2.998L-2.011,3.136L-2.256,3.221L-3.221,3.221Z" style="fill:rgb(30,28,26);fill-rule:nonzero;"/>
    </g>
    <g transform="matrix(4.166667,0,0,4.166667,143.204583,316.957083)">
        <path d="M0,-0.648L0.235,-0.735L0.433,-0.901L0.531,-1.088L0.569,-1.397L0.47,-1.674L0.217,-1.878L-0.149,-1.964L-1.093,-1.977L-1.235,-1.91L-1.285,-1.768L-1.279,-0.816L-1.23,-0.698L-1.056,-0.629L-0.111,-0.629L0,-0.648ZM1,2.595L0.828,2.527L-0.346,0.847L-0.519,0.716L-1.198,0.729L-1.248,0.785L-1.279,0.928L-1.266,2.342L-1.309,2.496L-1.483,2.576L-2.464,2.576L-2.601,2.508L-2.662,2.361L-2.682,-3.018L-2.609,-3.19L-2.454,-3.24L0.315,-3.243L0.84,-3.157L1.216,-3.008L1.563,-2.767L1.859,-2.422L2.063,-1.977L2.132,-1.631L2.088,-1.081L2.008,-0.76L1.822,-0.401L1.507,-0.011L1.161,0.266L1.137,0.371L2.422,2.428L2.397,2.527L2.261,2.576L1,2.595Z" style="fill:rgb(30,28,26);fill-rule:nonzero;"/>
    </g>
    <g transform="matrix(4.166667,0,0,4.166667,130.616667,272.944167)">
        <path d="M0,5.764L-0.154,5.696L-0.204,5.541L-0.225,0.214L-0.157,0.06L-0.04,0.01L0.889,0L1.085,0.068L1.148,0.184L1.155,1.902L1.218,2.1L1.352,2.168L3.299,2.168L3.454,2.119L3.527,1.989L3.526,0.29L3.545,0.118L3.632,0.031L3.773,0L4.719,0L4.911,0.068L4.972,0.29L4.986,5.504L4.917,5.696L4.727,5.764L3.722,5.756L3.587,5.694L3.537,5.551L3.527,3.742L3.454,3.626L3.225,3.576L1.39,3.576L1.254,3.626L1.186,3.78L1.186,5.504L1.118,5.696L0.89,5.764L0,5.764Z" style="fill:rgb(30,28,26);fill-rule:nonzero;"/>
    </g>
    <g transform="matrix(4.166667,0,0,4.166667,117.875,273.021667)">
        <path d="M0,5.763L-1.019,5.763L-1.173,5.696L-1.222,5.577L-1.236,1.47L-1.299,1.31L-1.51,1.242L-2.798,1.248L-2.916,1.161L-2.965,0.927L-2.965,0.24L-2.897,0.086L-2.743,0.018L1.754,0L1.922,0.049L1.995,0.209L1.989,1.155L1.836,1.266L1.594,1.297L0.376,1.279L0.259,1.329L0.203,1.421L0.198,5.565L0.155,5.677L0,5.763Z" style="fill:rgb(30,28,26);fill-rule:nonzero;"/>
    </g>
    <g transform="matrix(4.166667,0,0,4.166667,174.629167,272.926667)">
        <path d="M0,5.735L-3.484,5.75L-3.674,5.681L-3.737,5.495L-3.752,0.194L-3.696,0.058L-3.523,-0.01L-0.035,-0.015L0.174,0.054L0.241,0.188L0.23,1.068L0.171,1.199L0.024,1.273L-2.074,1.283L-2.266,1.351L-2.315,1.449L-2.328,1.851L-2.273,2.055L-2.179,2.123L-1.982,2.154L-0.389,2.135L-0.216,2.204L-0.154,2.351L-0.154,3.312L-0.234,3.442L-0.406,3.504L-2.092,3.506L-2.248,3.574L-2.296,3.729L-2.285,4.217L-2.198,4.328L-2.092,4.359L0.131,4.359L0.303,4.427L0.354,4.563L0.359,5.599L0.24,5.704L0,5.735Z" style="fill:rgb(30,28,26);fill-rule:nonzero;"/>
    </g>
    <g transform="matrix(4.166667,0,0,4.166667,90.617083,242.592083)">
        <path d="M0,6.209L-0.63,6.179L-1.223,6.048L-1.643,5.881L-2.23,5.511L-2.619,5.14L-2.935,4.665L-3.176,4.054L-3.293,3.484L-3.318,2.947L-3.231,2.367L-3.047,1.805L-2.804,1.348L-2.508,0.958L-2.064,0.568L-1.625,0.309L-1.013,0.106L-0.538,0.019L-0.056,0L0.754,0.087L1.445,0.29L1.698,0.439L1.786,0.562L1.823,0.707L1.823,1.738L1.749,1.86L1.643,1.885L0.927,1.532L0.297,1.391L-0.167,1.373L-0.63,1.44L-1.032,1.626L-1.322,1.829L-1.582,2.138L-1.749,2.503L-1.854,2.947L-1.841,3.38L-1.73,3.807L-1.49,4.201L-1.18,4.491L-0.827,4.696L-0.346,4.844L0.204,4.875L0.723,4.788L1.144,4.603L1.551,4.344L1.686,4.257L1.767,4.275L1.823,4.385L1.835,5.356L1.767,5.574L1.57,5.77L1.149,5.974L0.482,6.154L0,6.209Z" style="fill:rgb(30,28,26);fill-rule:nonzero;"/>
    </g>
    <g transform="matrix(4.166667,0,0,4.166667,143.902083,242.47625)">
        <path d="M0,5.792L-1.502,5.786L-1.618,5.736L-1.712,5.583L-3.417,0.436L-3.448,0.177L-3.386,0.096L-3.095,0.024L-2.299,0.046L-2.126,0.096L-2.014,0.307L-0.859,4.106L-0.773,4.204L-0.661,4.204L-0.618,4.119L0.549,0.386L0.692,0.115L0.901,0L1.722,0.009L1.971,0.077L2.013,0.177L1.952,0.474L0.21,5.686L0.11,5.761L0,5.792Z" style="fill:rgb(30,28,26);fill-rule:nonzero;"/>
    </g>
    <g transform="matrix(4.166667,0,0,4.166667,157.9525,242.283333)">
        <path d="M0,5.801L-0.136,5.751L-0.263,5.587L-0.259,0.242L-0.209,0.124L-0.11,0.05L0.055,0.019L3.54,0L3.732,0.069L3.78,0.186L3.778,1.036L3.714,1.248L3.536,1.32L1.354,1.328L1.255,1.397L1.211,1.539L1.211,2.046L1.255,2.193L1.447,2.262L3.169,2.275L3.379,2.343L3.447,2.498L3.454,3.435L3.354,3.51L3.187,3.541L1.404,3.541L1.267,3.59L1.194,3.701L1.204,4.262L1.274,4.437L1.408,4.486L3.695,4.501L3.824,4.574L3.874,4.729L3.874,5.598L3.805,5.733L3.671,5.782L0,5.801Z" style="fill:rgb(30,28,26);fill-rule:nonzero;"/>
    </g>
    <g transform="matrix(4.166667,0,0,4.166667,115.790417,247.53375)">
        <path d="M0,3.503L0.457,3.361L0.735,3.176L1.026,2.843L1.21,2.459L1.316,1.984L1.31,1.49L1.193,1.008L0.932,0.588L0.581,0.254L0.204,0.05L-0.259,-0.036L-0.63,-0.018L-1.056,0.106L-1.421,0.327L-1.712,0.643L-1.934,1.039L-2.038,1.52L-2.02,2.095L-1.896,2.496L-1.656,2.916L-1.34,3.194L-1.019,3.38L-0.537,3.51L-0.092,3.523L0,3.503ZM-0.204,4.819L-0.853,4.8L-1.334,4.714L-1.846,4.491L-2.248,4.233L-2.693,3.824L-3.064,3.274L-3.305,2.7L-3.41,2.131L-3.41,1.317L-3.268,0.724L-3.064,0.235L-2.657,-0.34L-2.212,-0.747L-1.816,-0.988L-1.353,-1.174L-0.594,-1.316L0.13,-1.296L0.723,-1.155L1.365,-0.877L1.915,-0.431L2.249,-0.013L2.416,0.296L2.619,0.853L2.724,1.446L2.724,2.04L2.619,2.676L2.416,3.2L2.082,3.732L1.767,4.066L1.365,4.344L0.865,4.584L0.29,4.751L-0.204,4.819Z" style="fill:rgb(30,28,26);fill-rule:nonzero;"/>
    </g>
    <g transform="matrix(4.166667,0,0,4.166667,191.234167,255.033333)">
        <path d="M0,-0.391L0.309,-0.477L0.545,-0.656L0.674,-0.873L0.724,-1.226L0.637,-1.479L0.489,-1.638L0.259,-1.75L-1.028,-1.752L-1.165,-1.685L-1.215,-1.568L-1.204,-0.632L-1.155,-0.458L-1.018,-0.391L0,-0.391ZM2.15,2.686L0.968,2.674L0.776,2.6L-0.049,1.196L-0.209,0.993L-0.427,0.925L-0.963,0.925L-1.118,0.987L-1.18,1.124L-1.186,2.5L-1.252,2.618L-1.37,2.667L-2.279,2.667L-2.471,2.6L-2.526,2.476L-2.522,-2.961L-2.425,-3.047L-2.221,-3.077L0.259,-3.077L0.922,-2.998L1.236,-2.899L1.601,-2.677L1.879,-2.387L2.072,-2.047L2.211,-1.552L2.256,-1.176L2.23,-0.743L2.083,-0.322L1.897,-0.014L1.644,0.246L1.273,0.523L1.248,0.641L2.287,2.383L2.342,2.575L2.275,2.656L2.15,2.686Z" style="fill:rgb(30,28,26);fill-rule:nonzero;"/>
    </g>
</svg>
