<?xml version="1.0" encoding="UTF-8" standalone="no"?>
<!DOCTYPE svg PUBLIC "-//W3C//DTD SVG 1.1//EN" "http://www.w3.org/Graphics/SVG/1.1/DTD/svg11.dtd">
<svg width="100%" height="100%" viewBox="0 0 1293 115" version="1.1" xmlns="http://www.w3.org/2000/svg" xmlns:xlink="http://www.w3.org/1999/xlink" xml:space="preserve" xmlns:serif="http://www.serif.com/" style="fill-rule:evenodd;clip-rule:evenodd;stroke-linejoin:round;stroke-miterlimit:2;">
    <g transform="matrix(4.166667,0,0,4.166667,147.085833,0.784528)">
        <path d="M0,27.197C0.119,27.05 0.177,26.96 0.253,26.888C1.427,25.778 2.287,24.449 2.955,22.991C5.209,18.073 7.459,13.154 9.709,8.235C10.352,6.83 11.008,5.43 11.621,4.012C11.909,3.346 12.174,2.656 12.332,1.951C12.474,1.318 12.455,0.649 12.516,-0.114C12.456,-0.029 12.466,-0.048 12.481,-0.063C12.497,-0.078 12.516,-0.097 12.536,-0.099C12.644,-0.114 12.753,-0.134 12.862,-0.134C17.989,-0.135 23.116,-0.134 28.244,-0.131C28.279,-0.131 28.313,-0.09 28.39,-0.042C28.315,0.057 28.255,0.166 28.169,0.247C27.108,1.244 26.285,2.419 25.672,3.729C24.438,6.369 23.239,9.025 22.026,11.675C21.993,11.747 21.973,11.825 21.905,12.018C22.196,11.851 22.382,11.752 22.561,11.64C26.61,9.116 30.661,6.594 34.704,4.06C35.452,3.591 36.178,3.086 36.895,2.569C37.726,1.97 38.318,1.19 38.564,0.175C38.585,0.091 38.63,0.013 38.679,-0.105L50.944,-0.105C50.953,-0.074 50.961,-0.044 50.97,-0.013C50.801,0.061 50.637,0.147 50.464,0.206C48.595,0.84 46.836,1.704 45.14,2.71C42.366,4.355 39.578,5.976 36.797,7.608C36.609,7.719 36.427,7.838 36.199,7.979C36.431,8.706 36.656,9.416 36.886,10.125C38.214,14.218 39.533,18.314 40.879,22.402C41.265,23.573 41.771,24.699 42.433,25.842C42.615,25.614 42.787,25.445 42.903,25.243C43.432,24.326 44.009,23.43 44.451,22.472C47.189,16.538 49.9,10.591 52.609,4.644C53.288,3.154 53.963,1.655 53.698,-0.104L85.107,-0.104C84.677,1.661 84.259,3.384 83.832,5.141C83.373,5.036 82.994,4.912 82.605,4.866C81.314,4.713 80.02,4.487 78.725,4.47C74.813,4.416 70.901,4.448 66.989,4.447C66.879,4.447 66.769,4.458 66.588,4.468C65.64,6.522 64.683,8.597 63.69,10.747C63.939,10.769 64.104,10.795 64.27,10.795C67.474,10.798 70.679,10.812 73.884,10.79C75.698,10.778 77.5,10.604 79.28,10.231C79.431,10.199 79.584,10.176 79.737,10.155C79.8,10.146 79.865,10.153 79.93,10.153C79.905,10.626 78.118,14.666 77.331,16.031C77.163,16.003 76.969,15.987 76.785,15.938C75.324,15.549 73.833,15.369 72.328,15.358C68.88,15.334 65.432,15.344 61.985,15.342C61.875,15.342 61.766,15.353 61.601,15.361C60.504,17.749 59.402,20.146 58.255,22.643L58.999,22.643C62.801,22.643 66.603,22.639 70.404,22.645C72.4,22.648 74.373,22.454 76.321,22.016C76.426,21.993 76.535,21.989 76.72,21.966C76.646,22.129 76.614,22.244 76.55,22.337C75.505,23.844 74.449,25.343 73.415,26.858C73.216,27.149 72.994,27.29 72.648,27.245C72.561,27.234 72.471,27.244 72.383,27.244C57.287,27.246 42.192,27.249 27.096,27.251L26.282,27.251C25.309,23.427 24.428,19.587 23.459,15.719C23.272,15.812 23.114,15.877 22.969,15.966C21.761,16.701 20.55,17.431 19.355,18.186C19.126,18.33 18.894,18.546 18.78,18.785C18.095,20.219 17.407,21.654 16.798,23.121C16.454,23.951 16.216,24.833 16.018,25.711C15.914,26.17 15.999,26.672 15.999,27.148C15.51,27.284 1.221,27.332 0,27.197" style="fill:rgb(30,28,26);fill-rule:nonzero;"/>
    </g>
    <g transform="matrix(4.166667,0,0,4.166667,1034.00875,95.322444)">
        <path d="M0,-18.267C-0.792,-16.904 -2.789,-12.45 -2.823,-11.981C-2.76,-11.968 -2.697,-11.942 -2.633,-11.942C0.105,-11.949 2.843,-11.964 5.58,-11.966C6.662,-11.966 7.356,-12.49 7.774,-13.465C8.2,-14.458 8.661,-15.436 9.101,-16.423C9.236,-16.724 9.376,-17.026 9.472,-17.341C9.624,-17.84 9.467,-18.113 8.961,-18.199C8.594,-18.262 8.214,-18.274 7.839,-18.274C5.455,-18.277 3.07,-18.27 0.685,-18.267L0,-18.267M15.654,4.472L0.279,4.472C-0.101,0.535 -0.478,-3.371 -0.859,-7.317L-5.088,-7.317C-5.145,-7.207 -5.219,-7.076 -5.282,-6.939C-6.362,-4.569 -7.448,-2.2 -8.518,0.176C-8.963,1.163 -9.371,2.168 -9.427,3.271C-9.446,3.643 -9.43,4.016 -9.43,4.389C-9.888,4.537 -24.165,4.6 -25.351,4.451C-25.288,4.349 -25.253,4.251 -25.186,4.189C-23.963,3.061 -23.088,1.687 -22.402,0.189C-19.534,-6.074 -16.669,-12.339 -13.823,-18.612C-13.515,-19.291 -13.317,-20.022 -13.1,-20.738C-12.895,-21.417 -13.016,-22.09 -13.304,-22.803C-13.074,-22.826 -12.91,-22.855 -12.747,-22.855C-2.69,-22.856 7.367,-22.867 17.424,-22.836C18.585,-22.833 19.751,-22.626 20.906,-22.453C21.377,-22.383 21.843,-22.194 22.278,-21.987C23.585,-21.366 24.132,-20.306 23.839,-18.896C23.7,-18.231 23.485,-17.571 23.215,-16.947C22.479,-15.245 21.695,-13.564 20.929,-11.875C20.847,-11.694 20.752,-11.519 20.665,-11.34C19.508,-8.965 17.598,-7.705 14.975,-7.498C14.449,-7.456 13.923,-7.406 13.32,-7.353C13.446,-6.649 13.564,-5.988 13.682,-5.327C14.163,-2.632 14.631,0.064 15.132,2.755C15.236,3.31 15.459,3.843 15.654,4.472" style="fill:rgb(30,28,26);fill-rule:nonzero;"/>
    </g>
    <g transform="matrix(4.166667,0,0,4.166667,777.470833,0.532861)">
        <path d="M0,27.239L-15.88,27.239C-15.771,27.085 -15.717,26.977 -15.635,26.897C-14.525,25.823 -13.677,24.562 -13.03,23.169C-11.896,20.726 -10.782,18.274 -9.662,15.825C-9.609,15.709 -9.58,15.583 -9.528,15.423L-19.693,15.423C-19.77,15.567 -19.871,15.733 -19.952,15.909C-21.029,18.257 -22.104,20.606 -23.176,22.955C-23.787,24.293 -24.278,25.658 -24.067,27.119C-24.117,27.186 -24.128,27.204 -24.143,27.218C-24.158,27.234 -24.178,27.254 -24.197,27.255C-24.394,27.27 -24.591,27.292 -24.788,27.292C-29.826,27.289 -34.865,27.284 -39.903,27.276C-39.936,27.276 -39.97,27.23 -40.032,27.184C-39.989,27.118 -39.955,27.04 -39.898,26.987C-38.525,25.717 -37.603,24.141 -36.836,22.462C-34.489,17.32 -32.146,12.178 -29.801,7.036C-29.407,6.172 -29.004,5.312 -28.62,4.444C-27.992,3.028 -27.361,1.61 -27.651,-0.053L-11.591,-0.053C-11.751,0.128 -11.84,0.245 -11.944,0.345C-12.864,1.225 -13.627,2.227 -14.174,3.372C-15.305,5.743 -16.398,8.131 -17.505,10.514C-17.539,10.588 -17.547,10.673 -17.581,10.806L-7.41,10.806C-7.358,10.726 -7.285,10.64 -7.241,10.542C-6.184,8.209 -5.104,5.887 -4.093,3.535C-3.783,2.814 -3.629,2.02 -3.471,1.245C-3.39,0.846 -3.457,0.416 -3.457,-0.053L12.515,-0.053C12.409,0.085 12.356,0.175 12.283,0.244C11.026,1.434 10.146,2.877 9.433,4.437C6.624,10.581 3.808,16.722 1,22.866C0.39,24.201 -0.112,25.565 0.062,27.078C0.066,27.116 0.032,27.158 0,27.239" style="fill:rgb(30,28,26);fill-rule:nonzero;"/>
    </g>
    <g transform="matrix(4.166667,0,0,4.166667,0,0.302444)">
        <path d="M0,27.378C0.471,25.47 0.919,23.658 1.377,21.801C1.6,21.878 1.766,21.921 1.92,21.99C3.045,22.494 4.233,22.747 5.457,22.751C10.539,22.767 15.622,22.758 20.705,22.754C20.968,22.753 21.233,22.716 21.495,22.676C22.134,22.578 22.582,22.229 22.844,21.633C23.12,21.007 23.417,20.39 23.689,19.762C24.039,18.955 23.884,18.702 22.984,18.623C22.479,18.579 21.97,18.55 21.463,18.549C17.551,18.539 13.64,18.555 9.728,18.519C8.785,18.51 7.825,18.42 6.904,18.224C4.897,17.796 4.227,16.669 4.718,14.68C4.85,14.147 5.037,13.621 5.26,13.119C6.236,10.92 7.226,8.726 8.226,6.538C9.673,3.374 12.049,1.298 15.438,0.415C16.667,0.096 17.92,-0.001 19.181,-0.002C27.402,-0.008 35.623,-0.006 43.844,-0.004C44.04,-0.004 44.237,0.012 44.525,0.025C44.177,1.853 43.713,3.607 43.288,5.416C43.062,5.353 42.896,5.318 42.737,5.261C41.455,4.804 40.133,4.577 38.774,4.576C34.045,4.573 29.316,4.575 24.586,4.576C24.454,4.576 24.321,4.586 24.189,4.585C23.031,4.576 22.187,5.016 21.806,6.183C21.676,6.579 21.448,6.941 21.289,7.329C21.01,8.009 21.14,8.247 21.881,8.368C22.249,8.428 22.629,8.434 23.003,8.434C26.385,8.438 29.766,8.438 33.147,8.435C34.564,8.433 35.978,8.496 37.356,8.842C37.927,8.986 38.499,9.199 39.013,9.485C40.087,10.082 40.535,11.085 40.305,12.282C40.21,12.777 40.082,13.28 39.876,13.737C38.751,16.232 37.618,18.724 36.445,21.197C35.617,22.944 34.446,24.422 32.802,25.488C31.405,26.394 29.861,26.916 28.223,27.113C26.955,27.265 25.671,27.358 24.394,27.362C16.571,27.386 8.747,27.376 0.924,27.378L0,27.378" style="fill:rgb(30,28,26);fill-rule:nonzero;"/>
    </g>
    <g transform="matrix(4.166667,0,0,4.166667,1285.002917,91.167028)">
        <path d="M0,-16.379C-1.906,-17.209 -3.819,-17.308 -5.75,-17.305C-9.794,-17.3 -13.837,-17.306 -17.881,-17.301C-18.433,-17.3 -18.985,-17.268 -19.536,-17.231C-20.377,-17.174 -21,-16.799 -21.331,-15.989C-21.523,-15.519 -21.756,-15.067 -21.957,-14.6C-22.285,-13.837 -22.157,-13.593 -21.349,-13.498C-20.868,-13.441 -20.38,-13.413 -19.896,-13.412C-16.316,-13.4 -12.736,-13.404 -9.157,-13.393C-7.849,-13.388 -6.555,-13.255 -5.302,-12.855C-5.03,-12.768 -4.758,-12.668 -4.502,-12.54C-3.196,-11.887 -2.661,-10.783 -2.995,-9.359C-3.115,-8.846 -3.288,-8.338 -3.504,-7.858C-4.499,-5.643 -5.514,-3.437 -6.53,-1.232C-7.03,-0.145 -7.628,0.884 -8.405,1.802C-10.02,3.713 -12.128,4.723 -14.544,5.183C-15.852,5.432 -17.174,5.491 -18.501,5.491C-26.5,5.492 -34.499,5.491 -42.498,5.491L-43.242,5.491C-42.789,3.602 -42.355,1.793 -41.912,-0.053C-41.725,0.008 -41.6,0.036 -41.485,0.088C-40.131,0.696 -38.699,0.93 -37.229,0.931C-32.5,0.936 -27.771,0.93 -23.043,0.918C-22.603,0.917 -22.161,0.868 -21.724,0.806C-21.193,0.73 -20.765,0.467 -20.529,-0.033C-20.17,-0.791 -19.811,-1.549 -19.484,-2.321C-19.264,-2.84 -19.382,-3.072 -19.924,-3.178C-20.354,-3.261 -20.799,-3.298 -21.238,-3.299C-25.127,-3.309 -29.017,-3.288 -32.905,-3.318C-33.961,-3.326 -35.018,-3.449 -36.068,-3.57C-36.476,-3.617 -36.884,-3.766 -37.265,-3.931C-38.358,-4.404 -38.88,-5.324 -38.668,-6.495C-38.543,-7.184 -38.363,-7.881 -38.085,-8.522C-37.056,-10.89 -36.022,-13.258 -34.905,-15.585C-33.123,-19.297 -30.109,-21.306 -26.038,-21.754C-25.36,-21.828 -24.673,-21.86 -23.99,-21.861C-15.659,-21.869 -7.329,-21.869 1.002,-21.871L1.748,-21.871C1.565,-20.893 1.189,-20.032 0.915,-19.143C0.638,-18.242 0.324,-17.353 0,-16.379" style="fill:rgb(30,28,26);fill-rule:nonzero;"/>
    </g>
    <g transform="matrix(4.166667,0,0,4.166667,944.24625,71.307861)">
        <path d="M0,-6.849C-0.929,-4.819 -1.816,-2.883 -2.722,-0.902C-3.046,-0.968 -3.346,-1.017 -3.64,-1.09C-4.845,-1.392 -6.072,-1.562 -7.309,-1.571C-10.955,-1.597 -14.602,-1.589 -18.248,-1.593C-18.313,-1.593 -18.379,-1.578 -18.519,-1.562C-19.598,0.805 -20.691,3.205 -21.828,5.701L-9.548,5.701C-7.643,5.701 -5.757,5.512 -3.895,5.101C-3.747,5.068 -3.594,5.062 -3.371,5.034C-3.468,5.219 -3.523,5.353 -3.604,5.469C-4.609,6.923 -5.628,8.367 -6.618,9.831C-6.843,10.164 -7.094,10.328 -7.488,10.275C-7.553,10.266 -7.62,10.274 -7.687,10.274C-17.785,10.28 -27.884,10.287 -37.983,10.293L-38.865,10.293C-38.709,10.091 -38.654,9.997 -38.579,9.925C-37.251,8.647 -36.338,7.093 -35.582,5.433C-33.422,0.692 -31.256,-4.046 -29.096,-8.786C-28.409,-10.292 -27.702,-11.791 -27.064,-13.317C-26.768,-14.023 -26.568,-14.779 -26.414,-15.531C-26.32,-15.993 -26.397,-16.491 -26.397,-16.967C-25.934,-17.117 3.835,-17.177 4.998,-17.027C4.582,-15.293 4.168,-13.568 3.757,-11.855C2.744,-12.028 1.796,-12.232 0.836,-12.342C-0.083,-12.446 -1.013,-12.492 -1.939,-12.496C-5.608,-12.513 -9.276,-12.504 -12.944,-12.502C-13.119,-12.502 -13.294,-12.486 -13.519,-12.475C-14.463,-10.42 -15.409,-8.362 -16.382,-6.244C-16.175,-6.214 -16.034,-6.175 -15.893,-6.175C-12.269,-6.183 -8.645,-6.154 -5.022,-6.229C-3.662,-6.258 -2.307,-6.53 -0.949,-6.696C-0.67,-6.73 -0.393,-6.785 0,-6.849" style="fill:rgb(30,28,26);fill-rule:nonzero;"/>
    </g>
    <g transform="matrix(4.166667,0,0,4.166667,616.932917,27.464111)">
        <path d="M0,14.272C-0.1,14.443 -0.177,14.595 -0.274,14.735C-1.565,16.608 -2.868,18.474 -4.146,20.357C-4.385,20.709 -4.642,20.84 -5.067,20.839C-12.294,20.83 -19.521,20.841 -26.748,20.835C-27.941,20.834 -29.135,20.769 -30.296,20.459C-30.72,20.345 -31.144,20.2 -31.538,20.009C-32.936,19.329 -33.577,18.183 -33.485,16.625C-33.408,15.323 -32.986,14.119 -32.457,12.947C-31.376,10.553 -30.281,8.165 -29.185,5.777C-28.403,4.071 -27.635,2.358 -26.815,0.671C-25.995,-1.015 -24.888,-2.498 -23.443,-3.709C-21.701,-5.169 -19.67,-5.995 -17.44,-6.297C-16.219,-6.462 -14.976,-6.541 -13.743,-6.546C-6.958,-6.569 -0.173,-6.557 6.612,-6.557L7.499,-6.557C7.028,-4.322 6.412,-2.238 5.887,-0.108C5.116,-0.291 4.399,-0.511 3.666,-0.622C2.752,-0.76 1.825,-0.875 0.902,-0.884C-2.368,-0.914 -5.639,-0.881 -8.91,-0.903C-10.304,-0.912 -11.244,-0.331 -11.825,0.952C-13.6,4.874 -15.413,8.779 -17.204,12.694C-17.396,13.114 -17.563,13.55 -17.686,13.995C-17.863,14.636 -17.657,14.95 -17.004,15.095C-16.769,15.147 -16.522,15.165 -16.281,15.165C-13.629,15.165 -10.976,15.195 -8.325,15.142C-5.738,15.091 -3.172,14.787 -0.629,14.299C-0.499,14.274 -0.369,14.25 -0.237,14.238C-0.176,14.232 -0.112,14.254 0,14.272" style="fill:rgb(30,28,26);fill-rule:nonzero;"/>
    </g>
    <g transform="matrix(4.166667,0,0,4.166667,1257.783333,104.817028)">
        <path d="M0,-0.219L0.246,-0.219C0.534,-0.219 0.767,-0.315 0.767,-0.547C0.767,-0.753 0.617,-0.891 0.288,-0.891C0.151,-0.891 0.055,-0.876 0,-0.863L0,-0.219ZM-0.013,1.055L-0.534,1.055L-0.534,-1.192C-0.329,-1.233 -0.041,-1.26 0.329,-1.26C0.753,-1.26 0.945,-1.192 1.11,-1.096C1.233,-1 1.328,-0.822 1.328,-0.603C1.328,-0.356 1.137,-0.164 0.863,-0.082L0.863,-0.054C1.082,0.028 1.206,0.192 1.274,0.493C1.343,0.836 1.383,0.973 1.439,1.055L0.877,1.055C0.809,0.973 0.767,0.768 0.698,0.507C0.658,0.261 0.521,0.151 0.233,0.151L-0.013,0.151L-0.013,1.055ZM-1.398,-0.123C-1.398,0.877 -0.657,1.672 0.356,1.672C1.343,1.672 2.069,0.877 2.069,-0.109C2.069,-1.11 1.343,-1.918 0.342,-1.918C-0.657,-1.918 -1.398,-1.11 -1.398,-0.123M2.644,-0.123C2.644,1.151 1.644,2.151 0.342,2.151C-0.945,2.151 -1.972,1.151 -1.972,-0.123C-1.972,-1.37 -0.945,-2.37 0.342,-2.37C1.644,-2.37 2.644,-1.37 2.644,-0.123" style="fill:rgb(30,28,26);fill-rule:nonzero;"/>
    </g>
</svg>
