<?xml version="1.0" encoding="UTF-8" standalone="no"?>
<!DOCTYPE svg PUBLIC "-//W3C//DTD SVG 1.1//EN" "http://www.w3.org/Graphics/SVG/1.1/DTD/svg11.dtd">
<svg width="100%" height="100%" viewBox="0 0 1048 336" version="1.1" xmlns="http://www.w3.org/2000/svg" xmlns:xlink="http://www.w3.org/1999/xlink" xml:space="preserve" xmlns:serif="http://www.serif.com/" style="fill-rule:evenodd;clip-rule:evenodd;stroke-linejoin:round;stroke-miterlimit:2;">
    <g transform="matrix(4.166667,0,0,4.166667,243.684583,268.255)">
        <path d="M0,5.644L-4.069,-4.18L-8.137,5.644L0,5.644ZM1.87,10.152L-10.043,10.152L-12.316,15.652L-18.401,15.652L-6.965,-10.008L-1.099,-10.008L10.374,15.652L4.142,15.652L1.87,10.152Z" style="fill:rgb(30,28,26);fill-rule:nonzero;"/>
    </g>
    <g transform="matrix(4.166667,0,0,4.166667,369.535,250.154167)">
        <path d="M0,14.332C1.222,13.636 2.181,12.665 2.877,11.418C3.574,10.172 3.922,8.755 3.922,7.166C3.922,5.578 3.574,4.16 2.877,2.914C2.181,1.668 1.222,0.696 0,-0C-1.223,-0.697 -2.591,-1.045 -4.106,-1.045C-5.621,-1.045 -6.989,-0.697 -8.211,-0C-9.433,0.696 -10.392,1.668 -11.088,2.914C-11.785,4.16 -12.133,5.578 -12.133,7.166C-12.133,8.755 -11.785,10.172 -11.088,11.418C-10.392,12.665 -9.433,13.636 -8.211,14.332C-6.989,15.029 -5.621,15.377 -4.106,15.377C-2.591,15.377 -1.223,15.029 0,14.332M-11.309,18.712C-13.447,17.564 -15.12,15.982 -16.33,13.966C-17.539,11.95 -18.145,9.683 -18.145,7.166C-18.145,4.65 -17.539,2.382 -16.33,0.366C-15.12,-1.649 -13.447,-3.232 -11.309,-4.381C-9.17,-5.529 -6.769,-6.103 -4.106,-6.103C-1.442,-6.103 0.953,-5.529 3.079,-4.381C5.205,-3.232 6.878,-1.649 8.1,0.366C9.322,2.382 9.934,4.65 9.934,7.166C9.934,9.683 9.322,11.95 8.1,13.966C6.878,15.982 5.205,17.564 3.079,18.712C0.953,19.861 -1.442,20.435 -4.106,20.435C-6.769,20.435 -9.17,19.861 -11.309,18.712" style="fill:rgb(30,28,26);fill-rule:nonzero;"/>
    </g>
    <g transform="matrix(4.166667,0,0,4.166667,583.813333,333.469167)">
        <path d="M0,-25.659L-11.107,0L-16.971,0L-28.042,-25.659L-21.627,-25.659L-13.819,-7.331L-5.901,-25.659L0,-25.659Z" style="fill:rgb(30,28,26);fill-rule:nonzero;"/>
    </g>
    <g transform="matrix(4.166667,0,0,4.166667,-408.29625,-3706.997083)">
        <rect x="241.222" y="944.053" width="5.939" height="25.659" style="fill:rgb(30,28,26);"/>
    </g>
    <g transform="matrix(4.166667,0,0,4.166667,753.189167,333.469167)">
        <path d="M0,-25.659L-11.107,0L-16.971,0L-28.042,-25.659L-21.627,-25.659L-13.819,-7.331L-5.901,-25.659L0,-25.659Z" style="fill:rgb(30,28,26);fill-rule:nonzero;"/>
    </g>
    <g transform="matrix(4.166667,0,0,4.166667,833.83,250.154167)">
        <path d="M0,14.332C1.222,13.636 2.181,12.665 2.878,11.418C3.574,10.172 3.922,8.755 3.922,7.166C3.922,5.578 3.574,4.16 2.878,2.914C2.181,1.668 1.222,0.696 0,-0C-1.222,-0.697 -2.591,-1.045 -4.106,-1.045C-5.621,-1.045 -6.989,-0.697 -8.211,-0C-9.433,0.696 -10.392,1.668 -11.088,2.914C-11.785,4.16 -12.133,5.578 -12.133,7.166C-12.133,8.755 -11.785,10.172 -11.088,11.418C-10.392,12.665 -9.433,13.636 -8.211,14.332C-6.989,15.029 -5.621,15.377 -4.106,15.377C-2.591,15.377 -1.222,15.029 0,14.332M-11.309,18.712C-13.447,17.564 -15.12,15.982 -16.33,13.966C-17.539,11.95 -18.145,9.683 -18.145,7.166C-18.145,4.65 -17.539,2.382 -16.33,0.366C-15.12,-1.649 -13.447,-3.232 -11.309,-4.381C-9.17,-5.529 -6.769,-6.103 -4.106,-6.103C-1.442,-6.103 0.953,-5.529 3.079,-4.381C5.206,-3.232 6.879,-1.649 8.101,0.366C9.323,2.382 9.934,4.65 9.934,7.166C9.934,9.683 9.323,11.95 8.101,13.966C6.879,15.982 5.206,17.564 3.079,18.712C0.953,19.861 -1.442,20.435 -4.106,20.435C-6.769,20.435 -9.17,19.861 -11.309,18.712" style="fill:rgb(30,28,26);fill-rule:nonzero;"/>
    </g>
    <g transform="matrix(4.166667,0,0,4.166667,145.333333,161.90375)">
        <path d="M0,-0.633C-1.666,-2.322 -3.59,-3.472 -5.773,-4.082C-7.955,-4.692 -10.619,-5.184 -13.762,-5.561C-15.78,-5.795 -17.259,-6.042 -18.197,-6.3C-19.136,-6.557 -19.605,-6.992 -19.605,-7.603C-19.605,-8.822 -17.869,-9.432 -14.395,-9.432C-10.36,-9.432 -6.652,-8.493 -3.273,-6.616L1.091,-17.105C-0.88,-18.136 -3.263,-18.923 -6.054,-19.463C-8.847,-20.003 -11.698,-20.273 -14.607,-20.273C-18.784,-20.273 -22.362,-19.686 -25.342,-18.513C-28.322,-17.339 -30.562,-15.768 -32.065,-13.797C-33.567,-11.825 -34.317,-9.596 -34.317,-7.109C-34.317,-3.965 -33.484,-1.548 -31.818,0.141C-30.152,1.83 -28.217,2.969 -26.01,3.555C-23.805,4.142 -21.13,4.623 -17.985,4.998C-15.921,5.234 -14.431,5.468 -13.516,5.702C-12.6,5.937 -12.143,6.36 -12.143,6.969C-12.143,7.58 -12.507,8.038 -13.234,8.342C-13.962,8.648 -15.24,8.799 -17.071,8.799C-19.37,8.799 -21.74,8.495 -24.18,7.885C-26.621,7.275 -28.733,6.43 -30.516,5.35L-34.88,15.839C-32.909,16.965 -30.328,17.88 -27.137,18.584C-23.946,19.288 -20.708,19.64 -17.422,19.64C-13.152,19.64 -9.515,19.052 -6.512,17.88C-3.509,16.707 -1.257,15.135 0.246,13.164C1.748,11.193 2.499,9.01 2.499,6.617C2.499,3.474 1.665,1.056 0,-0.633" style="fill:rgb(30,28,26);fill-rule:nonzero;"/>
    </g>
    <g transform="matrix(4.166667,0,0,4.166667,320.595833,97.495833)">
        <path d="M0,30.36C1.943,29.316 4.092,28.689 6.402,28.472L6.402,-4.111L-9.507,-4.111L-9.507,13.98C-9.507,16.655 -10.024,18.615 -11.056,19.858C-12.088,21.101 -13.379,21.723 -14.928,21.723C-16.571,21.723 -17.814,21.16 -18.659,20.034C-19.503,18.907 -19.925,17.031 -19.925,14.402L-19.925,-4.111L-35.835,-4.111L-35.835,17.147C-35.835,23.156 -34.356,27.648 -31.4,30.628C-30.421,31.614 -29.328,32.421 -28.138,33.081L-26.808,30.098L-26.239,28.821L-17.58,28.821L-17.009,30.095L-15.053,34.471C-14.582,34.338 -14.117,34.184 -13.661,34.007C-11.784,33.279 -10.141,32.189 -8.733,30.733L-8.733,34.394L-4.814,34.394C-3.53,32.746 -1.919,31.391 0,30.36" style="fill:rgb(30,28,26);fill-rule:nonzero;"/>
    </g>
    <g transform="matrix(4.166667,0,0,4.166667,445.2325,82.218333)">
        <path d="M0,24.369C-1.173,23.031 -1.76,21.167 -1.76,18.773C-1.76,16.38 -1.173,14.527 0,13.212C1.173,11.899 2.675,11.24 4.505,11.24C6.336,11.24 7.837,11.899 9.01,13.212C10.183,14.527 10.77,16.38 10.77,18.773C10.77,21.167 10.183,23.031 9.01,24.369C7.837,25.707 6.336,26.375 4.505,26.375C2.675,26.375 1.173,25.707 0,24.369M2.525,32.487L13.639,32.487L14.196,33.797L15.686,37.294C16.348,37.013 16.999,36.698 17.633,36.336C20.472,34.717 22.725,32.383 24.391,29.332C26.056,26.282 26.89,22.762 26.89,18.773C26.89,14.784 26.056,11.276 24.391,8.249C22.725,5.222 20.472,2.899 17.633,1.28C14.794,-0.339 11.685,-1.149 8.307,-1.149C4.036,-1.149 0.774,-0.045 -1.478,2.16L-1.478,-14.171L-17.387,-14.171L-17.387,32.541C-16.01,32.872 -14.705,33.369 -13.483,34.029C-11.575,35.06 -9.969,36.414 -8.68,38.061L-2.252,38.061L-2.252,34.893C-0.5,36.86 1.966,38.072 5.137,38.54L3.823,35.494L2.525,32.487Z" style="fill:rgb(30,28,26);fill-rule:nonzero;"/>
    </g>
    <g transform="matrix(4.166667,0,0,4.166667,590.24375,80.365)">
        <rect x="-3.83" y="0" width="15.909" height="32.932" style="fill:rgb(30,28,26);fill-rule:nonzero;"/>
    </g>
    <g transform="matrix(4.166667,0,0,4.166667,578.53875,9.533333)">
        <path d="M0,11.615C1.76,13.141 4.07,13.903 6.934,13.903C9.843,13.903 12.166,13.117 13.903,11.545C15.638,9.973 16.507,7.966 16.507,5.526C16.507,3.227 15.638,1.35 13.903,-0.106C12.166,-1.56 9.843,-2.288 6.934,-2.288C4.07,-2.288 1.76,-1.524 0,0C-1.76,1.526 -2.64,3.461 -2.64,5.808C-2.64,8.155 -1.76,10.09 0,11.615" style="fill:rgb(30,28,26);fill-rule:nonzero;"/>
    </g>
    <g transform="matrix(4.166667,0,0,4.166667,752.31875,71.924167)">
        <path d="M0,28.846C-1.83,28.846 -3.333,28.177 -4.505,26.84C-5.679,25.502 -6.265,23.637 -6.265,21.244C-6.265,18.85 -5.679,16.997 -4.505,15.683C-3.333,14.369 -1.83,13.711 0,13.711C1.83,13.711 3.331,14.369 4.505,15.683C5.678,16.997 6.265,18.85 6.265,21.244C6.265,23.637 5.678,25.502 4.505,26.84C3.331,28.177 1.83,28.846 0,28.846M7.818,36.497C10.263,35.184 13.029,34.518 16.039,34.518C18.119,34.518 20.076,34.843 21.893,35.473L21.893,-11.701L5.983,-11.701L5.983,4.631C3.731,2.426 0.469,1.322 -3.801,1.322C-7.18,1.322 -10.29,2.131 -13.129,3.75C-15.968,5.37 -18.221,7.693 -19.886,10.719C-21.552,13.746 -22.385,17.255 -22.385,21.244C-22.385,25.233 -21.552,28.753 -19.886,31.803C-18.221,34.854 -15.968,37.188 -13.129,38.807C-11.793,39.568 -10.396,40.144 -8.941,40.547L-7.088,36.257L-6.526,34.958L4.07,34.958L2.768,37.968L1.677,40.488C2.395,40.268 3.079,40.012 3.705,39.694C4.859,38.42 6.234,37.348 7.818,36.497" style="fill:rgb(30,28,26);fill-rule:nonzero;"/>
    </g>
    <g transform="matrix(4.166667,0,0,4.166667,972.586667,137.41)">
        <path d="M0,11.123C-1.173,12.461 -2.675,13.129 -4.505,13.129C-6.336,13.129 -7.838,12.461 -9.01,11.123C-10.184,9.785 -10.77,7.921 -10.77,5.527C-10.77,3.134 -10.184,1.281 -9.01,-0.034C-7.838,-1.347 -6.336,-2.006 -4.505,-2.006C-2.675,-2.006 -1.173,-1.347 0,-0.034C1.172,1.281 1.76,3.134 1.76,5.527C1.76,7.921 1.172,9.785 0,11.123M15.029,-4.786C13.129,-7.813 10.476,-10.171 7.074,-11.86C3.671,-13.55 -0.188,-14.395 -4.505,-14.395C-8.776,-14.395 -12.612,-13.55 -16.014,-11.86C-19.418,-10.171 -22.08,-7.813 -24.004,-4.786C-25.929,-1.759 -26.89,1.679 -26.89,5.527C-26.89,9.375 -25.929,12.812 -24.004,15.84C-22.08,18.867 -19.418,21.236 -16.014,22.949C-12.612,24.662 -8.776,25.518 -4.505,25.518C-0.188,25.518 3.671,24.662 7.074,22.949C10.476,21.236 13.129,18.867 15.029,15.84C16.93,12.812 17.88,9.375 17.88,5.527C17.88,1.679 16.93,-1.759 15.029,-4.786" style="fill:rgb(30,28,26);fill-rule:nonzero;"/>
    </g>
    <g transform="matrix(4.166667,0,0,4.166667,243.684583,268.255)">
        <path d="M0,5.644L-4.069,-4.18L-8.137,5.644L0,5.644ZM1.87,10.152L-10.043,10.152L-12.316,15.652L-18.401,15.652L-6.965,-10.008L-1.099,-10.008L10.374,15.652L4.142,15.652L1.87,10.152Z" style="fill:rgb(30,28,26);fill-rule:nonzero;"/>
    </g>
    <g transform="matrix(4.166667,0,0,4.166667,369.535,250.154167)">
        <path d="M0,14.332C1.222,13.636 2.181,12.665 2.877,11.418C3.574,10.172 3.922,8.755 3.922,7.166C3.922,5.578 3.574,4.16 2.877,2.914C2.181,1.668 1.222,0.696 0,-0C-1.223,-0.697 -2.591,-1.045 -4.106,-1.045C-5.621,-1.045 -6.989,-0.697 -8.211,-0C-9.433,0.696 -10.392,1.668 -11.088,2.914C-11.785,4.16 -12.133,5.578 -12.133,7.166C-12.133,8.755 -11.785,10.172 -11.088,11.418C-10.392,12.665 -9.433,13.636 -8.211,14.332C-6.989,15.029 -5.621,15.377 -4.106,15.377C-2.591,15.377 -1.223,15.029 0,14.332M-11.309,18.712C-13.447,17.564 -15.12,15.982 -16.33,13.966C-17.539,11.95 -18.145,9.683 -18.145,7.166C-18.145,4.65 -17.539,2.382 -16.33,0.366C-15.12,-1.649 -13.447,-3.232 -11.309,-4.381C-9.17,-5.529 -6.769,-6.103 -4.106,-6.103C-1.442,-6.103 0.953,-5.529 3.079,-4.381C5.205,-3.232 6.878,-1.649 8.1,0.366C9.322,2.382 9.934,4.65 9.934,7.166C9.934,9.683 9.322,11.95 8.1,13.966C6.878,15.982 5.205,17.564 3.079,18.712C0.953,19.861 -1.442,20.435 -4.106,20.435C-6.769,20.435 -9.17,19.861 -11.309,18.712" style="fill:rgb(30,28,26);fill-rule:nonzero;"/>
    </g>
    <g transform="matrix(4.166667,0,0,4.166667,583.813333,333.469167)">
        <path d="M0,-25.659L-11.107,0L-16.971,0L-28.042,-25.659L-21.627,-25.659L-13.819,-7.331L-5.901,-25.659L0,-25.659Z" style="fill:rgb(30,28,26);fill-rule:nonzero;"/>
    </g>
    <g transform="matrix(4.166667,0,0,4.166667,-408.29625,-3706.997083)">
        <rect x="241.222" y="944.053" width="5.939" height="25.659" style="fill:rgb(30,28,26);"/>
    </g>
    <g transform="matrix(4.166667,0,0,4.166667,753.189167,333.469167)">
        <path d="M0,-25.659L-11.107,0L-16.971,0L-28.042,-25.659L-21.627,-25.659L-13.819,-7.331L-5.901,-25.659L0,-25.659Z" style="fill:rgb(30,28,26);fill-rule:nonzero;"/>
    </g>
    <g transform="matrix(4.166667,0,0,4.166667,833.83,250.154167)">
        <path d="M0,14.332C1.222,13.636 2.181,12.665 2.878,11.418C3.574,10.172 3.922,8.755 3.922,7.166C3.922,5.578 3.574,4.16 2.878,2.914C2.181,1.668 1.222,0.696 0,-0C-1.222,-0.697 -2.591,-1.045 -4.106,-1.045C-5.621,-1.045 -6.989,-0.697 -8.211,-0C-9.433,0.696 -10.392,1.668 -11.088,2.914C-11.785,4.16 -12.133,5.578 -12.133,7.166C-12.133,8.755 -11.785,10.172 -11.088,11.418C-10.392,12.665 -9.433,13.636 -8.211,14.332C-6.989,15.029 -5.621,15.377 -4.106,15.377C-2.591,15.377 -1.222,15.029 0,14.332M-11.309,18.712C-13.447,17.564 -15.12,15.982 -16.33,13.966C-17.539,11.95 -18.145,9.683 -18.145,7.166C-18.145,4.65 -17.539,2.382 -16.33,0.366C-15.12,-1.649 -13.447,-3.232 -11.309,-4.381C-9.17,-5.529 -6.769,-6.103 -4.106,-6.103C-1.442,-6.103 0.953,-5.529 3.079,-4.381C5.206,-3.232 6.879,-1.649 8.101,0.366C9.323,2.382 9.934,4.65 9.934,7.166C9.934,9.683 9.323,11.95 8.101,13.966C6.879,15.982 5.206,17.564 3.079,18.712C0.953,19.861 -1.442,20.435 -4.106,20.435C-6.769,20.435 -9.17,19.861 -11.309,18.712" style="fill:rgb(30,28,26);fill-rule:nonzero;"/>
    </g>
    <g transform="matrix(4.166667,0,0,4.166667,145.333333,161.90375)">
        <path d="M0,-0.633C-1.666,-2.322 -3.59,-3.472 -5.773,-4.082C-7.955,-4.692 -10.619,-5.184 -13.762,-5.561C-15.78,-5.795 -17.259,-6.042 -18.197,-6.3C-19.136,-6.557 -19.605,-6.992 -19.605,-7.603C-19.605,-8.822 -17.869,-9.432 -14.395,-9.432C-10.36,-9.432 -6.652,-8.493 -3.273,-6.616L1.091,-17.105C-0.88,-18.136 -3.263,-18.923 -6.054,-19.463C-8.847,-20.003 -11.698,-20.273 -14.607,-20.273C-18.784,-20.273 -22.362,-19.686 -25.342,-18.513C-28.322,-17.339 -30.562,-15.768 -32.065,-13.797C-33.567,-11.825 -34.317,-9.596 -34.317,-7.109C-34.317,-3.965 -33.484,-1.548 -31.818,0.141C-30.152,1.83 -28.217,2.969 -26.01,3.555C-23.805,4.142 -21.13,4.623 -17.985,4.998C-15.921,5.234 -14.431,5.468 -13.516,5.702C-12.6,5.937 -12.143,6.36 -12.143,6.969C-12.143,7.58 -12.507,8.038 -13.234,8.342C-13.962,8.648 -15.24,8.799 -17.071,8.799C-19.37,8.799 -21.74,8.495 -24.18,7.885C-26.621,7.275 -28.733,6.43 -30.516,5.35L-34.88,15.839C-32.909,16.965 -30.328,17.88 -27.137,18.584C-23.946,19.288 -20.708,19.64 -17.422,19.64C-13.152,19.64 -9.515,19.052 -6.512,17.88C-3.509,16.707 -1.257,15.135 0.246,13.164C1.748,11.193 2.499,9.01 2.499,6.617C2.499,3.474 1.665,1.056 0,-0.633" style="fill:rgb(30,28,26);fill-rule:nonzero;"/>
    </g>
    <g transform="matrix(4.166667,0,0,4.166667,320.595833,97.495833)">
        <path d="M0,30.36C1.943,29.316 4.092,28.689 6.402,28.472L6.402,-4.111L-9.507,-4.111L-9.507,13.98C-9.507,16.655 -10.024,18.615 -11.056,19.858C-12.088,21.101 -13.379,21.723 -14.928,21.723C-16.571,21.723 -17.814,21.16 -18.659,20.034C-19.503,18.907 -19.925,17.031 -19.925,14.402L-19.925,-4.111L-35.835,-4.111L-35.835,17.147C-35.835,23.156 -34.356,27.648 -31.4,30.628C-30.421,31.614 -29.328,32.421 -28.138,33.081L-26.808,30.098L-26.239,28.821L-17.58,28.821L-17.009,30.095L-15.053,34.471C-14.582,34.338 -14.117,34.184 -13.661,34.007C-11.784,33.279 -10.141,32.189 -8.733,30.733L-8.733,34.394L-4.814,34.394C-3.53,32.746 -1.919,31.391 0,30.36" style="fill:rgb(30,28,26);fill-rule:nonzero;"/>
    </g>
    <g transform="matrix(4.166667,0,0,4.166667,445.2325,82.218333)">
        <path d="M0,24.369C-1.173,23.031 -1.76,21.167 -1.76,18.773C-1.76,16.38 -1.173,14.527 0,13.212C1.173,11.899 2.675,11.24 4.505,11.24C6.336,11.24 7.837,11.899 9.01,13.212C10.183,14.527 10.77,16.38 10.77,18.773C10.77,21.167 10.183,23.031 9.01,24.369C7.837,25.707 6.336,26.375 4.505,26.375C2.675,26.375 1.173,25.707 0,24.369M2.525,32.487L13.639,32.487L14.196,33.797L15.686,37.294C16.348,37.013 16.999,36.698 17.633,36.336C20.472,34.717 22.725,32.383 24.391,29.332C26.056,26.282 26.89,22.762 26.89,18.773C26.89,14.784 26.056,11.276 24.391,8.249C22.725,5.222 20.472,2.899 17.633,1.28C14.794,-0.339 11.685,-1.149 8.307,-1.149C4.036,-1.149 0.774,-0.045 -1.478,2.16L-1.478,-14.171L-17.387,-14.171L-17.387,32.541C-16.01,32.872 -14.705,33.369 -13.483,34.029C-11.575,35.06 -9.969,36.414 -8.68,38.061L-2.252,38.061L-2.252,34.893C-0.5,36.86 1.966,38.072 5.137,38.54L3.823,35.494L2.525,32.487Z" style="fill:rgb(30,28,26);fill-rule:nonzero;"/>
    </g>
    <g transform="matrix(4.166667,0,0,4.166667,590.24375,80.365)">
        <rect x="-3.83" y="0" width="15.909" height="32.932" style="fill:rgb(30,28,26);fill-rule:nonzero;"/>
    </g>
    <g transform="matrix(4.166667,0,0,4.166667,578.53875,9.533333)">
        <path d="M0,11.615C1.76,13.141 4.07,13.903 6.934,13.903C9.843,13.903 12.166,13.117 13.903,11.545C15.638,9.973 16.507,7.966 16.507,5.526C16.507,3.227 15.638,1.35 13.903,-0.106C12.166,-1.56 9.843,-2.288 6.934,-2.288C4.07,-2.288 1.76,-1.524 0,0C-1.76,1.526 -2.64,3.461 -2.64,5.808C-2.64,8.155 -1.76,10.09 0,11.615" style="fill:rgb(30,28,26);fill-rule:nonzero;"/>
    </g>
    <g transform="matrix(4.166667,0,0,4.166667,752.31875,71.924167)">
        <path d="M0,28.846C-1.83,28.846 -3.333,28.177 -4.505,26.84C-5.679,25.502 -6.265,23.637 -6.265,21.244C-6.265,18.85 -5.679,16.997 -4.505,15.683C-3.333,14.369 -1.83,13.711 0,13.711C1.83,13.711 3.331,14.369 4.505,15.683C5.678,16.997 6.265,18.85 6.265,21.244C6.265,23.637 5.678,25.502 4.505,26.84C3.331,28.177 1.83,28.846 0,28.846M7.818,36.497C10.263,35.184 13.029,34.518 16.039,34.518C18.119,34.518 20.076,34.843 21.893,35.473L21.893,-11.701L5.983,-11.701L5.983,4.631C3.731,2.426 0.469,1.322 -3.801,1.322C-7.18,1.322 -10.29,2.131 -13.129,3.75C-15.968,5.37 -18.221,7.693 -19.886,10.719C-21.552,13.746 -22.385,17.255 -22.385,21.244C-22.385,25.233 -21.552,28.753 -19.886,31.803C-18.221,34.854 -15.968,37.188 -13.129,38.807C-11.793,39.568 -10.396,40.144 -8.941,40.547L-7.088,36.257L-6.526,34.958L4.07,34.958L2.768,37.968L1.677,40.488C2.395,40.268 3.079,40.012 3.705,39.694C4.859,38.42 6.234,37.348 7.818,36.497" style="fill:rgb(30,28,26);fill-rule:nonzero;"/>
    </g>
    <g transform="matrix(4.166667,0,0,4.166667,972.586667,137.41)">
        <path d="M0,11.123C-1.173,12.461 -2.675,13.129 -4.505,13.129C-6.336,13.129 -7.838,12.461 -9.01,11.123C-10.184,9.785 -10.77,7.921 -10.77,5.527C-10.77,3.134 -10.184,1.281 -9.01,-0.034C-7.838,-1.347 -6.336,-2.006 -4.505,-2.006C-2.675,-2.006 -1.173,-1.347 0,-0.034C1.172,1.281 1.76,3.134 1.76,5.527C1.76,7.921 1.172,9.785 0,11.123M15.029,-4.786C13.129,-7.813 10.476,-10.171 7.074,-11.86C3.671,-13.55 -0.188,-14.395 -4.505,-14.395C-8.776,-14.395 -12.612,-13.55 -16.014,-11.86C-19.418,-10.171 -22.08,-7.813 -24.004,-4.786C-25.929,-1.759 -26.89,1.679 -26.89,5.527C-26.89,9.375 -25.929,12.812 -24.004,15.84C-22.08,18.867 -19.418,21.236 -16.014,22.949C-12.612,24.662 -8.776,25.518 -4.505,25.518C-0.188,25.518 3.671,24.662 7.074,22.949C10.476,21.236 13.129,18.867 15.029,15.84C16.93,12.812 17.88,9.375 17.88,5.527C17.88,1.679 16.93,-1.759 15.029,-4.786" style="fill:rgb(30,28,26);fill-rule:nonzero;"/>
    </g>
</svg>
