<?xml version="1.0" encoding="UTF-8" standalone="no"?>
<!DOCTYPE svg PUBLIC "-//W3C//DTD SVG 1.1//EN" "http://www.w3.org/Graphics/SVG/1.1/DTD/svg11.dtd">
<svg width="100%" height="100%" viewBox="0 0 989 540" version="1.1" xmlns="http://www.w3.org/2000/svg" xmlns:xlink="http://www.w3.org/1999/xlink" xml:space="preserve" xmlns:serif="http://www.serif.com/" style="fill-rule:evenodd;clip-rule:evenodd;stroke-linejoin:round;stroke-miterlimit:2;">
    <g transform="matrix(4.166667,0,0,4.166667,98.316667,188.091667)">
        <path d="M0,-25.263L0.381,-25.584C-0.152,-26.454 -0.355,-27.996 -0.319,-28.915C-0.13,-36.585 7.97,-40.932 20.617,-40.932L27.612,-40.932C23.54,-38.56 20.14,-35.417 17.518,-29.497C16.394,-26.952 11.037,-13.257 8.853,-7.1C6.129,0.225 4.398,3.552 2.24,4.772L2.608,5.43C8.67,5.807 12.28,2.71 14.614,-3.019C16.833,-8.425 19.767,-17.039 21.2,-20.867C25.863,-33.19 27.902,-38.371 31.623,-40.932C36.793,-40.959 41.786,-40.959 41.786,-40.959C47.35,-41.104 49.722,-42.493 51.464,-44.644L51.07,-45.142C49.677,-44.386 46.659,-44.234 44.097,-44.231L18.975,-44.231C4.842,-44.231 -3.835,-39.588 -5.237,-32.672C-5.933,-29.328 -4.074,-25.707 0,-25.263M-23.596,18.267C-23.596,19.125 36.202,19.879 95.055,19.879C153.917,19.879 213.701,19.125 213.701,18.267C213.701,17.395 153.917,16.684 95.055,16.684C36.202,16.684 -23.596,17.395 -23.596,18.267M72.195,-28.614C73.068,-28.614 73.431,-28.016 73.431,-27.249C73.391,-23.628 68.954,-18.996 63.202,-15.614C64.656,-21.22 68.679,-28.67 72.195,-28.614M55.4,-9.773C55.36,-6.024 57.339,-2.885 62.397,-3.07C67.82,-3.211 72.764,-6.35 77.034,-10.841C75.959,-7.959 75.04,-5.487 74.482,-4.15C72.9,-0.188 71.727,3.014 69.295,4.872L69.565,5.354C76.713,5.767 79.39,0.743 82.336,-7.454C85.271,-15.662 87.766,-22.795 89.702,-27.739C92.837,-27.739 97.271,-27.63 99.756,-28.188C93.27,-25.31 87.766,-14.975 88.417,-8.16C88.701,-5.147 90.504,-3.07 94.345,-3.07C101.782,-3.07 108.04,-11.868 110.423,-17.673C111.793,-21 112.698,-23.842 112.845,-26.695C114.619,-27.005 116.308,-27.313 117.158,-27.434C118.776,-27.659 118.466,-25.856 117.953,-24.5C114.914,-16.011 109.65,-3.677 109.626,-3.488L115.436,-3.488C117.953,-8.726 119.505,-12.08 121.515,-15.642C123.939,-19.831 129.34,-26.744 131.493,-26.76C132.252,-26.76 132.446,-26.278 132.261,-25.531C131.885,-22.686 124.925,-11.805 125.038,-6.433C125.108,-2.914 126.96,-0.79 130.192,0.011L130.866,-0.369C130.458,-1.132 130.4,-2.091 130.391,-3.211C130.335,-6.799 133.255,-13.081 134.382,-15.516C136.176,-19.342 139.38,-24.933 139.17,-27.996C139.061,-29.497 137.939,-30.829 135.373,-30.852C130.639,-30.878 125.926,-26.278 121.971,-20.105L121.861,-20.129C123.448,-23.717 124.686,-27.045 124.644,-28.67C124.612,-30.151 123.765,-30.736 121.997,-30.736C120.752,-30.7 119.05,-30.223 117.37,-29.77C115.032,-29.167 112.567,-28.529 109.856,-27.963C108.205,-27.739 107.621,-27.434 107.676,-26.836C108.017,-17.412 101.601,-6.33 97.324,-6.294C95.49,-6.294 95.071,-7.633 95.071,-9.492C95.055,-16.011 100.418,-26.956 105.642,-28.69C106.101,-28.819 106.551,-28.915 106.848,-29.011L107.507,-30.769C106.404,-30.537 103.763,-30.501 102.373,-30.464L90.881,-30.464C93.917,-37.697 98.174,-42.386 104.416,-42.661C108.285,-42.79 110.898,-41.329 111.126,-39.109C111.286,-37.219 110.764,-35.685 109.253,-34.122L109.68,-33.696C113.1,-35.309 115.454,-38.054 115.469,-39.924C115.518,-42.826 112.022,-44.611 106.443,-44.557C99.346,-44.512 90.617,-42.911 84.511,-30.256C82.681,-29.975 81.026,-29.285 79.65,-27.808L79.897,-27.249C80.887,-27.603 82.072,-27.659 83.391,-27.659C82.545,-25.587 80.845,-21.084 79.157,-16.455C74.02,-9.665 68.853,-6.433 65.065,-6.433C62.999,-6.37 62.173,-7.506 62.151,-9.492C62.127,-10.741 62.436,-12.479 62.689,-13.385C66.727,-15.417 70.787,-17.7 74.466,-21.47C76.488,-23.657 77.885,-25.852 77.941,-28.119C77.963,-30.256 76.657,-31.343 73.96,-31.383C70.121,-31.436 65.486,-28.799 62.468,-25.587C58.519,-21.28 55.464,-15.189 55.4,-9.773M186.649,-27.726C188.338,-28.525 189.751,-28.574 190.94,-28.333C190.491,-27.398 188.446,-23.284 186.866,-19.583C184.352,-13.784 180.575,-7.93 177.08,-7.096C175.88,-6.747 175.169,-7.265 175.184,-8.468C175.289,-13.603 180.943,-25.056 186.649,-27.726M137.006,-7.017C137.006,-4.451 138.637,-2.87 141.743,-2.957C144.966,-3.019 148.246,-4.929 150.957,-7.546C151.479,-4.78 153.467,-2.765 157.541,-2.914C161.78,-3.07 165.833,-5.723 168.651,-8.798L168.651,-7.916C168.651,-5.065 170.117,-2.934 173.372,-2.934C176.875,-2.934 180.909,-5.571 184.097,-10.101L184.2,-10.054C183.907,-8.978 183.557,-7.153 183.517,-5.94C183.457,-2.517 185.489,-0.541 188.318,0.02L189.001,-0.257C187.968,-2.738 189.409,-8.911 190.008,-10.966C192.111,-17.724 195.445,-25.455 197.377,-29.473C196.502,-30.223 194.443,-30.733 192.24,-30.829C184.954,-31.099 177.625,-28.092 172.279,-18.628C171.36,-16.981 170.356,-15.08 169.611,-13.081C168.852,-12.07 168.058,-11.167 167.721,-10.841C165.785,-8.978 163.04,-6.591 160.251,-6.555C158.659,-6.526 157.786,-7.638 157.822,-9.621C157.851,-17.191 164.533,-28.69 169.073,-28.721C170.312,-28.721 170.854,-28.177 170.854,-27.117C170.854,-25.856 169.992,-24.127 168.768,-23.007L169.294,-22.525C172.342,-23.694 175.169,-25.816 175.184,-28.072C175.184,-30.64 172.223,-31.119 169.591,-31.099C166.046,-31.046 161.635,-29.315 158.103,-25.455C153.668,-20.611 151.379,-14.803 150.926,-10.66C148.907,-8.296 146.64,-6.687 145.131,-6.667C144.279,-6.634 143.663,-7.096 143.657,-7.988C143.657,-8.778 144.11,-10.388 144.893,-12.479C146.849,-17.354 149.681,-23.436 153.17,-30.66C153.17,-30.66 147.867,-29.77 147.104,-29.553C146.3,-29.352 145.683,-28.819 145.335,-28.092C143.059,-23.284 140.366,-17.724 138.692,-13.583C137.644,-10.97 137.006,-8.501 137.006,-7.017M40.731,-28.614C41.61,-28.614 41.915,-28.016 41.915,-27.249C41.915,-23.628 37.442,-18.996 31.744,-15.614C33.169,-21.22 37.205,-28.67 40.731,-28.614M46.013,-16.236C42.46,-11.094 37.507,-6.433 33.243,-6.433C31.434,-6.37 30.635,-7.408 30.671,-9.492C30.671,-10.741 30.965,-12.499 31.21,-13.385C35.235,-15.417 39.331,-17.7 42.986,-21.47C45.025,-23.657 46.386,-25.852 46.447,-28.119C46.484,-30.256 45.141,-31.343 42.487,-31.383C38.627,-31.436 33.995,-28.799 30.989,-25.587C27.039,-21.28 23.997,-15.189 23.921,-9.773C23.877,-5.94 25.697,-2.885 30.635,-3.07C35.913,-3.211 41.119,-7.292 43.785,-10.243C43.472,-8.978 43.256,-7.791 43.256,-6.816C43.256,-3.403 44.949,-0.991 48.296,0.04L48.967,-0.277C48.666,-1.192 48.582,-2.163 48.666,-3.24C48.898,-6.555 50.212,-10.295 52.149,-15.212C55.837,-24.5 61.207,-35.136 63.572,-41.409L57.937,-40.338C57.062,-40.153 56.506,-39.486 56.219,-38.852C53.499,-33.078 50.712,-26.916 47.227,-18.893C46.823,-18.037 46.447,-17.129 46.013,-16.236M153.262,-35.084C154.875,-35.104 156.501,-36.608 156.847,-38.384C157.244,-40.222 156.184,-41.634 154.554,-41.59C152.949,-41.586 151.345,-40.113 150.957,-38.279C150.613,-36.485 151.611,-35.048 153.262,-35.084" style="fill:rgb(30,28,26);fill-rule:nonzero;"/>
    </g>
    <g transform="matrix(4.166667,0,0,4.166667,418.71,539.3225)">
        <path d="M0,-51.19C-3.737,-51.19 -6.774,-48.16 -6.774,-44.417C-6.774,-40.672 -3.737,-37.641 0,-37.641C3.748,-37.641 6.774,-40.672 6.774,-44.417C6.774,-48.16 3.748,-51.19 0,-51.19M69.418,-10.462C65.651,-10.462 62.597,-13.523 62.597,-17.289C62.597,-21.061 65.651,-24.112 69.418,-24.112C73.184,-24.112 76.243,-21.061 76.243,-17.289C76.243,-13.523 73.184,-10.462 69.418,-10.462M69.418,-34.575C59.875,-34.575 52.129,-26.84 52.129,-17.289C52.129,-7.74 59.875,0 69.418,0C78.969,0 86.709,-7.74 86.709,-17.295C86.709,-26.84 78.969,-34.575 69.418,-34.575M48.146,-32.71L44.463,-34.361C42.473,-35.247 40.09,-34.31 39.205,-32.237L30.505,-14.763L30.374,-14.763L21.682,-32.237C20.787,-34.31 18.409,-35.247 16.425,-34.357L12.748,-32.71C11.262,-32.161 9.583,-29.957 11.004,-27.355L24.861,-2.807C26.048,-0.645 28.199,-0.351 28.769,-0.351L32.117,-0.351C32.681,-0.351 34.832,-0.645 36.025,-2.807L49.878,-27.355C51.302,-29.957 49.628,-32.161 48.146,-32.71M-12.715,-32.71L-16.398,-34.357C-18.388,-35.247 -20.763,-34.31 -21.661,-32.237L-30.358,-14.763L-30.49,-14.763L-39.178,-32.237C-40.07,-34.31 -42.453,-35.247 -44.441,-34.357L-48.124,-32.71C-49.599,-32.161 -51.273,-29.957 -49.858,-27.355L-36.003,-2.807C-34.812,-0.645 -32.658,-0.351 -32.092,-0.35L-28.747,-0.351C-28.181,-0.35 -26.021,-0.645 -24.839,-2.807L-10.979,-27.355C-9.562,-29.957 -11.24,-32.161 -12.715,-32.71M1.78,-34.216L-1.714,-34.216C-4.025,-34.216 -5.894,-32.351 -5.894,-30.041L-5.894,-4.525C-5.894,-2.218 -4.025,-0.35 -1.714,-0.35L1.78,-0.35C4.089,-0.35 5.952,-2.218 5.952,-4.525L5.952,-30.041C5.952,-32.351 4.089,-34.216 1.78,-34.216" style="fill:rgb(30,28,26);fill-rule:nonzero;"/>
    </g>
</svg>
