<?xml version="1.0" encoding="UTF-8" standalone="no"?>
<!DOCTYPE svg PUBLIC "-//W3C//DTD SVG 1.1//EN" "http://www.w3.org/Graphics/SVG/1.1/DTD/svg11.dtd">
<svg width="100%" height="100%" viewBox="0 0 1407 309" version="1.1" xmlns="http://www.w3.org/2000/svg" xmlns:xlink="http://www.w3.org/1999/xlink" xml:space="preserve" xmlns:serif="http://www.serif.com/" style="fill-rule:evenodd;clip-rule:evenodd;stroke-linejoin:round;stroke-miterlimit:2;">
    <g transform="matrix(4.166667,0,0,4.166667,93.466667,50.104167)">
        <path d="M0,50.078L0,42.271L6.761,38.367L13.522,42.271L13.522,50.078L0,50.078ZM33.367,17.072L20.768,9.798L20.768,-4.751L33.367,-12.025L45.967,-4.751L45.967,9.798L33.367,17.072ZM-19.342,4.303L-22.432,2.519L-22.432,-1.05L-19.342,-2.835L-16.251,-1.05L-16.251,2.519L-19.342,4.303ZM-12.11,18.738L-17.047,15.887L-17.047,10.187L-12.11,7.337L-7.173,10.187L-7.173,15.887L-12.11,18.738ZM-3.109,36.154L-9.691,32.354L-9.691,24.754L-3.109,20.953L3.474,24.754L3.474,32.354L-3.109,36.154ZM19.552,37.841L10.049,32.354L10.049,21.38L19.552,15.893L29.056,21.38L29.056,32.354L19.552,37.841ZM90.229,15.415L79.577,34.244L68.922,15.415L58.843,15.415L79.577,51.324L100.309,15.415L90.229,15.415ZM127.871,28.414C125.704,22.634 119.952,21.68 118.334,21.68C113.959,21.68 110.495,24.519 108.957,28.414L127.871,28.414ZM136.695,28.414C137,29.706 137.446,32.488 136.917,35.355L108.293,35.355C109.572,42.49 116.584,43.746 118.334,43.746C121.97,43.746 124.979,41.548 126.775,38.761L133.778,42.805C130.38,47.592 124.729,51.095 118.334,51.095C107.936,51.095 99.507,42.992 99.507,32.992C99.507,22.752 108.6,14.332 118.334,14.332C127.296,14.332 134.793,20.349 136.695,28.414M150.738,24.995C150.704,22.896 152.498,21.847 156.053,21.847C160.352,21.847 163.704,22.829 166.175,24.758L169.874,18.357C165.759,15.64 161.141,14.298 156.053,14.298C147.781,14.298 141.869,18.163 141.869,24.995C141.869,39.9 162.384,32.629 162.384,40.161C162.384,42.362 159.946,43.716 156.053,43.546C151.551,43.276 148.064,42.158 145.525,40.229L141.552,47.111C145.689,49.799 150.522,51.129 156.053,51.129C165.277,51.129 171.253,46.896 171.253,40.161C171.253,24.704 150.859,32.525 150.738,24.995M190.585,43.851C188.994,43.851 187.674,42.7 187.674,41.21L187.674,22.355L194.275,22.355L194.275,15.415L187.674,15.415L187.674,6.816L179.075,6.816L179.075,15.415L175.25,15.415L175.25,22.355L179.075,22.355L179.075,41.887C179.075,48.571 184.005,51.129 188.148,51.129C192.117,51.129 195.063,49.354 196.772,47.951L193.616,42.482C192.76,43.191 191.673,43.851 190.585,43.851M228.231,32.747C228.231,26.792 223.493,22.151 217.635,22.151C210.422,22.151 207.006,28.31 207.006,32.747C207.006,38.384 211.499,43.343 217.635,43.343C224.845,43.343 228.231,37.213 228.231,32.747M228.231,15.415L236.83,15.415L236.83,50.08L228.231,50.08L228.231,44.528L228.164,44.528C225.489,48.929 221.63,51.129 216.586,51.129C206.47,51.129 198.136,43.431 198.136,32.747C198.136,22.158 206.577,14.338 216.586,14.366C221.325,14.379 225.117,16.363 228.164,20.391L228.231,20.391L228.231,15.415ZM271.814,37.164L271.805,37.16C269.265,42.478 264.266,43.215 262.174,43.169C256.606,43.047 251.622,38.416 251.622,33.1C251.622,27.05 256.007,21.979 262.053,21.979C263.289,21.979 264.588,22.208 265.921,22.692L270.078,15.49C267.678,14.495 265.218,14.049 262.805,14.049C251.177,14.049 242.777,22.735 242.812,33.212C242.848,44.273 252.016,50.995 261.574,51.104C268.122,51.178 274.852,48.15 278.955,41.287L271.814,37.164ZM315.245,15.415L288.289,62.103L278.752,62.103L289.634,42.869L273.783,15.415L282.923,15.415L294.044,35.072L305.166,15.415L315.245,15.415Z" style="fill:rgb(30,28,26);fill-rule:nonzero;"/>
    </g>
</svg>
