<?xml version="1.0" encoding="UTF-8" standalone="no"?><!DOCTYPE svg PUBLIC "-//W3C//DTD SVG 1.1//EN" "http://www.w3.org/Graphics/SVG/1.1/DTD/svg11.dtd"><svg width="100%" height="100%" viewBox="0 0 337 357" version="1.1" xmlns="http://www.w3.org/2000/svg" xmlns:xlink="http://www.w3.org/1999/xlink" xml:space="preserve" xmlns:serif="http://www.serif.com/" style="fill-rule:evenodd;clip-rule:evenodd;stroke-linejoin:round;stroke-miterlimit:2;"><path d="M291.331,75.954c-1.309,-1.401 -3.042,-2.677 -3.966,-4.313c-0.384,-0.271 -2.445,2.16 -2.856,2.55c2.95,3.34 6.184,6.425 9.091,9.808c61.721,71.809 45.881,189.676 -35.274,239.599c-38.073,23.42 -88.057,30.022 -130.831,16.695c-83.505,-26.019 -135.601,-120.047 -103.436,-203.95c8.79,-22.929 24.421,-41.8 40.958,-59.545l26.025,-24.586l20.51,42.214c1.989,-1.998 4.273,-3.857 6.117,-5.992c0.447,-0.518 1.552,-1.721 1.569,-2.27c-3.853,-16.763 -7.477,-33.628 -13.158,-49.872l25.721,-26.554c3.041,-6.193 -6.167,-12.48 -11.362,-8.483l-24.41,24.775l-50.819,-13.621l-8.017,8.263l42.453,20.864c-3.41,3.548 -6.792,7.115 -10.319,10.548c-0.405,0.395 -0.637,0.931 -1.062,1.337c-0.899,0.859 -3.442,3.147 -4.557,3.117c-4.098,-0.11 -8.304,-0.841 -12.482,-0.727c-1.36,0.037 -4.5,0.198 -5.706,0.531c-0.358,0.099 -0.643,0.277 -0.898,0.541l-5.75,6.005l11.267,6.713c-5.723,5.891 -11.205,12.055 -16.161,18.614c-71.05,94.031 -25.238,228.836 86.926,261.547c75.315,21.965 153.633,-7.456 192.892,-75.275c37.397,-64.601 28.328,-144.156 -22.465,-198.533" style="fill:#fff;fill-rule:nonzero;"/><path d="M154.973,105.109c23.309,-4.844 46.695,-9.41 70.271,-12.84l-31.193,48.08c-22.377,3.304 -44.631,7.317 -66.911,11.163c8.883,-15.697 18.039,-31.257 27.833,-46.403m-84.084,14.26c-1.959,1.741 -2.097,5.505 0.351,6.852c1.64,0.902 2.81,0.593 4.517,0.176c9.78,-2.39 20.596,-7.041 30.391,-10.147c10.907,-3.459 21.912,-6.722 33.225,-8.628c-9.729,15.346 -19.288,30.823 -28.122,46.711c-10.375,2.868 -23.746,2.45 -33.374,7.285c-3.342,1.678 -8.833,6.317 -3.026,8.965c6.138,2.798 20.158,-1.633 27.228,-2.034c0.319,-0.018 1.292,-0.2 1.072,0.352c-3.345,5.811 -6.566,11.71 -9.717,17.629c-6.165,11.583 -13.031,23.795 -18.626,35.582c-1.864,3.926 -4.794,10.862 -4.281,15.16c0.624,5.241 6.796,-1.322 8.154,-2.891c6.4,-7.393 12.54,-19.586 17.558,-28.256c7.642,-13.204 14.949,-26.605 22.51,-39.855c21.654,-3.352 43.422,-6.096 64.906,-10.414l0.571,0.332c-11.556,17.406 -21.821,35.663 -33.141,53.212c-2.454,3.805 -5.112,6.634 -6.958,11.032c-1.131,2.696 -3.819,11.411 1.735,10.368c3.751,-0.704 8.44,-6.751 10.595,-9.792l45.023,-68.193c0.702,-0.554 4.416,-0.661 5.621,-0.855c4.934,-0.795 16.712,-2.946 19.304,-7.561c2.466,-4.389 -3.73,-7.098 -7.102,-7.691c-2.565,-0.452 -5.146,-0.325 -7.729,-0.183l27.716,-45.444c0.768,-0.697 4.851,-0.579 6.221,-0.734c7.337,-0.829 18.909,-2.443 24.802,-6.86c7.466,-5.597 5.02,-12.774 -4.407,-12.084c-4.07,0.298 -6.581,2.304 -10.068,3.605c-2.003,0.747 -4.272,1.043 -6.366,1.427c7.543,-10.21 15.588,-20.06 22.983,-30.385c2.195,-3.065 10.656,-14.56 11.056,-17.487c1.098,-8.024 -4.091,-6.465 -8.594,-3.078c-4.462,3.356 -5.873,6.511 -8.94,10.73c-10.251,14.103 -21.447,27.57 -31.083,42.136c-23.456,4.077 -47.06,7.449 -70.332,12.478l8.299,-11.967c10.799,-14.61 22.327,-28.717 35.216,-41.541c0.739,-1.406 0.463,-7.14 -0.09,-8.749c-1.974,-5.742 -7.736,-0.335 -10.093,2.164c-5.441,5.771 -10.987,12.783 -16.059,18.962c-11.12,13.548 -21.676,27.564 -31.681,41.957c-24.758,6.872 -50.799,13.959 -74.027,25.037c-1.176,0.56 -4.442,1.97 -5.238,2.677" style="fill:#fff;fill-rule:nonzero;"/><path d="M198.736,252.254c1.769,-3.099 8.17,-10.245 11.964,-10.055c4.856,0.244 2.455,4.862 -0.083,6.585l-13.914,9.95c0.132,-2.367 0.872,-4.446 2.033,-6.48m59.438,25.728c1.956,0.658 3.54,-1.937 4.441,-3.346c3.247,-5.081 7.29,-15.306 6.261,-21.273c-0.356,-2.062 -1.716,-3.347 -3.915,-3.248c-3.26,0.147 -14.903,9.578 -18.292,11.934c-2.978,2.07 -6.147,4.204 -9.211,6.14c-0.733,0.464 -1.573,1.04 -2.377,1.338c-0.625,-0.682 5.92,-12.637 6.681,-14.304c0.676,-1.481 2.246,-4.39 1.904,-5.911c-0.263,-1.168 -2.371,-2.729 -3.647,-2.566c-2.85,0.363 -6.213,9.179 -7.808,11.398c-4.539,2.796 -8.998,6.318 -13.608,8.939c-6.709,3.814 -18.636,8.111 -21.169,-2.569c3.578,-2.28 7.327,-4.409 10.812,-6.827c5.206,-3.612 14.363,-10.723 10.806,-18.064c-1.964,-4.054 -5.496,-4.047 -9.447,-3.365c-14.739,2.545 -23.374,22.482 -15.734,35.262c3.86,6.458 8.258,6.288 15.114,5.135c7.74,-1.301 13.183,-5.526 19.496,-9.767c0.021,1.529 -0.941,3.099 -1.074,4.681c-0.346,4.118 2.928,6.244 6.712,5.272c2.604,-0.669 5.982,-2.942 8.282,-4.429c6.639,-4.291 12.689,-9.51 19.421,-13.68c-0.14,4.47 -2.674,8.301 -4.135,12.416c-0.742,2.09 -2.652,5.78 0.487,6.834" style="fill:#fff;fill-rule:nonzero;"/><path d="M170.555,255.378c-0.068,-4.534 2.404,-8.336 5.755,-11.158c3.321,-2.796 7.48,-4.202 6.422,2.105c-0.59,3.517 -8.105,10.216 -12.177,9.053m18.443,-10.943c0.459,-3.257 0.544,-5.396 -2.292,-7.486c-4.762,-3.51 -9.62,-0.895 -13.624,2.364c-4.707,3.831 -8.516,9.522 -8.285,15.822c-2.494,0.107 -7.685,0.458 -5.805,4.251c1.127,2.273 5.356,2.81 5.535,3.34c0.369,9.276 2.819,16.775 -1.845,25.433c-7.933,14.728 -26.479,34.347 -45.022,27.19c-5.529,-2.135 -10.65,-7.782 -11.76,-13.666c-0.367,-1.951 -0.058,-5.33 -0.65,-6.785c-0.439,-1.079 -1.672,-1.386 -2.665,-0.871c-3.534,1.834 -1.165,11.063 0.046,14.043c2.885,7.098 11.077,13.898 18.864,14.478c19.638,1.463 41.013,-18.513 47.739,-35.752c3.317,-8.503 2.127,-16.389 1.081,-25.184c9.943,0.587 17.369,-7.869 18.683,-17.177" style="fill:#fff;fill-rule:nonzero;"/><path d="M148.348,250.559c-5.156,7.354 -19.408,19.792 -27.522,23.569c-6.231,2.901 -6.751,-0.272 -3.618,-5.057c3.768,-5.756 10.314,-11.645 15.575,-16.087c3.606,-3.045 11.047,-9.652 15.659,-10.024c3.81,-0.307 1.11,5.882 -0.094,7.599m8.037,-13.274c-4.533,-3.838 -11.313,0.143 -15.458,2.735c-8.181,5.117 -28.734,22.167 -31.959,30.885c-0.757,2.046 -0.891,3.486 -0.475,5.638c1.838,9.526 12.97,3.998 18.147,0.761c5.965,-3.73 11.137,-8.601 16.329,-13.292c0.03,5.147 2.203,10.199 7.629,11.442c2.431,0.556 6.398,0.847 6.75,-2.474c0.37,-3.495 -2.688,-2.472 -4.783,-3.331c-4.761,-1.952 -2.519,-8.121 -1,-11.556c2.207,-4.992 10.519,-15.983 4.82,-20.808" style="fill:#fff;fill-rule:nonzero;"/><path d="M94.584,270.783c0.31,1.766 1.249,6.099 3.827,4.917c2.949,-1.351 2.168,-7.321 2.649,-10.064c0.297,-1.688 1.022,-3.718 1.61,-5.346c1.101,-3.047 2.605,-5.789 3.717,-8.756c0.862,-2.3 5.574,-9.254 0.089,-8.971c-4.277,0.221 -7.465,6.881 -9.239,10.185c-1.904,0.183 -3.26,-0.149 -4.885,-1.081c-2.411,-1.383 -6.144,-6.668 -8.735,-2.755c-1.085,1.64 -0.198,3.221 -0.833,4.684c-4.559,5.053 -8.584,12.667 -14.577,16.125c-2.137,1.233 -5.43,2.436 -4.997,-1.398c2.218,-5.432 10.102,-14.971 9.937,-20.719c-0.079,-2.761 -3.542,-3.668 -5.503,-1.712c-2.031,2.027 -0.983,3.202 -1.616,5.34c-0.768,2.595 -4.504,7.777 -5.901,10.65c-2.063,4.247 -5.849,14.005 1.712,15.021c8.819,1.183 17.845,-10.249 22.322,-16.653c1.142,-1.634 2.259,-3.336 3.166,-5.113c2.402,1.588 5.258,2.62 8.151,2.64c-0.942,4.241 -1.654,8.672 -0.894,13.006" style="fill:#fff;fill-rule:nonzero;"/><path d="M294.235,245.793c2.124,-0.207 3.473,2.09 5.496,2.159c1.703,0.057 2.772,-1.337 3.163,-2.836c1.106,-4.237 -0.677,-7.958 -5.512,-7.192c-3.488,0.552 -9.303,4.917 -11.574,7.615c-3.713,4.411 -4.256,9.055 -2.152,14.391c1.115,2.826 6.062,9.646 1.309,11.391c-4.793,1.76 -5.644,-2.925 -8.627,-4.311c-2.688,-1.249 -3.359,1.439 -3.12,3.599c0.847,7.671 19.165,10.447 20.145,-1.204c0.536,-6.387 -5.157,-11.092 -5.016,-15.552c0.076,-2.381 3.327,-7.811 5.888,-8.06" style="fill:#fff;fill-rule:nonzero;"/><path d="M108.366,223.53c-3.399,0.702 -3.845,7.145 -2.198,9.524c1.224,1.766 3.742,2.336 5.728,1.682c3.116,-1.028 3.117,-5.997 2.369,-8.58c-0.666,-2.3 -3.79,-3.062 -5.899,-2.626" style="fill:#fff;fill-rule:nonzero;"/></svg>