<?xml version="1.0" encoding="UTF-8" standalone="no"?>
<!DOCTYPE svg PUBLIC "-//W3C//DTD SVG 1.1//EN" "http://www.w3.org/Graphics/SVG/1.1/DTD/svg11.dtd">
<svg width="100%" height="100%" viewBox="0 0 4500 8000" version="1.1" xmlns="http://www.w3.org/2000/svg" xmlns:xlink="http://www.w3.org/1999/xlink" xml:space="preserve" xmlns:serif="http://www.serif.com/" style="fill-rule:evenodd;clip-rule:evenodd;stroke-linejoin:round;stroke-miterlimit:2;">
    <g transform="matrix(1,0,0,1,-10125,0)">
        <g id="Página-3" serif:id="Página 3" transform="matrix(4.166667,0,0,4.166667,10125,0)">
            <rect x="0" y="0" width="1080" height="1920" style="fill:none;"/>
            <g transform="matrix(1,0,0,1,714.7041,1047.9056)">
                <g id="Layer-1" serif:id="Layer 1">
                    <path d="M0,-175.812C0,-269.638 -76.336,-345.978 -170.166,-345.978C-263.995,-345.978 -340.331,-269.638 -340.331,-175.812C-340.331,-109.085 -300.991,-48.193 -240.104,-20.692C-234.036,-17.949 -230.141,-11.908 -230.149,-5.251L-230.191,30.168L-110.183,30.168L-110.183,-5.274C-110.183,-11.923 -106.288,-17.957 -100.228,-20.692C-39.34,-48.193 0,-109.085 0,-175.812M-76.344,5.319L-76.344,30.35L-59.102,30.35C-49.759,30.35 -42.182,37.919 -42.182,47.266C-42.182,56.613 -49.759,64.181 -59.102,64.181L-281.23,64.181C-290.573,64.181 -298.149,56.613 -298.149,47.266C-298.149,37.919 -290.573,30.35 -281.23,30.35L-264.029,30.35L-263.999,5.312C-331.281,-29.591 -374.17,-99.517 -374.17,-175.812C-374.17,-288.301 -282.655,-379.809 -170.166,-379.809C-57.677,-379.809 33.839,-288.301 33.839,-175.812C33.839,-99.51 -9.054,-29.583 -76.344,5.319M-103.526,86.621L-236.806,86.621C-246.149,86.621 -253.725,94.19 -253.725,103.537C-253.725,112.884 -246.149,120.452 -236.806,120.452L-103.526,120.452C-94.183,120.452 -86.606,112.884 -86.606,103.537C-86.606,94.19 -94.183,86.621 -103.526,86.621M-250.805,-283.55C-276.397,-277.246 -292.032,-251.391 -285.728,-225.801C-279.425,-200.21 -253.571,-184.574 -227.979,-190.877C-202.39,-197.181 -186.753,-223.034 -193.056,-248.626C-199.359,-274.216 -225.213,-289.853 -250.805,-283.55M-130.179,142.892L-210.148,142.892C-219.491,142.892 -227.067,150.461 -227.067,159.808C-227.067,169.155 -219.491,176.723 -210.148,176.723L-187.079,176.723L-187.079,187.078C-187.079,196.421 -179.511,203.997 -170.164,203.997C-160.817,203.997 -153.248,196.421 -153.248,187.078L-153.248,176.723L-130.179,176.723C-120.836,176.723 -113.26,169.155 -113.26,159.808C-113.26,150.461 -120.836,142.892 -130.179,142.892M-382.571,-340.89C-385.624,-353.289 -378.049,-365.816 -365.65,-368.87C-353.25,-371.924 -340.723,-364.348 -337.67,-351.949C-334.617,-339.551 -342.191,-327.024 -354.591,-323.969C-366.989,-320.916 -379.516,-328.491 -382.571,-340.89" style="fill:white;fill-rule:nonzero;"/>
                </g>
            </g>
        </g>
    </g>
</svg>
