<?xml version="1.0" encoding="UTF-8" standalone="no"?>
<!DOCTYPE svg PUBLIC "-//W3C//DTD SVG 1.1//EN" "http://www.w3.org/Graphics/SVG/1.1/DTD/svg11.dtd">
<svg width="100%" height="100%" viewBox="0 0 4500 8000" version="1.1" xmlns="http://www.w3.org/2000/svg" xmlns:xlink="http://www.w3.org/1999/xlink" xml:space="preserve" xmlns:serif="http://www.serif.com/" style="fill-rule:evenodd;clip-rule:evenodd;stroke-linejoin:round;stroke-miterlimit:2;">
    <g id="Página-1" serif:id="Página 1" transform="matrix(4.166667,0,0,4.166667,0,0)">
        <rect x="0" y="0" width="1080" height="1920" style="fill:none;"/>
        <g transform="matrix(1,0,0,1,960.0923,1003.2857)">
            <g id="Layer-1" serif:id="Layer 1">
                <path d="M0,-86.571C0,-127.906 -33.63,-161.538 -74.967,-161.538C-116.304,-161.538 -149.934,-127.906 -149.934,-86.571C-149.934,-57.174 -132.603,-30.348 -105.779,-18.232C-103.105,-17.024 -101.39,-14.363 -101.393,-11.43L-101.411,4.174L-48.541,4.174L-48.541,-11.44C-48.541,-14.369 -46.826,-17.027 -44.156,-18.232C-17.332,-30.348 0,-57.174 0,-86.571M-33.634,-6.773L-33.634,4.255L-26.037,4.255C-21.921,4.255 -18.584,7.589 -18.584,11.707C-18.584,15.825 -21.921,19.159 -26.037,19.159L-123.897,19.159C-128.013,19.159 -131.351,15.825 -131.351,11.707C-131.351,7.589 -128.013,4.255 -123.897,4.255L-116.319,4.255L-116.306,-6.776C-145.947,-22.153 -164.842,-52.959 -164.842,-86.571C-164.842,-136.128 -124.525,-176.442 -74.967,-176.442C-25.41,-176.442 14.908,-136.128 14.908,-86.571C14.908,-52.956 -3.989,-22.149 -33.634,-6.773M-45.609,29.045L-104.326,29.045C-108.442,29.045 -111.779,32.379 -111.779,36.497C-111.779,40.615 -108.442,43.949 -104.326,43.949L-45.609,43.949C-41.493,43.949 -38.155,40.615 -38.155,36.497C-38.155,32.379 -41.493,29.045 -45.609,29.045M-110.493,-134.035C-121.768,-131.258 -128.656,-119.868 -125.879,-108.594C-123.102,-97.32 -111.712,-90.431 -100.437,-93.208C-89.163,-95.985 -82.275,-107.375 -85.052,-118.65C-87.828,-129.923 -99.219,-136.812 -110.493,-134.035M-57.351,53.835L-92.582,53.835C-96.698,53.835 -100.035,57.17 -100.035,61.288C-100.035,65.405 -96.698,68.74 -92.582,68.74L-82.418,68.74L-82.418,73.302C-82.418,77.418 -79.084,80.755 -74.966,80.755C-70.849,80.755 -67.514,77.418 -67.514,73.302L-67.514,68.74L-57.351,68.74C-53.235,68.74 -49.897,65.405 -49.897,61.288C-49.897,57.17 -53.235,53.835 -57.351,53.835M-168.543,-159.297C-169.888,-164.759 -166.551,-170.278 -161.088,-171.623C-155.625,-172.969 -150.107,-169.631 -148.762,-164.169C-147.417,-158.707 -150.754,-153.188 -156.216,-151.842C-161.678,-150.497 -167.197,-153.834 -168.543,-159.297M-282.865,8.988C-290.991,3.539 -297.538,-3.198 -302.507,-11.229C-304.42,-14.382 -304.945,-17.728 -304.085,-21.264C-303.225,-24.895 -301.267,-27.717 -298.207,-29.722C-295.052,-31.635 -291.66,-32.16 -288.027,-31.3C-284.396,-30.44 -281.624,-28.431 -279.712,-25.278C-276.843,-20.692 -273.023,-16.821 -268.242,-13.667C-262.89,-9.938 -257.488,-8.075 -252.04,-8.075C-245.639,-8.075 -240.191,-10.081 -235.696,-14.097C-231.109,-18.013 -228.814,-22.792 -228.814,-28.431C-228.814,-34.169 -230.678,-38.42 -234.406,-41.194C-237.657,-43.676 -244.778,-46.403 -255.768,-49.366C-269.629,-53.187 -279.665,-57.394 -285.876,-61.983C-296.772,-69.817 -302.221,-81.096 -302.221,-95.816C-302.221,-108.815 -297.299,-119.952 -287.453,-129.222C-277.704,-138.397 -265.9,-142.987 -252.04,-142.987C-242.101,-142.987 -232.926,-140.406 -224.514,-135.244C-216.197,-130.082 -210.082,-123.2 -206.162,-114.6C-204.537,-111.254 -204.395,-107.813 -205.731,-104.277C-206.974,-100.835 -209.317,-98.349 -212.758,-96.822C-216.104,-95.291 -219.496,-95.149 -222.936,-96.392C-226.377,-97.631 -228.91,-99.975 -230.534,-103.416C-232.255,-107.237 -235.076,-110.346 -238.994,-112.734C-242.914,-115.03 -247.263,-116.175 -252.04,-116.175C-258.445,-116.175 -263.941,-114.17 -268.528,-110.153C-273.023,-106.234 -275.267,-101.455 -275.267,-95.816C-275.267,-90.177 -273.499,-86.017 -269.963,-83.345C-266.714,-81.052 -259.592,-78.373 -248.599,-75.314C-234.646,-71.396 -224.563,-67.189 -218.348,-62.698C-207.452,-54.67 -202.004,-43.246 -202.004,-28.431C-202.004,-15.432 -206.878,-4.299 -216.627,4.971C-226.473,14.147 -238.277,18.736 -252.04,18.736C-262.843,18.736 -273.116,15.488 -282.865,8.988M-314.63,-135.674C-313.578,-133.669 -313.052,-131.61 -313.052,-129.51C-313.052,-128.169 -313.292,-126.787 -313.77,-125.351L-357.211,9.561C-359.218,15.678 -363.472,18.736 -369.97,18.736C-376.472,18.736 -380.724,15.678 -382.731,9.561L-413.556,-85.78L-444.237,9.561C-446.244,15.678 -450.498,18.736 -456.998,18.736C-463.497,18.736 -467.75,15.678 -469.757,9.561L-513.198,-125.351C-513.678,-126.787 -513.915,-128.169 -513.915,-129.51C-513.915,-131.61 -513.391,-133.669 -512.338,-135.674C-510.714,-138.922 -508.133,-141.124 -504.597,-142.269C-503.163,-142.746 -501.779,-142.987 -500.438,-142.987C-498.338,-142.987 -496.28,-142.462 -494.273,-141.408C-491.025,-139.783 -488.825,-137.202 -487.679,-133.669L-456.998,-38.325L-426.315,-133.669C-424.308,-139.881 -420.057,-142.987 -413.556,-142.987C-406.96,-142.987 -402.709,-139.881 -400.795,-133.669L-369.97,-38.325L-339.289,-133.669C-338.143,-137.202 -335.944,-139.783 -332.695,-141.408C-330.686,-142.462 -328.633,-142.987 -326.529,-142.987C-325.192,-142.987 -323.805,-142.746 -322.371,-142.269C-318.837,-141.124 -316.256,-138.922 -314.63,-135.674M-550.564,-84.288C-555.635,-95.428 -563.588,-103.927 -574.422,-109.783C-585.558,-115.678 -597.289,-117.541 -609.619,-115.367C-622.044,-113.176 -632.479,-107.405 -640.925,-98.057C-649.105,-88.848 -653.671,-78.142 -654.623,-65.94L-550.564,-84.288ZM-647.059,4.208C-655.695,-1.842 -662.869,-9.214 -668.575,-17.913C-674.554,-27.049 -678.489,-36.983 -680.382,-47.713C-684.266,-69.741 -679.773,-89.944 -666.901,-108.324C-660.761,-116.976 -653.246,-124.172 -644.358,-129.914C-635.222,-135.893 -625.195,-139.845 -614.275,-141.771C-592.248,-145.655 -571.999,-141.167 -553.522,-128.315C-544.886,-122.268 -537.699,-114.8 -531.958,-105.914C-525.979,-96.778 -522.035,-86.794 -520.127,-75.97C-519.48,-72.301 -520.203,-68.972 -522.296,-65.982C-524.468,-62.879 -527.388,-61.005 -531.059,-60.358L-649.943,-39.396C-644.907,-28.442 -636.932,-20.095 -626.019,-14.353C-614.998,-8.53 -603.272,-6.718 -590.848,-8.909C-571.269,-12.361 -557.216,-20.999 -548.686,-34.833C-546.815,-37.976 -544.059,-39.965 -540.422,-40.802C-536.784,-41.636 -533.394,-41.116 -530.247,-39.246C-527.087,-37.279 -525.09,-34.478 -524.253,-30.842C-523.434,-27.296 -524.008,-23.945 -525.974,-20.785C-538.633,-0.111 -558.708,12.649 -586.192,17.495C-608.313,21.396 -628.602,16.967 -647.059,4.208M-777.067,-143.417C-756.615,-143.417 -739.124,-135.481 -724.594,-119.616C-710.065,-103.846 -702.8,-84.778 -702.8,-62.413L-702.8,5.402C-702.8,9.036 -704.141,12.189 -706.815,14.865C-709.396,17.446 -712.55,18.736 -716.277,18.736C-720.006,18.736 -723.159,17.446 -725.74,14.865C-728.321,12.189 -729.612,9.036 -729.612,5.402L-729.612,-62.413C-729.612,-77.323 -734.248,-90.082 -743.519,-100.693C-752.887,-111.206 -764.069,-116.463 -777.067,-116.463C-790.258,-116.463 -801.489,-111.206 -810.759,-100.693C-820.031,-90.082 -824.666,-77.323 -824.666,-62.413L-824.666,4.971C-824.666,8.7 -825.957,11.854 -828.538,14.435C-831.215,17.016 -834.368,18.306 -837.999,18.306C-841.728,18.306 -844.931,17.016 -847.607,14.435C-850.187,11.854 -851.476,8.7 -851.476,4.971L-851.476,-129.94C-851.476,-133.669 -850.187,-136.822 -847.607,-139.403C-844.931,-142.076 -841.728,-143.417 -837.999,-143.417C-834.368,-143.417 -831.215,-142.076 -828.538,-139.403C-825.957,-136.822 -824.666,-133.669 -824.666,-129.94L-824.666,-124.636C-810.903,-137.154 -795.038,-143.417 -777.067,-143.417M-176.548,79.864C-177.802,79.022 -178.814,77.982 -179.581,76.742C-179.877,76.255 -179.958,75.738 -179.825,75.192C-179.692,74.631 -179.39,74.196 -178.917,73.885C-178.43,73.591 -177.906,73.509 -177.345,73.642C-176.784,73.775 -176.356,74.085 -176.061,74.572C-175.618,75.281 -175.028,75.878 -174.29,76.365C-173.464,76.941 -172.629,77.229 -171.787,77.229C-170.799,77.229 -169.958,76.919 -169.264,76.299C-168.556,75.694 -168.201,74.956 -168.201,74.085C-168.201,73.199 -168.489,72.543 -169.064,72.114C-169.567,71.731 -170.666,71.31 -172.364,70.853C-174.503,70.262 -176.054,69.613 -177.013,68.904C-178.695,67.695 -179.537,65.952 -179.537,63.68C-179.537,61.673 -178.777,59.953 -177.256,58.521C-175.75,57.104 -173.928,56.395 -171.787,56.395C-170.253,56.395 -168.836,56.793 -167.537,57.591C-166.253,58.388 -165.309,59.45 -164.703,60.779C-164.452,61.296 -164.43,61.827 -164.637,62.373C-164.829,62.904 -165.19,63.288 -165.721,63.524C-166.238,63.76 -166.762,63.783 -167.293,63.591C-167.825,63.399 -168.216,63.037 -168.467,62.506C-168.732,61.916 -169.168,61.436 -169.773,61.067C-170.379,60.713 -171.05,60.536 -171.787,60.536C-172.777,60.536 -173.626,60.845 -174.334,61.465C-175.028,62.071 -175.375,62.808 -175.375,63.68C-175.375,64.55 -175.102,65.192 -174.555,65.605C-174.054,65.959 -172.954,66.373 -171.256,66.845C-169.101,67.451 -167.545,68.1 -166.585,68.794C-164.902,70.034 -164.061,71.798 -164.061,74.085C-164.061,76.093 -164.813,77.812 -166.319,79.244C-167.84,80.66 -169.662,81.369 -171.787,81.369C-173.456,81.369 -175.043,80.868 -176.548,79.864M-200.826,66.845C-201.299,65.016 -202.279,63.51 -203.771,62.328C-205.306,61.133 -207.04,60.536 -208.973,60.536C-210.921,60.536 -212.664,61.133 -214.198,62.328C-215.689,63.51 -216.671,65.016 -217.143,66.845L-200.826,66.845ZM-217.874,77.716C-219.025,76.564 -219.918,75.251 -220.553,73.775C-221.217,72.226 -221.549,70.609 -221.549,68.926C-221.549,65.472 -220.324,62.52 -217.874,60.07C-216.707,58.919 -215.371,58.026 -213.866,57.392C-212.316,56.727 -210.685,56.395 -208.973,56.395C-205.519,56.395 -202.56,57.621 -200.096,60.07C-198.943,61.222 -198.051,62.55 -197.416,64.056C-196.752,65.605 -196.42,67.229 -196.42,68.926C-196.42,69.502 -196.619,69.989 -197.018,70.388C-197.431,70.801 -197.925,71.007 -198.501,71.007L-217.143,71.007C-216.671,72.809 -215.682,74.292 -214.176,75.457C-212.656,76.639 -210.921,77.229 -208.973,77.229C-205.903,77.229 -203.535,76.292 -201.867,74.417C-201.498,73.989 -201.025,73.761 -200.449,73.731C-199.874,73.701 -199.372,73.871 -198.943,74.24C-198.516,74.624 -198.288,75.104 -198.257,75.679C-198.228,76.241 -198.405,76.735 -198.789,77.163C-201.268,79.967 -204.663,81.369 -208.973,81.369C-212.442,81.369 -215.409,80.152 -217.874,77.716M-238.177,56.395C-237.602,56.395 -237.115,56.602 -236.716,57.015C-236.318,57.413 -236.118,57.901 -236.118,58.477C-236.118,59.052 -236.318,59.539 -236.716,59.937C-237.115,60.351 -237.602,60.557 -238.177,60.557L-241.41,60.557L-241.41,79.31C-241.41,79.886 -241.609,80.373 -242.007,80.772C-242.406,81.17 -242.893,81.369 -243.469,81.369C-244.045,81.369 -244.531,81.17 -244.93,80.772C-245.343,80.373 -245.55,79.886 -245.55,79.31L-245.55,60.557L-248.76,60.557C-249.336,60.557 -249.831,60.351 -250.244,59.937C-250.642,59.539 -250.841,59.052 -250.841,58.477C-250.841,57.901 -250.642,57.413 -250.244,57.015C-249.831,56.602 -249.336,56.395 -248.76,56.395L-245.55,56.395L-245.55,50.019C-245.55,49.443 -245.343,48.956 -244.93,48.558C-244.531,48.144 -244.045,47.938 -243.469,47.938C-242.893,47.938 -242.406,48.144 -242.007,48.558C-241.609,48.956 -241.41,49.443 -241.41,50.019L-241.41,56.395L-238.177,56.395ZM-278.113,56.329C-274.954,56.329 -272.253,57.554 -270.009,60.004C-267.766,62.44 -266.644,65.384 -266.644,68.838L-266.644,79.31C-266.644,79.871 -266.851,80.358 -267.264,80.772C-267.662,81.17 -268.149,81.369 -268.725,81.369C-269.3,81.369 -269.788,81.17 -270.186,80.772C-270.585,80.358 -270.784,79.871 -270.784,79.31L-270.784,68.838C-270.784,66.535 -271.5,64.565 -272.931,62.927C-274.379,61.303 -276.106,60.491 -278.113,60.491C-280.149,60.491 -281.884,61.303 -283.316,62.927C-284.747,64.565 -285.463,66.535 -285.463,68.838L-285.463,79.244C-285.463,79.82 -285.662,80.307 -286.06,80.705C-286.474,81.103 -286.961,81.303 -287.522,81.303C-288.098,81.303 -288.592,81.103 -289.005,80.705C-289.404,80.307 -289.603,79.82 -289.603,79.244L-289.603,58.41C-289.603,57.834 -289.404,57.347 -289.005,56.949C-288.592,56.536 -288.098,56.329 -287.522,56.329C-286.961,56.329 -286.474,56.536 -286.06,56.949C-285.662,57.347 -285.463,57.834 -285.463,58.41L-285.463,59.229C-283.337,57.296 -280.888,56.329 -278.113,56.329M-312.134,66.845C-312.607,65.016 -313.588,63.51 -315.079,62.328C-316.614,61.133 -318.348,60.536 -320.282,60.536C-322.23,60.536 -323.972,61.133 -325.506,62.328C-326.998,63.51 -327.979,65.016 -328.451,66.845L-312.134,66.845ZM-329.182,77.716C-330.333,76.564 -331.226,75.251 -331.861,73.775C-332.525,72.226 -332.857,70.609 -332.857,68.926C-332.857,65.472 -331.633,62.52 -329.182,60.07C-328.016,58.919 -326.68,58.026 -325.174,57.392C-323.625,56.727 -321.994,56.395 -320.282,56.395C-316.828,56.395 -313.869,57.621 -311.404,60.07C-310.252,61.222 -309.359,62.55 -308.725,64.056C-308.06,65.605 -307.728,67.229 -307.728,68.926C-307.728,69.502 -307.927,69.989 -308.327,70.388C-308.739,70.801 -309.234,71.007 -309.81,71.007L-328.451,71.007C-327.979,72.809 -326.99,74.292 -325.485,75.457C-323.965,76.639 -322.23,77.229 -320.282,77.229C-317.212,77.229 -314.843,76.292 -313.175,74.417C-312.806,73.989 -312.333,73.761 -311.757,73.731C-311.182,73.701 -310.681,73.871 -310.252,74.24C-309.824,74.624 -309.596,75.104 -309.566,75.679C-309.537,76.241 -309.714,76.735 -310.098,77.163C-312.577,79.967 -315.972,81.369 -320.282,81.369C-323.751,81.369 -326.718,80.152 -329.182,77.716M-363.473,75.901C-361.23,75.901 -359.319,75.148 -357.739,73.642C-356.144,72.152 -355.348,70.351 -355.348,68.24C-355.348,66.13 -356.144,64.329 -357.739,62.838C-359.319,61.332 -361.23,60.58 -363.473,60.58C-365.717,60.58 -367.635,61.332 -369.229,62.838C-370.824,64.329 -371.621,66.13 -371.621,68.24C-371.621,70.351 -370.824,72.152 -369.229,73.642C-367.635,75.148 -365.717,75.901 -363.473,75.901M-353.289,56.439C-352.714,56.439 -352.219,56.639 -351.806,57.038C-351.407,57.45 -351.208,57.945 -351.208,58.521L-351.208,77.516C-351.222,79.2 -351.554,80.801 -352.204,82.321C-352.838,83.797 -353.725,85.11 -354.861,86.262C-355.983,87.398 -357.274,88.277 -358.735,88.897C-360.24,89.546 -361.82,89.871 -363.473,89.871C-367.104,89.871 -370.337,88.86 -373.17,86.838C-373.628,86.498 -373.908,86.048 -374.012,85.487C-374.1,84.926 -373.975,84.41 -373.636,83.937C-373.311,83.479 -372.868,83.199 -372.307,83.096C-371.731,83.007 -371.215,83.133 -370.757,83.472C-368.646,84.978 -366.218,85.73 -363.473,85.73C-361.23,85.73 -359.319,84.911 -357.739,83.273C-356.144,81.649 -355.348,79.687 -355.348,77.384L-355.348,77.074C-357.68,79.052 -360.388,80.04 -363.473,80.04C-365.141,80.04 -366.735,79.731 -368.255,79.111C-369.732,78.52 -371.03,77.68 -372.152,76.587C-373.288,75.495 -374.167,74.24 -374.787,72.823C-375.436,71.362 -375.761,69.834 -375.761,68.24C-375.761,66.646 -375.436,65.119 -374.787,63.657C-374.167,62.24 -373.288,60.986 -372.152,59.893C-371.03,58.801 -369.732,57.96 -368.255,57.369C-366.735,56.749 -365.141,56.439 -363.473,56.439C-360.388,56.439 -357.68,57.429 -355.348,59.406L-355.348,58.521C-355.348,57.945 -355.149,57.45 -354.75,57.038C-354.337,56.639 -353.85,56.439 -353.289,56.439M-396.432,56.395C-395.857,56.395 -395.37,56.602 -394.971,57.015C-394.558,57.413 -394.351,57.901 -394.351,58.477L-394.351,79.31C-394.351,79.886 -394.558,80.373 -394.971,80.772C-395.37,81.17 -395.857,81.369 -396.432,81.369C-397.008,81.369 -397.495,81.17 -397.894,80.772C-398.307,80.373 -398.514,79.886 -398.514,79.31L-398.514,58.477C-398.514,57.901 -398.307,57.413 -397.894,57.015C-397.495,56.602 -397.008,56.395 -396.432,56.395M-396.432,47.982C-395.99,47.982 -395.557,48.097 -395.137,48.326C-394.717,48.554 -394.385,48.883 -394.141,49.311C-393.897,49.739 -393.775,50.182 -393.775,50.639C-393.775,51.096 -393.894,51.536 -394.13,51.957C-394.366,52.376 -394.694,52.706 -395.115,52.942C-395.536,53.178 -395.975,53.295 -396.432,53.295C-396.89,53.295 -397.329,53.178 -397.749,52.942C-398.17,52.706 -398.499,52.376 -398.735,51.957C-398.971,51.536 -399.089,51.096 -399.089,50.639C-399.089,50.182 -398.971,49.739 -398.735,49.311C-398.499,48.883 -398.166,48.554 -397.738,48.326C-397.31,48.097 -396.875,47.982 -396.432,47.982M-420.722,47.938C-420.162,47.938 -419.674,48.144 -419.262,48.558C-418.863,48.956 -418.664,49.443 -418.664,50.019L-418.664,79.31C-418.664,79.886 -418.863,80.373 -419.262,80.772C-419.674,81.17 -420.162,81.369 -420.722,81.369C-421.298,81.369 -421.793,81.17 -422.206,80.772C-422.604,80.373 -422.803,79.886 -422.803,79.31L-422.803,50.019C-422.803,49.443 -422.604,48.956 -422.206,48.558C-421.793,48.144 -421.298,47.938 -420.722,47.938M-445.537,66.845C-446.01,65.016 -446.991,63.51 -448.482,62.328C-450.017,61.133 -451.751,60.536 -453.685,60.536C-455.633,60.536 -457.375,61.133 -458.91,62.328C-460.4,63.51 -461.382,65.016 -461.854,66.845L-445.537,66.845ZM-462.585,77.716C-463.736,76.564 -464.629,75.251 -465.264,73.775C-465.928,72.226 -466.26,70.609 -466.26,68.926C-466.26,65.472 -465.035,62.52 -462.585,60.07C-461.419,58.919 -460.083,58.026 -458.578,57.392C-457.028,56.727 -455.397,56.395 -453.685,56.395C-450.231,56.395 -447.271,57.621 -444.806,60.07C-443.655,61.222 -442.762,62.55 -442.128,64.056C-441.463,65.605 -441.131,67.229 -441.131,68.926C-441.131,69.502 -441.331,69.989 -441.729,70.388C-442.143,70.801 -442.637,71.007 -443.212,71.007L-461.854,71.007C-461.382,72.809 -460.393,74.292 -458.887,75.457C-457.367,76.639 -455.633,77.229 -453.685,77.229C-450.615,77.229 -448.246,76.292 -446.577,74.417C-446.209,73.989 -445.736,73.761 -445.161,73.731C-444.585,73.701 -444.084,73.871 -443.655,74.24C-443.227,74.624 -442.998,75.104 -442.969,75.679C-442.939,76.241 -443.116,76.735 -443.5,77.163C-445.98,79.967 -449.375,81.369 -453.685,81.369C-457.153,81.369 -460.12,80.152 -462.585,77.716M-482.889,56.395C-482.313,56.395 -481.826,56.602 -481.427,57.015C-481.029,57.413 -480.829,57.901 -480.829,58.477C-480.829,59.052 -481.029,59.539 -481.427,59.937C-481.826,60.351 -482.313,60.557 -482.889,60.557L-486.121,60.557L-486.121,79.31C-486.121,79.886 -486.32,80.373 -486.719,80.772C-487.117,81.17 -487.604,81.369 -488.18,81.369C-488.755,81.369 -489.243,81.17 -489.641,80.772C-490.055,80.373 -490.261,79.886 -490.261,79.31L-490.261,60.557L-493.471,60.557C-494.047,60.557 -494.542,60.351 -494.955,59.937C-495.353,59.539 -495.552,59.052 -495.552,58.477C-495.552,57.901 -495.353,57.413 -494.955,57.015C-494.542,56.602 -494.047,56.395 -493.471,56.395L-490.261,56.395L-490.261,50.019C-490.261,49.443 -490.055,48.956 -489.641,48.558C-489.243,48.144 -488.755,47.938 -488.18,47.938C-487.604,47.938 -487.117,48.144 -486.719,48.558C-486.32,48.956 -486.121,49.443 -486.121,50.019L-486.121,56.395L-482.889,56.395ZM-522.824,56.329C-519.666,56.329 -516.965,57.554 -514.721,60.004C-512.477,62.44 -511.356,65.384 -511.356,68.838L-511.356,79.31C-511.356,79.871 -511.563,80.358 -511.975,80.772C-512.374,81.17 -512.861,81.369 -513.437,81.369C-514.013,81.369 -514.5,81.17 -514.898,80.772C-515.296,80.358 -515.496,79.871 -515.496,79.31L-515.496,68.838C-515.496,66.535 -516.212,64.565 -517.644,62.927C-519.09,61.303 -520.817,60.491 -522.824,60.491C-524.861,60.491 -526.596,61.303 -528.027,62.927C-529.459,64.565 -530.174,66.535 -530.174,68.838L-530.174,79.244C-530.174,79.82 -530.374,80.307 -530.772,80.705C-531.186,81.103 -531.673,81.303 -532.234,81.303C-532.809,81.303 -533.304,81.103 -533.717,80.705C-534.116,80.307 -534.315,79.82 -534.315,79.244L-534.315,58.41C-534.315,57.834 -534.116,57.347 -533.717,56.949C-533.304,56.536 -532.809,56.329 -532.234,56.329C-531.673,56.329 -531.186,56.536 -530.772,56.949C-530.374,57.347 -530.174,57.834 -530.174,58.41L-530.174,59.229C-528.049,57.296 -525.599,56.329 -522.824,56.329M-556.353,56.395C-555.777,56.395 -555.29,56.602 -554.891,57.015C-554.478,57.413 -554.271,57.901 -554.271,58.477L-554.271,79.31C-554.271,79.886 -554.478,80.373 -554.891,80.772C-555.29,81.17 -555.777,81.369 -556.353,81.369C-556.929,81.369 -557.415,81.17 -557.814,80.772C-558.227,80.373 -558.434,79.886 -558.434,79.31L-558.434,58.477C-558.434,57.901 -558.227,57.413 -557.814,57.015C-557.415,56.602 -556.929,56.395 -556.353,56.395M-556.353,47.982C-555.91,47.982 -555.478,48.097 -555.057,48.326C-554.637,48.554 -554.305,48.883 -554.061,49.311C-553.818,49.739 -553.696,50.182 -553.696,50.639C-553.696,51.096 -553.814,51.536 -554.05,51.957C-554.286,52.376 -554.615,52.706 -555.035,52.942C-555.456,53.178 -555.895,53.295 -556.353,53.295C-556.811,53.295 -557.249,53.178 -557.67,52.942C-558.091,52.706 -558.419,52.376 -558.655,51.957C-558.892,51.536 -559.01,51.096 -559.01,50.639C-559.01,50.182 -558.892,49.739 -558.655,49.311C-558.419,48.883 -558.087,48.554 -557.659,48.326C-557.231,48.097 -556.795,47.982 -556.353,47.982M-622.298,79.864C-623.552,79.022 -624.564,77.982 -625.331,76.742C-625.626,76.255 -625.707,75.738 -625.574,75.192C-625.442,74.631 -625.139,74.196 -624.667,73.885C-624.18,73.591 -623.656,73.509 -623.095,73.642C-622.534,73.775 -622.106,74.085 -621.811,74.572C-621.368,75.281 -620.777,75.878 -620.04,76.365C-619.213,76.941 -618.379,77.229 -617.538,77.229C-616.549,77.229 -615.707,76.919 -615.014,76.299C-614.305,75.694 -613.951,74.956 -613.951,74.085C-613.951,73.199 -614.239,72.543 -614.814,72.114C-615.316,71.731 -616.416,71.31 -618.113,70.853C-620.254,70.262 -621.803,69.613 -622.763,68.904C-624.445,67.695 -625.286,65.952 -625.286,63.68C-625.286,61.673 -624.526,59.953 -623.006,58.521C-621.501,57.104 -619.678,56.395 -617.538,56.395C-616.003,56.395 -614.586,56.793 -613.287,57.591C-612.003,58.388 -611.058,59.45 -610.453,60.779C-610.202,61.296 -610.18,61.827 -610.386,62.373C-610.578,62.904 -610.94,63.288 -611.471,63.524C-611.988,63.76 -612.512,63.783 -613.043,63.591C-613.575,63.399 -613.966,63.037 -614.217,62.506C-614.482,61.916 -614.918,61.436 -615.523,61.067C-616.128,60.713 -616.8,60.536 -617.538,60.536C-618.526,60.536 -619.375,60.845 -620.083,61.465C-620.777,62.071 -621.124,62.808 -621.124,63.68C-621.124,64.55 -620.851,65.192 -620.305,65.605C-619.804,65.959 -618.704,66.373 -617.006,66.845C-614.851,67.451 -613.294,68.1 -612.335,68.794C-610.652,70.034 -609.811,71.798 -609.811,74.085C-609.811,76.093 -610.564,77.812 -612.069,79.244C-613.589,80.66 -615.412,81.369 -617.538,81.369C-619.206,81.369 -620.792,80.868 -622.298,79.864M-654.593,77.229C-652.35,77.229 -650.431,76.417 -648.837,74.793C-647.243,73.155 -646.445,71.192 -646.445,68.904C-646.445,66.602 -647.243,64.632 -648.837,62.993C-650.431,61.369 -652.35,60.557 -654.593,60.557C-656.837,60.557 -658.755,61.369 -660.35,62.993C-661.943,64.632 -662.741,66.602 -662.741,68.904C-662.741,71.192 -661.943,73.155 -660.35,74.793C-658.755,76.417 -656.837,77.229 -654.593,77.229M-654.593,56.395C-651.213,56.395 -648.32,57.621 -645.914,60.07C-643.508,62.506 -642.305,65.451 -642.305,68.904C-642.305,72.344 -643.508,75.281 -645.914,77.716C-648.32,80.152 -651.213,81.369 -654.593,81.369C-657.988,81.369 -660.881,80.152 -663.272,77.716C-665.678,75.281 -666.881,72.344 -666.881,68.904C-666.881,65.451 -665.678,62.506 -663.272,60.07C-660.881,57.621 -657.988,56.395 -654.593,56.395M-683.509,56.395C-682.934,56.395 -682.447,56.602 -682.048,57.015C-681.649,57.413 -681.45,57.901 -681.45,58.477C-681.45,59.052 -681.649,59.539 -682.048,59.937C-682.447,60.351 -682.934,60.557 -683.509,60.557L-686.742,60.557L-686.742,79.31C-686.742,79.886 -686.941,80.373 -687.34,80.772C-687.738,81.17 -688.225,81.369 -688.801,81.369C-689.376,81.369 -689.863,81.17 -690.262,80.772C-690.675,80.373 -690.882,79.886 -690.882,79.31L-690.882,60.557L-694.092,60.557C-694.668,60.557 -695.162,60.351 -695.576,59.937C-695.974,59.539 -696.173,59.052 -696.173,58.477C-696.173,57.901 -695.974,57.413 -695.576,57.015C-695.162,56.602 -694.668,56.395 -694.092,56.395L-690.882,56.395L-690.882,50.019C-690.882,49.443 -690.675,48.956 -690.262,48.558C-689.863,48.144 -689.376,47.938 -688.801,47.938C-688.225,47.938 -687.738,48.144 -687.34,48.558C-686.941,48.956 -686.742,49.443 -686.742,50.019L-686.742,56.395L-683.509,56.395ZM-723.445,56.329C-720.287,56.329 -717.586,57.554 -715.342,60.004C-713.098,62.44 -711.977,65.384 -711.977,68.838L-711.977,79.31C-711.977,79.871 -712.183,80.358 -712.596,80.772C-712.995,81.17 -713.482,81.369 -714.058,81.369C-714.633,81.369 -715.12,81.17 -715.519,80.772C-715.917,80.358 -716.116,79.871 -716.116,79.31L-716.116,68.838C-716.116,66.535 -716.833,64.565 -718.264,62.927C-719.711,61.303 -721.438,60.491 -723.445,60.491C-725.482,60.491 -727.216,61.303 -728.648,62.927C-730.08,64.565 -730.795,66.535 -730.795,68.838L-730.795,79.244C-730.795,79.82 -730.995,80.307 -731.393,80.705C-731.806,81.103 -732.294,81.303 -732.854,81.303C-733.43,81.303 -733.925,81.103 -734.338,80.705C-734.736,80.307 -734.935,79.82 -734.935,79.244L-734.935,58.41C-734.935,57.834 -734.736,57.347 -734.338,56.949C-733.925,56.536 -733.43,56.329 -732.854,56.329C-732.294,56.329 -731.806,56.536 -731.393,56.949C-730.995,57.347 -730.795,57.834 -730.795,58.41L-730.795,59.229C-728.67,57.296 -726.22,56.329 -723.445,56.329M-757.467,66.845C-757.939,65.016 -758.921,63.51 -760.411,62.328C-761.947,61.133 -763.681,60.536 -765.614,60.536C-767.563,60.536 -769.304,61.133 -770.839,62.328C-772.33,63.51 -773.312,65.016 -773.784,66.845L-757.467,66.845ZM-774.514,77.716C-775.666,76.564 -776.559,75.251 -777.193,73.775C-777.858,72.226 -778.19,70.609 -778.19,68.926C-778.19,65.472 -776.965,62.52 -774.514,60.07C-773.349,58.919 -772.013,58.026 -770.507,57.392C-768.957,56.727 -767.327,56.395 -765.614,56.395C-762.161,56.395 -759.201,57.621 -756.736,60.07C-755.585,61.222 -754.692,62.55 -754.057,64.056C-753.393,65.605 -753.061,67.229 -753.061,68.926C-753.061,69.502 -753.26,69.989 -753.659,70.388C-754.072,70.801 -754.567,71.007 -755.142,71.007L-773.784,71.007C-773.312,72.809 -772.322,74.292 -770.817,75.457C-769.297,76.639 -767.563,77.229 -765.614,77.229C-762.545,77.229 -760.175,76.292 -758.507,74.417C-758.138,73.989 -757.666,73.761 -757.09,73.731C-756.515,73.701 -756.013,73.871 -755.585,74.24C-755.157,74.624 -754.928,75.104 -754.899,75.679C-754.869,76.241 -755.046,76.735 -755.43,77.163C-757.91,79.967 -761.305,81.369 -765.614,81.369C-769.083,81.369 -772.05,80.152 -774.514,77.716M-793.29,57.701C-793.187,57.953 -793.135,58.211 -793.135,58.477C-793.135,58.742 -793.194,59.015 -793.312,59.296L-802.168,80.129C-802.522,80.956 -803.157,81.369 -804.072,81.369C-804.987,81.369 -805.622,80.956 -805.976,80.129L-814.854,59.296C-814.972,59.015 -815.031,58.742 -815.031,58.477C-815.031,58.211 -814.98,57.953 -814.876,57.701C-814.655,57.17 -814.278,56.793 -813.747,56.573C-813.482,56.454 -813.216,56.395 -812.95,56.395C-812.685,56.395 -812.427,56.447 -812.175,56.55C-811.644,56.772 -811.268,57.141 -811.046,57.657L-804.072,74.018L-797.12,57.657C-796.899,57.141 -796.523,56.772 -795.991,56.55C-795.74,56.447 -795.482,56.395 -795.216,56.395C-794.951,56.395 -794.677,56.454 -794.397,56.573C-793.865,56.793 -793.497,57.17 -793.29,57.701M-834.369,66.845C-834.842,65.016 -835.823,63.51 -837.314,62.328C-838.849,61.133 -840.583,60.536 -842.517,60.536C-844.465,60.536 -846.207,61.133 -847.742,62.328C-849.233,63.51 -850.214,65.016 -850.687,66.845L-834.369,66.845ZM-851.417,77.716C-852.568,76.564 -853.462,75.251 -854.096,73.775C-854.76,72.226 -855.092,70.609 -855.092,68.926C-855.092,65.472 -853.867,62.52 -851.417,60.07C-850.251,58.919 -848.915,58.026 -847.41,57.392C-845.86,56.727 -844.229,56.395 -842.517,56.395C-839.063,56.395 -836.104,57.621 -833.639,60.07C-832.487,61.222 -831.595,62.55 -830.96,64.056C-830.296,65.605 -829.964,67.229 -829.964,68.926C-829.964,69.502 -830.163,69.989 -830.561,70.388C-830.975,70.801 -831.469,71.007 -832.045,71.007L-850.687,71.007C-850.214,72.809 -849.225,74.292 -847.719,75.457C-846.2,76.639 -844.465,77.229 -842.517,77.229C-839.447,77.229 -837.078,76.292 -835.41,74.417C-835.041,73.989 -834.568,73.761 -833.993,73.731C-833.417,73.701 -832.916,73.871 -832.487,74.24C-832.059,74.624 -831.831,75.104 -831.801,75.679C-831.771,76.241 -831.949,76.735 -832.332,77.163C-834.812,79.967 -838.207,81.369 -842.517,81.369C-845.986,81.369 -848.952,80.152 -851.417,77.716" style="fill:white;fill-rule:nonzero;"/>
            </g>
        </g>
    </g>
</svg>
